<svg width="250" height="181" viewBox="0 0 326 236" xmlns="http://www.w3.org/2000/svg"><g fill="#fff"><path d="M0 0h326v236H0V0m25.17 30.05c-2.77 6.97-2.42 14.59-2.35 21.94.01 50.99 0 101.98.01 152.96.07 3.49.56 7.35 3.23 9.89 4.54 4.91 11.51 6.39 17.95 6.33 25.33.02 50.66 0 75.99.03 1.64.04 3.17-.56 4.68-1.1 4.31 4.54 9.56 8.01 14.63 11.61 2.38 1.47 4.72 3.63 7.73 3.28 6.64-.1 13.31.24 19.93-.19 6.64-2.49 12.61-7.46 15.53-14.02 5.81.71 11.67.34 17.5.39 24.99.04 49.97 0 74.95.01 5.98-.06 12.13.44 17.92-1.38 4.4-1.28 8.44-4.29 10.49-8.42 1.26-4.35.74-8.97.85-13.44-.05-51.63-.04-103.26-.02-154.9-.08-3.62-.52-7.25-1.63-10.71-.26-1.47-1.41-2.35-2.75-2.82-.06-.41-.17-1.25-.23-1.67-1.19 6.33-.45 12.79-.81 19.18-.04 47.67-.03 95.35-.02 143.03-.06 5.27.26 10.58-.3 15.83-1.58.12-3.28-.24-4.76.46-8.22-.81-16.5-.7-24.74-.37-27.84-.43-55.7-.18-83.54-.18 1.51-6.49 2.45-13.12 2.1-19.79-.32-5.7 1.18-12.17-2.4-17.14-2.83-3.36-8.09-3.72-11.3-.66-1.21-3.17-1.04-7.86-4.91-9.1-4.22-1.93-9.12-.53-12.28 2.7-.33-3.38-1.09-7.35-4.4-9.09-4.99-2.32-11.61-.5-14.48 4.31.08-10.01-.52-20.02-.49-30.03-.06-3.05-.26-6.45-2.45-8.81-4.4-4.44-14.22-2.07-14.22 4.88.66 15.59 1.69 31.18 2.46 46.77l-2.63-.72c-.58-2.09 1.03-3.66 1.82-5.41-.93.99-1.8 2.03-2.69 3.06.31 2.25 1.98 3.68 3.6 5.07.38 2.44.22 4.93-.22 7.36-2.52-2.1-4.11-4.99-5.48-7.91l2.12-.68-2.5-.08c-.35-1.68-.71-3.33-1.06-5 1.08-.43 2.16-.88 3.24-1.33-.91-.01-2.73-.02-3.64-.03-.72-3.49-.83-7.61-3.66-10.17-2.39-2.02-5.69-.47-7.84 1.12-3.59 2.17-2.39 7.08-2.37 10.55.23.16.69.49.92.65-.08 2.19.27 4.36.77 6.48 2.67 11.78 6.33 23.41 11.65 34.27-1.26-1.49-3.35-1.26-5.09-1.35-12.64.06-25.28-.06-37.92.32-12.66-.37-25.32-.42-37.98.1-1.82-.12-3.65-.19-5.48-.24-.31-1.94-.29-3.93-.34-5.89-.01-50.32 0-100.65-.02-150.97-.38-6.18.19-12.41-.7-18.56.17-1.19.29-2.38.36-3.57-.99.97-2.27 1.78-2.73 3.15m37.42 28.57c2.05.41 4.13.53 6.21.65-.06 3.96.39 7.92.01 11.87-.2 1.73-.02 3.49.76 5.07.4-5.64-.09-11.29.23-16.93 2.33-.06 4.65-.23 6.98-.45l.48.33c.6 4.61-.03 9.27.22 13.9.06 1.22.58 2.25 1.56 3.09 1.88-3.45 1.14-7.55 1.55-11.31 1.76-1.13 3.83-.63 5.75-.38.08.38.24 1.15.32 1.54-1.02 3.27-1.66 7.03.33 10.1 1.79-3.53 2.15-8.61-.24-11.93-1.15-2-4.2-1.3-5.93-.48-.22-2.19-.27-4.5-1.65-6.33l-3.12 1.04c-4.35-1.21-9.1-.74-13.46.22m51.3-.23c-3.19 1.34-3.76 6.8.01 7.79 1.68.44 3.29 1.18 5.03 1.42.37.55 1.1 1.65 1.47 2.2-1.48.86-1.79 2.05-.92 3.59-2.98.9-5.97.14-8.79-.91 2.27 3.09 6.77 3.64 9.59.95.27-.34.8-1.02 1.06-1.36l-.08-1.52c.78.1 2.34.29 3.13.39-.74 3.31 3.19 4.17 5.66 3.98 2.44.22 3.6-2.34 4.02-4.32.32-.15.96-.46 1.28-.61.45.17 1.36.5 1.81.67.15 1.15.33 2.29.54 3.44 2.24.64 4.54 1.54 6.89.83-1.18-1.52-3.22-1.01-4.85-1.41-2.17-1.67-1.21-4.73-1.86-7.06 1.39-3.14 4.68-2.05 7.41-1.98-1.48-3.09-5.01-1.16-7.38-.47-.27 1.15-.53 2.3-.79 3.45-.45.14-1.34.41-1.78.55-.33-.15-.97-.43-1.3-.57.03-.69.09-2.06.11-2.75-1.58-1.03-3.36-1.71-5.14-2.32-1.88.81-5.1.96-5.06 3.69-.94.9-1.88 1.79-2.83 2.68-.02-.31-.06-.93-.09-1.24l-.27.01c-2.56-1.71-5.57-2.63-7.94-4.64.09-.45.25-1.33.33-1.77.42-.46 1.26-1.4 1.67-1.87 2.06.21 4.12.44 6.18.53-1.62-2.2-4.76-2.71-7.11-1.37m51.63 10.66c.18 2.39-.74 5.35 1.56 7.02 1.3-2.85 1.02-6.05 1.16-9.09-.02-3.23.38-6.69-1.27-9.62l-.03-.79c-2.2 3.8-1.15 8.32-1.42 12.48m19.75-11.56l.21.28-.37.66c-.29 5.49-.02 11.01-.11 16.51l1.1.56c1.87-2.03 1.68-4.8.93-7.27 2.68.04 5.5-.15 7.72-1.85 2.65-.42 2.17-4.41.82-6.03l.02-.11-.76-1.04c-2.97-1.51-6.35-1.31-9.56-1.71m26.45-.38c-.11 4.64.26 9.28-.01 13.92.05 1.55-.46 3.47 1.1 4.54l.01.37c1.63-2.35 1.17-5.29 1.26-7.97-.11-3.23.38-6.68-1.27-9.62l.4-.11-1.49-1.13m48.82-.69c-1.36 3.74-.68 7.74-.83 11.61 0 2.8-.45 5.84 1.29 8.28 1.83-4.14 1.42-8.76 1.39-13.16-.19-1.96.05-4.21-1.5-5.69-.09-.26-.26-.78-.35-1.04m-112.31 1.72l-.47.85.47.85.81-.01h.91l.81.02.48-.85-.47-.85-.82.02h-.91l-.81-.03m69.07-.11l-.28 1.65.75.09c.74 1.4 1.57 1.39 2.47-.04.07-1.83-.65-2.37-2.15-1.62l-.79-.08m7.21.04l-.1.51c-2.92 1.39-2.01 4.88-2.11 7.45.31 2.61-.53 5.86 1.87 7.71.01.33.03.99.03 1.32 1.64-.29 3.28-.61 4.89-1.05-1.47-.16-2.96.02-4.42.13.02-3.33.12-6.66.23-9.99.95-.06 2.86-.19 3.82-.25-2.25-.66-3.98-1.77-3.53-4.4-.17-.35-.51-1.07-.68-1.43m6.72.08l-.47.85.47.85.81-.02h.91l.81.03.48-.85-.47-.85-.81.02-.92-.01-.81-.02m-76.7 6.75c1.83-.18 3.66-.43 5.49-.67.35 1.19.71 2.38 1.08 3.57-2.42.36-6.52.17-7.06 3.26l-.83.01-.42.83c.34.19 1 .56 1.33.74-.01.54-.01 1.61-.01 2.14 2.16.32 4.33.22 6.47-.25.39.06 1.17.17 1.56.23l.94.83c.31-3.38.41-6.87-.85-10.08l.05-.81a94.29 94.29 0 0 0-3.42-2.53c-1.61.63-3.55.96-4.33 2.73m77.15-2.56c.02 2.89.13 5.77.06 8.66.12 1.55-.56 3.54 1.11 4.56l.01.47c2.06-4.08 1.49-9.08-.01-13.26-.3-.11-.88-.32-1.17-.43m16.73 2.51c1.88-.14 3.76-.37 5.63-.58.35 1.17.7 2.35 1.05 3.53-2.49.35-6.59.2-7.16 3.38h-.81l-.43.83.47.81.81-.05c.16 3.87 5.68 1.54 8.16 1.61l1.07.78c.18-3.27.19-6.6-1-9.71l.05-.84c-2.04-2.59-6.14-2.87-7.84.24M92.13 63.69c-.78.79-1.16 1.72-1.14 2.79-2.06-.15-2 4.41.09 4.21-.89 1.11.24 3.84 1.79 3.06.6-1.34.28-2.43-.95-3.27l.41-1.03c2.63-.12 5.25-.39 7.86-.75 2.23 1.3 1.88-3.83-.26-2.32.33-2.27-2.09-3.06-3.69-3.76-1.36.38-2.74.74-4.11 1.07m56.57.06c.21 4.02-.01 8.05.2 12.07.33-.35 1-1.06 1.34-1.41-.08-3.83-.02-7.66-.04-11.49-.38.2-1.13.62-1.5.83m48.98 3.88l.03 2.69c1.45 1.84 2.25 4.94 5.12 4.85 2.76.49 4.9-1.62 5.77-4.04 2.04-.7 1.6-5.24-.67-4.81-.09-3.59-4.52-3.65-7.11-3.2-1.31 1.3-2.14 2.98-3.14 4.51m18.92 2.45c.01 2.05-.75 4.6 1.47 5.86 1.69-1.93 1.04-4.57 1.19-6.9-.16-2.38.53-5.11-1.27-7.06-1.4 2.47-1.13 5.38-1.39 8.1m20.9-6.12c.47.42.94.84 1.43 1.26 2.06-2.01 4.82-.77 7.24-.5-2.41-2.28-5.81-2.06-8.67-.76m-1.5 1.28c-.59 2.22-.94 4.6.78 6.47-.14 1.43 1.18 2.2 2.04 3.11 1.57.02 3.15.09 4.72.21 1.23.61 2.03.27 2.43-1.01-.18-1.84-3.05-.97-2.92.58-2.4-.49-4.06-2.24-5.82-3.77 1.86-.19 2.51-3.48.96-4.41-.73-.4-1.46-.79-2.19-1.18M93.44 74.85c2.45.65 5.35.7 7-1.56-2.38.16-4.95.11-7 1.56m79.19 2.32c1.6-.33 1.79-3.47.04-3.69l-.23-.5c-3.29-1.04-1.54 6.89.19 4.19m-72.73 31.4c-.73-1.43-1.5-2.84-2.44-4.14l.06.57c-.48 3.36-2.39 7.76.27 10.62-.66 5.87-.41 12.04 2.06 17.5 3.62 8.81 11.48 15.55 20.58 18.2-.14-.5-.41-1.51-.55-2.02-7.17-2.89-13.71-7.85-17.2-14.89-5.32-9.82-4.25-22.52 2.45-31.41 7.74-10.94 23.32-15.32 35.58-9.84 12.65 5.1 20.55 19.52 17.85 32.92-1.81 10.29-9.47 19.08-19.19 22.73l.44 1.88c11.69-4.01 20.36-15.32 21.09-27.66 1.35-14.51-8.68-29.09-22.78-32.85-14.95-4.71-32.86 3.51-38.22 18.39m15.89 1.21c-7.77 7.56-6.41 22.71 3.5 27.75-.72-2.34-2.72-3.85-4.04-5.82-1.96-2.67-2.4-6.03-3.05-9.18.45-.14 1.35-.41 1.8-.54-.44-.12-1.31-.36-1.75-.47 1.08-7.16 6.27-13.8 13.62-15.12 9.98-2.44 20.53 6.47 19.91 16.7.24 5.32-3.28 9.53-6.29 13.51 2.89-.26 4.38-3.07 5.78-5.25 4.45-7.7 2.19-18.39-4.97-23.65-7.16-5.58-18.43-4.75-24.51 2.07m-51.46 3.18c2.3.24 7.78-2.39 6.9 2.06-.2.22-.59.67-.79.9-2.72.01-6.67 1.24-6.76 4.47 1.11 3.73 5.34 3.29 8.18 2.02l.53.22c1.32-2.52 2.03-7.02-.53-9.05-.03-.49-.1-1.48-.13-1.98-2.53-1.4-6-1.78-7.4 1.36m12.66 11.16c1.68-3.46 1.01-7.42 1.19-11.12 1.98-.33 3.96-.67 5.95-.94.11.5.31 1.51.42 2.02-.99 3.16-1.99 7.1.5 9.87 1.48-3.51 2.52-8.72-.33-11.72v-.09c-.83-.52-1.65-1.06-2.46-1.6-1.39.37-3.21.09-4.09 1.48l-1.23-1.35-.06-1.01c-1.53 4.51-2.09 10.06.11 14.46m13.7-12.49c-3.48 1.86-3.54 6.78-1.52 9.73 1.65 2.16 6.21 2.53 7.8-.03-2.11.21-4.3.98-6.24-.38.08-1.86-.57-4-1.09-5.84.35-.62 1.06-1.86 1.41-2.48 1.6-.29 3.2-.63 4.79-.99-1.48-1.32-3.68-1.38-5.15-.01m10.52 9.55l-.45.87.5.83.8-.04.91-.02.82.01.45-.86-.49-.84-.81.03-.91.02h-.82m5.01-.02l-.46.86.48.84.81-.03.91-.01.82.01.46-.86-.49-.84-.81.03-.91.01-.81-.01M249.51 144c.21 1.86 2.55 1.76 3.89 2.5.01-1.71 1.03-4.15-1.18-4.92-1.11.56-1.96 1.47-2.71 2.42m1.54 7.75l1.04.56 1.03-.64c2.52 1.25 2.5-4.6-.02-3.36l-1.34-.49-.79.66c-2.58-1.22-2.48 4.57.08 3.27m-.07 6.17c.53-.05 1.59-.15 2.12-.19 2.5 1.17 2.54-4.61.04-3.41-.59-.04-1.77-.13-2.36-.18-2.3-.49-2.13 4.56.2 3.78m-187.62 2.87c.23 1.42.52 2.83.91 4.22.32 2.33 1.24 4.77 3.92 5.09-1.29-1.59-2.76-3.1-3.37-5.11-.42-1.43-.87-2.84-1.46-4.2m5.41 5.83c1.58-1.73 2.63-3.83 3.33-6.05-3.05.46-3.44 3.5-3.33 6.05m15-2.29c-1.1-.98-3.45-.54-3.87.96-.63.63-1.26 1.26-1.89 1.9-.41-.99-.82-1.97-1.21-2.96-1.41.11-2.81.24-4.21.38l-.67-.22c-.03 2.36-1.02 5.87 2.07 6.72.64 1.06 1.5 1.16 2.56.31 1.28-1.55-1.77-2.42-2.49-1.09-.15-.6-.45-1.82-.6-2.43 1.62.04 3.24.03 4.86-.01.47.85 1.03 1.64 1.68 2.38l.28.5c1.24.6 2.41.49 3.51-.33l.78 1.14 1.47-.46c.01-.59.01-1.76.02-2.34.61.93 1.27 1.83 1.96 2.71 2.41-2.08 2.36-5.85.02-7.96-.7.88-1.35 1.79-1.98 2.72.01-1.8-.03-3.61-.06-5.41l-1.13-.45a9.16 9.16 0 0 0-1.1 3.94m9.12 1.25c1.62.01 3.23.03 4.85.07-1.29 1.12-2.79 1.93-4.28 2.73-.01.63-.02 1.89-.02 2.52 1.45-.09 2.9-.21 4.36-.35l-.07-.97c2.03.22 2.01-4.15.05-4.02l.11-1.64c-1.94-.44-3.72.11-5 1.66m6.94.17c-.51.96.11 6.53 1.18 3.76 1.69.68 1.73-2.62.22-2.4l.24-.82c.42-1.43-1.72-2.62-1.64-.54z"/><path d="M186.85 58.9c2.16.22 4.31.55 6.46.84.08 1.91.24 3.81.41 5.72-.24.2-.72.62-.96.83-1.96.3-3.92.56-5.88.8.22-2.73.19-5.46-.03-8.19zM199.4 64.97c2.72-.94 5.71-1.3 8.05.77-.04 2.14-.03 4.29-.01 6.43-2.39 2.05-5.33 2.03-8.03.59l.25-1.09c.5-1.74.49-3.58.03-5.32l-.29-1.38zM124.38 67.04c1.06-.83 2.08-1.71 3.07-2.62.72-.08 2.16-.25 2.88-.33 1 1.07 2 2.13 3.01 3.18l.09 3.83c-.79.87-1.57 1.75-2.35 2.64-1.38.07-2.77.15-4.16.24-.67-.89-1.35-1.78-2.02-2.66.87-1.31 1.37-3.58-.52-4.28zM155.35 70.39c1.72-.86 3.65-1.08 5.53-1.41a41.75 41.75 0 0 0-.47 4.18c-1.78.32-3.55.61-5.33.86.03-1.22.12-2.43.27-3.63zM248.72 70.65c1.99-.8 4.07-1.42 6.24-1.47a7.57 7.57 0 0 0-.66 3.98c-1.62.29-3.22.57-4.84.82-.18-.83-.56-2.5-.74-3.33zM65.45 118.06c1.91-.32 3.83-.62 5.76-.89-.52 1.5-1.03 3-1.52 4.52-1.54-.15-3.1-.26-4.65-.32.1-.82.3-2.48.41-3.31zM81.2 165.9c.63-.27 1.9-.8 2.53-1.07-.04 1.73-.04 3.46.02 5.2-1.12-.35-2.25-.62-3.4-.81-.02-.6-.06-1.79-.07-2.38.23-.24.69-.71.92-.94zM95.01 168.22c1.62-.59 2.17-.06 1.65 1.58-1.62.59-2.17.06-1.65-1.58z"/></g><g fill="#ececec"><path d="M25.17 30.05c.46-1.37 1.74-2.18 2.73-3.15a43.15 43.15 0 0 1-.36 3.57c-2.39 10.01-.95 20.36-1.31 30.53-.76 30.65.5 61.3-.23 91.95.11 17.38-.16 34.77.23 52.15-.13 3.29 1.71 6.39 4.48 8.09 3.67 2.26 8.16 2.17 12.32 2.26 20.66-.19 41.33-.03 61.99-.12 4.95-.07 10.1.76 14.81-1.19 1.47 2.1 3.11 4.07 4.85 5.96-1.51.54-3.04 1.14-4.68 1.1-25.33-.03-50.66-.01-75.99-.03-6.44.06-13.41-1.42-17.95-6.33-2.67-2.54-3.16-6.4-3.23-9.89-.01-50.98 0-101.97-.01-152.96-.07-7.35-.42-14.97 2.35-21.94zM299.81 29.51c1.34.47 2.49 1.35 2.75 2.82 1.11 3.46 1.55 7.09 1.63 10.71-.02 51.64-.03 103.27.02 154.9-.11 4.47.41 9.09-.85 13.44-2.05 4.13-6.09 7.14-10.49 8.42-5.79 1.82-11.94 1.32-17.92 1.38-24.98-.01-49.96.03-74.95-.01-5.83-.05-11.69.32-17.5-.39a34.85 34.85 0 0 0 1.6-6.34c5.85 1.59 11.93.83 17.91.91 24.32.04 48.64-.04 72.95.02 7.36.23 15.31 1.14 22.08-2.42 4.89-3.68 3.62-10.6 3.76-15.93.37-39.69.17-79.39.2-119.08-.59-16.14.74-32.34-1.19-48.43z"/></g><g fill="#d5d5d5"><path d="M298.77 47.02c.36-6.39-.38-12.85.81-19.18.06.42.17 1.26.23 1.67 1.93 16.09.6 32.29 1.19 48.43-.03 39.69.17 79.39-.2 119.08-.14 5.33 1.13 12.25-3.76 15.93-6.77 3.56-14.72 2.65-22.08 2.42-24.31-.06-48.63.02-72.95-.02-5.98-.08-12.06.68-17.91-.91.09-.61.26-1.84.35-2.45 2.51.11 5.01.22 7.52.25 32.01-.06 64.02.01 96.02.01 4.32.17 10.2-1.02 10.46-6.37.56-5.25.24-10.56.3-15.83-.01-47.68-.02-95.36.02-143.03zM26.23 61c.36-10.17-1.08-20.52 1.31-30.53.89 6.15.32 12.38.7 18.56.02 50.32.01 100.65.02 150.97.05 1.96.03 3.95.34 5.89.54 1.76.8 4.05 2.69 4.91 3.02 1.4 6.45 1.17 9.69 1.37 23.34.2 46.69-.12 70.03.12 2.3.04 4.56-.51 6.76-1.11.71.97 1.37 1.97 2.06 2.96-4.71 1.95-9.86 1.12-14.81 1.19-20.66.09-41.33-.07-61.99.12-4.16-.09-8.65 0-12.32-2.26-2.77-1.7-4.61-4.8-4.48-8.09-.39-17.38-.12-34.77-.23-52.15.73-30.65-.53-61.3.23-91.95zM212.14 58.52c.17-.04.5-.13.67-.17 1.65 2.94 1.16 6.39 1.27 9.62-.09 2.68.37 5.62-1.26 7.97l-.01-.37c-.3-5.68.5-11.43-.67-17.05zM232.85 75.56c-.15-4.27-.17-8.53 0-12.79 1.5 4.18 2.07 9.18.01 13.26l-.01-.47zM121.12 68.74c.95-.89 1.89-1.78 2.83-2.68l-.17 1.39c-.23 1.23-.02 2.39.61 3.49-.79-.1-2.35-.29-3.13-.39-.04-.45-.1-1.35-.14-1.81z"/></g><g fill="#262333"><path d="M62.59 58.62c4.36-.96 9.11-1.43 13.46-.22l.73.43c-2.33.22-4.65.39-6.98.45-.32 5.64.17 11.29-.23 16.93-.78-1.58-.96-3.34-.76-5.07.38-3.95-.07-7.91-.01-11.87-2.08-.12-4.16-.24-6.21-.65zM113.89 58.39c2.35-1.34 5.49-.83 7.11 1.37-2.06-.09-4.12-.32-6.18-.53-.41.47-1.25 1.41-1.67 1.87.19-.67.56-2.03.74-2.71zM185.27 57.49c3.21.4 6.59.2 9.56 1.71-.38.14-1.14.41-1.52.54-2.15-.29-4.3-.62-6.46-.84l-.82-.7-.55-.43-.21-.28zM211.72 57.11l1.49 1.13-.4.11c-.17.04-.5.13-.67.17 1.17 5.62.37 11.37.67 17.05-1.56-1.07-1.05-2.99-1.1-4.54.27-4.64-.1-9.28.01-13.92zM123.95 66.06c-.04-2.73 3.18-2.88 5.06-3.69 1.78.61 3.56 1.29 5.14 2.32-.02.69-.08 2.06-.11 2.75-.08 1.05-.07 2.11.03 3.16-.42 1.98-1.58 4.54-4.02 4.32-2.47.19-6.4-.67-5.66-3.98l.51.38c.67.88 1.35 1.77 2.02 2.66 1.39-.09 2.78-.17 4.16-.24.78-.89 1.56-1.77 2.35-2.64l-.09-3.83c-1.01-1.05-2.01-2.11-3.01-3.18-.72.08-2.16.25-2.88.33-.99.91-2.01 1.79-3.07 2.62l-.6.41.17-1.39zM137.91 64.01c2.37-.69 5.9-2.62 7.38.47-2.73-.07-6.02-1.16-7.41 1.98l-.76 1c.26-1.15.52-2.3.79-3.45zM154.53 64.9c.78-1.77 2.72-2.1 4.33-2.73 1.16.82 2.3 1.66 3.42 2.53l-.05.81-.2 3.25-1.15.22c-1.88.33-3.81.55-5.53 1.41-.15 1.2-.24 2.41-.27 3.63 1.78-.25 3.55-.54 5.33-.86.04.46.09.91.17 1.37-2.14.47-4.31.57-6.47.25 0-.53 0-1.6.01-2.14l-.08-1.58c.54-3.09 4.64-2.9 7.06-3.26-.37-1.19-.73-2.38-1.08-3.57-1.83.24-3.66.49-5.49.67zM231.68 62.34c.29.11.87.32 1.17.43-.17 4.26-.15 8.52 0 12.79-1.67-1.02-.99-3.01-1.11-4.56.07-2.89-.04-5.77-.06-8.66zM248.41 64.85c1.7-3.11 5.8-2.83 7.84-.24l-.05.84c-.04.92-.11 2.75-.15 3.67-.27.02-.82.04-1.09.06-2.17.05-4.25.67-6.24 1.47.18.83.56 2.5.74 3.33 1.62-.25 3.22-.53 4.84-.82.37.24 1.1.72 1.47.96l.36.26c-2.48-.07-8 2.26-8.16-1.61l-.04-1.59c.57-3.18 4.67-3.03 7.16-3.38-.35-1.18-.7-2.36-1.05-3.53-1.87.21-3.75.44-5.63.58zM80.82 63.69c1.73-.82 4.78-1.52 5.93.48.04.78.13 2.34.17 3.12L86.66 66c-.08-.39-.24-1.16-.32-1.54-1.92-.25-3.99-.75-5.75.38-.4.19-1.19.57-1.59.76l.02-1.01c.45-.23 1.35-.68 1.8-.9zM92.13 63.69c1.37-.33 2.75-.69 4.11-1.07 1.6.7 4.02 1.49 3.69 3.76.06.58.19 1.74.26 2.32-2.61.36-5.23.63-7.86.75-.33-.08-.99-.25-1.33-.33 0-.66-.01-1.98-.01-2.64-.02-1.07.36-2 1.14-2.79m-.63 4.06c2.43-.31 5.3.82 7.42-.83 1.3-2.38-2.36-2.64-3.88-3.14-1.51.96-2.33 2.7-3.54 3.97zM112.82 62.87c2.37 2.01 5.38 2.93 7.94 4.64-.46.02-1.37.06-1.83.09-1.74-.24-3.35-.98-5.03-1.42-.26-.62-.79-1.86-1.05-2.48l-.03-.83zM148.7 63.75c.37-.21 1.12-.63 1.5-.83.02 3.83-.04 7.66.04 11.49-.34.35-1.01 1.06-1.34 1.41-.21-4.02.01-8.05-.2-12.07zM197.68 67.63c1-1.53 1.83-3.21 3.14-4.51 2.59-.45 7.02-.39 7.11 3.2.05 1.61 0 3.29.67 4.81-.87 2.42-3.01 4.53-5.77 4.04-2.87.09-3.67-3.01-5.12-4.85l-.03-2.69m1.72-2.66l.29 1.38c-1.63.48-1.58 4.76-.03 5.32l-.25 1.09c2.7 1.44 5.64 1.46 8.03-.59-.02-2.14-.03-4.29.01-6.43-2.34-2.07-5.33-1.71-8.05-.77zM237.5 63.96c2.86-1.3 6.26-1.52 8.67.76-2.42-.27-5.18-1.51-7.24.5-.49-.42-.96-.84-1.43-1.26zM186.88 67.09c1.96-.24 3.92-.5 5.88-.8.49.03 1.49.07 1.99.09-2.22 1.7-5.04 1.89-7.72 1.85a38.7 38.7 0 0 1-1.1-.05l.02-.46.93-.63zM236.78 71.71l-.04-1.28.49.4c1.76 1.53 3.42 3.28 5.82 3.77l.49.43a74.5 74.5 0 0 0-4.72-.21c-.86-.91-2.18-1.68-2.04-3.11zM110.69 72.48c2.82 1.05 5.81 1.81 8.79.91l.8.04c-2.82 2.69-7.32 2.14-9.59-.95zM93.44 74.85c2.05-1.45 4.62-1.4 7-1.56-1.65 2.26-4.55 2.21-7 1.56zM172.63 77.17c-1.73 2.7-3.48-5.23-.19-4.19l.23.5c-.77 1.03-.95 2.69-.04 3.69zM64.33 112.96c1.4-3.14 4.87-2.76 7.4-1.36.03.5.1 1.49.13 1.98.04.86.13 2.59.17 3.46-.21.03-.62.1-.82.13-1.93.27-3.85.57-5.76.89-.11.83-.31 2.49-.41 3.31 1.55.06 3.11.17 4.65.32.56.08 1.66.23 2.21.31l-.04.41c-2.84 1.27-7.07 1.71-8.18-2.02.09-3.23 4.04-4.46 6.76-4.47.2-.23.59-.68.79-.9.88-4.45-4.6-1.82-6.9-2.06zM78.17 112.02c.88-1.39 2.7-1.11 4.09-1.48.81.54 1.63 1.08 2.46 1.6v.09c.03.8.08 2.41.1 3.21l-.27-1.36c-.11-.51-.31-1.52-.42-2.02-1.99.27-3.97.61-5.95.94 0-.25-.01-.74-.01-.98zM88.98 120.01c.44.24 1.31.71 1.75.94 1.94 1.36 4.13.59 6.24.38-1.59 2.56-6.15 2.19-7.8.03l-.19-1.35zM249.51 144c.75-.95 1.6-1.86 2.71-2.42 2.21.77 1.19 3.21 1.18 4.92-1.34-.74-3.68-.64-3.89-2.5zM92.89 165.58c1.28-1.55 3.06-2.1 5-1.66l-.11 1.64c-.11 1.33-.17 2.68-.05 4.02l.07.97c-1.46.14-2.91.26-4.36.35 0-.63.01-1.89.02-2.52 1.49-.8 2.99-1.61 4.28-2.73-1.62-.04-3.23-.06-4.85-.07m2.12 2.64c-.52 1.64.03 2.17 1.65 1.58.52-1.64-.03-2.17-1.65-1.58zM72.59 164.61c1.4-.14 2.8-.27 4.21-.38.39.99.8 1.97 1.21 2.96l.31.7c-1.62.04-3.24.05-4.86.01-.07-.18-.21-.55-.27-.73 1.53-.15 3.06-.33 4.6-.52-1.28-1-2.81-1.43-4.35-1.78-.21-.06-.64-.2-.85-.26zM79.9 165.29c.42-1.5 2.77-1.94 3.87-.96l-.04.5c-.63.27-1.9.8-2.53 1.07-.23.23-.69.7-.92.94-.1-.39-.29-1.17-.38-1.55z"/></g><path fill="#c8a080" d="M165.52 69.05c.27-4.16-.78-8.68 1.42-12.48l.03.79c.14 6.24-.07 12.48.11 18.71-2.3-1.67-1.38-4.63-1.56-7.02z"/><path fill="#bb8b66" d="M260.54 56.42c.09.26.26.78.35 1.04.34 6.28.03 12.57.11 18.85-1.74-2.44-1.29-5.48-1.29-8.28.15-3.87-.53-7.87.83-11.61z"/><path fill="#eac9a4" d="M76.05 58.4l3.12-1.04c-.13 2.4-.15 4.82-.15 7.23L79 65.6c-.06 3.52-.01 7.03.04 10.55-.98-.84-1.5-1.87-1.56-3.09-.25-4.63.38-9.29-.22-13.9l-.48-.33-.73-.43z"/><path fill="#99c7eb" d="M79.17 57.36c1.38 1.83 1.43 4.14 1.65 6.33-.45.22-1.35.67-1.8.9 0-2.41.02-4.83.15-7.23z"/><g fill="#eaab5e"><path d="M148.23 58.14l.81.03v1.66l-.81.01-.47-.85.47-.85zM231.23 58.15l.81.02v1.66l-.81.02-.47-.85.47-.85z"/></g><g fill="#4f5669"><path d="M149.04 58.17h.91v1.66h-.91v-1.66zM232.04 58.17l.92.01c0 .41-.01 1.24-.01 1.65h-.91v-1.66z"/></g><g fill="#9cd5fd"><path d="M149.95 58.17l.82-.02.47.85-.48.85-.81-.02v-1.66zM232.96 58.18l.81-.02.47.85-.48.85-.81-.03c0-.41.01-1.24.01-1.65z"/></g><path fill="#84cdfe" d="M166.97 57.36c1.65 2.93 1.25 6.39 1.27 9.62-.14 3.04.14 6.24-1.16 9.09-.18-6.23.03-12.47-.11-18.71z"/><path fill="#cd8333" d="M185.48 57.77l.55.43c.02 3.17.01 6.35-.08 9.52l-.02.46c-.11 2.44-.01 4.88.17 7.32l-1.1-.56c.09-5.5-.18-11.02.11-16.51l.37-.66z"/><g fill="#47494d"><path d="M217.3 58.03l.79.08-.32 1.66-.75-.09.28-1.65zM102.03 121.18l.91-.02c.01.42.03 1.25.03 1.66l-.91.02c-.01-.41-.02-1.24-.03-1.66z"/></g><path fill="#7d6fb9" d="M218.09 58.11c1.5-.75 2.22-.21 2.15 1.62-.9 1.43-1.73 1.44-2.47.04l.32-1.66z"/><g fill="#2c4e5d"><path d="M224.51 58.07c.17.36.51 1.08.68 1.43-.45 2.63 1.28 3.74 3.53 4.4-.96.06-2.87.19-3.82.25-.11 3.33-.21 6.66-.23 9.99 1.46-.11 2.95-.29 4.42-.13-1.61.44-3.25.76-4.89 1.05 0-.33-.02-.99-.03-1.32-.02-3.49-.2-6.98-.67-10.43.32-1.57.62-3.15.91-4.73l.1-.51zM217.99 61.98c1.8 1.95 1.11 4.68 1.27 7.06-.15 2.33.5 4.97-1.19 6.9.02-4.65.08-9.31-.08-13.96zM120.76 67.51l.27-.01c.03.31.07.93.09 1.24.04.46.1 1.36.14 1.81l.08 1.52c-.23-.56-.7-1.7-.94-2.27-.37-.55-1.1-1.65-1.47-2.2.46-.03 1.37-.07 1.83-.09zM137.12 67.46l.76-1c.65 2.33-.31 5.39 1.86 7.06 1.63.4 3.67-.11 4.85 1.41-2.35.71-4.65-.19-6.89-.83-.21-1.15-.39-2.29-.54-3.44 0-1.07-.02-2.13-.04-3.2zM172.63 77.17c-.91-1-.73-2.66.04-3.69 1.75.22 1.56 3.36-.04 3.69zM99.9 108.57c5.36-14.88 23.27-23.1 38.22-18.39 14.1 3.76 24.13 18.34 22.78 32.85-.73 12.34-9.4 23.65-21.09 27.66l-.44-1.88c9.72-3.65 17.38-12.44 19.19-22.73 2.7-13.4-5.2-27.82-17.85-32.92-12.26-5.48-27.84-1.1-35.58 9.84-6.7 8.89-7.77 21.59-2.45 31.41 3.49 7.04 10.03 12 17.2 14.89.14.51.41 1.52.55 2.02-9.1-2.65-16.96-9.39-20.58-18.2-2.47-5.46-2.72-11.63-2.06-17.5.09-.5.26-1.5.35-1.99.55-1.7 1.14-3.39 1.76-5.06z"/><path d="M115.79 109.78c6.08-6.82 17.35-7.65 24.51-2.07 7.16 5.26 9.42 15.95 4.97 23.65-1.4 2.18-2.89 4.99-5.78 5.25 3.01-3.98 6.53-8.19 6.29-13.51.62-10.23-9.93-19.14-19.91-16.7-7.35 1.32-12.54 7.96-13.62 15.12.44.11 1.31.35 1.75.47-.45.13-1.35.4-1.8.54.65 3.15 1.09 6.51 3.05 9.18 1.32 1.97 3.32 3.48 4.04 5.82-9.91-5.04-11.27-20.19-3.5-27.75z"/><path d="M120.58 123.06c0-6.95 9.82-9.32 14.22-4.88 2.19 2.36 2.39 5.76 2.45 8.81-.03 10.01.57 20.02.49 30.03 2.87-4.81 9.49-6.63 14.48-4.31 3.31 1.74 4.07 5.71 4.4 9.09 3.16-3.23 8.06-4.63 12.28-2.7 3.87 1.24 3.7 5.93 4.91 9.1 3.21-3.06 8.47-2.7 11.3.66 3.58 4.97 2.08 11.44 2.4 17.14.35 6.67-.59 13.3-2.1 19.79-.06.31-.18.95-.24 1.27-.27 1.63-.49 3.28-.72 4.93-.09.61-.26 1.84-.35 2.45a34.85 34.85 0 0 1-1.6 6.34c-2.92 6.56-8.89 11.53-15.53 14.02-6.62.43-13.29.09-19.93.19-3.01.35-5.35-1.81-7.73-3.28-5.07-3.6-10.32-7.07-14.63-11.61-1.74-1.89-3.38-3.86-4.85-5.96-.69-.99-1.35-1.99-2.06-2.96-.51-.68-1.54-2.04-2.06-2.71l-.03-.07c-.15-.33-.46-1-.61-1.34-5.32-10.86-8.98-22.49-11.65-34.27-.5-2.12-.85-4.29-.77-6.48-.23-.16-.69-.49-.92-.65-.02-3.47-1.22-8.38 2.37-10.55 2.15-1.59 5.45-3.14 7.84-1.12 2.83 2.56 2.94 6.68 3.66 10.17.91.01 2.73.02 3.64.03-1.08.45-2.16.9-3.24 1.33.35 1.67.71 3.32 1.06 5l2.5.08-2.12.68c1.37 2.92 2.96 5.81 5.48 7.91.44-2.43.6-4.92.22-7.36-1.62-1.39-3.29-2.82-3.6-5.07.89-1.03 1.76-2.07 2.69-3.06-.79 1.75-2.4 3.32-1.82 5.41l2.63.72c-.77-15.59-1.8-31.18-2.46-46.77zM63.36 160.79c.59 1.36 1.04 2.77 1.46 4.2.61 2.01 2.08 3.52 3.37 5.11-2.68-.32-3.6-2.76-3.92-5.09-.39-1.39-.68-2.8-.91-4.22z"/></g><path fill="#a5dbfe" d="M260.89 57.46c1.55 1.48 1.31 3.73 1.5 5.69.03 4.4.44 9.02-1.39 13.16-.08-6.28.23-12.57-.11-18.85z"/><path fill="#dca06a" d="M113.9 66.18c-3.77-.99-3.2-6.45-.01-7.79-.18.68-.55 2.04-.74 2.71-.08.44-.24 1.32-.33 1.77l.03.83c.26.62.79 1.86 1.05 2.48z"/><path fill="#2481cb" d="M186.03 58.2l.82.7c.22 2.73.25 5.46.03 8.19l-.93.63c.09-3.17.1-6.35.08-9.52z"/><path fill="#db9668" d="M194.83 59.2l.76 1.04-.02.11c-.3 1.41-.59 2.83-.94 4.23l-.91.88c-.17-1.91-.33-3.81-.41-5.72.38-.13 1.14-.4 1.52-.54z"/><path fill="#f7ddb0" d="M222.3 66.03c.1-2.57-.81-6.06 2.11-7.45-.29 1.58-.59 3.16-.91 4.73.47 3.45.65 6.94.67 10.43-2.4-1.85-1.56-5.1-1.87-7.71z"/><path fill="#51a2a1" d="M194.63 64.58c.35-1.4.64-2.82.94-4.23 1.35 1.62 1.83 5.61-.82 6.03-.5-.02-1.5-.06-1.99-.09.24-.21.72-.63.96-.83l.91-.88z"/><path fill="#ffdba2" d="M216.6 70.08c.26-2.72-.01-5.63 1.39-8.1.16 4.65.1 9.31.08 13.96-2.22-1.26-1.46-3.81-1.47-5.86z"/><path fill="#fbfbfb" d="M91.5 67.75c1.21-1.27 2.03-3.01 3.54-3.97 1.52.5 5.18.76 3.88 3.14-2.12 1.65-4.99.52-7.42.83z"/><path fill="#9acbef" d="M79 65.6c.4-.19 1.19-.57 1.59-.76-.41 3.76.33 7.86-1.55 11.31-.05-3.52-.1-7.03-.04-10.55z"/><path fill="#476da6" d="M86.75 64.17c2.39 3.32 2.03 8.4.24 11.93.06-2.94.14-5.88-.07-8.81-.04-.78-.13-2.34-.17-3.12z"/><path fill="#dea16a" d="M236 65.24c.73.39 1.46.78 2.19 1.18-1.16.97-1.59 2.55-1.45 4.01l.04 1.28c-1.72-1.87-1.37-4.25-.78-6.47z"/><path fill="#ebc595" d="M91.08 70.69c-2.09.2-2.15-4.36-.09-4.21 0 .66.01 1.98.01 2.64l.08 1.57z"/><path fill="#75b4e4" d="M99.93 66.38c2.14-1.51 2.49 3.62.26 2.32-.07-.58-.2-1.74-.26-2.32z"/><g fill="#8ad2ff"><path d="M162.23 65.51c1.26 3.21 1.16 6.7.85 10.08l-.94-.83c-.17-2-.16-4-.11-6l.2-3.25zM256.2 65.45c1.19 3.11 1.18 6.44 1 9.71l-1.07-.78-.36-.26c.22-1.66.31-3.33.28-5 .04-.92.11-2.75.15-3.67z"/></g><path fill="#99d5fd" d="M199.66 71.67c-1.55-.56-1.6-4.84.03-5.32.46 1.74.47 3.58-.03 5.32z"/><path fill="#2ea9a1" d="M207.93 66.32c2.27-.43 2.71 4.11.67 4.81-.67-1.52-.62-3.2-.67-4.81z"/><path fill="#ffce84" d="M86.66 66l.26 1.29c.21 2.93.13 5.87.07 8.81-1.99-3.07-1.35-6.83-.33-10.1z"/><path fill="#547db8" d="M123.78 67.45l.6-.41c1.89.7 1.39 2.97.52 4.28l-.51-.38c-.63-1.1-.84-2.26-.61-3.49z"/><path fill="#7ec6f7" d="M134.04 67.44c.33.14.97.42 1.3.57 0 .49 0 1.48.01 1.98-.32.15-.96.46-1.28.61-.1-1.05-.11-2.11-.03-3.16z"/><path fill="#e9c99b" d="M135.34 68.01c.44-.14 1.33-.41 1.78-.55.02 1.07.04 2.13.04 3.2-.45-.17-1.36-.5-1.81-.67-.01-.5-.01-1.49-.01-1.98z"/><path fill="#6da5d3" d="M236.74 70.43c-.14-1.46.29-3.04 1.45-4.01 1.55.93.9 4.22-.96 4.41l-.49-.4z"/><path fill="#5da0d9" d="M185.93 68.18c.27.02.82.04 1.1.05.75 2.47.94 5.24-.93 7.27-.18-2.44-.28-4.88-.17-7.32z"/><path fill="#4279b9" d="M91 69.12c.34.08 1 .25 1.33.33l-.41 1.03-.84.21-.08-1.57z"/><path fill="#e09464" d="M160.88 68.98l1.15-.22c-.05 2-.06 4 .11 6-.39-.06-1.17-.17-1.56-.23-.08-.46-.13-.91-.17-1.37.08-1.4.25-2.8.47-4.18z"/><path fill="#ea8e55" d="M254.96 69.18c.27-.02.82-.04 1.09-.06.03 1.67-.06 3.34-.28 5-.37-.24-1.1-.72-1.47-.96a7.57 7.57 0 0 1 .66-3.98z"/><path fill="#ec8338" d="M119.48 73.39c-.87-1.54-.56-2.73.92-3.59.24.57.71 1.71.94 2.27-.26.34-.79 1.02-1.06 1.36l-.8-.04z"/><path fill="#a58d94" d="M91.08 70.69l.84-.21c1.23.84 1.55 1.93.95 3.27-1.55.78-2.68-1.95-1.79-3.06z"/><path fill="#eb994d" d="M153.21 71.07l.83-.01.08 1.58c-.33-.18-.99-.55-1.33-.74l.42-.83z"/><path fill="#f1ac69" d="M247.12 71.18h.81l.04 1.59-.81.05-.47-.81.43-.83z"/><path fill="#9ec1d5" d="M243.05 74.6c-.13-1.55 2.74-2.42 2.92-.58-.4 1.28-1.2 1.62-2.43 1.01l-.49-.43z"/><g fill="#b7b7b7"><path d="M97.46 104.43c.94 1.3 1.71 2.71 2.44 4.14-.62 1.67-1.21 3.36-1.76 5.06a77.72 77.72 0 0 0-.62-8.63l-.06-.57zM28.6 205.89c1.83.05 3.66.12 5.48.24 2.07 2.26 4.97 3.18 7.99 2.98 19.98.07 39.96.04 59.94.02 4.49.06 9.02.29 13.44-.64l.26-.02c.52.67 1.55 2.03 2.06 2.71-2.2.6-4.46 1.15-6.76 1.11-23.34-.24-46.69.08-70.03-.12-3.24-.2-6.67.03-9.69-1.37-1.89-.86-2.15-3.15-2.69-4.91zM293.69 206.34c1.48-.7 3.18-.34 4.76-.46-.26 5.35-6.14 6.54-10.46 6.37-32 0-64.01-.07-96.02-.01-2.51-.03-5.01-.14-7.52-.25.23-1.65.45-3.3.72-4.93.91.67 1.67 1.75 2.88 1.89 4.31.53 8.66.11 13 .18 27.65.08 55.3-.08 82.95.1 3.49.17 6.7-1.25 9.69-2.89z"/></g><path fill="#a75e26" d="M97.52 105c.36 2.86.58 5.74.62 8.63-.09.49-.26 1.49-.35 1.99-2.66-2.86-.75-7.26-.27-10.62z"/><path fill="#d8a66f" d="M76.99 124.12c-2.2-4.4-1.64-9.95-.11-14.46l.06 1.01c.17 4.48.04 8.96.05 13.45z"/><path fill="#ce9b76" d="M90.69 111.63c1.47-1.37 3.67-1.31 5.15.01-1.59.36-3.19.7-4.79.99-.35.62-1.06 1.86-1.41 2.48-.84 1.47-.95 3.26-.66 4.9l.19 1.35c-2.02-2.95-1.96-7.87 1.52-9.73z"/><path fill="#7cc0f1" d="M76.94 110.67l1.23 1.35c0 .24.01.73.01.98-.18 3.7.49 7.66-1.19 11.12-.01-4.49.12-8.97-.05-13.45z"/><path fill="#83b1d2" d="M84.72 112.23c2.85 3 1.81 8.21.33 11.72-.04-2.84-.04-5.68-.23-8.51-.02-.8-.07-2.41-.1-3.21z"/><path fill="#93c6ee" d="M71.86 113.58c2.56 2.03 1.85 6.53.53 9.05l-.53-.22.04-.41.09-.5c.04-1.49.05-2.98.04-4.46-.04-.87-.13-2.6-.17-3.46z"/><path fill="#f1c38b" d="M84.55 114.08l.27 1.36c.19 2.83.19 5.67.23 8.51-2.49-2.77-1.49-6.71-.5-9.87z"/><path fill="#379492" d="M88.98 120.01c-.29-1.64-.18-3.43.66-4.9.52 1.84 1.17 3.98 1.09 5.84-.44-.23-1.31-.7-1.75-.94z"/><path fill="#d59254" d="M71.21 117.17c.2-.03.61-.1.82-.13.01 1.48 0 2.97-.04 4.46l-.09.5c-.55-.08-1.65-.23-2.21-.31.49-1.52 1-3.02 1.52-4.52z"/><path fill="#fcd8ab" d="M101.21 121.18h.82c.01.42.02 1.25.03 1.66l-.8.04-.5-.83.45-.87z"/><path fill="#5790bf" d="M102.94 121.16l.81-.03.49.84-.45.86-.82-.01c0-.41-.02-1.24-.03-1.66z"/><path fill="#d48c51" d="M106.22 121.16l.81.01c.01.42.02 1.24.02 1.66l-.81.03-.48-.84.46-.86z"/><path fill="#6d717e" d="M107.03 121.17l.91-.01c.01.42.02 1.24.02 1.66l-.91.01c0-.42-.01-1.24-.02-1.66z"/><g fill="#96cdfc"><path d="M107.94 121.16l.81-.03.49.84-.46.86-.82-.01c0-.42-.01-1.24-.02-1.66zM84.87 160.39l1.13.45c.03 1.8.07 3.61.06 5.41v2.53c-.01.58-.01 1.75-.02 2.34l-1.47.46c.4-3.72.52-7.46.3-11.19z"/></g><path fill="#c7a084" d="M251.05 151.75c-2.56 1.3-2.66-4.49-.08-3.27.04 1.08.07 2.18.08 3.27z"/><g fill="#342b36"><path d="M250.97 148.48l.79-.66 1.34.49c-.01 1.12-.01 2.24.02 3.36l-1.03.64-1.04-.56c-.01-1.09-.04-2.19-.08-3.27zM250.78 154.14c.59.05 1.77.14 2.36.18-.04 1.14-.06 2.27-.04 3.41-.53.04-1.59.14-2.12.19.15-1.27.08-2.53-.2-3.78z"/></g><g fill="#87abcd"><path d="M253.1 148.31c2.52-1.24 2.54 4.61.02 3.36-.03-1.12-.03-2.24-.02-3.36zM253.14 154.32c2.5-1.2 2.46 4.58-.04 3.41-.02-1.14 0-2.27.04-3.41z"/></g><path fill="#c19a7a" d="M250.98 157.92c-2.33.78-2.5-4.27-.2-3.78.28 1.25.35 2.51.2 3.78z"/><path fill="#c7c3cb" d="M68.77 166.62c-.11-2.55.28-5.59 3.33-6.05-.7 2.22-1.75 4.32-3.33 6.05z"/><path fill="#ccb19b" d="M83.77 164.33c.07-1.4.44-2.72 1.1-3.94.22 3.73.1 7.47-.3 11.19l-.78-1.14-.04-.41a90.19 90.19 0 0 1-.02-5.2l.04-.5z"/><path fill="#d8c7c5" d="M71.92 164.39l.67.22c.21.06.64.2.85.26 1.54.35 3.07.78 4.35 1.78-1.54.19-3.07.37-4.6.52.06.18.2.55.27.73.15.61.45 1.83.6 2.43l-.07.78c-3.09-.85-2.1-4.36-2.07-6.72z"/><path fill="#feedcd" d="M86.06 166.25c.63-.93 1.28-1.84 1.98-2.72-.06 2.65-.06 5.31-.02 7.96a39.63 39.63 0 0 1-1.96-2.71v-2.53z"/><path fill="#b7cfeb" d="M88.04 163.53c2.34 2.11 2.39 5.88-.02 7.96-.04-2.65-.04-5.31.02-7.96z"/><path fill="#c2ab84" d="M99.83 165.75c-.08-2.08 2.06-.89 1.64.54l-.24.82-.37.63c.04.44.11 1.33.15 1.77-1.07 2.77-1.69-2.8-1.18-3.76z"/><path fill="#e8cfbe" d="M78.01 167.19c.63-.64 1.26-1.27 1.89-1.9.09.38.28 1.16.38 1.55.01.59.05 1.78.07 2.38-.09.26-.26.79-.35 1.05a13.48 13.48 0 0 1-1.68-2.38l-.31-.7z"/><path fill="#a6d9fb" d="M97.78 165.56c1.96-.13 1.98 4.24-.05 4.02-.12-1.34-.06-2.69.05-4.02z"/><path fill="#17a198" d="M101.23 167.11c1.51-.22 1.47 3.08-.22 2.4-.04-.44-.11-1.33-.15-1.77l.37-.63z"/><path fill="#777a84" d="M80 170.27c.09-.26.26-.79.35-1.05 1.15.19 2.28.46 3.4.81l.04.41c-1.1.82-2.27.93-3.51.33l-.28-.5z"/><path fill="#acadb9" d="M74.06 170.33c.72-1.33 3.77-.46 2.49 1.09-1.06.85-1.92.75-2.56-.31l.07-.78z"/><g fill="#a7a7a7"><path d="M34.08 206.13c12.66-.52 25.32-.47 37.98-.1 12.64-.38 25.28-.26 37.92-.32 1.74.09 3.83-.14 5.09 1.35.15.34.46 1.01.61 1.34-.06.03-.17.07-.23.09-4.42.93-8.95.7-13.44.64-19.98.02-39.96.05-59.94-.02-3.02.2-5.92-.72-7.99-2.98zM185.17 207.06c.06-.32.18-.96.24-1.27 27.84 0 55.7-.25 83.54.18 8.24-.33 16.52-.44 24.74.37-2.99 1.64-6.2 3.06-9.69 2.89-27.65-.18-55.3-.02-82.95-.1-4.34-.07-8.69.35-13-.18-1.21-.14-1.97-1.22-2.88-1.89z"/></g><path fill="#f2f4f5" d="M115.45 208.49c.06-.02.17-.06.23-.09l.03.07-.26.02z"/></svg>