<svg xmlns="http://www.w3.org/2000/svg" width="196" height="174" viewBox="0 0 196 174"><g fill="#162A36"><path d="M36.4 89.1c8.2-23.6 30.1-42.7 55.4-45 15.7-1.3 31.4 4.7 43.4 14.7 9.6 7.9 16.7 18.6 21.2 30.2-6.7 13.1-17.4 24.2-30.7 30.7-17.4 8.7-38.7 9-56.5 1.1-14.2-6.3-26-17.8-32.8-31.7m49-28.8c-13.1 3-25.6 11-31.9 23.1-1 2.3-2.7 4.9-1.6 7.6 4.1 11.3 14.1 19.6 25 24.1 12.9 5.4 27.9 5.2 40.6-.7 10.8-4.9 20.6-13.7 24-25.4-2.2-7.7-7.3-14.1-13.5-19-11.9-9.3-27.9-13.2-42.6-9.7z"/><path d="M89.6 67.5c7-2.2 15.2-.8 20.8 4 5.5 4.4 8.8 11.5 8.2 18.5.1 12.9-13.1 23.6-25.7 21.2-13.2-1.5-22.4-16.3-18.1-28.9 3.2 7.5 14.4 8.9 19.2 2.3 4.6-5.5 2.2-14.4-4.4-17.1z"/></g></svg>