<svg id="Layer_1" xmlns="http://www.w3.org/2000/svg" viewBox="240 308 1136.1 177"><style>.st0{fill:#e0e0e0;stroke:#e0e0e0;stroke-width:4;stroke-miterlimit:10}</style><path class="st0" d="M277 465V342.3h50.5c12.5 0 23.3 4.5 32.2 13.5 8.9 8.9 13.4 19.7 13.4 32.3 0 12.6-4.5 23.4-13.4 32.3-3.1 3.1-6.7 5.8-10.9 8.1l21.3 36.6h-4l-21.3-36.7-.9-1.5c5-2.1 9.4-5 13.3-8.9 8.3-8.2 12.4-18.1 12.4-29.8s-4.1-21.7-12.4-29.8c-8.1-8.2-18-12.3-29.8-12.3h-47v119.2H277v-.3zm45.2-111.1c7.7.1 14.3 2.3 19.9 6.4 5 3.8 8.7 8.9 11.1 15.3 1.8 4.7 2.7 9.7 2.7 14.9 0 5.1-.9 10.1-2.7 14.8-4.2 11.4-11.9 18.3-23.2 20.7l22.6 39h-4l-22.3-38.3c-.3.1-.8.1-1.5.1-.7.1-1.2.1-1.5.2H316v-3.5h6.5c6.8-.2 12.6-2.1 17.5-5.8 4.5-3.3 7.7-7.8 9.9-13.5 1.6-4.3 2.4-8.9 2.4-13.6 0-4.7-.8-9.3-2.4-13.6-2.1-5.7-5.4-10.3-9.9-13.6-4.9-3.7-10.8-5.7-17.6-5.8H293v107.6h-3.4V353.9h32.6zm2.4 13.7c9.1.4 15.3 5 18.6 13.9 1.1 2.8 1.6 5.9 1.6 9.3 0 3.3-.5 6.4-1.6 9.3-1.4 4-3.7 7.2-6.7 9.6-3.4 2.6-7.4 4-12 4.1-.1 0-1.5 0-4 .1h-4v-3.6h8.1c7.5-.3 12.7-4.1 15.3-11.4.9-2.4 1.4-5.1 1.4-8.1 0-2.7-.5-5.5-1.4-8.1-2.7-7.4-7.9-11.3-15.5-11.6h-18.8V465H302v-97.4h22.6zm-2 14.4c2.3 0 4.4.8 6.2 2.5 1.7 1.8 2.5 3.8 2.5 6.2s-.8 4.4-2.5 6.1c-1.7 1.8-3.8 2.7-6.2 2.7h-4.5v65.7h-3.5v-83.1h8v-.1zm11.5 83H330l-15.2-26.1 3-1.7 16.3 27.8zm-15.9-69.1h4.5c1.4 0 2.7-.5 3.7-1.6 1-1 1.5-2.2 1.5-3.6 0-1.3-.5-2.5-1.5-3.7-1.1-1-2.3-1.5-3.7-1.5h-4.5v10.4zM389.3 465h-4.2l68.6-120.7 1.4-2.4 1.3 2.4L525 465h-4.2l-65.7-115.8L389.3 465zm117.3 0h4.1l-54.3-96.8-1.3-2.4-1.4 2.4-54.3 96.9h4.1l51.5-91.9 51.6 91.8zm-14.7 0h4.2l-39.4-70.5-1.5-2.7-1.5 2.7-39.4 70.5h4l36.9-65.8 36.7 65.8zm-57.4 0h-4.1l24.1-42.7.6-1.2.7 1.2 24 42.7h-4.1l-20.6-36.5-20.6 36.5zM595.8 403.7c2.5 2.7 3.8 5.9 3.8 9.4 0 3.6-1.3 6.8-3.8 9.5-2.5 2.6-5.5 3.9-9.1 3.9l-43.6.2V423l43.6-.3c2.5 0 4.7-.9 6.6-2.8 1.8-1.9 2.7-4.2 2.7-6.9s-.9-4.9-2.7-6.8c-1.8-1.9-3.9-2.8-6.3-2.8-13.7 0-25.5-5.1-35.3-15.4-9.8-10.2-14.7-22.5-14.7-36.9 0-3 .3-6.1.8-9.3h3.7c-.6 3-.9 6.1-.9 9.3 0 13.3 4.6 24.7 13.7 34.2 9 9.4 19.8 14.2 32.4 14.3 3.5.2 6.6 1.5 9.1 4.1zm-12.6-43.6c-2.5-2.6-3.8-5.8-3.8-9.4 0-3.4 1.1-6.3 3.2-8.7h5.7c-.9.4-1.7 1-2.6 1.9-1.8 1.9-2.7 4.2-2.7 6.9s.9 4.9 2.7 6.8c1.7 1.9 3.9 2.8 6.5 2.8 13.7.1 25.3 5.3 35.1 15.4 9.8 10.2 14.7 22.5 14.7 36.9 0 14.3-4.9 26.6-14.7 36.9-9.8 10.3-21.5 15.4-35.2 15.4l-48.9.2v-3.7l48.9-.3c12.7 0 23.7-4.8 32.8-14.3s13.6-20.9 13.6-34.2c0-13.3-4.5-24.7-13.6-34.3-9.1-9.5-20-14.2-32.8-14.2-3.5-.2-6.4-1.5-8.9-4.1zm32.2 21.8c7.5 7.8 11.2 17.2 11.2 28v3.9c0 10.2-3.4 19.1-10.2 26.9-6.6 7.7-14.3 11.7-23.3 11.9l-50 .9v-3.6l50-1c7.9-.2 14.8-3.8 20.7-10.6 6.2-7.1 9.3-15.2 9.3-24.4V410c0-9.9-3.4-18.3-10.2-25.4-6.7-7.1-14.9-10.7-24.4-10.7-7.1 0-13.1-2.6-18.2-7.9-5-5.4-7.5-11.7-7.5-19.1 0-1.9.1-3.5.4-4.9h3.6c-.3 1.7-.5 3.3-.5 4.9 0 6.4 2.2 11.9 6.6 16.5 4.4 4.5 9.7 6.8 15.8 6.8 10.5 0 19.3 4 26.7 11.7zm-10.3 11.8c5 5.4 7.5 11.7 7.5 19.1 0 7.4-2.5 13.8-7.5 19.2-5 5.3-11.1 7.9-18.3 7.9l-43.6.3v-3.7l43.6-.3c6.1 0 11.4-2.3 15.8-6.8 4.4-4.6 6.6-10.1 6.6-16.5s-2.2-11.9-6.6-16.5c-4.4-4.5-9.7-6.8-15.8-6.8-10.1-.5-18.6-4.4-25.6-11.7-7.5-7.7-11.2-17.1-11.2-28.1v-3.9c0-.9.1-2.2.2-3.9h3.7c-.2 1.4-.3 2.7-.3 3.9v3.9c0 9.9 3.4 18.4 10.2 25.5 6.7 7.1 14.8 10.6 24.4 10.6 6.5.3 12.2 2.9 16.9 7.8zM759 359.8l-2.4 2.4c-11.4-11.4-25.1-17.1-41.2-17.1-16 0-29.7 5.7-41.2 17.1-11.4 11.3-17.1 25-17.1 41.2 0 16.2 5.7 29.8 17.1 41.2 11.4 11.4 25.1 17.1 41.2 17.1s29.8-5.7 41.2-17.1c.7-.7 1.2-1.2 1.5-1.6l2.5 2.3-.9.9c-.3.4-.6.7-.8.9-12.2 12.1-26.7 18.1-43.6 18.1-17 0-31.5-6-43.5-18.1-12.1-12.1-18.1-26.6-18.1-43.6s6-31.5 18.1-43.6c11.9-12.1 26.4-18.1 43.5-18.1 17.2-.1 31.7 6 43.7 18zm-9 9l-2.4 2.3c-9-8.9-19.7-13.3-32.2-13.3s-23.3 4.4-32.2 13.3c-8.9 9-13.3 19.8-13.3 32.2 0 12.5 4.4 23.3 13.3 32.2 9 8.9 19.7 13.3 32.2 13.3s23.2-4.4 32.2-13.3c.1-.2.3-.4.6-.7.3-.3.5-.5.6-.7l2.5 2.3-.7.7c-.3.3-.5.6-.6.8-9.5 9.5-21.1 14.2-34.6 14.2-13.6 0-25.1-4.7-34.5-14.2-9.5-9.6-14.3-21.1-14.3-34.6s4.8-25 14.3-34.6c9.4-9.5 20.9-14.3 34.5-14.3 13.6.1 25.1 4.9 34.6 14.4zm-9.1 9l-2.3 2.4c-6.4-6.4-14.1-9.6-23.1-9.6s-16.7 3.2-23.1 9.6c-6.4 6.4-9.6 14.1-9.6 23.1s3.2 16.7 9.6 23.1c6.4 6.5 14.1 9.7 23.1 9.7s16.7-3.2 23.1-9.7l.9-.9 2.4 2.3-1 1c-7 7-15.5 10.5-25.5 10.5s-18.5-3.5-25.6-10.5c-7-7.1-10.5-15.7-10.5-25.6s3.5-18.4 10.5-25.6c7-7 15.5-10.5 25.6-10.5 10 .2 18.5 3.7 25.5 10.7zm-9 9.1l-2.3 2.3c-3.9-3.9-8.6-5.9-14.1-5.9s-10.3 1.9-14.1 5.8v.1c-3.9 3.9-5.9 8.7-5.9 14.1s2 10.2 5.9 14.1c3.9 3.9 8.7 5.9 14.1 5.9s10.1-2 14.1-5.9l.3-.3c.1-.2.2-.3.3-.3l2.5 2.3c-.2.3-.4.5-.7.7-4.5 4.6-9.9 6.9-16.5 6.9s-12.1-2.3-16.5-6.9c-4.5-4.5-6.8-10-6.8-16.5s2.3-12 6.8-16.5c4.5-4.6 10-6.9 16.5-6.9 6.5.2 12 2.5 16.4 7zm-8.9 9l-2.4 2.4c-1.4-1.4-3.1-2.1-5.1-2.1-2.1 0-3.8.7-5.1 2.1h-.1c-1.4 1.5-2.1 3.2-2.1 5.1 0 2 .7 3.7 2.1 5.2 1.4 1.4 3.1 2.1 5.1 2.1 1.9 0 3.7-.7 5.1-2.1l.2-.3 2.5 2.3-.3.3c-2.1 2.1-4.6 3.1-7.5 3.1-3 0-5.5-1.1-7.5-3.2v.1c-2.1-2.1-3.2-4.6-3.2-7.5 0-2.9 1.1-5.4 3.2-7.5 2-2.1 4.5-3.1 7.5-3.1s5.6 1 7.6 3.1zM772.7 464.9V342.4h3.2v122.4l-3.2.1zm12.5 0V342.4h3.2v122.4l-3.2.1zm14.6-122.5h3.1v52.5h34.7v-52.5h3.2V398h-41v-55.6zm0 122.6h3.1v-56.6h34.7v56.1h3.2v-59.2h-41V465zm12.4-122.6h3.1v39.3h9.8v-39.3h3.2v42.4h-16l-.1-42.4zm0 121.9h3.1v-42.8h9.8v43h3.2v-46h-16l-.1 45.8zm35.6.6V342.4h3.3v122.4l-3.3.1zm12.5 0V342.4h3.3v122.4l-3.3.1zM924.6 465V342.5h3.3V465h-3.3zM999 342.5v3.3h-58.6v115.8H999v3.3h-62V342.5h62zm0 13.1v3.3h-45.6v36.3H999v3.3h-48.9v-43H999v.1zm0 52v3.3h-45.6v36.3H999v3.4h-48.9v-43H999zm0-38.9v3.3h-31.8v10.1H999v3.3h-35.2v-16.8H999v.1zm0 52v3.3h-31.8v10.2H999v3.3h-35.2v-16.8H999zM1011 341.9h96.4v3.6H1011v-3.6zm0 13.8h96.4v3.5H1011v-3.5zm0 13h45v96.4h-3.6v-92.9H1011v-3.5zm0 11.9h33.1v84.5h-3.6v-80.9H1011v-3.6zm96.4-8.4h-37.6v92.9h-3.6v-96.4h41.2v3.5zm0 11.9h-25.7V465h-3.5v-84.5h29.2v3.6zM1119.4 341.9h96.4v3.6h-96.4v-3.6zm0 13.8h96.4v3.5h-96.4v-3.5zm0 13h45v96.4h-3.6v-92.9h-41.4v-3.5zm0 11.9h33.1v84.5h-3.6v-80.9h-29.5v-3.6zm96.3-8.4h-37.6v92.9h-3.6v-96.4h41.2v3.5zm0 11.9H1190V465h-3.5v-84.5h29.2v3.6zM1283.5 342.9l.7-.1h.8l.8-.1h2.4l.9-.1.7.1h2.4l.8.1h.9l.7.1c14.6 1.3 27.2 7.2 37.8 17.7 11.9 11.9 17.8 26.4 17.8 43.3 0 16.1-5.4 29.9-16.2 41.6-.8.9-1.3 1.5-1.6 1.8-10.6 10.5-23.2 16.3-37.8 17.7l-.7.1h-.9l-.8.1h-6.3l-.8-.1h-.8l-.7-.1c-14.7-1.3-27.4-7.2-37.8-17.7-.7-.8-1.3-1.4-1.7-1.8-10.8-11.7-16.2-25.5-16.2-41.6 0-16.9 6-31.3 17.9-43.3 10.3-10.5 22.9-16.4 37.7-17.7zm9.8 3.3l-.8-.2h-.7l-.8-.1h-4.5l-.8.1h-.8l-.6.2h-.8c-14 1.2-25.9 6.8-35.7 16.7-11.3 11.3-16.9 24.9-16.9 40.9 0 16.1 5.6 29.7 16.9 41 9.8 9.9 21.7 15.5 35.7 16.7h.8l.6.1h.8l.8.1h4.5l.8-.1h.7l.8-.1h.7c13.9-1.2 25.9-6.8 35.8-16.7 11.3-11.4 16.9-25 16.9-41 0-15.9-5.6-29.5-16.9-40.9-9.9-9.9-21.8-15.5-35.8-16.7h-.7zm-8.2 9.3l.7-.1h1.8l.7-.2h1.2l.7.2h1.9l.5.1h.7c11.6 1 21.6 5.7 29.9 14.1 9.4 9.4 14.1 20.9 14.1 34.3 0 12.7-4.3 23.7-12.8 32.9v.1l-1.4 1.4c-8.3 8.3-18.3 13-29.9 14.1h-.7l-.5.1h-1.9l-.7.1h-1.2l-.7-.1h-1.8l-.7-.1h-.5c-11.7-1-21.7-5.7-30-14.1-.4-.5-.9-1-1.4-1.4v-.1c-8.5-9.3-12.8-20.2-12.8-32.9 0-13.3 4.7-24.7 14.1-34.3 8.3-8.3 18.3-13 30-14.1h.7zm7.8 3.3l-.5-.1h-.6l-.6-.1h-4.6l-.6.1h-.5l-.6.1c-10.7 1-20.1 5.3-28 13.1-8.8 8.8-13.2 19.4-13.2 31.9s4.4 23.2 13.2 32c7.9 7.8 17.2 12.1 28 13l.6.2h.5l.6.1h4.6l.6-.1h.6l.5-.2c10.9-.9 20.2-5.3 28-13 8.8-8.8 13.2-19.5 13.2-32s-4.4-23.1-13.2-31.9c-7.8-7.7-17.1-12.1-28-13.1zm-7.2 9.3l.3-.1h1.5l.5-.1h1.9l.3.1h1.4l.5.1c8.6.8 16 4.3 22.1 10.4v.1c7 6.9 10.5 15.3 10.5 25.3 0 9.4-3.1 17.5-9.4 24.4-.1.1-.3.3-.5.4l-.5.5c-6.1 6.2-13.4 9.6-22.1 10.4l-.5.1h-1.4l-.3.2h-2l-.5-.2h-1.5l-.3-.1c-8.7-.7-16.1-4.2-22.2-10.4l-.9-.9c-6.3-6.9-9.5-15-9.5-24.4 0-9.9 3.5-18.3 10.5-25.3v-.1c6-6.2 13.4-9.6 22.1-10.4zm5.7 3.3l-.3-.1h-4.3l-.3.1h-.5c-7.7.7-14.4 3.8-20.1 9.3-6.3 6.5-9.5 14.1-9.5 23.1 0 8.9 3.2 16.6 9.5 23.1 5.7 5.5 12.3 8.7 20.1 9.3h.4l.3.1h4.3l.3-.1h.4c7.8-.7 14.5-3.8 20.1-9.3 6.3-6.5 9.5-14.2 9.5-23.1 0-8.9-3.2-16.6-9.5-23.1-5.5-5.5-12.2-8.7-20.1-9.3h-.3zm-4 9.3l.3-.1h2.4l.3.1h.3c5.7.4 10.6 2.6 14.7 6.7h-.1c4.5 4.6 6.8 10.1 6.8 16.5 0 6.2-2 11.5-6.1 15.9-.3.2-.5.4-.6.6-4.1 4-9 6.3-14.7 6.8h-.6l-.3.1h-1.8l-.3-.1h-.5c-5.8-.5-10.7-2.8-14.7-6.8l-.7-.6c-4.1-4.5-6.1-9.8-6.1-15.9 0-6.4 2.3-11.9 6.8-16.5 4.1-4.1 9-6.3 14.7-6.7h.2zm2 3.3l-.3-.1h-.5l-.3.1h-1.2c-.2 0-.4 0-.7.1-.2 0-.4 0-.6.1-.1 0-.2 0-.4.1h-.3l-.3.1c-.1 0-.2 0-.3.1h-.3l-.3.1c-.2.1-.5.1-.9.3-.3.1-.6.2-.8.3l-.3.1-.2.1c-2.7 1.1-5 2.6-7 4.5-3.9 3.9-5.8 8.6-5.8 14.1s1.9 10.2 5.8 14.1c2 1.9 4.3 3.5 7 4.5l.2.1.3.1c.2.1.4.1.8.3.4.1.7.1.9.2h.3c.3.2.5.3.7.3l.3.1h.3c.2.1.4.1.4.1.2 0 .4 0 .6.1.3.1.5.1.7.1h3.4c.2-.1.4-.1.7-.1.3-.1.5-.1.7-.1.1 0 .2 0 .3-.1h.5l.2-.1c.1 0 .4-.1.8-.3h.2c.2-.1.5-.1.9-.2l.9-.3.2-.1.2-.1c2.8-1.1 5.1-2.6 7-4.5 3.9-3.8 5.8-8.5 5.8-14.1 0-5.5-1.9-10.2-5.7-14.1h-.1c-1.8-1.9-4.2-3.4-7-4.5l-.2-.1-.2-.1c-.2-.1-.5-.1-.9-.3-.4-.1-.7-.2-.9-.3l-.2-.1h-.4c-.2-.1-.3-.1-.3-.1l-.2-.1h-.5c-.2-.1-.3-.1-.3-.1-.2-.1-.4-.1-.7-.1-.3-.1-.5-.1-.7-.1h-1.3zm-1.2 9.3c-2.7.2-5 1.2-6.9 3.1h.2c-2.1 2-3.2 4.5-3.2 7.5 0 2.8.9 5.2 2.7 7.2l.3.3c1.9 1.8 4.1 2.8 6.8 3.1h1.5c2.6-.3 4.8-1.3 6.8-3.1 0-.1 0-.1.1-.2l.2-.2c1.9-2.1 2.8-4.5 2.8-7.2 0-2.9-1-5.3-3.1-7.5-1.9-1.9-4.2-2.9-6.9-3.1h-1.3v.1zm4.3 4.2c.6.4 1.1.8 1.5 1.3 1.4 1.4 2.1 3.1 2.1 5.1 0 2.1-.7 3.8-2.1 5.1-.5.5-1 .9-1.5 1.1l-.1.1-.2.1c-.1.1-.1.1-.3.2l-.2.2h-.2c-.1 0-.1 0-.3.1-.1 0-.2 0-.3.1h.1c-.1 0-.2 0-.3.1-.1.1-.2.1-.3.1h-.3l-.1.1h-.8l-.1.1h-.6l-.1-.1h-.9l-.1-.1h-.3c-.1 0-.2 0-.3-.1s-.2-.1-.3-.1c-.6-.2-.8-.2-.7-.2 0-.1-.1-.1-.3-.2-.1-.1-.2-.1-.3-.2l-.2-.1v-.1c-.7-.3-1.2-.7-1.5-1.1-1.4-1.4-2.1-3.1-2.1-5.1 0-1.9.7-3.6 2.1-5.1h.1c.2-.3.7-.8 1.5-1.3l.2-.1c.1 0 .1 0 .3-.1.1-.1.2-.1.3-.2-.1.1.1 0 .7-.2.1-.1.1-.1.3-.1.2-.1.3-.1.3-.1h.3l.1-.1h.8v-.2h.9v.2h.7l.1.1h.3c.1 0 .1 0 .3.1.2 0 .3 0 .3.1h.1c.1 0 .1 0 .3.1.1.1.2.1.3.1h.2l.2.2c.1.1.2.1.4.2zM878.8 344h3.3v122.5h-3.3zM892.3 325.6h3.3v140.9h-3.3zM905.1 344h3.3v122.5h-3.3z"/></svg>