<svg id="Layer_1" xmlns="http://www.w3.org/2000/svg" viewBox="227 15 1065 620"><style>.st0,.st1{fill:#e0e0e0}.st1{stroke:#e0e0e0;stroke-width:4;stroke-miterlimit:10}.st2{enable-background:new}</style><g id="XMLID_2_"><g id="XMLID_3_"><path id="XMLID_4_" class="st0" d="M574.2 27.9c12.7-2.7 25.9-2.4 38.5 1 13.5 3.5 26.1 10.5 36.2 20.1 14.7 13.8 24 33.4 25.4 53.6.9 10.5-.6 21.2-3.8 31.3 2.5 3.1 4.9 6.3 7.4 9.5 1.1 1.3 1 3.5-.5 4.6-14.1 10.7-28.2 21.4-42.2 32.1-.1 3.5-1.6 7.1-4.3 9.4-5.2 6.7-10.3 13.5-15.5 20.1-.2 9.7-.3 19.5-.5 29.2h-17.1v-13h-4v13h-17v-9c-2.7 1.3-5.6 1.5-8.5 1.2-2.1 1.1-4.5 1.4-6.7 1.9-13 2.1-26.1 4.2-39.1 6.4 5.6-13.1 11.1-26.2 16.7-39.3.6-1.3 1.6-2.4 2.7-3.3 5.4-4 10.8-8.2 16.2-12.2-20.9-9.2-37.6-27.4-44.9-48.9-8.2-23.1-5.1-49.9 8.1-70.5 11.6-19.1 31.3-32.8 52.9-37.2zm-55 73.5c-.9 1.6-1 3.5-1.1 5.3-.6 17.4 5.3 34.9 16.3 48.3 8.4 10.3 19.8 18.2 32.3 22.7 8.2-6.2 16.4-12.4 24.6-18.7-4.7-.2-9.1-2.3-13-4.7-7.2-4.7-13.5-10.6-19.5-16.9-8.3-8.7-15.8-18.1-23.9-27-2.8-3-5.6-6-8.7-8.5-1.3-1-2.8-1.9-4.5-2.1-1-.1-2 .6-2.5 1.6zm26.6 101.4c4.2 5.5 8.4 10.9 12.6 16.3-.2-3.5 1.3-7.2 3.9-9.6 5.2-4.8 14.4-4 18.5 1.8h2.3l30-23.1c-2.9-3.2-3.9-8-2.4-12.2 1.7-4.9 6.6-8.7 11.9-8.6 4.2 0 8.2 2.3 10.5 5.8 12.4-9.4 24.7-18.8 37-28.3-6-7.9-12-15.8-17.9-23.8-35.6 27.2-71 54.5-106.4 81.7zm75.7-28.2c-3 .6-4.9 3.8-4.3 6.8.4 2.7 2.9 4.8 5.6 4.7 3.2.2 5.6-2.9 5.9-5.9 0-3.5-3.7-6.5-7.2-5.6zm-78 29.6c-2.3 6.3-4.8 12.5-7.1 18.8 1.5 2 2.9 4.2 4.5 6.2 6.9-.5 13.7-1.1 20.6-1.8-6-7.7-11.8-15.6-18-23.2zm25.2 9.1c-2.9.7-4.8 3.8-3.9 6.7.8 3.6 5.3 5.3 8.5 3.5 2.9-1.3 3.9-5.3 2.2-7.9-1.4-2.2-4.4-3-6.8-2.3z"/></g></g><path class="st1" d="M238.9 304.2V181.5h50.5c12.5 0 23.3 4.5 32.2 13.5 8.9 8.9 13.4 19.7 13.4 32.3s-4.5 23.4-13.4 32.3c-3.1 3.1-6.7 5.8-10.9 8.1l21.3 36.6h-4l-21.3-36.7-.9-1.5c5-2.1 9.4-5 13.3-8.9 8.3-8.2 12.4-18.1 12.4-29.8s-4.1-21.7-12.4-29.8c-8.1-8.2-18-12.3-29.8-12.3h-47v119.2h-3.4v-.3zm45.2-111.1c7.7.1 14.3 2.3 19.9 6.4 5 3.8 8.7 8.9 11.1 15.3 1.8 4.7 2.7 9.7 2.7 14.9 0 5.1-.9 10.1-2.7 14.8-4.2 11.4-11.9 18.3-23.2 20.7l22.6 39h-4l-22.3-38.3c-.3.1-.8.1-1.5.1-.7.1-1.2.1-1.5.2h-7.3v-3.5h6.5c6.8-.2 12.6-2.1 17.5-5.8 4.5-3.3 7.7-7.8 9.9-13.5 1.6-4.3 2.4-8.9 2.4-13.6s-.8-9.3-2.4-13.6c-2.1-5.7-5.4-10.3-9.9-13.6-4.9-3.7-10.8-5.7-17.6-5.8h-29.4v107.6h-3.4V193.1h32.6zm2.4 13.7c9.1.4 15.3 5 18.6 13.9 1.1 2.8 1.6 5.9 1.6 9.3 0 3.3-.5 6.4-1.6 9.3-1.4 4-3.7 7.2-6.7 9.6-3.4 2.6-7.4 4-12 4.1-.1 0-1.5 0-4 .1h-4v-3.6h8.1c7.5-.3 12.7-4.1 15.3-11.4.9-2.4 1.4-5.1 1.4-8.1 0-2.7-.5-5.5-1.4-8.1-2.7-7.4-7.9-11.3-15.5-11.6h-18.8v93.9h-3.6v-97.4h22.6zm-2 14.4c2.3 0 4.4.8 6.2 2.5 1.7 1.8 2.5 3.8 2.5 6.2s-.8 4.4-2.5 6.1c-1.7 1.8-3.8 2.7-6.2 2.7H280v65.7h-3.5v-83.1h8v-.1zm11.5 83h-4.1L276.7 278l3-1.7 16.3 27.9zm-15.9-69.1h4.5c1.4 0 2.7-.5 3.7-1.6 1-1 1.5-2.2 1.5-3.6 0-1.3-.5-2.5-1.5-3.7-1.1-1-2.3-1.5-3.7-1.5h-4.5v10.4zM351.2 304.2H347l68.6-120.7 1.4-2.4 1.3 2.4 68.6 120.7h-4.2L417 188.4l-65.8 115.8zm117.3 0h4.1l-54.3-96.8-1.3-2.4-1.4 2.4-54.3 96.9h4.1l51.5-91.9 51.6 91.8zm-14.7 0h4.2l-39.4-70.5-1.5-2.7-1.5 2.7-39.4 70.5h4l36.9-65.8 36.7 65.8zm-57.4 0h-4.1l24.1-42.7.6-1.2.7 1.2 24 42.7h-4.1L417 267.7l-20.6 36.5zM562.5 268.8c2.1 1.3 3.3 2.9 3.4 4.7.1 1.9-1 3.6-3.1 5-2.2 1.4-4.8 2.1-8 2.1l-38.6.1.4-2 38.2-.2c2.2 0 4.1-.5 5.7-1.5 1.5-1 2.3-2.2 2.2-3.6 0-1.4-.8-2.5-2.4-3.4-1.5-.9-3.3-1.4-5.2-1.4-11.3 0-20.8-2.4-27.9-7.2-6.8-4.4-9.3-9.5-7.9-15 .3-1.1.8-2.2 1.4-3.4h2.6c-.7 1.1-1.1 2.2-1.4 3.4-1.2 5.1 1.3 9.7 7.6 13.8 6.6 4.2 15.1 6.5 25.4 6.5 3 .2 5.5.8 7.6 2.1zm-9.9-18.9c-1.8-1-2.7-2.2-2.6-3.5.1-1.2.9-2.3 2.4-3.1h4c-.6.1-1.2.4-1.9.7-1.3.7-2 1.5-2 2.5s.6 1.8 1.9 2.6c1.2.7 2.9 1.1 4.8 1.1 10.1 0 19 2.1 27.1 6.2 8.5 4.4 13.8 10 15.6 17.1 1.9 7.6-.8 14.7-8.7 21.1-8.4 6.8-19.6 10.3-33.3 10.3l-48.9.1.6-2.6 48.3-.2c12.5 0 23-3.3 30.8-9.4 7.3-5.8 9.9-12.3 8.3-19.4-1.5-6.5-6.3-11.8-14.2-16-7.5-3.9-15.9-5.8-25.5-5.8-2.7-.2-4.8-.7-6.7-1.7zm24.9 8.9c6.4 3.4 10.1 7.8 11.1 13l.3 2c1 5.4-1.2 10.4-6.8 15-5.6 4.8-12.8 7.3-21.4 7.5l-48.1.6.5-2.3 47.5-.6c7.5-.1 13.8-2.4 18.9-6.5 5.1-4.1 7.1-8.6 6.4-13.5l-.3-2c-.8-4.8-4.1-8.8-9.9-11.9-5.5-3.1-11.9-4.6-19.2-4.6-5.4 0-10-1.1-13.6-3.2-3.5-2.1-5-4.5-4.7-7.2.1-.7.2-1.3.5-1.8h2.5c-.3.6-.5 1.2-.5 1.8-.3 2.4 1.1 4.4 4.2 6.2 3.2 1.8 7.1 2.7 11.8 2.7 7.9-.1 14.7 1.6 20.8 4.8zm-7.6 5.3c4.3 2.5 6.7 5.6 7.1 9.3.4 3.9-1.4 7.3-5.6 10.4-4.3 3.1-9.9 4.6-16.5 4.6l-40.3.1.5-2.2 39.8-.2c5.6 0 10.3-1.3 14.2-3.9 3.7-2.6 5.4-5.5 5.1-8.9-.3-3.2-2.4-5.9-6.1-8.1-3.7-2.1-7.9-3.1-12.8-3.1-8-.2-14.6-2-19.7-5.1-5.3-3.2-7.4-6.9-6.6-11.1l.3-1.4c.1-.3.2-.8.4-1.4h2.6c-.2.5-.4 1-.4 1.4l-.2 1.4c-.6 3.7 1.4 7.1 6.1 10 4.9 3 11.1 4.5 18.7 4.5 4.9.3 9.5 1.4 13.4 3.7zM739.9 201l-2.4 2.4c-11.4-11.4-25.1-17.1-41.2-17.1-16 0-29.7 5.7-41.2 17.1-11.4 11.3-17.1 25-17.1 41.2s5.7 29.8 17.1 41.2c11.4 11.4 25.1 17.1 41.2 17.1s29.8-5.7 41.2-17.1c.7-.7 1.2-1.2 1.5-1.6l2.5 2.3-.9.9c-.3.4-.6.7-.8.9-12.2 12.1-26.7 18.1-43.6 18.1-17 0-31.5-6-43.5-18.1-12.1-12.1-18.1-26.6-18.1-43.6s6-31.5 18.1-43.6c11.9-12.1 26.4-18.1 43.5-18.1 17.2-.1 31.7 6 43.7 18zm-9 9l-2.4 2.3c-9-8.9-19.7-13.3-32.2-13.3s-23.3 4.4-32.2 13.3c-8.9 9-13.3 19.8-13.3 32.2 0 12.5 4.4 23.3 13.3 32.2 9 8.9 19.7 13.3 32.2 13.3s23.2-4.4 32.2-13.3c.1-.2.3-.4.6-.7.3-.3.5-.5.6-.7l2.5 2.3-.7.7c-.3.3-.5.6-.6.8-9.5 9.5-21.1 14.2-34.6 14.2-13.6 0-25.1-4.7-34.5-14.2-9.5-9.6-14.3-21.1-14.3-34.6s4.8-25 14.3-34.6c9.4-9.5 20.9-14.3 34.5-14.3 13.6.1 25.1 4.9 34.6 14.4zm-9.1 9l-2.3 2.4c-6.4-6.4-14.1-9.6-23.1-9.6s-16.7 3.2-23.1 9.6c-6.4 6.4-9.6 14.1-9.6 23.1s3.2 16.7 9.6 23.1c6.4 6.5 14.1 9.7 23.1 9.7s16.7-3.2 23.1-9.7l.9-.9 2.4 2.3-1 1c-7 7-15.5 10.5-25.5 10.5s-18.5-3.5-25.6-10.5c-7-7.1-10.5-15.7-10.5-25.6s3.5-18.4 10.5-25.6c7-7 15.5-10.5 25.6-10.5 10 .2 18.5 3.7 25.5 10.7zm-9 9.1l-2.3 2.3c-3.9-3.9-8.6-5.9-14.1-5.9s-10.3 1.9-14.1 5.8v.1c-3.9 3.9-5.9 8.7-5.9 14.1s2 10.2 5.9 14.1c3.9 3.9 8.7 5.9 14.1 5.9s10.1-2 14.1-5.9l.3-.3c.1-.2.2-.3.3-.3l2.5 2.3c-.2.3-.4.5-.7.7-4.5 4.6-9.9 6.9-16.5 6.9s-12.1-2.3-16.5-6.9c-4.5-4.5-6.8-10-6.8-16.5s2.3-12 6.8-16.5c4.5-4.6 10-6.9 16.5-6.9 6.5.2 12 2.5 16.4 7zm-8.9 9l-2.4 2.4c-1.4-1.4-3.1-2.1-5.1-2.1-2.1 0-3.8.7-5.1 2.1h-.1c-1.4 1.5-2.1 3.2-2.1 5.1 0 2 .7 3.7 2.1 5.2 1.4 1.4 3.1 2.1 5.1 2.1 1.9 0 3.7-.7 5.1-2.1l.2-.3 2.5 2.3-.3.3c-2.1 2.1-4.6 3.1-7.5 3.1-3 0-5.5-1.1-7.5-3.2v.1c-2.1-2.1-3.2-4.6-3.2-7.5s1.1-5.4 3.2-7.5c2-2.1 4.5-3.1 7.5-3.1s5.6 1 7.6 3.1zM753.6 306.1V183.6h3.2V306l-3.2.1zm12.5 0V183.6h3.2V306l-3.2.1zm14.6-122.5h3.1v52.5h34.7v-52.5h3.2v55.6h-41v-55.6zm0 122.6h3.1v-56.6h34.7v56.1h3.2v-59.2h-41v59.7zm12.4-122.6h3.1v39.3h9.8v-39.3h3.2V226h-16l-.1-42.4zm0 121.9h3.1v-42.8h9.8v43h3.2v-46h-16l-.1 45.8zm35.6.6V183.6h3.3V306l-3.3.1zm12.5 0V183.6h3.3V306l-3.3.1zM856.5 306.2V183.7h3.3v122.5h-3.3zm74.4-122.5v3.3h-58.6v115.8h58.6v3.3h-62V183.7h62zm0 13.1v3.3h-45.6v36.3h45.6v3.3H882v-43h48.9v.1zm0 52v3.3h-45.6v36.3h45.6v3.4H882v-43h48.9zm0-38.9v3.3h-31.8v10.1h31.8v3.3h-35.2v-16.8l35.2.1zm0 52v3.3h-31.8v10.2h31.8v3.3h-35.2v-16.8h35.2zM942.9 183.1h96.4v3.6h-96.4v-3.6zm0 13.8h96.4v3.5h-96.4v-3.5zm0 13h45v96.4h-3.6v-92.9h-41.4v-3.5zm0 11.9H976v84.5h-3.6v-80.9h-29.5v-3.6zm96.4-8.4h-37.6v92.9h-3.6v-96.4h41.2v3.5zm0 11.9h-25.7v80.9h-3.5v-84.5h29.2v3.6zM1051.3 183.1h96.4v3.6h-96.4v-3.6zm0 13.8h96.4v3.5h-96.4v-3.5zm0 13h45v96.4h-3.6v-92.9h-41.4v-3.5zm0 11.9h33.1v84.5h-3.6v-80.9h-29.5v-3.6zm96.3-8.4H1110v92.9h-3.6v-96.4h41.2v3.5zm0 11.9h-25.7v80.9h-3.5v-84.5h29.2v3.6zM1215.4 184.1l.7-.1h.8l.8-.1h2.4l.9-.1.7.1h2.4l.8.1h.9l.7.1c14.6 1.3 27.2 7.2 37.8 17.7 11.9 11.9 17.8 26.4 17.8 43.3 0 16.1-5.4 29.9-16.2 41.6-.8.9-1.3 1.5-1.6 1.8-10.6 10.5-23.2 16.3-37.8 17.7l-.7.1h-.9l-.8.1h-6.3l-.8-.1h-.8l-.7-.1c-14.7-1.3-27.4-7.2-37.8-17.7-.7-.8-1.3-1.4-1.7-1.8-10.8-11.7-16.2-25.5-16.2-41.6 0-16.9 6-31.3 17.9-43.3 10.3-10.5 22.9-16.4 37.7-17.7zm9.8 3.3l-.8-.2h-.7l-.8-.1h-4.5l-.8.1h-.8l-.6.2h-.8c-14 1.2-25.9 6.8-35.7 16.7-11.3 11.3-16.9 24.9-16.9 40.9 0 16.1 5.6 29.7 16.9 41 9.8 9.9 21.7 15.5 35.7 16.7h.8l.6.1h.8l.8.1h4.5l.8-.1h.7l.8-.1h.7c13.9-1.2 25.9-6.8 35.8-16.7 11.3-11.4 16.9-25 16.9-41 0-15.9-5.6-29.5-16.9-40.9-9.9-9.9-21.8-15.5-35.8-16.7h-.7zm-8.2 9.3l.7-.1h1.8l.7-.2h1.2l.7.2h1.9l.5.1h.7c11.6 1 21.6 5.7 29.9 14.1 9.4 9.4 14.1 20.9 14.1 34.3 0 12.7-4.3 23.7-12.8 32.9v.1l-1.4 1.4c-8.3 8.3-18.3 13-29.9 14.1h-.7l-.5.1h-1.9l-.7.1h-1.2l-.7-.1h-1.8l-.7-.1h-.5c-11.7-1-21.7-5.7-30-14.1-.4-.5-.9-1-1.4-1.4v-.1c-8.5-9.3-12.8-20.2-12.8-32.9 0-13.3 4.7-24.7 14.1-34.3 8.3-8.3 18.3-13 30-14.1h.7zm7.8 3.3l-.5-.1h-.6l-.6-.1h-4.6l-.6.1h-.5l-.6.1c-10.7 1-20.1 5.3-28 13.1-8.8 8.8-13.2 19.4-13.2 31.9s4.4 23.2 13.2 32c7.9 7.8 17.2 12.1 28 13l.6.2h.5l.6.1h4.6l.6-.1h.6l.5-.2c10.9-.9 20.2-5.3 28-13 8.8-8.8 13.2-19.5 13.2-32s-4.4-23.1-13.2-31.9c-7.8-7.7-17.1-12.1-28-13.1zm-7.2 9.3l.3-.1h1.5l.5-.1h1.9l.3.1h1.4l.5.1c8.6.8 16 4.3 22.1 10.4v.1c7 6.9 10.5 15.3 10.5 25.3 0 9.4-3.1 17.5-9.4 24.4-.1.1-.3.3-.5.4l-.5.5c-6.1 6.2-13.4 9.6-22.1 10.4l-.5.1h-1.4l-.3.2h-2l-.5-.2h-1.5l-.3-.1c-8.7-.7-16.1-4.2-22.2-10.4l-.9-.9c-6.3-6.9-9.5-15-9.5-24.4 0-9.9 3.5-18.3 10.5-25.3v-.1c6-6.2 13.4-9.6 22.1-10.4zm5.7 3.3l-.3-.1h-4.3l-.3.1h-.5c-7.7.7-14.4 3.8-20.1 9.3-6.3 6.5-9.5 14.1-9.5 23.1 0 8.9 3.2 16.6 9.5 23.1 5.7 5.5 12.3 8.7 20.1 9.3h.4l.3.1h4.3l.3-.1h.4c7.8-.7 14.5-3.8 20.1-9.3 6.3-6.5 9.5-14.2 9.5-23.1s-3.2-16.6-9.5-23.1c-5.5-5.5-12.2-8.7-20.1-9.3h-.3zm-4 9.3l.3-.1h2.4l.3.1h.3c5.7.4 10.6 2.6 14.7 6.7h-.1c4.5 4.6 6.8 10.1 6.8 16.5 0 6.2-2 11.5-6.1 15.9-.3.2-.5.4-.6.6-4.1 4-9 6.3-14.7 6.8h-.6l-.3.1h-1.8l-.3-.1h-.5c-5.8-.5-10.7-2.8-14.7-6.8l-.7-.6c-4.1-4.5-6.1-9.8-6.1-15.9 0-6.4 2.3-11.9 6.8-16.5 4.1-4.1 9-6.3 14.7-6.7h.2zm2 3.3l-.3-.1h-.5l-.3.1h-1.2c-.2 0-.4 0-.7.1-.2 0-.4 0-.6.1-.1 0-.2 0-.4.1h-.3l-.3.1c-.1 0-.2 0-.3.1h-.3l-.3.1c-.2.1-.5.1-.9.3-.3.1-.6.2-.8.3l-.3.1-.2.1c-2.7 1.1-5 2.6-7 4.5-3.9 3.9-5.8 8.6-5.8 14.1s1.9 10.2 5.8 14.1c2 1.9 4.3 3.5 7 4.5l.2.1.3.1c.2.1.4.1.8.3.4.1.7.1.9.2h.3c.3.2.5.3.7.3l.3.1h.3c.2.1.4.1.4.1.2 0 .4 0 .6.1.3.1.5.1.7.1h3.4c.2-.1.4-.1.7-.1.3-.1.5-.1.7-.1.1 0 .2 0 .3-.1h.5l.2-.1c.1 0 .4-.1.8-.3h.2c.2-.1.5-.1.9-.2l.9-.3.2-.1.2-.1c2.8-1.1 5.1-2.6 7-4.5 3.9-3.8 5.8-8.5 5.8-14.1 0-5.5-1.9-10.2-5.7-14.1h-.1c-1.8-1.9-4.2-3.4-7-4.5l-.2-.1-.2-.1c-.2-.1-.5-.1-.9-.3-.4-.1-.7-.2-.9-.3l-.2-.1h-.4c-.2-.1-.3-.1-.3-.1l-.2-.1h-.5c-.2-.1-.3-.1-.3-.1-.2-.1-.4-.1-.7-.1-.3-.1-.5-.1-.7-.1h-1.3zm-1.2 9.3c-2.7.2-5 1.2-6.9 3.1h.2c-2.1 2-3.2 4.5-3.2 7.5 0 2.8.9 5.2 2.7 7.2l.3.3c1.9 1.8 4.1 2.8 6.8 3.1h1.5c2.6-.3 4.8-1.3 6.8-3.1 0-.1 0-.1.1-.2l.2-.2c1.9-2.1 2.8-4.5 2.8-7.2 0-2.9-1-5.3-3.1-7.5-1.9-1.9-4.2-2.9-6.9-3.1h-1.3v.1zm4.3 4.2c.6.4 1.1.8 1.5 1.3 1.4 1.4 2.1 3.1 2.1 5.1 0 2.1-.7 3.8-2.1 5.1-.5.5-1 .9-1.5 1.1l-.1.1-.2.1c-.1.1-.1.1-.3.2l-.2.2h-.2c-.1 0-.1 0-.3.1-.1 0-.2 0-.3.1h.1c-.1 0-.2 0-.3.1-.1.1-.2.1-.3.1h-.3l-.1.1h-.8l-.1.1h-.6l-.1-.1h-.9l-.1-.1h-.3c-.1 0-.2 0-.3-.1-.1-.1-.2-.1-.3-.1-.6-.2-.8-.2-.7-.2 0-.1-.1-.1-.3-.2-.1-.1-.2-.1-.3-.2l-.2-.1v-.1c-.7-.3-1.2-.7-1.5-1.1-1.4-1.4-2.1-3.1-2.1-5.1 0-1.9.7-3.6 2.1-5.1h.1c.2-.3.7-.8 1.5-1.3l.2-.1c.1 0 .1 0 .3-.1.1-.1.2-.1.3-.2-.1.1.1 0 .7-.2.1-.1.1-.1.3-.1.2-.1.3-.1.3-.1h.3l.1-.1h.8v-.2h.9v.2h.7l.1.1h.3c.1 0 .1 0 .3.1.2 0 .3 0 .3.1h.1c.1 0 .1 0 .3.1.1.1.2.1.3.1h.2l.2.2c.1.1.2.1.4.2z"/><g class="st2"><path class="st1" d="M238.9 616V491h51.4c12.7 0 23.7 4.6 32.8 13.8 9.1 9.1 13.6 20.1 13.6 32.9s-4.6 23.8-13.6 32.9c-3.2 3.2-6.8 5.9-11.1 8.3l21.7 37.3h-4.1l-21.7-37.4-.9-1.5c5.1-2.1 9.6-5.1 13.5-9.1 8.5-8.4 12.6-18.4 12.6-30.4s-4.2-22.1-12.6-30.4c-8.3-8.4-18.3-12.5-30.4-12.5h-47.9v121.4h-3.5l.2-.3zm46-113.2c7.8.1 14.6 2.3 20.3 6.5 5.1 3.9 8.9 9.1 11.3 15.6 1.8 4.8 2.8 9.9 2.8 15.2 0 5.2-.9 10.3-2.8 15.1-4.3 11.6-12.1 18.6-23.6 21.1l23 39.7h-4.1l-22.7-39c-.3.1-.8.1-1.5.1-.7.1-1.2.1-1.5.2h-7.4v-3.6h6.6c6.9-.2 12.8-2.1 17.8-5.9 4.6-3.4 7.8-7.9 10.1-13.8 1.6-4.4 2.4-9.1 2.4-13.9 0-4.8-.8-9.5-2.4-13.9-2.1-5.8-5.5-10.5-10.1-13.9-5-3.8-11-5.8-17.9-5.9h-29.9V616h-3.5V502.8h33.1zm2.4 14c9.3.4 15.6 5.1 18.9 14.2 1.1 2.9 1.6 6 1.6 9.5 0 3.4-.5 6.5-1.6 9.5-1.4 4.1-3.8 7.3-6.8 9.8-3.5 2.6-7.5 4.1-12.2 4.2-.1 0-1.5 0-4.1.1H279v-3.7h8.3c7.6-.3 12.9-4.2 15.6-11.6.9-2.4 1.4-5.2 1.4-8.3 0-2.8-.5-5.6-1.4-8.3-2.8-7.5-8-11.5-15.8-11.8H268V616h-3.7v-99.2h23zm-2 14.6c2.3 0 4.5.8 6.3 2.5 1.7 1.8 2.5 3.9 2.5 6.3s-.8 4.5-2.5 6.2c-1.7 1.8-3.9 2.8-6.3 2.8h-4.6v66.9h-3.6v-84.6l8.2-.1zM297 616h-4.2l-15.4-26.6 3.1-1.7L297 616zm-16.2-70.4h4.6c1.4 0 2.8-.5 3.8-1.6 1-1 1.5-2.2 1.5-3.7 0-1.3-.5-2.5-1.5-3.8-1.1-1-2.3-1.5-3.8-1.5h-4.6v10.6zM353.2 616h-4.3l69.9-123 1.4-2.4 1.3 2.4 70 122.9h-4.3L420.3 498l-67.1 118zm119.5 0h4.2l-55.3-98.6-1.3-2.4-1.4 2.4-55.4 98.7h4.2l52.5-93.6 52.5 93.5zm-15 0h4.3l-40.1-71.8-1.5-2.8-1.5 2.8-40.1 71.8h4.1l37.6-67 37.2 67zm-58.4 0h-4.2l24.5-43.5.6-1.2.7 1.2 24.4 43.5h-4.2l-21-37.2-20.8 37.2zM563.6 553.5c2.5 2.8 3.9 6 3.9 9.6 0 3.7-1.3 6.9-3.9 9.7-2.5 2.6-5.6 4-9.3 4l-44.4.2v-3.8l44.4-.3c2.5 0 4.8-.9 6.7-2.9 1.8-1.9 2.8-4.3 2.8-7 0-2.8-.9-5-2.8-6.9s-4-2.9-6.4-2.9c-14 0-26-5.2-36-15.7-10-10.4-15-22.9-15-37.6 0-3.1.3-6.2.8-9.5h3.8c-.6 3.1-.9 6.2-.9 9.5 0 13.5 4.7 25.2 14 34.8 9.2 9.6 20.2 14.5 33 14.6 3.6.3 6.7 1.6 9.3 4.2zm-12.9-44.4c-2.5-2.6-3.9-5.9-3.9-9.6 0-3.5 1.1-6.4 3.3-8.9h5.8c-.9.4-1.7 1-2.6 1.9-1.8 1.9-2.8 4.3-2.8 7 0 2.8.9 5 2.8 6.9 1.7 1.9 4 2.9 6.6 2.9 14 .1 25.8 5.4 35.8 15.7 10 10.4 15 22.9 15 37.6 0 14.6-5 27.1-15 37.6s-21.9 15.7-35.9 15.7l-49.8.2v-3.7l49.8-.3c12.9 0 24.1-4.9 33.4-14.6 9.3-9.7 13.9-21.3 13.9-34.8s-4.6-25.2-13.9-34.9-20.4-14.5-33.4-14.5c-3.6-.2-6.5-1.5-9.1-4.2zm32.8 22.2c7.6 7.9 11.4 17.5 11.4 28.5v4c0 10.4-3.5 19.5-10.4 27.4-6.7 7.8-14.6 11.9-23.7 12.1l-50.9.9v-3.7l50.9-1c8-.2 15.1-3.9 21.1-10.8 6.3-7.2 9.5-15.5 9.5-24.9v-4c0-10.1-3.5-18.6-10.4-25.9-6.8-7.2-15.2-10.9-24.9-10.9-7.2 0-13.3-2.6-18.5-8-5.1-5.5-7.6-11.9-7.6-19.5 0-1.9.1-3.6.4-5h3.7c-.3 1.7-.5 3.4-.5 5 0 6.5 2.2 12.1 6.7 16.8 4.5 4.6 9.9 6.9 16.1 6.9 10.6.2 19.6 4.3 27.1 12.1zM573 543.4c5.1 5.5 7.6 11.9 7.6 19.5 0 7.5-2.5 14.1-7.6 19.6-5.1 5.4-11.3 8-18.6 8l-44.4.3V587l44.4-.3c6.2 0 11.6-2.3 16.1-6.9 4.5-4.7 6.7-10.3 6.7-16.8s-2.2-12.1-6.7-16.8c-4.5-4.6-9.9-6.9-16.1-6.9-10.3-.5-18.9-4.5-26.1-11.9-7.6-7.8-11.4-17.4-11.4-28.6v-4c0-.9.1-2.2.2-4h3.8c-.2 1.4-.3 2.8-.3 4v4c0 10.1 3.5 18.7 10.4 26 6.8 7.2 15.1 10.8 24.9 10.8 6.5.1 12.4 2.8 17.1 7.8zM729.8 508.8l-2.4 2.4c-11.6-11.6-25.6-17.4-42-17.4-16.3 0-30.3 5.8-42 17.4-11.6 11.5-17.4 25.5-17.4 42s5.8 30.4 17.4 42c11.6 11.6 25.6 17.4 42 17.4s30.4-5.8 42-17.4c.7-.7 1.2-1.2 1.5-1.6l2.5 2.3-.9.9c-.3.4-.6.7-.8.9-12.4 12.3-27.2 18.4-44.4 18.4-17.3 0-32.1-6.1-44.3-18.4-12.3-12.3-18.5-27-18.5-44.4s6.1-32.1 18.4-44.4c12.1-12.3 26.9-18.4 44.3-18.4 17.6-.1 32.4 6.1 44.6 18.3zm-9.2 9.2l-2.4 2.3c-9.2-9.1-20.1-13.5-32.8-13.5s-23.7 4.5-32.8 13.5c-9.1 9.2-13.5 20.2-13.5 32.8 0 12.7 4.5 23.7 13.5 32.8 9.2 9.1 20.1 13.5 32.8 13.5s23.6-4.5 32.8-13.5c.1-.2.3-.4.6-.7s.5-.5.6-.7l2.5 2.3-.7.7c-.3.3-.5.6-.6.8-9.7 9.7-21.5 14.5-35.2 14.5-13.9 0-25.6-4.8-35.1-14.5-9.7-9.8-14.6-21.5-14.6-35.2s4.9-25.5 14.6-35.2c9.6-9.7 21.3-14.6 35.1-14.6 13.8.1 25.6 5 35.2 14.7zm-9.2 9.2l-2.3 2.4c-6.5-6.5-14.4-9.8-23.5-9.8-9.2 0-17 3.3-23.5 9.8s-9.8 14.4-9.8 23.5 3.3 17 9.8 23.5c6.5 6.6 14.4 9.9 23.5 9.9 9.2 0 17-3.3 23.5-9.9l.9-.9 2.4 2.3-1 1c-7.1 7.1-15.8 10.7-26 10.7s-18.8-3.6-26.1-10.7c-7.1-7.2-10.7-16-10.7-26.1s3.6-18.7 10.7-26.1c7.1-7.1 15.8-10.7 26.1-10.7 10.2.4 18.8 3.9 26 11.1zm-9.2 9.2l-2.3 2.3c-4-4-8.8-6-14.4-6s-10.5 1.9-14.4 5.9v.1c-4 4-6 8.9-6 14.4s2 10.4 6 14.4 8.9 6 14.4 6 10.3-2 14.4-6l.3-.3c.1-.2.2-.3.3-.3l2.5 2.3c-.2.3-.4.5-.7.7-4.6 4.7-10.1 7-16.8 7s-12.3-2.3-16.8-7c-4.6-4.6-6.9-10.2-6.9-16.8s2.3-12.2 6.9-16.8c4.6-4.7 10.2-7 16.8-7 6.6.2 12.2 2.6 16.7 7.1zm-9.1 9.2l-2.4 2.4c-1.4-1.4-3.2-2.1-5.2-2.1-2.1 0-3.9.7-5.2 2.1h-.1c-1.4 1.5-2.1 3.3-2.1 5.2 0 2 .7 3.8 2.1 5.3 1.4 1.4 3.2 2.1 5.2 2.1 1.9 0 3.8-.7 5.2-2.1l.2-.3 2.5 2.3-.3.3c-2.1 2.1-4.7 3.2-7.6 3.2-3.1 0-5.6-1.1-7.6-3.3v.1c-2.1-2.1-3.3-4.7-3.3-7.6s1.1-5.5 3.3-7.6c2-2.1 4.6-3.2 7.6-3.2s5.7 1.1 7.7 3.2zM743.7 615.9V491.1h3.3v124.7l-3.3.1zm12.8 0V491.1h3.3v124.7l-3.3.1zm14.9-124.8h3.2v53.5h35.3v-53.5h3.3v56.6h-41.8v-56.6zm0 124.9h3.2v-57.7h35.3v57.1h3.3V555h-41.8v61zM784 491.1h3.2v40h10v-40h3.3v43.2h-16.3l-.2-43.2zm0 124.2h3.2v-43.6h10v43.8h3.3v-46.9h-16.3l-.2 46.7zm36.2.6V491.1h3.4v124.7l-3.4.1zm12.8 0V491.1h3.4v124.7l-3.4.1zM848.6 616V491.2h3.4V616h-3.4zm75.7-124.8v3.4h-59.7v117.9h59.7v3.4h-63.2V491.2h63.2zm0 13.4v3.4h-46.4v37h46.4v3.4h-49.8v-43.8h49.8zm0 52.9v3.4h-46.4v37h46.4v3.5h-49.8v-43.8h49.8v-.1zm0-39.6v3.4h-32.4v10.3h32.4v3.4h-35.8v-17.1h35.8zm0 53v3.4h-32.4v10.4h32.4v3.4h-35.8V571h35.8v-.1zM936.6 490.6h98.2v3.7h-98.2v-3.7zm0 14.1h98.2v3.6h-98.2v-3.6zm0 13.2h45.8v98.2h-3.7v-94.6h-42.2l.1-3.6zm0 12.1h33.7v86h-3.7v-82.4h-30V530zm98.1-8.5h-38.2V616h-3.7v-98.2h42v3.6h-.1zm0 12.1h-26.2V616h-3.6v-86.1h29.7v3.7h.1zM1047 490.6h98.2v3.7H1047v-3.7zm0 14.1h98.2v3.6H1047v-3.6zm0 13.2h45.8v98.2h-3.7v-94.6h-42.2l.1-3.6zm0 12.1h33.7v86h-3.7v-82.4h-30V530zm98.1-8.5h-38.3V616h-3.7v-98.2h42v3.7zm0 12.1h-26.2V616h-3.6v-86.1h29.7l.1 3.7zM1214.1 491.6l.7-.1h.8l.8-.1h2.4l.9-.1.7.1h2.4l.8.1h.9l.7.1c14.9 1.3 27.7 7.3 38.5 18 12.1 12.1 18.1 26.9 18.1 44.1 0 16.4-5.5 30.5-16.5 42.4-.8.9-1.3 1.5-1.6 1.8-10.8 10.7-23.6 16.6-38.5 18l-.7.1h-.9l-.8.1h-6.4l-.8-.1h-.8l-.7-.1c-15-1.3-27.9-7.3-38.5-18-.7-.8-1.3-1.4-1.7-1.8-11-11.9-16.5-26-16.5-42.4 0-17.2 6.1-31.9 18.2-44.1 10.6-10.6 23.4-16.7 38.5-18zm10 3.4l-.8-.2h-.7l-.8-.1h-4.6l-.8.1h-.8l-.6.2h-.8c-14.3 1.2-26.4 6.9-36.4 17-11.5 11.5-17.2 25.4-17.2 41.7 0 16.4 5.7 30.3 17.2 41.8 10 10.1 22.1 15.8 36.4 17h.8l.6.1h.8l.8.1h4.6l.8-.1h.7l.8-.1h.7c14.2-1.2 26.4-6.9 36.5-17 11.5-11.6 17.2-25.5 17.2-41.8 0-16.2-5.7-30-17.2-41.7-10.1-10.1-22.2-15.8-36.5-17h-.7zm-8.4 9.5l.7-.1h1.8l.7-.2h1.2l.7.2h1.9l.5.1h.7c11.8 1 22 5.8 30.5 14.4 9.6 9.6 14.4 21.3 14.4 34.9 0 12.9-4.4 24.1-13 33.5v.1l-1.4 1.4c-8.5 8.5-18.6 13.2-30.5 14.4h-.7l-.5.1h-1.9l-.7.1h-1.2l-.7-.1h-1.8l-.7-.1h-.5c-11.9-1-22.1-5.8-30.6-14.4-.4-.5-.9-1-1.4-1.4v-.1c-8.7-9.5-13-20.6-13-33.5 0-13.5 4.8-25.2 14.4-34.9 8.5-8.5 18.6-13.2 30.6-14.4h.5zm8 3.3l-.5-.1h-.6l-.6-.1h-4.7l-.6.1h-.5l-.6.1c-10.9 1-20.5 5.4-28.5 13.3-9 9-13.4 19.8-13.4 32.5s4.5 23.6 13.4 32.6c8 7.9 17.5 12.3 28.5 13.2l.6.2h.5l.6.1h4.7l.6-.1h.6l.5-.2c11.1-.9 20.6-5.4 28.5-13.2 9-9 13.4-19.9 13.4-32.6 0-12.7-4.5-23.5-13.4-32.5-7.9-7.8-17.4-12.3-28.5-13.3zm-7.3 9.5l.3-.1h1.5l.5-.1h1.9l.3.1h1.4l.5.1c8.8.8 16.3 4.4 22.5 10.6v.1c7.1 7 10.7 15.6 10.7 25.8 0 9.6-3.2 17.8-9.6 24.9-.1.1-.3.3-.5.4l-.5.5c-6.2 6.3-13.6 9.8-22.5 10.6l-.5.1h-1.4l-.3.2h-2l-.5-.2h-1.5l-.3-.1c-8.9-.7-16.4-4.3-22.6-10.6l-.9-.9c-6.4-7-9.7-15.3-9.7-24.9 0-10.1 3.6-18.6 10.7-25.8v-.1c6.1-6.3 13.6-9.8 22.5-10.6zm5.8 3.3l-.3-.1h-4.4l-.3.1h-.5c-7.8.7-14.7 3.9-20.5 9.5-6.4 6.6-9.7 14.4-9.7 23.5s3.3 16.9 9.7 23.5c5.8 5.6 12.5 8.9 20.5 9.5h.4l.3.1h4.4l.3-.1h.4c7.9-.7 14.8-3.9 20.5-9.5 6.4-6.6 9.7-14.5 9.7-23.5s-3.3-16.9-9.7-23.5c-5.6-5.6-12.4-8.9-20.5-9.5h-.3zm-4.1 9.5l.3-.1h2.4l.3.1h.3c5.8.4 10.8 2.6 15 6.8h-.1c4.6 4.7 6.9 10.3 6.9 16.8 0 6.3-2 11.7-6.2 16.2-.3.2-.5.4-.6.6-4.2 4.1-9.2 6.4-15 6.9h-.6l-.3.1h-1.8l-.3-.1h-.5c-5.9-.5-10.9-2.9-15-6.9l-.7-.6c-4.2-4.6-6.2-10-6.2-16.2 0-6.5 2.3-12.1 6.9-16.8 4.2-4.2 9.2-6.4 15-6.8h.2zm2 3.4l-.3-.1h-.5l-.3.1h-1.2c-.2 0-.4 0-.7.1-.2 0-.4 0-.6.1-.1 0-.2 0-.4.1h-.3l-.3.1c-.1 0-.2 0-.3.1h-.3l-.3.1c-.2.1-.5.1-.9.3-.3.1-.6.2-.8.3l-.3.1-.2.1c-2.8 1.1-5.1 2.6-7.1 4.6-4 4-5.9 8.8-5.9 14.4s1.9 10.4 5.9 14.4c2 1.9 4.4 3.6 7.1 4.6l.2.1.3.1c.2.1.4.1.8.3.4.1.7.1.9.2h.3c.3.2.5.3.7.3l.3.1h.3c.2.1.4.1.4.1.2 0 .4 0 .6.1.3.1.5.1.7.1h3.5c.2-.1.4-.1.7-.1.3-.1.5-.1.7-.1.1 0 .2 0 .3-.1h.5l.2-.1c.1 0 .4-.1.8-.3h.2c.2-.1.5-.1.9-.2l.9-.3.2-.1.2-.1c2.9-1.1 5.2-2.6 7.1-4.6 4-3.9 5.9-8.7 5.9-14.4 0-5.6-1.9-10.4-5.8-14.4h-.1c-1.8-1.9-4.3-3.5-7.1-4.6l-.2-.1-.2-.1c-.2-.1-.5-.1-.9-.3-.4-.1-.7-.2-.9-.3l-.2-.1h-.4c-.2-.1-.3-.1-.3-.1l-.2-.1h-.5c-.2-.1-.3-.1-.3-.1-.2-.1-.4-.1-.7-.1-.3-.1-.5-.1-.7-.1h-1.4zm-1.2 9.5c-2.8.2-5.1 1.2-7 3.2h.2c-2.1 2-3.3 4.6-3.3 7.6 0 2.9.9 5.3 2.8 7.3l.3.3c1.9 1.8 4.2 2.9 6.9 3.2h1.5c2.6-.3 4.9-1.3 6.9-3.2 0-.1 0-.1.1-.2l.2-.2c1.9-2.1 2.9-4.6 2.9-7.3 0-3-1-5.4-3.2-7.6-1.9-1.9-4.3-3-7-3.2l-1.3.1zm4.4 4.2c.6.4 1.1.8 1.5 1.3 1.4 1.4 2.1 3.2 2.1 5.2 0 2.1-.7 3.9-2.1 5.2-.5.5-1 .9-1.5 1.1l-.1.1-.2.1c-.1.1-.1.1-.3.2l-.2.2h-.2c-.1 0-.1 0-.3.1-.1 0-.2 0-.3.1h.1c-.1 0-.2 0-.3.1s-.2.1-.3.1h-.3l-.1.1h-.8l-.1.1h-.6l-.1-.1h-.9l-.1-.1h-.3c-.1 0-.2 0-.3-.1s-.2-.1-.3-.1c-.6-.2-.8-.2-.7-.2 0-.1-.1-.1-.3-.2-.1-.1-.2-.1-.3-.2l-.2-.1v-.1c-.7-.3-1.2-.7-1.5-1.1-1.4-1.4-2.1-3.2-2.1-5.2 0-1.9.7-3.7 2.1-5.2h.1c.2-.3.7-.8 1.5-1.3l.2-.1c.1 0 .1 0 .3-.1.1-.1.2-.1.3-.2-.1.1.1 0 .7-.2.1-.1.1-.1.3-.1.2-.1.3-.1.3-.1h.3l.1-.1h.8v-.2h.9v.2h.7l.1.1h.3c.1 0 .1 0 .3.1.2 0 .3 0 .3.1h.1c.1 0 .1 0 .3.1.1.1.2.1.3.1h.2l.2.2c.1.1.2.1.3.1l.1.1z"/></g></svg>