<svg width="400" height="149" viewBox="0 0 409 112" xmlns="http://www.w3.org/2000/svg"><g fill="#2d234f"><path d="M0 0h151.23c.02 6.67.05 13.33-.03 20H85v36.72c-6.49-4-13.32-7.44-19.63-11.73-.03-5.28-1.97-10.75-6.34-13.98-5.51-4.61-13.73-4.61-19.72-.89-6.8-4.06-13.58-8.18-20.6-11.86-.25-.14-.75-.41-1-.54-6-3.37-11.69-7.25-17.71-10.58V0zM242.55 0H409v52.96c-3.89 2.28-7.92 4.29-11.75 6.65-6.44 3.57-12.64 7.56-19.22 10.84-7.24-3.61-13.89-8.28-21.04-12.04-.5-.26-1.49-.78-1.98-1.04-.45-12.45-.14-24.91 0-37.37-19.02-.19-38.04.58-57.05 0-14.33-.39-28.65.62-42.98.03-4.14-.08-8.27-.01-12.41-.03-.03-6.67-.01-13.33-.02-20z"/><path d="M43.83 33.26c3.59-.42 7.68-1.28 10.87.97 2.87 1.68 4.4 4.84 5.24 7.93-5.56-2.61-10.73-5.94-16.11-8.9zM17.76 71.23c5.83 3.32 11.52 6.88 17.34 10.22 8.73 5.05 17.32 10.34 26.09 15.31.22.13.65.38.87.5 2.1 1.21 4.17 2.46 6.22 3.74-16.79.01-33.58-.01-50.37 0-.27-9.92-.54-19.85-.15-29.77zM125.2 80.11c29.3-.6 58.6-.19 87.91-.06 2.44 1.72 4.98 3.3 7.59 4.76 6.21 3.62 12.54 7.02 18.56 10.95.58.38 1.16.76 1.75 1.15.01 1.35.03 2.7.05 4.05-14.84.09-29.68.02-44.52.04.02-6.85.06-13.7-.03-20.56-23.51-.52-47.03-.15-70.54-.18a20.9 20.9 0 0 0-.77-.15z"/></g><g fill="#6a57b3"><path d="M151.23 0h16.07c3.3 1.87 6.46 3.98 9.85 5.7 2.13 3.96 4.26 7.92 5.99 12.08-.72.75-1.43 1.49-2.14 2.24-9.93.56-19.86-.12-29.8-.02.08-6.67.05-13.33.03-20zM0 10.4c3.14 4.01 5.54 8.49 7.91 12.98C5.26 24.86 2.63 26.39 0 27.9V10.4zM90.74 80.01c11.49-.01 22.98-.61 34.46.1.19.03.58.11.77.15 2.92 3.31 6.96 5.21 10.77 7.28 1.68 4.57 4.9 8.5 5.62 13.42-21.35.1-42.7.01-64.06.04-1.53-3.55-3.18-7.04-4.91-10.49 3.29-1.95 6.51-4.02 9.92-5.76 2.67-1.27 5.19-2.82 7.43-4.74zM265.79 83.37c.92-.55 1.85-1.11 2.75-1.71 5.1.5 10.22.41 15.32.19h.04l.19.73c.48 2 .95 4.01 1.38 6.02-.38 4.12-.5 8.26-.38 12.4-10.87-.01-21.75.02-32.62-.01-1.24-2.66-2.6-5.26-4.04-7.82 5.84-3.16 11.52-6.62 17.36-9.8z"/></g><path fill="#e65152" d="M167.3 0h18.49c2.86 5.32 7.09 9.82 9.45 15.39-6.29-2.74-11.93-6.71-18.09-9.69-3.39-1.72-6.55-3.83-9.85-5.7z"/><path fill="#db495b" d="M185.79 0h20.05c4.6 5.11 6.82 11.74 9.94 17.75-.96.78-1.92 1.55-2.89 2.32-6.67.26-13.35-.23-20.03-.08 1.03-.8 2.05-1.61 3.08-2.41-.22-.74-.45-1.47-.7-2.19-2.36-5.57-6.59-10.07-9.45-15.39z"/><path fill="#ca4165" d="M205.84 0h21.77c3.53 5.77 6.29 11.96 9.61 17.85-.75.72-1.49 1.45-2.23 2.17-7.36.5-14.73-.15-22.1.05.97-.77 1.93-1.54 2.89-2.32-3.12-6.01-5.34-12.64-9.94-17.75z"/><path fill="#bd396d" d="M227.61 0h14.94c.01 6.67-.01 13.33.02 20-2.53-.01-5.05-.02-7.58.02.74-.72 1.48-1.45 2.23-2.17-3.32-5.89-6.08-12.08-9.61-17.85z"/><g fill="#604ea3"><path d="M177.15 5.7c6.16 2.98 11.8 6.95 18.09 9.69.25.72.48 1.45.7 2.19-1.03.8-2.05 1.61-3.08 2.41-3.95.02-7.91-.02-11.86.03.71-.75 1.42-1.49 2.14-2.24-1.73-4.16-3.86-8.12-5.99-12.08zM0 7.14c6.02 3.33 11.71 7.21 17.71 10.58-3.23 1.95-6.5 3.83-9.8 5.66C5.54 18.89 3.14 14.41 0 10.4V7.14zM136.74 87.54c5.06 2.3 9.65 5.45 14.48 8.17-2.88 1.77-5.71 3.62-8.67 5.24l-.19.01c-.72-4.92-3.94-8.85-5.62-13.42zM62.06 97.26c3.76-2.28 7.54-4.52 11.33-6.75 1.73 3.45 3.38 6.94 4.91 10.49H68.28c-2.05-1.28-4.12-2.53-6.22-3.74zM331.27 97.24c2.57-1.48 5.05-3.09 7.6-4.59 1.74 2.64 3.23 5.44 4.48 8.34-2.04 0-4.07.01-6.11.01-1.96-1.3-3.92-2.6-5.97-3.76z"/></g><g fill="#fa8037"><path d="M7.91 23.38c3.3-1.83 6.57-3.71 9.8-5.66.25.13.75.4 1 .54-1.11 5.26-.82 10.65-.59 15.98.18 8.49-1.65 16.88-1.26 25.37-3.96-3.33-4.89-8.66-7.7-12.79C5.75 41.84 4.29 35.7 0 31.31V27.9c2.63-1.51 5.26-3.04 7.91-4.52zM37.71 44.01c-.29-4.46 2.72-8.24 6.12-10.75 5.38 2.96 10.55 6.29 16.11 8.9-.21 1.92-.37 3.83-.66 5.74-.13-.41-.37-1.21-.5-1.61-4.48 2.46-9.02 4.93-12.81 8.42-4.66-1.4-8.43-5.68-8.26-10.7zM63.54 62.52c3.03 2.97 5.96 6.03 9.23 8.75 3.11 4.8 5.91 9.91 10.54 13.48-3.41 1.74-6.63 3.81-9.92 5.76-3.79 2.23-7.57 4.47-11.33 6.75-.22-.12-.65-.37-.87-.5 2.15-11.3-.52-22.99 2.35-34.24z"/></g><g fill="#fb8b35"><path d="M18.12 34.24c-.23-5.33-.52-10.72.59-15.98 7.02 3.68 13.8 7.8 20.6 11.86-5.71 4.15-8.58 12.05-6.23 18.8 2.01 6.31 8.27 10.91 14.88 11.03 4 .31 7.79-1.25 11.24-3.1 1.13 2.11 2.57 4.05 4.34 5.67-2.87 11.25-.2 22.94-2.35 34.24-8.77-4.97-17.36-10.26-26.09-15.31-.86-6.32-5.13-11.31-8.03-16.78 2.64-1.58 5.42-2.98 7.72-5.05.38-1.8-.64-3.49-1.43-5.02-2.43-4.14-5.56-7.86-7.66-12.2-1.9-3.89-3.65-7.87-6.11-11.45-.51 1.09-1 2.18-1.47 3.29zM221.06 82.12c6.99-.25 13.99.06 20.98-.19-.3 4.64 1.34 10.44-2.78 13.83-6.02-3.93-12.35-7.33-18.56-10.95l.36-2.69z"/></g><g fill="#fff"><path d="M85 20h66.2c9.94-.1 19.87.58 29.8.02 3.95-.05 7.91-.01 11.86-.03 6.68-.15 13.36.34 20.03.08 7.37-.2 14.74.45 22.1-.05 2.53-.04 5.05-.03 7.58-.02 4.14.02 8.27-.05 12.41.03 14.33.59 28.65-.42 42.98-.03 19.01.58 38.03-.19 57.05 0-.14 12.46-.45 24.92 0 37.37-.02 7.47 0 14.94-.03 22.41-7.65-.01-15.31-.02-22.97-.01.17 5.62-.31 11.26-1.85 16.68 1.32-7.39 2.17-15.01 1.06-22.47-.62-3.56-4.94-4.83-7.66-2.67-.83-2-1.03-5.14-3.63-5.61-2.36-.82-4.51.45-6.41 1.71-.71-2.09-1.09-4.84-3.52-5.64-3-.84-5.81.78-7.99 2.67l.08-3.7c.68 0 2.04 0 2.73-.01 4.14-2.7 8.18-6.07 9.83-10.91 3.72-8.83-.69-20-9.37-23.99-8.38-4.19-19.65-1.06-24.27 7.21-4.3 6.99-3.45 16.75 2.15 22.79 2.68 3.11 6.55 4.67 10.13 6.47-.16 5.31.45 10.61.25 15.92-5.2-4.07-3.59-11.45-7.34-16.36-2.02.95-5.08 1.44-5.43 4.13-.06 5.42 1.84 10.65 3.13 15.86h-.04c-.34-.46-1.01-1.38-1.35-1.84-3.89-.65-7.86.02-11.77.02-19.21-.34-38.43-.35-57.63.02-29.31-.13-58.61-.54-87.91.06-11.48-.71-22.97-.11-34.46-.1-1.91 0-3.83-.01-5.74-.02-.01-7.75 0-15.51 0-23.27V20m27.25 21.36c-8.19 1.84-8.99 15.98-.58 18.13 3.31.95 8.69.49 9.59-3.57-3.58.36-7.87 2.49-11.02-.14-2.27-3.28-2.19-8.71 1.13-11.31 3.18-1.4 6.66.11 9.93.43-1.06-3.85-5.73-4.52-9.05-3.54m11.82 16.53c2.37 3.15 7.15 2.4 9.77 0-.71-2.63-4.05-.56-5.89-.87-2.34.52-2.58-2.1-2.93-3.7 3.07-.18 6.14-.33 9.22-.46-.5-2.81-1.68-6.75-5.17-6.8-6.16-1.05-9.02 7.95-5 11.83m11.46-11.37c-.41 4.37-.39 8.76-.23 13.15.65.06 1.95.18 2.6.25.11-3.12-.14-6.3.65-9.34 1.6-1.41 3.76-1.95 5.64-2.89-2.27-2.4-5.78-1.21-8.66-1.17m12.72-.16c-5.82 1.63-5.76 11.63-.02 13.34 1.92.7 3.86-.29 5.71-.74.06-.66.16-1.98.21-2.64-1.7.33-3.4.72-5.13.78-2.77-.96-2.33-4.63-1.75-6.88 1.46-2.24 4.79-.73 7.04-1.19-.53-2.72-3.74-3.58-6.06-2.67m7.53 3.19c2.33-.16 4.66-.36 7-.52l-.08 2.48c-2.8.79-6.89 1.04-7.58 4.56.34 4.48 5.84 4.18 9.02 3.17 2.22-.66 1.54-3.49 1.69-5.22-.2-2.7-.21-6.34-3.06-7.69-2.77-1.1-5.9.56-6.99 3.22z"/><path d="M297.05 25.12c7.73-.23 14.97 5.42 17.13 12.75 1.5 5.28.58 11.27-2.77 15.67-1.84 2.56-4.53 4.29-7.09 6.04-2.16-.96-2.72-3.02-2.08-5.24 1.82-2.22 4.39-4 5.21-6.89.63-3.39.61-7.28-1.68-10.09-3.64-5.28-12.22-5.91-16.47-1.05-4.74 4.58-3.88 13.57 2 16.8-1.81-2.78-4.44-5.46-4.09-9.07-.34-7.1 8.38-12.35 14.52-8.69 6.77 3.22 7.08 14.27-.04 17.31-.07-3.27.5-6.68-.46-9.86-1.45-4.01-8.76-3.32-8.99 1.09-.18 5 .3 10 .56 15-.64.5-1.27 1-1.89 1.51-2.99-2.45-6.75-4.14-8.69-7.68-3.73-5.47-3.9-13.11-.46-18.76 3.01-5.4 9.08-9 15.29-8.84zM39.31 30.12c5.99-3.72 14.21-3.72 19.72.89 4.37 3.23 6.31 8.7 6.34 13.98-.66 3.32-2.1 6.41-3.68 9.38 5.91 2.99 9.71 8.65 14.57 12.96-1.17 1.31-2.33 2.62-3.49 3.94-3.27-2.72-6.2-5.78-9.23-8.75-1.77-1.62-3.21-3.56-4.34-5.67-3.45 1.85-7.24 3.41-11.24 3.1-6.61-.12-12.87-4.72-14.88-11.03-2.35-6.75.52-14.65 6.23-18.8m4.52 3.14c-3.4 2.51-6.41 6.29-6.12 10.75-.17 5.02 3.6 9.3 8.26 10.7l-.43.36c5.56.94 11.46-1.95 13.74-7.17.29-1.91.45-3.82.66-5.74-.84-3.09-2.37-6.25-5.24-7.93-3.19-2.25-7.28-1.39-10.87-.97z"/></g><path fill="#366070" d="M281.01 33.04c4.62-8.27 15.89-11.4 24.27-7.21 8.68 3.99 13.09 15.16 9.37 23.99-1.65 4.84-5.69 8.21-9.83 10.91-.69.01-2.05.01-2.73.01l-.08 3.7c2.18-1.89 4.99-3.51 7.99-2.67 2.43.8 2.81 3.55 3.52 5.64 1.9-1.26 4.05-2.53 6.41-1.71 2.6.47 2.8 3.61 3.63 5.61 2.72-2.16 7.04-.89 7.66 2.67 1.11 7.46.26 15.08-1.06 22.47l-.05.24c-.62 4.34-1.93 8.89-5.6 11.64-4.12 3.99-10.21 3.59-15.49 3.37-3.6.03-6.28-2.67-9.07-4.56-8.31-5.67-13.37-15.01-15.86-24.56l-.19-.73c-1.29-5.21-3.19-10.44-3.13-15.86.35-2.69 3.41-3.18 5.43-4.13 3.75 4.91 2.14 12.29 7.34 16.36.2-5.31-.41-10.61-.25-15.92-3.58-1.8-7.45-3.36-10.13-6.47-5.6-6.04-6.45-15.8-2.15-22.79m16.04-7.92c-6.21-.16-12.28 3.44-15.29 8.84-3.44 5.65-3.27 13.29.46 18.76 1.94 3.54 5.7 5.23 8.69 7.68.62-.51 1.25-1.01 1.89-1.51-.26-5-.74-10-.56-15 .23-4.41 7.54-5.1 8.99-1.09.96 3.18.39 6.59.46 9.86 7.12-3.04 6.81-14.09.04-17.31-6.14-3.66-14.86 1.59-14.52 8.69-.35 3.61 2.28 6.29 4.09 9.07-5.88-3.23-6.74-12.22-2-16.8 4.25-4.86 12.83-4.23 16.47 1.05 2.29 2.81 2.31 6.7 1.68 10.09-.82 2.89-3.39 4.67-5.21 6.89-.64 2.22-.08 4.28 2.08 5.24 2.56-1.75 5.25-3.48 7.09-6.04 3.35-4.4 4.27-10.39 2.77-15.67-2.16-7.33-9.4-12.98-17.13-12.75z"/><path fill="#fc9833" d="M19.59 30.95c2.46 3.58 4.21 7.56 6.11 11.45 2.1 4.34 5.23 8.06 7.66 12.2.79 1.53 1.81 3.22 1.43 5.02-2.3 2.07-5.08 3.47-7.72 5.05-3.07 1.77-6.08 3.64-9.1 5.51-.32-.15-.97-.47-1.29-.62.24-3.31.31-6.63.18-9.95-.39-8.49 1.44-16.88 1.26-25.37.47-1.11.96-2.2 1.47-3.29z"/><path fill="#fb8d36" d="M0 31.31c4.29 4.39 5.75 10.53 9.16 15.51 2.81 4.13 3.74 9.46 7.7 12.79.13 3.32.06 6.64-.18 9.95-5.73-3.08-11.2-6.6-16.68-10.08V31.31z"/><g fill="#e6e6e6"><path d="M112.25 41.36c3.32-.98 7.99-.31 9.05 3.54-3.27-.32-6.75-1.83-9.93-.43-3.32 2.6-3.4 8.03-1.13 11.31 3.15 2.63 7.44.5 11.02.14-.9 4.06-6.28 4.52-9.59 3.57-8.41-2.15-7.61-16.29.58-18.13zM124.07 57.89c-4.02-3.88-1.16-12.88 5-11.83 3.49.05 4.67 3.99 5.17 6.8-3.08.13-6.15.28-9.22.46.35 1.6.59 4.22 2.93 3.7 1.84.31 5.18-1.76 5.89.87-2.62 2.4-7.4 3.15-9.77 0m.82-7.13c2.13.16 4.27.21 6.41.16-1.28-2.93-4.74-2.41-6.41-.16zM135.53 46.52c2.88-.04 6.39-1.23 8.66 1.17-1.88.94-4.04 1.48-5.64 2.89-.79 3.04-.54 6.22-.65 9.34-.65-.07-1.95-.19-2.6-.25-.16-4.39-.18-8.78.23-13.15zM148.25 46.36c2.32-.91 5.53-.05 6.06 2.67-2.25.46-5.58-1.05-7.04 1.19-.58 2.25-1.02 5.92 1.75 6.88 1.73-.06 3.43-.45 5.13-.78-.05.66-.15 1.98-.21 2.64-1.85.45-3.79 1.44-5.71.74-5.74-1.71-5.8-11.71.02-13.34zM155.78 49.55c1.09-2.66 4.22-4.32 6.99-3.22 2.85 1.35 2.86 4.99 3.06 7.69-.15 1.73.53 4.56-1.69 5.22-3.18 1.01-8.68 1.31-9.02-3.17.69-3.52 4.78-3.77 7.58-4.56l.08-2.48c-2.34.16-4.67.36-7 .52m1.79 6.28c.41.53 1.23 1.58 1.64 2.1 1.91-.75 3.77-1.81 4.1-4.05-2.08.11-4.02.81-5.74 1.95z"/></g><path fill="#fb8f35" d="M65.37 44.99c6.31 4.29 13.14 7.73 19.63 11.73 0 7.76-.01 15.52 0 23.27 1.91.01 3.83.02 5.74.02-2.24 1.92-4.76 3.47-7.43 4.74-4.63-3.57-7.43-8.68-10.54-13.48 1.16-1.32 2.32-2.63 3.49-3.94-4.86-4.31-8.66-9.97-14.57-12.96 1.58-2.97 3.02-6.06 3.68-9.38z"/><g fill="#fc9a34"><path d="M45.97 54.71c3.79-3.49 8.33-5.96 12.81-8.42.13.4.37 1.2.5 1.61-2.28 5.22-8.18 8.11-13.74 7.17l.43-.36zM356.99 58.41c7.15 3.76 13.8 8.43 21.04 12.04-.97.4-1.95.77-2.91 1.17-5.98 2.9-11.58 6.52-17.25 9.98-1.19-.82-1.6-2.13-1.52-3.52-.09-6.56-.85-13.21.64-19.67z"/></g><path fill="#fdfdfd" d="M124.89 50.76c1.67-2.25 5.13-2.77 6.41.16-2.14.05-4.28 0-6.41-.16z"/><path fill="#dd4b59" d="M397.25 59.61c3.83-2.36 7.86-4.37 11.75-6.65v27.52c-4.66-6.54-6.6-14.6-11.75-20.87z"/><path fill="#fcfcfc" d="M157.57 55.83c1.72-1.14 3.66-1.84 5.74-1.95-.33 2.24-2.19 3.3-4.1 4.05-.41-.52-1.23-1.57-1.64-2.1z"/><g fill="#fa7c37"><path d="M355.01 57.37c.49.26 1.48.78 1.98 1.04-1.49 6.46-.73 13.11-.64 19.67-.08 1.39.33 2.7 1.52 3.52-6.17 3.97-12.71 7.29-19 11.05-2.55 1.5-5.03 3.11-7.6 4.59-.29-.14-.87-.41-1.16-.55l.05-.24c1.54-5.42 2.02-11.06 1.85-16.68 7.66-.01 15.32 0 22.97.01.03-7.47.01-14.94.03-22.41zM17.97 70.18c3.02-1.87 6.03-3.74 9.1-5.51 2.9 5.47 7.17 10.46 8.03 16.78-5.82-3.34-11.51-6.9-17.34-10.22.06-.26.16-.79.21-1.05zM242.04 81.93c6.32-.13 12.64-.42 18.96-.26 1.78-.09 3.28.91 4.79 1.7-5.84 3.18-11.52 6.64-17.36 9.8-2.49 1.23-4.97 2.45-7.42 3.74-.59-.39-1.17-.77-1.75-1.15 4.12-3.39 2.48-9.19 2.78-13.83z"/></g><g fill="#00a69f"><path d="M0 59.48c5.48 3.48 10.95 7 16.68 10.08.32.15.97.47 1.29.62-.05.26-.15.79-.21 1.05-.39 9.92-.12 19.85.15 29.77-5.97.01-11.94-.02-17.91-.04V59.48zM285.47 88.6c1.84 4.44 4.3 8.6 7.19 12.43-2.52-.02-5.05-.03-7.57-.03-.12-4.14 0-8.28.38-12.4z"/></g><path fill="#ea5250" d="M378.03 70.45c6.58-3.28 12.78-7.27 19.22-10.84 5.15 6.27 7.09 14.33 11.75 20.87v8.89c-7.96-4.48-15.82-9.12-23.67-13.78-3.2-1.74-6.21-5.35-10.21-3.97.96-.4 1.94-.77 2.91-1.17z"/><path fill="#6a58b3" d="M357.87 81.6c5.67-3.46 11.27-7.08 17.25-9.98 4-1.38 7.01 2.23 10.21 3.97 7.85 4.66 15.71 9.3 23.67 13.78V101c-21.88 0-43.76.01-65.65-.01-1.25-2.9-2.74-5.7-4.48-8.34 6.29-3.76 12.83-7.08 19-11.05z"/><path fill="#d47235" d="M213.11 80.05c19.2-.37 38.42-.36 57.63-.02-.55.41-1.65 1.23-2.2 1.63-.9.6-1.83 1.16-2.75 1.71-1.51-.79-3.01-1.79-4.79-1.7-6.32-.16-12.64.13-18.96.26-6.99.25-13.99-.06-20.98.19l-.36 2.69a86.202 86.202 0 0 1-7.59-4.76z"/><path fill="#5e4c9b" d="M270.74 80.03c3.91 0 7.88-.67 11.77-.02.34.46 1.01 1.38 1.35 1.84-5.1.22-10.22.31-15.32-.19.55-.4 1.65-1.22 2.2-1.63z"/><path fill="#00afa9" d="M125.97 80.26c23.51.03 47.03-.34 70.54.18.09 6.86.05 13.71.03 20.56-12.02 0-24.02.01-36.03-.01-3.04-1.86-6.16-3.58-9.29-5.28-4.83-2.72-9.42-5.87-14.48-8.17-3.81-2.07-7.85-3.97-10.77-7.28z"/><path fill="#5b4b9a" d="M241.01 96.91c2.45-1.29 4.93-2.51 7.42-3.74 1.44 2.56 2.8 5.16 4.04 7.82-3.81-.03-7.61-.1-11.41-.03-.02-1.35-.04-2.7-.05-4.05z"/><path fill="#fb8b37" d="M142.55 100.95c2.96-1.62 5.79-3.47 8.67-5.24 3.13 1.7 6.25 3.42 9.29 5.28-5.99.02-11.98.03-17.96-.04z"/><path fill="#08a9a7" d="M330.11 96.69c.29.14.87.41 1.16.55 2.05 1.16 4.01 2.46 5.97 3.76-2.57 0-5.14 0-7.7.02l.57-4.33z"/></svg>