<svg width="250px" height="181px" viewBox="0 0 326 236" version="1.1" xmlns="http://www.w3.org/2000/svg">
<g id="#ffffffff">
<path fill="#ffffff" opacity="1.00" d=" M 0.00 0.00 L 326.00 0.00 L 326.00 236.00 L 0.00 236.00 L 0.00 0.00 M 25.17 30.05 C 22.40 37.02 22.75 44.64 22.82 51.99 C 22.83 102.98 22.82 153.97 22.83 204.95 C 22.90 208.44 23.39 212.30 26.06 214.84 C 30.60 219.75 37.57 221.23 44.01 221.17 C 69.34 221.19 94.67 221.17 120.00 221.20 C 121.64 221.24 123.17 220.64 124.68 220.10 C 128.99 224.64 134.24 228.11 139.31 231.71 C 141.69 233.18 144.03 235.34 147.04 234.99 C 153.68 234.89 160.35 235.23 166.97 234.80 C 173.61 232.31 179.58 227.34 182.50 220.78 C 188.31 221.49 194.17 221.12 200.00 221.17 C 224.99 221.21 249.97 221.17 274.95 221.18 C 280.93 221.12 287.08 221.62 292.87 219.80 C 297.27 218.52 301.31 215.51 303.36 211.38 C 304.62 207.03 304.10 202.41 304.21 197.94 C 304.16 146.31 304.17 94.68 304.19 43.04 C 304.11 39.42 303.67 35.79 302.56 32.33 C 302.30 30.86 301.15 29.98 299.81 29.51 C 299.75 29.10 299.64 28.26 299.58 27.84 C 298.39 34.17 299.13 40.63 298.77 47.02 C 298.73 94.69 298.74 142.37 298.75 190.05 C 298.69 195.32 299.01 200.63 298.45 205.88 C 296.87 206.00 295.17 205.64 293.69 206.34 C 285.47 205.53 277.19 205.64 268.95 205.97 C 241.11 205.54 213.25 205.79 185.41 205.79 C 186.92 199.30 187.86 192.67 187.51 186.00 C 187.19 180.30 188.69 173.83 185.11 168.86 C 182.28 165.50 177.02 165.14 173.81 168.20 C 172.60 165.03 172.77 160.34 168.90 159.10 C 164.68 157.17 159.78 158.57 156.62 161.80 C 156.29 158.42 155.53 154.45 152.22 152.71 C 147.23 150.39 140.61 152.21 137.74 157.02 C 137.82 147.01 137.22 137.00 137.25 126.99 C 137.19 123.94 136.99 120.54 134.80 118.18 C 130.40 113.74 120.58 116.11 120.58 123.06 C 121.24 138.65 122.27 154.24 123.04 169.83 C 122.38 169.65 121.07 169.29 120.41 169.11 C 119.83 167.02 121.44 165.45 122.23 163.70 C 121.30 164.69 120.43 165.73 119.54 166.76 C 119.85 169.01 121.52 170.44 123.14 171.83 C 123.52 174.27 123.36 176.76 122.92 179.19 C 120.40 177.09 118.81 174.20 117.44 171.28 L 119.56 170.60 C 118.93 170.58 117.69 170.54 117.06 170.52 C 116.71 168.84 116.35 167.19 116.00 165.52 C 117.08 165.09 118.16 164.64 119.24 164.19 C 118.33 164.18 116.51 164.17 115.60 164.16 C 114.88 160.67 114.77 156.55 111.94 153.99 C 109.55 151.97 106.25 153.52 104.10 155.11 C 100.51 157.28 101.71 162.19 101.73 165.66 C 101.96 165.82 102.42 166.15 102.65 166.31 C 102.57 168.50 102.92 170.67 103.42 172.79 C 106.09 184.57 109.75 196.20 115.07 207.06 C 113.81 205.57 111.72 205.80 109.98 205.71 C 97.34 205.77 84.70 205.65 72.06 206.03 C 59.40 205.66 46.74 205.61 34.08 206.13 C 32.26 206.01 30.43 205.94 28.60 205.89 C 28.29 203.95 28.31 201.96 28.26 200.00 C 28.25 149.68 28.26 99.35 28.24 49.03 C 27.86 42.85 28.43 36.62 27.54 30.47 C 27.71 29.28 27.83 28.09 27.90 26.90 C 26.91 27.87 25.63 28.68 25.17 30.05 M 62.59 58.62 C 64.64 59.03 66.72 59.15 68.80 59.27 C 68.74 63.23 69.19 67.19 68.81 71.14 C 68.61 72.87 68.79 74.63 69.57 76.21 C 69.97 70.57 69.48 64.92 69.80 59.28 C 72.13 59.22 74.45 59.05 76.78 58.83 L 77.26 59.16 C 77.86 63.77 77.23 68.43 77.48 73.06 C 77.54 74.28 78.06 75.31 79.04 76.15 C 80.92 72.70 80.18 68.60 80.59 64.84 C 82.35 63.71 84.42 64.21 86.34 64.46 C 86.42 64.84 86.58 65.61 86.66 66.00 C 85.64 69.27 85.00 73.03 86.99 76.10 C 88.78 72.57 89.14 67.49 86.75 64.17 C 85.60 62.17 82.55 62.87 80.82 63.69 C 80.60 61.50 80.55 59.19 79.17 57.36 C 78.39 57.62 76.83 58.14 76.05 58.40 C 71.70 57.19 66.95 57.66 62.59 58.62 M 113.89 58.39 C 110.70 59.73 110.13 65.19 113.90 66.18 C 115.58 66.62 117.19 67.36 118.93 67.60 C 119.30 68.15 120.03 69.25 120.40 69.80 C 118.92 70.66 118.61 71.85 119.48 73.39 C 116.50 74.29 113.51 73.53 110.69 72.48 C 112.96 75.57 117.46 76.12 120.28 73.43 C 120.55 73.09 121.08 72.41 121.34 72.07 C 121.32 71.69 121.28 70.93 121.26 70.55 C 122.04 70.65 123.60 70.84 124.39 70.94 C 123.65 74.25 127.58 75.11 130.05 74.92 C 132.49 75.14 133.65 72.58 134.07 70.60 C 134.39 70.45 135.03 70.14 135.35 69.99 C 135.80 70.16 136.71 70.49 137.16 70.66 C 137.31 71.81 137.49 72.95 137.70 74.10 C 139.94 74.74 142.24 75.64 144.59 74.93 C 143.41 73.41 141.37 73.92 139.74 73.52 C 137.57 71.85 138.53 68.79 137.88 66.46 C 139.27 63.32 142.56 64.41 145.29 64.48 C 143.81 61.39 140.28 63.32 137.91 64.01 C 137.64 65.16 137.38 66.31 137.12 67.46 C 136.67 67.60 135.78 67.87 135.34 68.01 C 135.01 67.86 134.37 67.58 134.04 67.44 C 134.07 66.75 134.13 65.38 134.15 64.69 C 132.57 63.66 130.79 62.98 129.01 62.37 C 127.13 63.18 123.91 63.33 123.95 66.06 C 123.01 66.96 122.07 67.85 121.12 68.74 C 121.10 68.43 121.06 67.81 121.03 67.50 L 120.76 67.51 C 118.20 65.80 115.19 64.88 112.82 62.87 C 112.91 62.42 113.07 61.54 113.15 61.10 C 113.57 60.64 114.41 59.70 114.82 59.23 C 116.88 59.44 118.94 59.67 121.00 59.76 C 119.38 57.56 116.24 57.05 113.89 58.39 M 165.52 69.05 C 165.70 71.44 164.78 74.40 167.08 76.07 C 168.38 73.22 168.10 70.02 168.24 66.98 C 168.22 63.75 168.62 60.29 166.97 57.36 L 166.94 56.57 C 164.74 60.37 165.79 64.89 165.52 69.05 M 185.27 57.49 L 185.48 57.77 L 185.11 58.43 C 184.82 63.92 185.09 69.44 185.00 74.94 L 186.10 75.50 C 187.97 73.47 187.78 70.70 187.03 68.23 C 189.71 68.27 192.53 68.08 194.75 66.38 C 197.40 65.96 196.92 61.97 195.57 60.35 L 195.59 60.24 C 195.40 59.98 195.02 59.46 194.83 59.20 C 191.86 57.69 188.48 57.89 185.27 57.49 M 211.72 57.11 C 211.61 61.75 211.98 66.39 211.71 71.03 C 211.76 72.58 211.25 74.50 212.81 75.57 L 212.82 75.94 C 214.45 73.59 213.99 70.65 214.08 67.97 C 213.97 64.74 214.46 61.29 212.81 58.35 L 213.21 58.24 C 212.84 57.96 212.09 57.39 211.72 57.11 M 260.54 56.42 C 259.18 60.16 259.86 64.16 259.71 68.03 C 259.71 70.83 259.26 73.87 261.00 76.31 C 262.83 72.17 262.42 67.55 262.39 63.15 C 262.20 61.19 262.44 58.94 260.89 57.46 C 260.80 57.20 260.63 56.68 260.54 56.42 M 148.23 58.14 L 147.76 58.99 L 148.23 59.84 L 149.04 59.83 L 149.95 59.83 L 150.76 59.85 L 151.24 59.00 L 150.77 58.15 L 149.95 58.17 L 149.04 58.17 L 148.23 58.14 M 217.30 58.03 C 217.23 58.44 217.09 59.27 217.02 59.68 L 217.77 59.77 C 218.51 61.17 219.34 61.16 220.24 59.73 C 220.31 57.90 219.59 57.36 218.09 58.11 L 217.30 58.03 M 224.51 58.07 L 224.41 58.58 C 221.49 59.97 222.40 63.46 222.30 66.03 C 222.61 68.64 221.77 71.89 224.17 73.74 C 224.18 74.07 224.20 74.73 224.20 75.06 C 225.84 74.77 227.48 74.45 229.09 74.01 C 227.62 73.85 226.13 74.03 224.67 74.14 C 224.69 70.81 224.79 67.48 224.90 64.15 C 225.85 64.09 227.76 63.96 228.72 63.90 C 226.47 63.24 224.74 62.13 225.19 59.50 C 225.02 59.15 224.68 58.43 224.51 58.07 M 231.23 58.15 L 230.76 59.00 L 231.23 59.85 L 232.04 59.83 L 232.95 59.83 L 233.76 59.86 L 234.24 59.01 L 233.77 58.16 L 232.96 58.18 L 232.04 58.17 L 231.23 58.15 M 154.53 64.90 C 156.36 64.72 158.19 64.47 160.02 64.23 C 160.37 65.42 160.73 66.61 161.10 67.80 C 158.68 68.16 154.58 67.97 154.04 71.06 L 153.21 71.07 L 152.79 71.90 C 153.13 72.09 153.79 72.46 154.12 72.64 C 154.11 73.18 154.11 74.25 154.11 74.78 C 156.27 75.10 158.44 75.00 160.58 74.53 C 160.97 74.59 161.75 74.70 162.14 74.76 L 163.08 75.59 C 163.39 72.21 163.49 68.72 162.23 65.51 L 162.28 64.70 C 161.16 63.83 160.02 62.99 158.86 62.17 C 157.25 62.80 155.31 63.13 154.53 64.90 M 231.68 62.34 C 231.70 65.23 231.81 68.11 231.74 71.00 C 231.86 72.55 231.18 74.54 232.85 75.56 L 232.86 76.03 C 234.92 71.95 234.35 66.95 232.85 62.77 C 232.55 62.66 231.97 62.45 231.68 62.34 M 248.41 64.85 C 250.29 64.71 252.17 64.48 254.04 64.27 C 254.39 65.44 254.74 66.62 255.09 67.80 C 252.60 68.15 248.50 68.00 247.93 71.18 L 247.12 71.18 L 246.69 72.01 L 247.16 72.82 L 247.97 72.77 C 248.13 76.64 253.65 74.31 256.13 74.38 L 257.20 75.16 C 257.38 71.89 257.39 68.56 256.20 65.45 L 256.25 64.61 C 254.21 62.02 250.11 61.74 248.41 64.85 M 92.13 63.69 C 91.35 64.48 90.97 65.41 90.99 66.48 C 88.93 66.33 88.99 70.89 91.08 70.69 C 90.19 71.80 91.32 74.53 92.87 73.75 C 93.47 72.41 93.15 71.32 91.92 70.48 L 92.33 69.45 C 94.96 69.33 97.58 69.06 100.19 68.70 C 102.42 70.00 102.07 64.87 99.93 66.38 C 100.26 64.11 97.84 63.32 96.24 62.62 C 94.88 63.00 93.50 63.36 92.13 63.69 M 148.70 63.75 C 148.91 67.77 148.69 71.80 148.90 75.82 C 149.23 75.47 149.90 74.76 150.24 74.41 C 150.16 70.58 150.22 66.75 150.20 62.92 C 149.82 63.12 149.07 63.54 148.70 63.75 M 197.68 67.63 C 197.69 68.53 197.70 69.42 197.71 70.32 C 199.16 72.16 199.96 75.26 202.83 75.17 C 205.59 75.66 207.73 73.55 208.60 71.13 C 210.64 70.43 210.20 65.89 207.93 66.32 C 207.84 62.73 203.41 62.67 200.82 63.12 C 199.51 64.42 198.68 66.10 197.68 67.63 M 216.60 70.08 C 216.61 72.13 215.85 74.68 218.07 75.94 C 219.76 74.01 219.11 71.37 219.26 69.04 C 219.10 66.66 219.79 63.93 217.99 61.98 C 216.59 64.45 216.86 67.36 216.60 70.08 M 237.50 63.96 C 237.97 64.38 238.44 64.80 238.93 65.22 C 240.99 63.21 243.75 64.45 246.17 64.72 C 243.76 62.44 240.36 62.66 237.50 63.96 M 236.00 65.24 C 235.41 67.46 235.06 69.84 236.78 71.71 C 236.64 73.14 237.96 73.91 238.82 74.82 C 240.39 74.84 241.97 74.91 243.54 75.03 C 244.77 75.64 245.57 75.30 245.97 74.02 C 245.79 72.18 242.92 73.05 243.05 74.60 C 240.65 74.11 238.99 72.36 237.23 70.83 C 239.09 70.64 239.74 67.35 238.19 66.42 C 237.46 66.02 236.73 65.63 236.00 65.24 M 93.44 74.85 C 95.89 75.50 98.79 75.55 100.44 73.29 C 98.06 73.45 95.49 73.40 93.44 74.85 M 172.63 77.17 C 174.23 76.84 174.42 73.70 172.67 73.48 L 172.44 72.98 C 169.15 71.94 170.90 79.87 172.63 77.17 M 99.90 108.57 C 99.17 107.14 98.40 105.73 97.46 104.43 L 97.52 105.00 C 97.04 108.36 95.13 112.76 97.79 115.62 C 97.13 121.49 97.38 127.66 99.85 133.12 C 103.47 141.93 111.33 148.67 120.43 151.32 C 120.29 150.82 120.02 149.81 119.88 149.30 C 112.71 146.41 106.17 141.45 102.68 134.41 C 97.36 124.59 98.43 111.89 105.13 103.00 C 112.87 92.06 128.45 87.68 140.71 93.16 C 153.36 98.26 161.26 112.68 158.56 126.08 C 156.75 136.37 149.09 145.16 139.37 148.81 C 139.48 149.28 139.70 150.22 139.81 150.69 C 151.50 146.68 160.17 135.37 160.90 123.03 C 162.25 108.52 152.22 93.94 138.12 90.18 C 123.17 85.47 105.26 93.69 99.90 108.57 M 115.79 109.78 C 108.02 117.34 109.38 132.49 119.29 137.53 C 118.57 135.19 116.57 133.68 115.25 131.71 C 113.29 129.04 112.85 125.68 112.20 122.53 C 112.65 122.39 113.55 122.12 114.00 121.99 C 113.56 121.87 112.69 121.63 112.25 121.52 C 113.33 114.36 118.52 107.72 125.87 106.40 C 135.85 103.96 146.40 112.87 145.78 123.10 C 146.02 128.42 142.50 132.63 139.49 136.61 C 142.38 136.35 143.87 133.54 145.27 131.36 C 149.72 123.66 147.46 112.97 140.30 107.71 C 133.14 102.13 121.87 102.96 115.79 109.78 M 64.33 112.96 C 66.63 113.20 72.11 110.57 71.23 115.02 C 71.03 115.24 70.64 115.69 70.44 115.92 C 67.72 115.93 63.77 117.16 63.68 120.39 C 64.79 124.12 69.02 123.68 71.86 122.41 L 72.39 122.63 C 73.71 120.11 74.42 115.61 71.86 113.58 C 71.83 113.09 71.76 112.10 71.73 111.60 C 69.20 110.20 65.73 109.82 64.33 112.96 M 76.99 124.12 C 78.67 120.66 78.00 116.70 78.18 113.00 C 80.16 112.67 82.14 112.33 84.13 112.06 C 84.24 112.56 84.44 113.57 84.55 114.08 C 83.56 117.24 82.56 121.18 85.05 123.95 C 86.53 120.44 87.57 115.23 84.72 112.23 L 84.72 112.14 C 83.89 111.62 83.07 111.08 82.26 110.54 C 80.87 110.91 79.05 110.63 78.17 112.02 L 76.94 110.67 L 76.88 109.66 C 75.35 114.17 74.79 119.72 76.99 124.12 M 90.69 111.63 C 87.21 113.49 87.15 118.41 89.17 121.36 C 90.82 123.52 95.38 123.89 96.97 121.33 C 94.86 121.54 92.67 122.31 90.73 120.95 C 90.81 119.09 90.16 116.95 89.64 115.11 C 89.99 114.49 90.70 113.25 91.05 112.63 C 92.65 112.34 94.25 112.00 95.84 111.64 C 94.36 110.32 92.16 110.26 90.69 111.63 M 101.21 121.18 L 100.76 122.05 L 101.26 122.88 L 102.06 122.84 L 102.97 122.82 L 103.79 122.83 L 104.24 121.97 L 103.75 121.13 L 102.94 121.16 L 102.03 121.18 L 101.21 121.18 M 106.22 121.16 L 105.76 122.02 L 106.24 122.86 L 107.05 122.83 L 107.96 122.82 L 108.78 122.83 L 109.24 121.97 L 108.75 121.13 L 107.94 121.16 L 107.03 121.17 L 106.22 121.16 M 249.51 144.00 C 249.72 145.86 252.06 145.76 253.40 146.50 C 253.41 144.79 254.43 142.35 252.22 141.58 C 251.11 142.14 250.26 143.05 249.51 144.00 M 251.05 151.75 L 252.09 152.31 L 253.12 151.67 C 255.64 152.92 255.62 147.07 253.10 148.31 L 251.76 147.82 L 250.97 148.48 C 248.39 147.26 248.49 153.05 251.05 151.75 M 250.98 157.92 C 251.51 157.87 252.57 157.77 253.10 157.73 C 255.60 158.90 255.64 153.12 253.14 154.32 C 252.55 154.28 251.37 154.19 250.78 154.14 C 248.48 153.65 248.65 158.70 250.98 157.92 M 63.36 160.79 C 63.59 162.21 63.88 163.62 64.27 165.01 C 64.59 167.34 65.51 169.78 68.19 170.10 C 66.90 168.51 65.43 167.00 64.82 164.99 C 64.40 163.56 63.95 162.15 63.36 160.79 M 68.77 166.62 C 70.35 164.89 71.40 162.79 72.10 160.57 C 69.05 161.03 68.66 164.07 68.77 166.62 M 83.77 164.33 C 82.67 163.35 80.32 163.79 79.90 165.29 C 79.27 165.92 78.64 166.55 78.01 167.19 C 77.60 166.20 77.19 165.22 76.80 164.23 C 75.39 164.34 73.99 164.47 72.59 164.61 L 71.92 164.39 C 71.89 166.75 70.90 170.26 73.99 171.11 C 74.63 172.17 75.49 172.27 76.55 171.42 C 77.83 169.87 74.78 169.00 74.06 170.33 C 73.91 169.73 73.61 168.51 73.46 167.90 C 75.08 167.94 76.70 167.93 78.32 167.89 C 78.79 168.74 79.35 169.53 80.00 170.27 L 80.28 170.77 C 81.52 171.37 82.69 171.26 83.79 170.44 L 84.57 171.58 L 86.04 171.12 C 86.05 170.53 86.05 169.36 86.06 168.78 C 86.67 169.71 87.33 170.61 88.02 171.49 C 90.43 169.41 90.38 165.64 88.04 163.53 C 87.34 164.41 86.69 165.32 86.06 166.25 C 86.07 164.45 86.03 162.64 86.00 160.84 L 84.87 160.39 C 84.21 161.61 83.84 162.93 83.77 164.33 M 92.89 165.58 C 94.51 165.59 96.12 165.61 97.74 165.65 C 96.45 166.77 94.95 167.58 93.46 168.38 C 93.45 169.01 93.44 170.27 93.44 170.90 C 94.89 170.81 96.34 170.69 97.80 170.55 L 97.73 169.58 C 99.76 169.80 99.74 165.43 97.78 165.56 L 97.89 163.92 C 95.95 163.48 94.17 164.03 92.89 165.58 M 99.83 165.75 C 99.32 166.71 99.94 172.28 101.01 169.51 C 102.70 170.19 102.74 166.89 101.23 167.11 L 101.47 166.29 C 101.89 164.86 99.75 163.67 99.83 165.75 Z" />
<path fill="#ffffff" opacity="1.00" d=" M 186.85 58.90 C 189.01 59.12 191.16 59.45 193.31 59.74 C 193.39 61.65 193.55 63.55 193.72 65.46 C 193.48 65.66 193.00 66.08 192.76 66.29 C 190.80 66.59 188.84 66.85 186.88 67.09 C 187.10 64.36 187.07 61.63 186.85 58.90 Z" />
<path fill="#ffffff" opacity="1.00" d=" M 199.40 64.97 C 202.12 64.03 205.11 63.67 207.45 65.74 C 207.41 67.88 207.42 70.03 207.44 72.17 C 205.05 74.22 202.11 74.20 199.41 72.76 L 199.66 71.67 C 200.16 69.93 200.15 68.09 199.69 66.35 L 199.40 64.97 Z" />
<path fill="#ffffff" opacity="1.00" d=" M 124.38 67.04 C 125.44 66.21 126.46 65.33 127.45 64.42 C 128.17 64.34 129.61 64.17 130.33 64.09 C 131.33 65.16 132.33 66.22 133.34 67.27 C 133.37 68.55 133.40 69.82 133.43 71.10 C 132.64 71.97 131.86 72.85 131.08 73.74 C 129.70 73.81 128.31 73.89 126.92 73.98 C 126.25 73.09 125.57 72.20 124.90 71.32 C 125.77 70.01 126.27 67.74 124.38 67.04 Z" />
<path fill="#ffffff" opacity="1.00" d=" M 155.35 70.39 C 157.07 69.53 159.00 69.31 160.88 68.98 C 160.66 70.36 160.49 71.76 160.41 73.16 C 158.63 73.48 156.86 73.77 155.08 74.02 C 155.11 72.80 155.20 71.59 155.35 70.39 Z" />
<path fill="#ffffff" opacity="1.00" d=" M 248.72 70.65 C 250.71 69.85 252.79 69.23 254.96 69.18 C 254.38 70.45 254.16 71.77 254.30 73.16 C 252.68 73.45 251.08 73.73 249.46 73.98 C 249.28 73.15 248.90 71.48 248.72 70.65 Z" />
<path fill="#ffffff" opacity="1.00" d=" M 65.45 118.06 C 67.36 117.74 69.28 117.44 71.21 117.17 C 70.69 118.67 70.18 120.17 69.69 121.69 C 68.15 121.54 66.59 121.43 65.04 121.37 C 65.14 120.55 65.34 118.89 65.45 118.06 Z" />
<path fill="#ffffff" opacity="1.00" d=" M 81.20 165.90 C 81.83 165.63 83.10 165.10 83.73 164.83 C 83.69 166.56 83.69 168.29 83.75 170.03 C 82.63 169.68 81.50 169.41 80.35 169.22 C 80.33 168.62 80.29 167.43 80.28 166.84 C 80.51 166.60 80.97 166.13 81.20 165.90 Z" />
<path fill="#ffffff" opacity="1.00" d=" M 95.01 168.22 C 96.63 167.63 97.18 168.16 96.66 169.80 C 95.04 170.39 94.49 169.86 95.01 168.22 Z" />
</g>
<g id="#ecececff">
<path fill="#ececec" opacity="1.00" d=" M 25.17 30.05 C 25.63 28.68 26.91 27.87 27.90 26.90 C 27.83 28.09 27.71 29.28 27.54 30.47 C 25.15 40.48 26.59 50.83 26.23 61.00 C 25.47 91.65 26.73 122.30 26.00 152.95 C 26.11 170.33 25.84 187.72 26.23 205.10 C 26.10 208.39 27.94 211.49 30.71 213.19 C 34.38 215.45 38.87 215.36 43.03 215.45 C 63.69 215.26 84.36 215.42 105.02 215.33 C 109.97 215.26 115.12 216.09 119.83 214.14 C 121.30 216.24 122.94 218.21 124.68 220.10 C 123.17 220.64 121.64 221.24 120.00 221.20 C 94.67 221.17 69.34 221.19 44.01 221.17 C 37.57 221.23 30.60 219.75 26.06 214.84 C 23.39 212.30 22.90 208.44 22.83 204.95 C 22.82 153.97 22.83 102.98 22.82 51.99 C 22.75 44.64 22.40 37.02 25.17 30.05 Z" />
<path fill="#ececec" opacity="1.00" d=" M 299.81 29.51 C 301.15 29.98 302.30 30.86 302.56 32.33 C 303.67 35.79 304.11 39.42 304.19 43.04 C 304.17 94.68 304.16 146.31 304.21 197.94 C 304.10 202.41 304.62 207.03 303.36 211.38 C 301.31 215.51 297.27 218.52 292.87 219.80 C 287.08 221.62 280.93 221.12 274.95 221.18 C 249.97 221.17 224.99 221.21 200.00 221.17 C 194.17 221.12 188.31 221.49 182.50 220.78 C 183.24 218.72 183.76 216.59 184.10 214.44 C 189.95 216.03 196.03 215.27 202.01 215.35 C 226.33 215.39 250.65 215.31 274.96 215.37 C 282.32 215.60 290.27 216.51 297.04 212.95 C 301.93 209.27 300.66 202.35 300.80 197.02 C 301.17 157.33 300.97 117.63 301.00 77.94 C 300.41 61.80 301.74 45.60 299.81 29.51 Z" />
</g>
<g id="#d5d5d5ff">
<path fill="#d5d5d5" opacity="1.00" d=" M 298.77 47.02 C 299.13 40.63 298.39 34.17 299.58 27.84 C 299.64 28.26 299.75 29.10 299.81 29.51 C 301.74 45.60 300.41 61.80 301.00 77.94 C 300.97 117.63 301.17 157.33 300.80 197.02 C 300.66 202.35 301.93 209.27 297.04 212.95 C 290.27 216.51 282.32 215.60 274.96 215.37 C 250.65 215.31 226.33 215.39 202.01 215.35 C 196.03 215.27 189.95 216.03 184.10 214.44 C 184.19 213.83 184.36 212.60 184.45 211.99 C 186.96 212.10 189.46 212.21 191.97 212.24 C 223.98 212.18 255.99 212.25 287.99 212.25 C 292.31 212.42 298.19 211.23 298.45 205.88 C 299.01 200.63 298.69 195.32 298.75 190.05 C 298.74 142.37 298.73 94.69 298.77 47.02 Z" />
<path fill="#d5d5d5" opacity="1.00" d=" M 26.23 61.00 C 26.59 50.83 25.15 40.48 27.54 30.47 C 28.43 36.62 27.86 42.85 28.24 49.03 C 28.26 99.35 28.25 149.68 28.26 200.00 C 28.31 201.96 28.29 203.95 28.60 205.89 C 29.14 207.65 29.40 209.94 31.29 210.80 C 34.31 212.20 37.74 211.97 40.98 212.17 C 64.32 212.37 87.67 212.05 111.01 212.29 C 113.31 212.33 115.57 211.78 117.77 211.18 C 118.48 212.15 119.14 213.15 119.83 214.14 C 115.12 216.09 109.97 215.26 105.02 215.33 C 84.36 215.42 63.69 215.26 43.03 215.45 C 38.87 215.36 34.38 215.45 30.71 213.19 C 27.94 211.49 26.10 208.39 26.23 205.10 C 25.84 187.72 26.11 170.33 26.00 152.95 C 26.73 122.30 25.47 91.65 26.23 61.00 Z" />
<path fill="#d5d5d5" opacity="1.00" d=" M 212.14 58.52 C 212.31 58.48 212.64 58.39 212.81 58.35 C 214.46 61.29 213.97 64.74 214.08 67.97 C 213.99 70.65 214.45 73.59 212.82 75.94 L 212.81 75.57 C 212.51 69.89 213.31 64.14 212.14 58.52 Z" />
<path fill="#d5d5d5" opacity="1.00" d=" M 232.85 75.56 C 232.70 71.29 232.68 67.03 232.85 62.77 C 234.35 66.95 234.92 71.95 232.86 76.03 L 232.85 75.56 Z" />
<path fill="#d5d5d5" opacity="1.00" d=" M 121.12 68.74 C 122.07 67.85 123.01 66.96 123.95 66.06 L 123.78 67.45 C 123.55 68.68 123.76 69.84 124.39 70.94 C 123.60 70.84 122.04 70.65 121.26 70.55 C 121.22 70.10 121.16 69.20 121.12 68.74 Z" />
</g>
<g id="#262333ff">
<path fill="#262333" opacity="1.00" d=" M 62.59 58.62 C 66.95 57.66 71.70 57.19 76.05 58.40 L 76.78 58.83 C 74.45 59.05 72.13 59.22 69.80 59.28 C 69.48 64.92 69.97 70.57 69.57 76.21 C 68.79 74.63 68.61 72.87 68.81 71.14 C 69.19 67.19 68.74 63.23 68.80 59.27 C 66.72 59.15 64.64 59.03 62.59 58.62 Z" />
<path fill="#262333" opacity="1.00" d=" M 113.89 58.39 C 116.24 57.05 119.38 57.56 121.00 59.76 C 118.94 59.67 116.88 59.44 114.82 59.23 C 114.41 59.70 113.57 60.64 113.15 61.10 C 113.34 60.43 113.71 59.07 113.89 58.39 Z" />
<path fill="#262333" opacity="1.00" d=" M 185.27 57.49 C 188.48 57.89 191.86 57.69 194.83 59.20 C 194.45 59.34 193.69 59.61 193.31 59.74 C 191.16 59.45 189.01 59.12 186.85 58.90 L 186.03 58.20 C 185.89 58.09 185.62 57.88 185.48 57.77 L 185.27 57.49 Z" />
<path fill="#262333" opacity="1.00" d=" M 211.72 57.11 C 212.09 57.39 212.84 57.96 213.21 58.24 L 212.81 58.35 C 212.64 58.39 212.31 58.48 212.14 58.52 C 213.31 64.14 212.51 69.89 212.81 75.57 C 211.25 74.50 211.76 72.58 211.71 71.03 C 211.98 66.39 211.61 61.75 211.72 57.11 Z" />
<path fill="#262333" opacity="1.00" d=" M 123.95 66.06 C 123.91 63.33 127.13 63.18 129.01 62.37 C 130.79 62.98 132.57 63.66 134.15 64.69 C 134.13 65.38 134.07 66.75 134.04 67.44 C 133.96 68.49 133.97 69.55 134.07 70.60 C 133.65 72.58 132.49 75.14 130.05 74.92 C 127.58 75.11 123.65 74.25 124.39 70.94 L 124.90 71.32 C 125.57 72.20 126.25 73.09 126.92 73.98 C 128.31 73.89 129.70 73.81 131.08 73.74 C 131.86 72.85 132.64 71.97 133.43 71.10 C 133.40 69.82 133.37 68.55 133.34 67.27 C 132.33 66.22 131.33 65.16 130.33 64.09 C 129.61 64.17 128.17 64.34 127.45 64.42 C 126.46 65.33 125.44 66.21 124.38 67.04 L 123.78 67.45 L 123.95 66.06 Z" />
<path fill="#262333" opacity="1.00" d=" M 137.91 64.01 C 140.28 63.32 143.81 61.39 145.29 64.48 C 142.56 64.41 139.27 63.32 137.88 66.46 L 137.12 67.46 C 137.38 66.31 137.64 65.16 137.91 64.01 Z" />
<path fill="#262333" opacity="1.00" d=" M 154.53 64.90 C 155.31 63.13 157.25 62.80 158.86 62.17 C 160.02 62.99 161.16 63.83 162.28 64.70 L 162.23 65.51 C 162.18 66.32 162.08 67.95 162.03 68.76 L 160.88 68.98 C 159.00 69.31 157.07 69.53 155.35 70.39 C 155.20 71.59 155.11 72.80 155.08 74.02 C 156.86 73.77 158.63 73.48 160.41 73.16 C 160.45 73.62 160.50 74.07 160.58 74.53 C 158.44 75.00 156.27 75.10 154.11 74.78 C 154.11 74.25 154.11 73.18 154.12 72.64 C 154.10 72.25 154.06 71.46 154.04 71.06 C 154.58 67.97 158.68 68.16 161.10 67.80 C 160.73 66.61 160.37 65.42 160.02 64.23 C 158.19 64.47 156.36 64.72 154.53 64.90 Z" />
<path fill="#262333" opacity="1.00" d=" M 231.68 62.34 C 231.97 62.45 232.55 62.66 232.85 62.77 C 232.68 67.03 232.70 71.29 232.85 75.56 C 231.18 74.54 231.86 72.55 231.74 71.00 C 231.81 68.11 231.70 65.23 231.68 62.34 Z" />
<path fill="#262333" opacity="1.00" d=" M 248.41 64.85 C 250.11 61.74 254.21 62.02 256.25 64.61 L 256.20 65.45 C 256.16 66.37 256.09 68.20 256.05 69.12 C 255.78 69.14 255.23 69.16 254.96 69.18 C 252.79 69.23 250.71 69.85 248.72 70.65 C 248.90 71.48 249.28 73.15 249.46 73.98 C 251.08 73.73 252.68 73.45 254.30 73.16 C 254.67 73.40 255.40 73.88 255.77 74.12 L 256.13 74.38 C 253.65 74.31 248.13 76.64 247.97 72.77 C 247.96 72.38 247.94 71.58 247.93 71.18 C 248.50 68.00 252.60 68.15 255.09 67.80 C 254.74 66.62 254.39 65.44 254.04 64.27 C 252.17 64.48 250.29 64.71 248.41 64.85 Z" />
<path fill="#262333" opacity="1.00" d=" M 80.82 63.69 C 82.55 62.87 85.60 62.17 86.75 64.17 C 86.79 64.95 86.88 66.51 86.92 67.29 L 86.66 66.00 C 86.58 65.61 86.42 64.84 86.34 64.46 C 84.42 64.21 82.35 63.71 80.59 64.84 C 80.19 65.03 79.40 65.41 79.00 65.60 L 79.02 64.59 C 79.47 64.36 80.37 63.91 80.82 63.69 Z" />
<path fill="#262333" opacity="1.00" d=" M 92.13 63.69 C 93.50 63.36 94.88 63.00 96.24 62.62 C 97.84 63.32 100.26 64.11 99.93 66.38 C 99.99 66.96 100.12 68.12 100.19 68.70 C 97.58 69.06 94.96 69.33 92.33 69.45 C 92.00 69.37 91.34 69.20 91.00 69.12 C 91.00 68.46 90.99 67.14 90.99 66.48 C 90.97 65.41 91.35 64.48 92.13 63.69 M 91.50 67.75 C 93.93 67.44 96.80 68.57 98.92 66.92 C 100.22 64.54 96.56 64.28 95.04 63.78 C 93.53 64.74 92.71 66.48 91.50 67.75 Z" />
<path fill="#262333" opacity="1.00" d=" M 112.82 62.87 C 115.19 64.88 118.20 65.80 120.76 67.51 C 120.30 67.53 119.39 67.57 118.93 67.60 C 117.19 67.36 115.58 66.62 113.90 66.18 C 113.64 65.56 113.11 64.32 112.85 63.70 L 112.82 62.87 Z" />
<path fill="#262333" opacity="1.00" d=" M 148.70 63.75 C 149.07 63.54 149.82 63.12 150.20 62.92 C 150.22 66.75 150.16 70.58 150.24 74.41 C 149.90 74.76 149.23 75.47 148.90 75.82 C 148.69 71.80 148.91 67.77 148.70 63.75 Z" />
<path fill="#262333" opacity="1.00" d=" M 197.68 67.63 C 198.68 66.10 199.51 64.42 200.82 63.12 C 203.41 62.67 207.84 62.73 207.93 66.32 C 207.98 67.93 207.93 69.61 208.60 71.13 C 207.73 73.55 205.59 75.66 202.83 75.17 C 199.96 75.26 199.16 72.16 197.71 70.32 C 197.70 69.42 197.69 68.53 197.68 67.63 M 199.40 64.97 L 199.69 66.35 C 198.06 66.83 198.11 71.11 199.66 71.67 L 199.41 72.76 C 202.11 74.20 205.05 74.22 207.44 72.17 C 207.42 70.03 207.41 67.88 207.45 65.74 C 205.11 63.67 202.12 64.03 199.40 64.97 Z" />
<path fill="#262333" opacity="1.00" d=" M 237.50 63.96 C 240.36 62.66 243.76 62.44 246.17 64.72 C 243.75 64.45 240.99 63.21 238.93 65.22 C 238.44 64.80 237.97 64.38 237.50 63.96 Z" />
<path fill="#262333" opacity="1.00" d=" M 186.88 67.09 C 188.84 66.85 190.80 66.59 192.76 66.29 C 193.25 66.32 194.25 66.36 194.75 66.38 C 192.53 68.08 189.71 68.27 187.03 68.23 C 186.75 68.22 186.20 68.20 185.93 68.18 L 185.95 67.72 L 186.88 67.09 Z" />
<path fill="#262333" opacity="1.00" d=" M 236.78 71.71 L 236.74 70.43 L 237.23 70.83 C 238.99 72.36 240.65 74.11 243.05 74.60 L 243.54 75.03 C 241.97 74.91 240.39 74.84 238.82 74.82 C 237.96 73.91 236.64 73.14 236.78 71.71 Z" />
<path fill="#262333" opacity="1.00" d=" M 110.69 72.48 C 113.51 73.53 116.50 74.29 119.48 73.39 L 120.28 73.43 C 117.46 76.12 112.96 75.57 110.69 72.48 Z" />
<path fill="#262333" opacity="1.00" d=" M 93.44 74.85 C 95.49 73.40 98.06 73.45 100.44 73.29 C 98.79 75.55 95.89 75.50 93.44 74.85 Z" />
<path fill="#262333" opacity="1.00" d=" M 172.63 77.17 C 170.90 79.87 169.15 71.94 172.44 72.98 L 172.67 73.48 C 171.90 74.51 171.72 76.17 172.63 77.17 Z" />
<path fill="#262333" opacity="1.00" d=" M 64.33 112.96 C 65.73 109.82 69.20 110.20 71.73 111.60 C 71.76 112.10 71.83 113.09 71.86 113.58 C 71.90 114.44 71.99 116.17 72.03 117.04 C 71.82 117.07 71.41 117.14 71.21 117.17 C 69.28 117.44 67.36 117.74 65.45 118.06 C 65.34 118.89 65.14 120.55 65.04 121.37 C 66.59 121.43 68.15 121.54 69.69 121.69 C 70.25 121.77 71.35 121.92 71.90 122.00 L 71.86 122.41 C 69.02 123.68 64.79 124.12 63.68 120.39 C 63.77 117.16 67.72 115.93 70.44 115.92 C 70.64 115.69 71.03 115.24 71.23 115.02 C 72.11 110.57 66.63 113.20 64.33 112.96 Z" />
<path fill="#262333" opacity="1.00" d=" M 78.17 112.02 C 79.05 110.63 80.87 110.91 82.26 110.54 C 83.07 111.08 83.89 111.62 84.72 112.14 L 84.72 112.23 C 84.75 113.03 84.80 114.64 84.82 115.44 L 84.55 114.08 C 84.44 113.57 84.24 112.56 84.13 112.06 C 82.14 112.33 80.16 112.67 78.18 113.00 C 78.18 112.75 78.17 112.26 78.17 112.02 Z" />
<path fill="#262333" opacity="1.00" d=" M 88.98 120.01 C 89.42 120.25 90.29 120.72 90.73 120.95 C 92.67 122.31 94.86 121.54 96.97 121.33 C 95.38 123.89 90.82 123.52 89.17 121.36 L 88.98 120.01 Z" />
<path fill="#262333" opacity="1.00" d=" M 249.51 144.00 C 250.26 143.05 251.11 142.14 252.22 141.58 C 254.43 142.35 253.41 144.79 253.40 146.50 C 252.06 145.76 249.72 145.86 249.51 144.00 Z" />
<path fill="#262333" opacity="1.00" d=" M 92.89 165.58 C 94.17 164.03 95.95 163.48 97.89 163.92 L 97.78 165.56 C 97.67 166.89 97.61 168.24 97.73 169.58 L 97.80 170.55 C 96.34 170.69 94.89 170.81 93.44 170.90 C 93.44 170.27 93.45 169.01 93.46 168.38 C 94.95 167.58 96.45 166.77 97.74 165.65 C 96.12 165.61 94.51 165.59 92.89 165.58 M 95.01 168.22 C 94.49 169.86 95.04 170.39 96.66 169.80 C 97.18 168.16 96.63 167.63 95.01 168.22 Z" />
<path fill="#262333" opacity="1.00" d=" M 72.59 164.61 C 73.99 164.47 75.39 164.34 76.80 164.23 C 77.19 165.22 77.60 166.20 78.01 167.19 L 78.32 167.89 C 76.70 167.93 75.08 167.94 73.46 167.90 C 73.39 167.72 73.25 167.35 73.19 167.17 C 74.72 167.02 76.25 166.84 77.79 166.65 C 76.51 165.65 74.98 165.22 73.44 164.87 C 73.23 164.81 72.80 164.67 72.59 164.61 Z" />
<path fill="#262333" opacity="1.00" d=" M 79.90 165.29 C 80.32 163.79 82.67 163.35 83.77 164.33 L 83.73 164.83 C 83.10 165.10 81.83 165.63 81.20 165.90 C 80.97 166.13 80.51 166.60 80.28 166.84 C 80.18 166.45 79.99 165.67 79.90 165.29 Z" />
</g>
<g id="#c8a080ff">
<path fill="#c8a080" opacity="1.00" d=" M 165.52 69.05 C 165.79 64.89 164.74 60.37 166.94 56.57 L 166.97 57.36 C 167.11 63.60 166.90 69.84 167.08 76.07 C 164.78 74.40 165.70 71.44 165.52 69.05 Z" />
</g>
<g id="#bb8b66ff">
<path fill="#bb8b66" opacity="1.00" d=" M 260.54 56.42 C 260.63 56.68 260.80 57.20 260.89 57.46 C 261.23 63.74 260.92 70.03 261.00 76.31 C 259.26 73.87 259.71 70.83 259.71 68.03 C 259.86 64.16 259.18 60.16 260.54 56.42 Z" />
</g>
<g id="#eac9a4ff">
<path fill="#eac9a4" opacity="1.00" d=" M 76.05 58.40 C 76.83 58.14 78.39 57.62 79.17 57.36 C 79.04 59.76 79.02 62.18 79.02 64.59 L 79.00 65.60 C 78.94 69.12 78.99 72.63 79.04 76.15 C 78.06 75.31 77.54 74.28 77.48 73.06 C 77.23 68.43 77.86 63.77 77.26 59.16 L 76.78 58.83 L 76.05 58.40 Z" />
</g>
<g id="#99c7ebff">
<path fill="#99c7eb" opacity="1.00" d=" M 79.17 57.36 C 80.55 59.19 80.60 61.50 80.82 63.69 C 80.37 63.91 79.47 64.36 79.02 64.59 C 79.02 62.18 79.04 59.76 79.17 57.36 Z" />
</g>
<g id="#eaab5eff">
<path fill="#eaab5e" opacity="1.00" d=" M 148.23 58.14 L 149.04 58.17 C 149.04 58.58 149.04 59.41 149.04 59.83 L 148.23 59.84 L 147.76 58.99 L 148.23 58.14 Z" />
<path fill="#eaab5e" opacity="1.00" d=" M 231.23 58.15 L 232.04 58.17 C 232.04 58.59 232.04 59.42 232.04 59.83 L 231.23 59.85 L 230.76 59.00 L 231.23 58.15 Z" />
</g>
<g id="#4f5669ff">
<path fill="#4f5669" opacity="1.00" d=" M 149.04 58.17 L 149.95 58.17 C 149.95 58.58 149.95 59.41 149.95 59.83 L 149.04 59.83 C 149.04 59.41 149.04 58.58 149.04 58.17 Z" />
<path fill="#4f5669" opacity="1.00" d=" M 232.04 58.17 L 232.96 58.18 C 232.96 58.59 232.95 59.42 232.95 59.83 L 232.04 59.83 C 232.04 59.42 232.04 58.59 232.04 58.17 Z" />
</g>
<g id="#9cd5fdff">
<path fill="#9cd5fd" opacity="1.00" d=" M 149.95 58.17 L 150.77 58.15 L 151.24 59.00 L 150.76 59.85 L 149.95 59.83 C 149.95 59.41 149.95 58.58 149.95 58.17 Z" />
<path fill="#9cd5fd" opacity="1.00" d=" M 232.96 58.18 L 233.77 58.16 L 234.24 59.01 L 233.76 59.86 L 232.95 59.83 C 232.95 59.42 232.96 58.59 232.96 58.18 Z" />
</g>
<g id="#84cdfeff">
<path fill="#84cdfe" opacity="1.00" d=" M 166.97 57.36 C 168.62 60.29 168.22 63.75 168.24 66.98 C 168.10 70.02 168.38 73.22 167.08 76.07 C 166.90 69.84 167.11 63.60 166.97 57.36 Z" />
</g>
<g id="#cd8333ff">
<path fill="#cd8333" opacity="1.00" d=" M 185.48 57.77 C 185.62 57.88 185.89 58.09 186.03 58.20 C 186.05 61.37 186.04 64.55 185.95 67.72 L 185.93 68.18 C 185.82 70.62 185.92 73.06 186.10 75.50 L 185.00 74.94 C 185.09 69.44 184.82 63.92 185.11 58.43 L 185.48 57.77 Z" />
</g>
<g id="#47494dff">
<path fill="#47494d" opacity="1.00" d=" M 217.30 58.03 L 218.09 58.11 C 218.01 58.53 217.85 59.35 217.77 59.77 L 217.02 59.68 C 217.09 59.27 217.23 58.44 217.30 58.03 Z" />
<path fill="#47494d" opacity="1.00" d=" M 102.03 121.18 L 102.94 121.16 C 102.95 121.58 102.97 122.41 102.97 122.82 L 102.06 122.84 C 102.05 122.43 102.04 121.60 102.03 121.18 Z" />
</g>
<g id="#7d6fb9ff">
<path fill="#7d6fb9" opacity="1.00" d=" M 218.09 58.11 C 219.59 57.36 220.31 57.90 220.24 59.73 C 219.34 61.16 218.51 61.17 217.77 59.77 C 217.85 59.35 218.01 58.53 218.09 58.11 Z" />
</g>
<g id="#2c4e5dff">
<path fill="#2c4e5d" opacity="1.00" d=" M 224.51 58.07 C 224.68 58.43 225.02 59.15 225.19 59.50 C 224.74 62.13 226.47 63.24 228.72 63.90 C 227.76 63.96 225.85 64.09 224.90 64.15 C 224.79 67.48 224.69 70.81 224.67 74.14 C 226.13 74.03 227.62 73.85 229.09 74.01 C 227.48 74.45 225.84 74.77 224.20 75.06 C 224.20 74.73 224.18 74.07 224.17 73.74 C 224.15 70.25 223.97 66.76 223.50 63.31 C 223.82 61.74 224.12 60.16 224.41 58.58 L 224.51 58.07 Z" />
<path fill="#2c4e5d" opacity="1.00" d=" M 217.99 61.98 C 219.79 63.93 219.10 66.66 219.26 69.04 C 219.11 71.37 219.76 74.01 218.07 75.94 C 218.09 71.29 218.15 66.63 217.99 61.98 Z" />
<path fill="#2c4e5d" opacity="1.00" d=" M 120.76 67.51 L 121.03 67.50 C 121.06 67.81 121.10 68.43 121.12 68.74 C 121.16 69.20 121.22 70.10 121.26 70.55 C 121.28 70.93 121.32 71.69 121.34 72.07 C 121.11 71.51 120.64 70.37 120.40 69.80 C 120.03 69.25 119.30 68.15 118.93 67.60 C 119.39 67.57 120.30 67.53 120.76 67.51 Z" />
<path fill="#2c4e5d" opacity="1.00" d=" M 137.12 67.46 L 137.88 66.46 C 138.53 68.79 137.57 71.85 139.74 73.52 C 141.37 73.92 143.41 73.41 144.59 74.93 C 142.24 75.64 139.94 74.74 137.70 74.10 C 137.49 72.95 137.31 71.81 137.16 70.66 C 137.16 69.59 137.14 68.53 137.12 67.46 Z" />
<path fill="#2c4e5d" opacity="1.00" d=" M 172.63 77.17 C 171.72 76.17 171.90 74.51 172.67 73.48 C 174.42 73.70 174.23 76.84 172.63 77.17 Z" />
<path fill="#2c4e5d" opacity="1.00" d=" M 99.90 108.57 C 105.26 93.69 123.17 85.47 138.12 90.18 C 152.22 93.94 162.25 108.52 160.90 123.03 C 160.17 135.37 151.50 146.68 139.81 150.69 C 139.70 150.22 139.48 149.28 139.37 148.81 C 149.09 145.16 156.75 136.37 158.56 126.08 C 161.26 112.68 153.36 98.26 140.71 93.16 C 128.45 87.68 112.87 92.06 105.13 103.00 C 98.43 111.89 97.36 124.59 102.68 134.41 C 106.17 141.45 112.71 146.41 119.88 149.30 C 120.02 149.81 120.29 150.82 120.43 151.32 C 111.33 148.67 103.47 141.93 99.85 133.12 C 97.38 127.66 97.13 121.49 97.79 115.62 C 97.88 115.12 98.05 114.12 98.14 113.63 C 98.69 111.93 99.28 110.24 99.90 108.57 Z" />
<path fill="#2c4e5d" opacity="1.00" d=" M 115.79 109.78 C 121.87 102.96 133.14 102.13 140.30 107.71 C 147.46 112.97 149.72 123.66 145.27 131.36 C 143.87 133.54 142.38 136.35 139.49 136.61 C 142.50 132.63 146.02 128.42 145.78 123.10 C 146.40 112.87 135.85 103.96 125.87 106.40 C 118.52 107.72 113.33 114.36 112.25 121.52 C 112.69 121.63 113.56 121.87 114.00 121.99 C 113.55 122.12 112.65 122.39 112.20 122.53 C 112.85 125.68 113.29 129.04 115.25 131.71 C 116.57 133.68 118.57 135.19 119.29 137.53 C 109.38 132.49 108.02 117.34 115.79 109.78 Z" />
<path fill="#2c4e5d" opacity="1.00" d=" M 120.58 123.06 C 120.58 116.11 130.40 113.74 134.80 118.18 C 136.99 120.54 137.19 123.94 137.25 126.99 C 137.22 137.00 137.82 147.01 137.74 157.02 C 140.61 152.21 147.23 150.39 152.22 152.71 C 155.53 154.45 156.29 158.42 156.62 161.80 C 159.78 158.57 164.68 157.17 168.90 159.10 C 172.77 160.34 172.60 165.03 173.81 168.20 C 177.02 165.14 182.28 165.50 185.11 168.86 C 188.69 173.83 187.19 180.30 187.51 186.00 C 187.86 192.67 186.92 199.30 185.41 205.79 C 185.35 206.10 185.23 206.74 185.17 207.06 C 184.90 208.69 184.68 210.34 184.45 211.99 C 184.36 212.60 184.19 213.83 184.10 214.44 C 183.76 216.59 183.24 218.72 182.50 220.78 C 179.58 227.34 173.61 232.31 166.97 234.80 C 160.35 235.23 153.68 234.89 147.04 234.99 C 144.03 235.34 141.69 233.18 139.31 231.71 C 134.24 228.11 128.99 224.64 124.68 220.10 C 122.94 218.21 121.30 216.24 119.83 214.14 C 119.14 213.15 118.48 212.15 117.77 211.18 C 117.26 210.50 116.23 209.14 115.71 208.47 L 115.68 208.40 C 115.53 208.07 115.22 207.40 115.07 207.06 C 109.75 196.20 106.09 184.57 103.42 172.79 C 102.92 170.67 102.57 168.50 102.65 166.31 C 102.42 166.15 101.96 165.82 101.73 165.66 C 101.71 162.19 100.51 157.28 104.10 155.11 C 106.25 153.52 109.55 151.97 111.94 153.99 C 114.77 156.55 114.88 160.67 115.60 164.16 C 116.51 164.17 118.33 164.18 119.24 164.19 C 118.16 164.64 117.08 165.09 116.00 165.52 C 116.35 167.19 116.71 168.84 117.06 170.52 C 117.69 170.54 118.93 170.58 119.56 170.60 L 117.44 171.28 C 118.81 174.20 120.40 177.09 122.92 179.19 C 123.36 176.76 123.52 174.27 123.14 171.83 C 121.52 170.44 119.85 169.01 119.54 166.76 C 120.43 165.73 121.30 164.69 122.23 163.70 C 121.44 165.45 119.83 167.02 120.41 169.11 C 121.07 169.29 122.38 169.65 123.04 169.83 C 122.27 154.24 121.24 138.65 120.58 123.06 Z" />
<path fill="#2c4e5d" opacity="1.00" d=" M 63.36 160.79 C 63.95 162.15 64.40 163.56 64.82 164.99 C 65.43 167.00 66.90 168.51 68.19 170.10 C 65.51 169.78 64.59 167.34 64.27 165.01 C 63.88 163.62 63.59 162.21 63.36 160.79 Z" />
</g>
<g id="#a5dbfeff">
<path fill="#a5dbfe" opacity="1.00" d=" M 260.89 57.46 C 262.44 58.94 262.20 61.19 262.39 63.15 C 262.42 67.55 262.83 72.17 261.00 76.31 C 260.92 70.03 261.23 63.74 260.89 57.46 Z" />
</g>
<g id="#dca06aff">
<path fill="#dca06a" opacity="1.00" d=" M 113.90 66.18 C 110.13 65.19 110.70 59.73 113.89 58.39 C 113.71 59.07 113.34 60.43 113.15 61.10 C 113.07 61.54 112.91 62.42 112.82 62.87 L 112.85 63.70 C 113.11 64.32 113.64 65.56 113.90 66.18 Z" />
</g>
<g id="#2481cbff">
<path fill="#2481cb" opacity="1.00" d=" M 186.03 58.20 L 186.85 58.90 C 187.07 61.63 187.10 64.36 186.88 67.09 L 185.95 67.72 C 186.04 64.55 186.05 61.37 186.03 58.20 Z" />
</g>
<g id="#db9668ff">
<path fill="#db9668" opacity="1.00" d=" M 194.83 59.20 C 195.02 59.46 195.40 59.98 195.59 60.24 L 195.57 60.35 C 195.27 61.76 194.98 63.18 194.63 64.58 L 193.72 65.46 C 193.55 63.55 193.39 61.65 193.31 59.74 C 193.69 59.61 194.45 59.34 194.83 59.20 Z" />
</g>
<g id="#f7ddb0ff">
<path fill="#f7ddb0" opacity="1.00" d=" M 222.30 66.03 C 222.40 63.46 221.49 59.97 224.41 58.58 C 224.12 60.16 223.82 61.74 223.50 63.31 C 223.97 66.76 224.15 70.25 224.17 73.74 C 221.77 71.89 222.61 68.64 222.30 66.03 Z" />
</g>
<g id="#51a2a1ff">
<path fill="#51a2a1" opacity="1.00" d=" M 194.63 64.58 C 194.98 63.18 195.27 61.76 195.57 60.35 C 196.92 61.97 197.40 65.96 194.75 66.38 C 194.25 66.36 193.25 66.32 192.76 66.29 C 193.00 66.08 193.48 65.66 193.72 65.46 L 194.63 64.58 Z" />
</g>
<g id="#ffdba2ff">
<path fill="#ffdba2" opacity="1.00" d=" M 216.60 70.08 C 216.86 67.36 216.59 64.45 217.99 61.98 C 218.15 66.63 218.09 71.29 218.07 75.94 C 215.85 74.68 216.61 72.13 216.60 70.08 Z" />
</g>
<g id="#fbfbfbff">
<path fill="#fbfbfb" opacity="1.00" d=" M 91.50 67.75 C 92.71 66.48 93.53 64.74 95.04 63.78 C 96.56 64.28 100.22 64.54 98.92 66.92 C 96.80 68.57 93.93 67.44 91.50 67.75 Z" />
</g>
<g id="#9acbefff">
<path fill="#9acbef" opacity="1.00" d=" M 79.00 65.60 C 79.40 65.41 80.19 65.03 80.59 64.84 C 80.18 68.60 80.92 72.70 79.04 76.15 C 78.99 72.63 78.94 69.12 79.00 65.60 Z" />
</g>
<g id="#476da6ff">
<path fill="#476da6" opacity="1.00" d=" M 86.75 64.17 C 89.14 67.49 88.78 72.57 86.99 76.10 C 87.05 73.16 87.13 70.22 86.92 67.29 C 86.88 66.51 86.79 64.95 86.75 64.17 Z" />
</g>
<g id="#dea16aff">
<path fill="#dea16a" opacity="1.00" d=" M 236.00 65.24 C 236.73 65.63 237.46 66.02 238.19 66.42 C 237.03 67.39 236.60 68.97 236.74 70.43 L 236.78 71.71 C 235.06 69.84 235.41 67.46 236.00 65.24 Z" />
</g>
<g id="#ebc595ff">
<path fill="#ebc595" opacity="1.00" d=" M 91.08 70.69 C 88.99 70.89 88.93 66.33 90.99 66.48 C 90.99 67.14 91.00 68.46 91.00 69.12 C 91.02 69.51 91.06 70.30 91.08 70.69 Z" />
</g>
<g id="#75b4e4ff">
<path fill="#75b4e4" opacity="1.00" d=" M 99.93 66.38 C 102.07 64.87 102.42 70.00 100.19 68.70 C 100.12 68.12 99.99 66.96 99.93 66.38 Z" />
</g>
<g id="#8ad2ffff">
<path fill="#8ad2ff" opacity="1.00" d=" M 162.23 65.51 C 163.49 68.72 163.39 72.21 163.08 75.59 L 162.14 74.76 C 161.97 72.76 161.98 70.76 162.03 68.76 C 162.08 67.95 162.18 66.32 162.23 65.51 Z" />
<path fill="#8ad2ff" opacity="1.00" d=" M 256.20 65.45 C 257.39 68.56 257.38 71.89 257.20 75.16 L 256.13 74.38 L 255.77 74.12 C 255.99 72.46 256.08 70.79 256.05 69.12 C 256.09 68.20 256.16 66.37 256.20 65.45 Z" />
</g>
<g id="#99d5fdff">
<path fill="#99d5fd" opacity="1.00" d=" M 199.66 71.67 C 198.11 71.11 198.06 66.83 199.69 66.35 C 200.15 68.09 200.16 69.93 199.66 71.67 Z" />
</g>
<g id="#2ea9a1ff">
<path fill="#2ea9a1" opacity="1.00" d=" M 207.93 66.32 C 210.20 65.89 210.64 70.43 208.60 71.13 C 207.93 69.61 207.98 67.93 207.93 66.32 Z" />
</g>
<g id="#ffce84ff">
<path fill="#ffce84" opacity="1.00" d=" M 86.66 66.00 L 86.92 67.29 C 87.13 70.22 87.05 73.16 86.99 76.10 C 85.00 73.03 85.64 69.27 86.66 66.00 Z" />
</g>
<g id="#547db8ff">
<path fill="#547db8" opacity="1.00" d=" M 123.78 67.45 L 124.38 67.04 C 126.27 67.74 125.77 70.01 124.90 71.32 L 124.39 70.94 C 123.76 69.84 123.55 68.68 123.78 67.45 Z" />
</g>
<g id="#7ec6f7ff">
<path fill="#7ec6f7" opacity="1.00" d=" M 134.04 67.44 C 134.37 67.58 135.01 67.86 135.34 68.01 C 135.34 68.50 135.34 69.49 135.35 69.99 C 135.03 70.14 134.39 70.45 134.07 70.60 C 133.97 69.55 133.96 68.49 134.04 67.44 Z" />
</g>
<g id="#e9c99bff">
<path fill="#e9c99b" opacity="1.00" d=" M 135.34 68.01 C 135.78 67.87 136.67 67.60 137.12 67.46 C 137.14 68.53 137.16 69.59 137.16 70.66 C 136.71 70.49 135.80 70.16 135.35 69.99 C 135.34 69.49 135.34 68.50 135.34 68.01 Z" />
</g>
<g id="#6da5d3ff">
<path fill="#6da5d3" opacity="1.00" d=" M 236.74 70.43 C 236.60 68.97 237.03 67.39 238.19 66.42 C 239.74 67.35 239.09 70.64 237.23 70.83 L 236.74 70.43 Z" />
</g>
<g id="#5da0d9ff">
<path fill="#5da0d9" opacity="1.00" d=" M 185.93 68.18 C 186.20 68.20 186.75 68.22 187.03 68.23 C 187.78 70.70 187.97 73.47 186.10 75.50 C 185.92 73.06 185.82 70.62 185.93 68.18 Z" />
</g>
<g id="#4279b9ff">
<path fill="#4279b9" opacity="1.00" d=" M 91.00 69.12 C 91.34 69.20 92.00 69.37 92.33 69.45 L 91.92 70.48 L 91.08 70.69 C 91.06 70.30 91.02 69.51 91.00 69.12 Z" />
</g>
<g id="#e09464ff">
<path fill="#e09464" opacity="1.00" d=" M 160.88 68.98 L 162.03 68.76 C 161.98 70.76 161.97 72.76 162.14 74.76 C 161.75 74.70 160.97 74.59 160.58 74.53 C 160.50 74.07 160.45 73.62 160.41 73.16 C 160.49 71.76 160.66 70.36 160.88 68.98 Z" />
</g>
<g id="#ea8e55ff">
<path fill="#ea8e55" opacity="1.00" d=" M 254.96 69.18 C 255.23 69.16 255.78 69.14 256.05 69.12 C 256.08 70.79 255.99 72.46 255.77 74.12 C 255.40 73.88 254.67 73.40 254.30 73.16 C 254.16 71.77 254.38 70.45 254.96 69.18 Z" />
</g>
<g id="#ec8338ff">
<path fill="#ec8338" opacity="1.00" d=" M 119.48 73.39 C 118.61 71.85 118.92 70.66 120.40 69.80 C 120.64 70.37 121.11 71.51 121.34 72.07 C 121.08 72.41 120.55 73.09 120.28 73.43 L 119.48 73.39 Z" />
</g>
<g id="#a58d94ff">
<path fill="#a58d94" opacity="1.00" d=" M 91.08 70.69 L 91.92 70.48 C 93.15 71.32 93.47 72.41 92.87 73.75 C 91.32 74.53 90.19 71.80 91.08 70.69 Z" />
</g>
<g id="#eb994dff">
<path fill="#eb994d" opacity="1.00" d=" M 153.21 71.07 L 154.04 71.06 C 154.06 71.46 154.10 72.25 154.12 72.64 C 153.79 72.46 153.13 72.09 152.79 71.90 L 153.21 71.07 Z" />
</g>
<g id="#f1ac69ff">
<path fill="#f1ac69" opacity="1.00" d=" M 247.12 71.18 L 247.93 71.18 C 247.94 71.58 247.96 72.38 247.97 72.77 L 247.16 72.82 L 246.69 72.01 L 247.12 71.18 Z" />
</g>
<g id="#9ec1d5ff">
<path fill="#9ec1d5" opacity="1.00" d=" M 243.05 74.60 C 242.92 73.05 245.79 72.18 245.97 74.02 C 245.57 75.30 244.77 75.64 243.54 75.03 L 243.05 74.60 Z" />
</g>
<g id="#b7b7b7ff">
<path fill="#b7b7b7" opacity="1.00" d=" M 97.46 104.43 C 98.40 105.73 99.17 107.14 99.90 108.57 C 99.28 110.24 98.69 111.93 98.14 113.63 C 98.10 110.74 97.88 107.86 97.52 105.00 L 97.46 104.43 Z" />
<path fill="#b7b7b7" opacity="1.00" d=" M 28.60 205.89 C 30.43 205.94 32.26 206.01 34.08 206.13 C 36.15 208.39 39.05 209.31 42.07 209.11 C 62.05 209.18 82.03 209.15 102.01 209.13 C 106.50 209.19 111.03 209.42 115.45 208.49 L 115.71 208.47 C 116.23 209.14 117.26 210.50 117.77 211.18 C 115.57 211.78 113.31 212.33 111.01 212.29 C 87.67 212.05 64.32 212.37 40.98 212.17 C 37.74 211.97 34.31 212.20 31.29 210.80 C 29.40 209.94 29.14 207.65 28.60 205.89 Z" />
<path fill="#b7b7b7" opacity="1.00" d=" M 293.69 206.34 C 295.17 205.64 296.87 206.00 298.45 205.88 C 298.19 211.23 292.31 212.42 287.99 212.25 C 255.99 212.25 223.98 212.18 191.97 212.24 C 189.46 212.21 186.96 212.10 184.45 211.99 C 184.68 210.34 184.90 208.69 185.17 207.06 C 186.08 207.73 186.84 208.81 188.05 208.95 C 192.36 209.48 196.71 209.06 201.05 209.13 C 228.70 209.21 256.35 209.05 284.00 209.23 C 287.49 209.40 290.70 207.98 293.69 206.34 Z" />
</g>
<g id="#a75e26ff">
<path fill="#a75e26" opacity="1.00" d=" M 97.52 105.00 C 97.88 107.86 98.10 110.74 98.14 113.63 C 98.05 114.12 97.88 115.12 97.79 115.62 C 95.13 112.76 97.04 108.36 97.52 105.00 Z" />
</g>
<g id="#d8a66fff">
<path fill="#d8a66f" opacity="1.00" d=" M 76.99 124.12 C 74.79 119.72 75.35 114.17 76.88 109.66 L 76.94 110.67 C 77.11 115.15 76.98 119.63 76.99 124.12 Z" />
</g>
<g id="#ce9b76ff">
<path fill="#ce9b76" opacity="1.00" d=" M 90.69 111.63 C 92.16 110.26 94.36 110.32 95.84 111.64 C 94.25 112.00 92.65 112.34 91.05 112.63 C 90.70 113.25 89.99 114.49 89.64 115.11 C 88.80 116.58 88.69 118.37 88.98 120.01 L 89.17 121.36 C 87.15 118.41 87.21 113.49 90.69 111.63 Z" />
</g>
<g id="#7cc0f1ff">
<path fill="#7cc0f1" opacity="1.00" d=" M 76.94 110.67 L 78.17 112.02 C 78.17 112.26 78.18 112.75 78.18 113.00 C 78.00 116.70 78.67 120.66 76.99 124.12 C 76.98 119.63 77.11 115.15 76.94 110.67 Z" />
</g>
<g id="#83b1d2ff">
<path fill="#83b1d2" opacity="1.00" d=" M 84.72 112.23 C 87.57 115.23 86.53 120.44 85.05 123.95 C 85.01 121.11 85.01 118.27 84.82 115.44 C 84.80 114.64 84.75 113.03 84.72 112.23 Z" />
</g>
<g id="#93c6eeff">
<path fill="#93c6ee" opacity="1.00" d=" M 71.86 113.58 C 74.42 115.61 73.71 120.11 72.39 122.63 L 71.86 122.41 L 71.90 122.00 L 71.99 121.50 C 72.03 120.01 72.04 118.52 72.03 117.04 C 71.99 116.17 71.90 114.44 71.86 113.58 Z" />
</g>
<g id="#f1c38bff">
<path fill="#f1c38b" opacity="1.00" d=" M 84.55 114.08 L 84.82 115.44 C 85.01 118.27 85.01 121.11 85.05 123.95 C 82.56 121.18 83.56 117.24 84.55 114.08 Z" />
</g>
<g id="#379492ff">
<path fill="#379492" opacity="1.00" d=" M 88.98 120.01 C 88.69 118.37 88.80 116.58 89.64 115.11 C 90.16 116.95 90.81 119.09 90.73 120.95 C 90.29 120.72 89.42 120.25 88.98 120.01 Z" />
</g>
<g id="#d59254ff">
<path fill="#d59254" opacity="1.00" d=" M 71.21 117.17 C 71.41 117.14 71.82 117.07 72.03 117.04 C 72.04 118.52 72.03 120.01 71.99 121.50 L 71.90 122.00 C 71.35 121.92 70.25 121.77 69.69 121.69 C 70.18 120.17 70.69 118.67 71.21 117.17 Z" />
</g>
<g id="#fcd8abff">
<path fill="#fcd8ab" opacity="1.00" d=" M 101.21 121.18 L 102.03 121.18 C 102.04 121.60 102.05 122.43 102.06 122.84 L 101.26 122.88 L 100.76 122.05 L 101.21 121.18 Z" />
</g>
<g id="#5790bfff">
<path fill="#5790bf" opacity="1.00" d=" M 102.94 121.16 L 103.75 121.13 L 104.24 121.97 L 103.79 122.83 L 102.97 122.82 C 102.97 122.41 102.95 121.58 102.94 121.16 Z" />
</g>
<g id="#d48c51ff">
<path fill="#d48c51" opacity="1.00" d=" M 106.22 121.16 L 107.03 121.17 C 107.04 121.59 107.05 122.41 107.05 122.83 L 106.24 122.86 L 105.76 122.02 L 106.22 121.16 Z" />
</g>
<g id="#6d717eff">
<path fill="#6d717e" opacity="1.00" d=" M 107.03 121.17 L 107.94 121.16 C 107.95 121.58 107.96 122.40 107.96 122.82 L 107.05 122.83 C 107.05 122.41 107.04 121.59 107.03 121.17 Z" />
</g>
<g id="#96cdfcff">
<path fill="#96cdfc" opacity="1.00" d=" M 107.94 121.16 L 108.75 121.13 L 109.24 121.97 L 108.78 122.83 L 107.96 122.82 C 107.96 122.40 107.95 121.58 107.94 121.16 Z" />
<path fill="#96cdfc" opacity="1.00" d=" M 84.87 160.39 L 86.00 160.84 C 86.03 162.64 86.07 164.45 86.06 166.25 C 86.06 166.88 86.06 168.15 86.06 168.78 C 86.05 169.36 86.05 170.53 86.04 171.12 L 84.57 171.58 C 84.97 167.86 85.09 164.12 84.87 160.39 Z" />
</g>
<g id="#c7a084ff">
<path fill="#c7a084" opacity="1.00" d=" M 251.05 151.75 C 248.49 153.05 248.39 147.26 250.97 148.48 C 251.01 149.56 251.04 150.66 251.05 151.75 Z" />
</g>
<g id="#342b36ff">
<path fill="#342b36" opacity="1.00" d=" M 250.97 148.48 L 251.76 147.82 L 253.10 148.31 C 253.09 149.43 253.09 150.55 253.12 151.67 L 252.09 152.31 L 251.05 151.75 C 251.04 150.66 251.01 149.56 250.97 148.48 Z" />
<path fill="#342b36" opacity="1.00" d=" M 250.78 154.14 C 251.37 154.19 252.55 154.28 253.14 154.32 C 253.10 155.46 253.08 156.59 253.10 157.73 C 252.57 157.77 251.51 157.87 250.98 157.92 C 251.13 156.65 251.06 155.39 250.78 154.14 Z" />
</g>
<g id="#87abcdff">
<path fill="#87abcd" opacity="1.00" d=" M 253.10 148.31 C 255.62 147.07 255.64 152.92 253.12 151.67 C 253.09 150.55 253.09 149.43 253.10 148.31 Z" />
<path fill="#87abcd" opacity="1.00" d=" M 253.14 154.32 C 255.64 153.12 255.60 158.90 253.10 157.73 C 253.08 156.59 253.10 155.46 253.14 154.32 Z" />
</g>
<g id="#c19a7aff">
<path fill="#c19a7a" opacity="1.00" d=" M 250.98 157.92 C 248.65 158.70 248.48 153.65 250.78 154.14 C 251.06 155.39 251.13 156.65 250.98 157.92 Z" />
</g>
<g id="#c7c3cbff">
<path fill="#c7c3cb" opacity="1.00" d=" M 68.77 166.62 C 68.66 164.07 69.05 161.03 72.10 160.57 C 71.40 162.79 70.35 164.89 68.77 166.62 Z" />
</g>
<g id="#ccb19bff">
<path fill="#ccb19b" opacity="1.00" d=" M 83.77 164.33 C 83.84 162.93 84.21 161.61 84.87 160.39 C 85.09 164.12 84.97 167.86 84.57 171.58 L 83.79 170.44 L 83.75 170.03 C 83.69 168.29 83.69 166.56 83.73 164.83 L 83.77 164.33 Z" />
</g>
<g id="#d8c7c5ff">
<path fill="#d8c7c5" opacity="1.00" d=" M 71.92 164.39 L 72.59 164.61 C 72.80 164.67 73.23 164.81 73.44 164.87 C 74.98 165.22 76.51 165.65 77.79 166.65 C 76.25 166.84 74.72 167.02 73.19 167.17 C 73.25 167.35 73.39 167.72 73.46 167.90 C 73.61 168.51 73.91 169.73 74.06 170.33 L 73.99 171.11 C 70.90 170.26 71.89 166.75 71.92 164.39 Z" />
</g>
<g id="#feedcdff">
<path fill="#feedcd" opacity="1.00" d=" M 86.06 166.25 C 86.69 165.32 87.34 164.41 88.04 163.53 C 87.98 166.18 87.98 168.84 88.02 171.49 C 87.33 170.61 86.67 169.71 86.06 168.78 C 86.06 168.15 86.06 166.88 86.06 166.25 Z" />
</g>
<g id="#b7cfebff">
<path fill="#b7cfeb" opacity="1.00" d=" M 88.04 163.53 C 90.38 165.64 90.43 169.41 88.02 171.49 C 87.98 168.84 87.98 166.18 88.04 163.53 Z" />
</g>
<g id="#c2ab84ff">
<path fill="#c2ab84" opacity="1.00" d=" M 99.83 165.75 C 99.75 163.67 101.89 164.86 101.47 166.29 L 101.23 167.11 L 100.86 167.74 C 100.90 168.18 100.97 169.07 101.01 169.51 C 99.94 172.28 99.32 166.71 99.83 165.75 Z" />
</g>
<g id="#e8cfbeff">
<path fill="#e8cfbe" opacity="1.00" d=" M 78.01 167.19 C 78.64 166.55 79.27 165.92 79.90 165.29 C 79.99 165.67 80.18 166.45 80.28 166.84 C 80.29 167.43 80.33 168.62 80.35 169.22 C 80.26 169.48 80.09 170.01 80.00 170.27 C 79.35 169.53 78.79 168.74 78.32 167.89 L 78.01 167.19 Z" />
</g>
<g id="#a6d9fbff">
<path fill="#a6d9fb" opacity="1.00" d=" M 97.78 165.56 C 99.74 165.43 99.76 169.80 97.73 169.58 C 97.61 168.24 97.67 166.89 97.78 165.56 Z" />
</g>
<g id="#17a198ff">
<path fill="#17a198" opacity="1.00" d=" M 101.23 167.11 C 102.74 166.89 102.70 170.19 101.01 169.51 C 100.97 169.07 100.90 168.18 100.86 167.74 L 101.23 167.11 Z" />
</g>
<g id="#777a84ff">
<path fill="#777a84" opacity="1.00" d=" M 80.00 170.27 C 80.09 170.01 80.26 169.48 80.35 169.22 C 81.50 169.41 82.63 169.68 83.75 170.03 L 83.79 170.44 C 82.69 171.26 81.52 171.37 80.28 170.77 L 80.00 170.27 Z" />
</g>
<g id="#acadb9ff">
<path fill="#acadb9" opacity="1.00" d=" M 74.06 170.33 C 74.78 169.00 77.83 169.87 76.55 171.42 C 75.49 172.27 74.63 172.17 73.99 171.11 L 74.06 170.33 Z" />
</g>
<g id="#a7a7a7ff">
<path fill="#a7a7a7" opacity="1.00" d=" M 34.08 206.13 C 46.74 205.61 59.40 205.66 72.06 206.03 C 84.70 205.65 97.34 205.77 109.98 205.71 C 111.72 205.80 113.81 205.57 115.07 207.06 C 115.22 207.40 115.53 208.07 115.68 208.40 C 115.62 208.43 115.51 208.47 115.45 208.49 C 111.03 209.42 106.50 209.19 102.01 209.13 C 82.03 209.15 62.05 209.18 42.07 209.11 C 39.05 209.31 36.15 208.39 34.08 206.13 Z" />
<path fill="#a7a7a7" opacity="1.00" d=" M 185.17 207.06 C 185.23 206.74 185.35 206.10 185.41 205.79 C 213.25 205.79 241.11 205.54 268.95 205.97 C 277.19 205.64 285.47 205.53 293.69 206.34 C 290.70 207.98 287.49 209.40 284.00 209.23 C 256.35 209.05 228.70 209.21 201.05 209.13 C 196.71 209.06 192.36 209.48 188.05 208.95 C 186.84 208.81 186.08 207.73 185.17 207.06 Z" />
</g>
<g id="#f2f4f5ff">
<path fill="#f2f4f5" opacity="1.00" d=" M 115.45 208.49 C 115.51 208.47 115.62 208.43 115.68 208.40 L 115.71 208.47 L 115.45 208.49 Z" />
</g>
</svg>
