<?xml version="1.0" encoding="UTF-8" ?>
<!DOCTYPE svg PUBLIC "-//W3C//DTD SVG 1.1//EN" "http://www.w3.org/Graphics/SVG/1.1/DTD/svg11.dtd">
<svg width="1440pt" height="940pt" viewBox="0 0 1440 940" version="1.1" xmlns="http://www.w3.org/2000/svg">
<g id="#5f5fc0ff">
<path fill="#5f5fc0" opacity="1.00" d=" M 0.00 0.00 L 183.41 0.00 C 177.05 6.13 170.22 11.77 163.44 17.43 C 157.83 22.20 152.37 27.15 146.60 31.73 C 146.34 31.94 145.83 32.35 145.57 32.55 C 145.29 33.91 145.00 35.26 144.80 36.63 C 132.76 79.88 121.47 123.33 109.61 166.63 C 105.50 181.89 101.70 197.24 97.12 212.37 C 84.76 181.66 71.95 151.13 59.66 120.38 C 55.36 110.51 51.61 100.39 47.14 90.60 C 44.59 92.90 42.21 95.39 39.73 97.76 C 25.86 109.97 13.27 123.54 0.00 136.37 L 0.00 0.00 Z" />
</g>
<g id="#596cc0ff">
<path fill="#596cc0" opacity="1.00" d=" M 183.41 0.00 L 257.67 0.00 C 269.47 6.99 281.28 13.96 293.01 21.07 C 297.59 23.93 302.77 25.95 306.63 29.84 C 288.75 30.03 270.88 30.33 253.00 30.42 C 235.99 31.33 218.96 30.95 201.94 31.44 C 188.12 32.24 174.27 31.55 160.45 32.28 C 155.84 31.94 151.22 31.54 146.60 31.73 C 152.37 27.15 157.83 22.20 163.44 17.43 C 170.22 11.77 177.05 6.13 183.41 0.00 Z" />
</g>
<g id="#4d78ccff">
<path fill="#4d78cc" opacity="1.00" d=" M 257.67 0.00 L 346.27 0.00 C 339.22 5.34 332.67 11.31 325.67 16.70 C 320.24 21.20 314.33 25.14 309.40 30.22 L 308.50 29.99 C 308.03 29.95 307.10 29.88 306.63 29.84 C 302.77 25.95 297.59 23.93 293.01 21.07 C 281.28 13.96 269.47 6.99 257.67 0.00 Z" />
</g>
<g id="#4485d3ff">
<path fill="#4485d3" opacity="1.00" d=" M 346.27 0.00 L 402.84 0.00 C 404.60 16.36 406.90 32.65 408.89 48.98 C 409.55 55.05 410.85 61.06 410.88 67.19 C 395.89 61.21 380.53 56.21 365.39 50.60 C 346.79 43.65 328.03 37.11 309.40 30.22 C 314.33 25.14 320.24 21.20 325.67 16.70 C 332.67 11.31 339.22 5.34 346.27 0.00 Z" />
</g>
<g id="#4094d4ff">
<path fill="#4094d4" opacity="1.00" d=" M 402.84 0.00 L 454.55 0.00 C 459.56 4.19 465.10 7.65 470.38 11.48 C 493.40 27.94 516.44 44.35 539.40 60.89 C 531.06 62.50 522.55 61.68 514.14 62.41 C 504.10 63.34 493.99 62.75 483.96 63.85 C 471.29 63.78 458.67 65.11 446.00 65.22 C 434.33 66.51 422.51 65.41 410.88 67.19 C 410.85 61.06 409.55 55.05 408.89 48.98 C 406.90 32.65 404.60 16.36 402.84 0.00 Z" />
</g>
<g id="#428ccdff">
<path fill="#428ccd" opacity="1.00" d=" M 454.55 0.00 L 522.02 0.00 C 528.80 20.16 534.45 40.69 541.07 60.91 C 540.65 60.90 539.82 60.89 539.40 60.89 C 516.44 44.35 493.40 27.94 470.38 11.48 C 465.10 7.65 459.56 4.19 454.55 0.00 Z" />
</g>
<g id="#3994d3ff">
<path fill="#3994d3" opacity="1.00" d=" M 522.02 0.00 L 587.80 0.00 C 585.92 8.31 584.40 16.71 582.44 25.01 C 569.07 37.05 555.54 48.92 542.10 60.90 L 541.07 60.91 C 534.45 40.69 528.80 20.16 522.02 0.00 Z" />
</g>
<g id="#349dd6ff">
<path fill="#349dd6" opacity="1.00" d=" M 587.80 0.00 L 765.26 0.00 C 756.39 13.88 747.54 27.78 738.63 41.63 C 733.86 49.51 728.41 56.98 724.03 65.09 C 717.70 64.38 711.75 62.00 705.65 60.33 C 671.20 50.55 636.85 40.38 602.37 30.68 C 595.70 28.88 589.21 26.42 582.44 25.01 C 584.40 16.71 585.92 8.31 587.80 0.00 Z" />
</g>
<g id="#33a6e2ff">
<path fill="#33a6e2" opacity="1.00" d=" M 765.26 0.00 L 844.77 0.00 C 847.91 22.14 851.39 44.23 854.52 66.38 C 854.74 68.26 855.38 70.07 856.60 71.55 C 856.47 71.66 856.21 71.88 856.08 71.99 C 851.00 72.20 845.93 71.78 840.88 71.39 C 801.73 69.61 762.60 67.35 723.43 65.67 L 724.03 65.09 C 728.41 56.98 733.86 49.51 738.63 41.63 C 747.54 27.78 756.39 13.88 765.26 0.00 Z" />
</g>
<g id="#38a2cfff">
<path fill="#38a2cf" opacity="1.00" d=" M 844.77 0.00 L 922.30 0.00 C 926.31 5.36 931.59 9.58 935.55 14.99 C 910.35 32.94 885.17 50.93 859.86 68.73 C 858.74 69.63 857.63 70.56 856.60 71.55 C 855.38 70.07 854.74 68.26 854.52 66.38 C 851.39 44.23 847.91 22.14 844.77 0.00 Z" />
</g>
<g id="#3c93dcff">
<path fill="#3c93dc" opacity="1.00" d=" M 922.30 0.00 L 946.56 0.00 C 943.10 4.92 939.47 9.73 936.44 14.94 L 936.00 14.97 L 935.55 14.99 C 931.59 9.58 926.31 5.36 922.30 0.00 Z" />
</g>
<g id="#4390caff">
<path fill="#4390ca" opacity="1.00" d=" M 946.56 0.00 L 1087.73 0.00 C 1090.75 22.91 1094.77 45.68 1098.02 68.56 C 1086.66 65.41 1075.59 61.22 1064.35 57.64 C 1021.74 43.35 979.05 29.26 936.44 14.94 C 939.47 9.73 943.10 4.92 946.56 0.00 Z" />
</g>
<g id="#5178c6ff">
<path fill="#5178c6" opacity="1.00" d=" M 1087.73 0.00 L 1156.29 0.00 C 1148.09 10.51 1139.11 20.38 1130.62 30.65 C 1124.54 38.22 1117.90 45.32 1111.79 52.87 C 1107.35 58.35 1102.34 63.37 1098.33 69.19 L 1098.02 68.56 C 1094.77 45.68 1090.75 22.91 1087.73 0.00 Z" />
</g>
<g id="#5072cfff">
<path fill="#5072cf" opacity="1.00" d=" M 1156.29 0.00 L 1227.23 0.00 C 1232.23 22.01 1236.99 44.08 1241.76 66.14 C 1242.37 69.01 1243.24 71.82 1243.96 74.67 L 1243.75 75.21 C 1242.42 75.18 1241.10 75.15 1239.80 75.10 C 1233.89 74.87 1227.96 75.16 1222.07 74.55 C 1214.51 73.76 1206.89 74.25 1199.33 73.51 C 1192.21 72.84 1185.06 73.17 1177.94 72.66 C 1167.64 71.81 1157.29 72.07 1147.00 71.10 C 1136.65 71.20 1126.36 69.96 1116.02 69.96 C 1110.10 69.91 1104.24 68.85 1098.33 69.19 C 1102.34 63.37 1107.35 58.35 1111.79 52.87 C 1117.90 45.32 1124.54 38.22 1130.62 30.65 C 1139.11 20.38 1148.09 10.51 1156.29 0.00 Z" />
</g>
<g id="#5c68c6ff">
<path fill="#5c68c6" opacity="1.00" d=" M 1227.23 0.00 L 1277.27 0.00 C 1266.07 24.85 1255.49 49.97 1243.96 74.67 C 1243.24 71.82 1242.37 69.01 1241.76 66.14 C 1236.99 44.08 1232.23 22.01 1227.23 0.00 Z" />
</g>
<g id="#655dcbff">
<path fill="#655dcb" opacity="1.00" d=" M 1277.27 0.00 L 1339.55 0.00 C 1347.93 14.55 1357.28 28.57 1364.98 43.50 C 1363.91 43.83 1362.84 44.15 1361.79 44.47 C 1322.52 55.00 1283.04 64.74 1243.75 75.21 L 1243.96 74.67 C 1255.49 49.97 1266.07 24.85 1277.27 0.00 Z" />
</g>
<g id="#5f65c8ff">
<path fill="#5f65c8" opacity="1.00" d=" M 1339.55 0.00 L 1440.00 0.00 L 1440.00 6.98 C 1431.82 10.76 1424.05 15.40 1415.65 18.70 C 1403.84 24.51 1392.12 30.48 1380.34 36.35 C 1375.66 38.95 1370.49 40.68 1366.13 43.83 C 1365.56 44.58 1365.03 45.35 1364.53 46.13 C 1363.84 45.71 1362.47 44.88 1361.79 44.47 C 1362.84 44.15 1363.91 43.83 1364.98 43.50 C 1357.28 28.57 1347.93 14.55 1339.55 0.00 Z" />
</g>
<g id="#5f62c0ff">
<path fill="#5f62c0" opacity="1.00" d=" M 1415.65 18.70 C 1424.05 15.40 1431.82 10.76 1440.00 6.98 L 1440.00 85.78 C 1434.40 87.84 1428.56 89.27 1423.15 91.80 C 1408.91 79.69 1394.54 67.75 1380.33 55.62 C 1375.52 51.78 1371.12 47.44 1366.13 43.83 C 1370.49 40.68 1375.66 38.95 1380.34 36.35 C 1392.12 30.48 1403.84 24.51 1415.65 18.70 Z" />
</g>
<g id="#2fabe3ff">
<path fill="#2fabe3" opacity="1.00" d=" M 935.55 14.99 L 936.00 14.97 C 959.96 70.69 983.75 126.49 1007.89 182.14 C 1007.52 182.07 1006.78 181.94 1006.41 181.87 C 994.69 172.71 982.31 164.44 970.40 155.53 C 932.09 127.88 893.84 100.16 855.53 72.51 L 856.08 71.99 C 856.21 71.88 856.47 71.66 856.60 71.55 C 857.63 70.56 858.74 69.63 859.86 68.73 C 885.17 50.93 910.35 32.94 935.55 14.99 Z" />
</g>
<g id="#38a4ceff">
<path fill="#38a4ce" opacity="1.00" d=" M 936.00 14.97 L 936.44 14.94 C 979.05 29.26 1021.74 43.35 1064.35 57.64 C 1075.59 61.22 1086.66 65.41 1098.02 68.56 L 1097.86 69.54 C 1073.08 100.25 1048.62 131.24 1024.07 162.14 C 1018.85 168.88 1013.24 175.30 1008.28 182.23 L 1007.89 182.14 C 983.75 126.49 959.96 70.69 936.00 14.97 Z" />
</g>
<g id="#2daed3ff">
<path fill="#2daed3" opacity="1.00" d=" M 582.44 25.01 C 589.21 26.42 595.70 28.88 602.37 30.68 C 636.85 40.38 671.20 50.55 705.65 60.33 C 711.75 62.00 717.70 64.38 724.03 65.09 L 723.43 65.67 C 709.34 73.64 695.89 82.68 682.01 91.00 C 662.27 103.25 642.57 115.57 622.78 127.74 C 617.87 130.75 613.13 134.04 608.03 136.71 L 607.30 137.07 C 598.81 126.53 589.44 116.71 580.56 106.50 C 573.29 98.10 565.84 89.86 558.55 81.48 C 552.81 74.93 546.70 68.67 541.42 61.73 L 542.10 60.90 C 555.54 48.92 569.07 37.05 582.44 25.01 Z" />
</g>
<g id="#4781cfff">
<path fill="#4781cf" opacity="1.00" d=" M 201.94 31.44 C 218.96 30.95 235.99 31.33 253.00 30.42 C 270.88 30.33 288.75 30.03 306.63 29.84 C 307.10 29.88 308.03 29.95 308.50 29.99 C 308.93 32.20 309.37 34.42 309.84 36.62 C 310.13 43.76 311.22 50.82 311.86 57.92 C 317.19 109.93 322.41 161.94 327.75 213.94 C 328.04 217.44 328.62 220.90 329.12 224.37 L 328.81 224.94 C 328.52 224.93 327.96 224.90 327.67 224.89 C 319.43 215.29 310.73 206.11 301.77 197.17 C 294.68 188.34 285.96 181.04 278.40 172.65 C 272.75 165.33 265.44 159.55 259.37 152.62 C 252.25 143.79 243.36 136.61 235.93 128.06 C 231.30 122.40 225.86 117.47 220.75 112.26 C 216.95 108.69 213.92 104.42 210.25 100.73 C 206.29 96.69 202.06 92.89 198.44 88.52 C 192.28 81.04 184.72 74.87 178.35 67.58 C 170.63 58.03 160.86 50.38 153.06 40.90 C 150.76 38.26 148.33 35.75 145.98 33.17 C 150.81 33.22 155.68 33.21 160.45 32.28 C 174.27 31.55 188.12 32.24 201.94 31.44 Z" />
</g>
<g id="#3e8edaff">
<path fill="#3e8eda" opacity="1.00" d=" M 308.50 29.99 L 309.40 30.22 C 328.03 37.11 346.79 43.65 365.39 50.60 C 380.53 56.21 395.89 61.21 410.88 67.19 L 411.27 67.66 C 408.56 72.65 406.40 77.90 404.09 83.08 C 386.15 122.70 368.73 162.56 350.54 202.05 L 350.35 202.38 C 337.90 149.46 324.87 96.67 312.32 43.78 C 311.79 41.30 310.79 38.96 309.84 36.62 C 309.37 34.42 308.93 32.20 308.50 29.99 Z" />
</g>
<g id="#4c7bc5ff">
<path fill="#4c7bc5" opacity="1.00" d=" M 145.57 32.55 C 145.83 32.35 146.34 31.94 146.60 31.73 C 151.22 31.54 155.84 31.94 160.45 32.28 C 155.68 33.21 150.81 33.22 145.98 33.17 C 148.33 35.75 150.76 38.26 153.06 40.90 C 160.86 50.38 170.63 58.03 178.35 67.58 C 184.72 74.87 192.28 81.04 198.44 88.52 C 202.06 92.89 206.29 96.69 210.25 100.73 C 213.92 104.42 216.95 108.69 220.75 112.26 C 225.86 117.47 231.30 122.40 235.93 128.06 C 243.36 136.61 252.25 143.79 259.37 152.62 C 265.44 159.55 272.75 165.33 278.40 172.65 C 285.96 181.04 294.68 188.34 301.77 197.17 C 310.73 206.11 319.43 215.29 327.67 224.89 L 326.52 224.94 C 288.66 224.97 250.80 225.21 212.94 225.28 C 186.32 226.62 159.64 225.76 132.99 226.27 C 130.12 226.36 127.31 226.98 124.52 227.62 C 124.29 227.37 123.83 226.88 123.60 226.63 C 124.00 225.12 124.43 223.62 124.70 222.08 C 130.58 169.37 136.32 116.64 142.22 63.93 C 142.86 54.81 144.81 45.80 144.80 36.63 C 145.00 35.26 145.29 33.91 145.57 32.55 Z" />
</g>
<g id="#576dc3ff">
<path fill="#576dc3" opacity="1.00" d=" M 109.61 166.63 C 121.47 123.33 132.76 79.88 144.80 36.63 C 144.81 45.80 142.86 54.81 142.22 63.93 C 136.32 116.64 130.58 169.37 124.70 222.08 C 124.43 223.62 124.00 225.12 123.60 226.63 C 115.28 221.92 106.83 217.42 98.32 213.04 C 98.00 220.87 98.82 228.72 97.86 236.52 C 96.04 228.89 96.81 220.95 97.04 213.19 L 97.12 212.37 C 101.70 197.24 105.50 181.89 109.61 166.63 Z" />
</g>
<g id="#3e9ad8ff">
<path fill="#3e9ad8" opacity="1.00" d=" M 309.84 36.62 C 310.79 38.96 311.79 41.30 312.32 43.78 C 324.87 96.67 337.90 149.46 350.35 202.38 C 344.05 210.40 336.06 216.92 329.12 224.37 C 328.62 220.90 328.04 217.44 327.75 213.94 C 322.41 161.94 317.19 109.93 311.86 57.92 C 311.22 50.82 310.13 43.76 309.84 36.62 Z" />
</g>
<g id="#6561bcff">
<path fill="#6561bc" opacity="1.00" d=" M 1366.13 43.83 C 1371.12 47.44 1375.52 51.78 1380.33 55.62 C 1394.54 67.75 1408.91 79.69 1423.15 91.80 C 1406.19 101.53 1388.64 110.20 1371.43 119.48 C 1364.44 123.62 1356.92 126.77 1349.95 130.94 C 1341.50 135.07 1333.45 139.95 1324.97 143.99 C 1319.97 146.63 1315.18 149.64 1310.03 151.98 C 1306.14 153.73 1302.82 156.85 1298.48 157.46 C 1320.46 120.33 1342.41 83.17 1364.53 46.13 C 1365.03 45.35 1365.56 44.58 1366.13 43.83 Z" />
</g>
<g id="#5f6acaff">
<path fill="#5f6aca" opacity="1.00" d=" M 1243.75 75.21 C 1283.04 64.74 1322.52 55.00 1361.79 44.47 C 1362.47 44.88 1363.84 45.71 1364.53 46.13 C 1342.41 83.17 1320.46 120.33 1298.48 157.46 C 1298.29 157.59 1297.92 157.85 1297.74 157.99 L 1297.28 158.45 C 1279.59 130.61 1261.41 103.06 1243.75 75.21 Z" />
</g>
<g id="#33a2daff">
<path fill="#33a2da" opacity="1.00" d=" M 514.14 62.41 C 522.55 61.68 531.06 62.50 539.40 60.89 C 539.82 60.89 540.65 60.90 541.07 60.91 L 542.10 60.90 L 541.42 61.73 C 534.86 73.61 529.25 86.01 522.99 98.05 C 507.39 129.62 491.26 160.93 475.93 192.63 C 469.62 183.34 465.11 173.02 460.02 163.05 C 454.88 152.88 450.03 142.57 444.44 132.63 C 436.38 117.55 429.52 101.84 421.04 86.97 C 417.64 80.61 414.69 74.01 411.27 67.66 L 410.88 67.19 C 422.51 65.41 434.33 66.51 446.00 65.22 C 458.67 65.11 471.29 63.78 483.96 63.85 C 493.99 62.75 504.10 63.34 514.14 62.41 Z" />
</g>
<g id="#2ab6e1ff">
<path fill="#2ab6e1" opacity="1.00" d=" M 522.99 98.05 C 529.25 86.01 534.86 73.61 541.42 61.73 C 546.70 68.67 552.81 74.93 558.55 81.48 C 565.84 89.86 573.29 98.10 580.56 106.50 C 589.44 116.71 598.81 126.53 607.30 137.07 C 563.58 155.75 519.78 174.25 475.93 192.63 C 491.26 160.93 507.39 129.62 522.99 98.05 Z" />
</g>
<g id="#23bde1ff">
<path fill="#23bde1" opacity="1.00" d=" M 682.01 91.00 C 695.89 82.68 709.34 73.64 723.43 65.67 C 737.21 101.21 751.67 136.50 765.26 172.11 C 751.06 169.62 737.09 165.97 723.02 162.89 C 701.28 158.13 679.59 153.19 657.88 148.29 C 642.27 144.76 626.57 141.60 611.08 137.59 C 610.05 137.30 609.03 137.01 608.03 136.71 C 613.13 134.04 617.87 130.75 622.78 127.74 C 642.57 115.57 662.27 103.25 682.01 91.00 Z" />
</g>
<g id="#25b8deff">
<path fill="#25b8de" opacity="1.00" d=" M 723.43 65.67 C 762.60 67.35 801.73 69.61 840.88 71.39 C 845.93 71.78 851.00 72.20 856.08 71.99 L 855.53 72.51 L 855.17 72.87 C 848.68 78.82 843.44 85.98 837.29 92.27 C 817.79 114.43 797.89 136.23 778.34 158.35 C 774.55 163.22 769.72 167.18 766.20 172.26 L 765.99 172.24 L 765.26 172.11 C 751.67 136.50 737.21 101.21 723.43 65.67 Z" />
</g>
<g id="#30a7d6ff">
<path fill="#30a7d6" opacity="1.00" d=" M 411.27 67.66 C 414.69 74.01 417.64 80.61 421.04 86.97 C 429.52 101.84 436.38 117.55 444.44 132.63 C 450.03 142.57 454.88 152.88 460.02 163.05 C 465.11 173.02 469.62 183.34 475.93 192.63 C 475.74 192.71 475.35 192.86 475.16 192.93 C 433.60 195.68 392.10 199.31 350.54 202.05 C 368.73 162.56 386.15 122.70 404.09 83.08 C 406.40 77.90 408.56 72.65 411.27 67.66 Z" />
</g>
<g id="#3f93d9ff">
<path fill="#3f93d9" opacity="1.00" d=" M 1098.02 68.56 L 1098.33 69.19 C 1120.10 109.39 1142.44 149.30 1164.46 189.38 C 1168.50 196.26 1171.99 203.46 1176.15 210.27 C 1153.36 209.85 1130.56 210.12 1107.78 209.78 C 1105.37 179.11 1103.64 148.38 1101.42 117.68 C 1100.22 101.64 1099.70 85.52 1097.86 69.54 L 1098.02 68.56 Z" />
</g>
<g id="#4787d3ff">
<path fill="#4787d3" opacity="1.00" d=" M 1098.33 69.19 C 1104.24 68.85 1110.10 69.91 1116.02 69.96 C 1126.36 69.96 1136.65 71.20 1147.00 71.10 C 1157.29 72.07 1167.64 71.81 1177.94 72.66 C 1185.06 73.17 1192.21 72.84 1199.33 73.51 C 1206.89 74.25 1214.51 73.76 1222.07 74.55 C 1227.96 75.16 1233.89 74.87 1239.80 75.10 C 1240.88 75.68 1242.01 76.21 1243.10 76.84 C 1221.04 121.01 1198.77 165.09 1176.93 209.37 C 1176.73 209.60 1176.34 210.05 1176.15 210.27 C 1171.99 203.46 1168.50 196.26 1164.46 189.38 C 1142.44 149.30 1120.10 109.39 1098.33 69.19 Z" />
</g>
<g id="#37a5ddff">
<path fill="#37a5dd" opacity="1.00" d=" M 1024.07 162.14 C 1048.62 131.24 1073.08 100.25 1097.86 69.54 C 1099.70 85.52 1100.22 101.64 1101.42 117.68 C 1103.64 148.38 1105.37 179.11 1107.78 209.78 C 1107.75 209.97 1107.69 210.34 1107.66 210.53 C 1103.28 207.38 1097.69 207.03 1092.69 205.43 C 1064.58 197.58 1036.32 190.30 1008.28 182.23 C 1013.24 175.30 1018.85 168.88 1024.07 162.14 Z" />
</g>
<g id="#22bbe5ff">
<path fill="#22bbe5" opacity="1.00" d=" M 837.29 92.27 C 843.44 85.98 848.68 78.82 855.17 72.87 C 848.50 107.60 841.87 142.34 835.00 177.02 C 827.00 177.13 819.05 176.02 811.08 175.63 C 796.12 174.43 781.09 174.10 766.20 172.26 C 769.72 167.18 774.55 163.22 778.34 158.35 C 797.89 136.23 817.79 114.43 837.29 92.27 Z" />
</g>
<g id="#26bfe5ff">
<path fill="#26bfe5" opacity="1.00" d=" M 855.17 72.87 L 855.53 72.51 C 893.84 100.16 932.09 127.88 970.40 155.53 C 982.31 164.44 994.69 172.71 1006.41 181.87 C 995.96 182.08 985.48 182.28 975.06 181.29 C 964.60 180.61 954.08 181.52 943.64 180.47 C 932.40 179.37 921.07 180.72 909.85 179.39 C 898.59 178.45 887.24 179.66 876.00 178.35 C 862.68 177.50 849.29 178.59 836.01 177.04 L 835.00 177.02 C 841.87 142.34 848.50 107.60 855.17 72.87 Z" />
<path fill="#26bfe5" opacity="1.00" d=" M 708.97 819.64 C 718.08 819.20 727.16 817.83 736.29 818.15 C 726.50 824.31 715.97 829.20 705.90 834.90 C 693.16 841.82 680.35 848.60 667.69 855.65 C 658.65 859.93 650.31 865.57 641.09 869.48 C 636.25 865.13 632.57 859.67 627.78 855.27 C 622.55 850.47 618.41 844.65 613.29 839.75 C 609.19 835.73 605.02 831.73 601.83 826.92 C 613.14 825.34 624.64 825.51 636.01 824.33 C 660.34 823.02 684.63 820.94 708.97 819.64 Z" />
</g>
<g id="#4b7ad2ff">
<path fill="#4b7ad2" opacity="1.00" d=" M 1239.80 75.10 C 1241.10 75.15 1242.42 75.18 1243.75 75.21 C 1261.41 103.06 1279.59 130.61 1297.28 158.45 L 1296.92 158.76 C 1261.61 173.86 1226.22 188.76 1190.90 203.84 C 1186.26 205.73 1181.65 207.69 1176.93 209.37 C 1198.77 165.09 1221.04 121.01 1243.10 76.84 C 1242.01 76.21 1240.88 75.68 1239.80 75.10 Z" />
</g>
<g id="#615fc7ff">
<path fill="#615fc7" opacity="1.00" d=" M 1423.15 91.80 C 1428.56 89.27 1434.40 87.84 1440.00 85.78 L 1440.00 99.56 C 1434.42 97.28 1428.96 94.66 1423.14 93.04 C 1419.83 100.78 1417.70 108.94 1414.88 116.85 C 1408.14 137.06 1401.47 157.29 1394.40 177.38 C 1390.99 186.81 1388.32 196.49 1384.65 205.82 C 1384.38 206.38 1383.84 207.50 1383.57 208.06 C 1355.13 191.56 1326.69 175.02 1298.05 158.85 L 1297.74 157.99 C 1297.92 157.85 1298.29 157.59 1298.48 157.46 C 1302.82 156.85 1306.14 153.73 1310.03 151.98 C 1315.18 149.64 1319.97 146.63 1324.97 143.99 C 1333.45 139.95 1341.50 135.07 1349.95 130.94 C 1356.92 126.77 1364.44 123.62 1371.43 119.48 C 1388.64 110.20 1406.19 101.53 1423.15 91.80 Z" />
</g>
<g id="#645fbcff">
<path fill="#645fbc" opacity="1.00" d=" M 39.73 97.76 C 42.21 95.39 44.59 92.90 47.14 90.60 C 51.61 100.39 55.36 110.51 59.66 120.38 C 71.95 151.13 84.76 181.66 97.12 212.37 L 97.04 213.19 C 96.67 213.13 95.91 213.02 95.53 212.96 C 86.28 210.95 76.75 212.72 67.41 211.60 C 58.96 210.54 50.45 211.31 41.98 210.89 C 28.03 209.21 13.95 210.66 0.00 208.92 L 0.00 136.37 C 13.27 123.54 25.86 109.97 39.73 97.76 Z" />
</g>
<g id="#6261baff">
<path fill="#6261ba" opacity="1.00" d=" M 1423.14 93.04 C 1428.96 94.66 1434.42 97.28 1440.00 99.56 L 1440.00 192.82 C 1421.65 197.23 1403.68 203.12 1385.34 207.54 C 1385.17 207.11 1384.82 206.25 1384.65 205.82 C 1388.32 196.49 1390.99 186.81 1394.40 177.38 C 1401.47 157.29 1408.14 137.06 1414.88 116.85 C 1417.70 108.94 1419.83 100.78 1423.14 93.04 Z" />
</g>
<g id="#1dc1e9ff">
<path fill="#1dc1e9" opacity="1.00" d=" M 607.30 137.07 L 608.03 136.71 C 609.03 137.01 610.05 137.30 611.08 137.59 C 610.53 137.95 609.43 138.65 608.88 139.01 C 628.03 172.61 646.94 206.35 666.02 240.00 C 667.65 242.70 669.10 245.50 670.39 248.38 C 659.09 245.87 648.12 242.04 636.90 239.21 C 587.26 225.08 537.54 211.19 487.88 197.12 C 483.76 195.98 479.72 194.24 475.36 194.41 C 475.14 194.26 474.70 193.97 474.47 193.82 L 475.16 192.93 C 475.35 192.86 475.74 192.71 475.93 192.63 C 519.78 174.25 563.58 155.75 607.30 137.07 Z" />
</g>
<g id="#1ad0eaff">
<path fill="#1ad0ea" opacity="1.00" d=" M 608.88 139.01 C 609.43 138.65 610.53 137.95 611.08 137.59 C 626.57 141.60 642.27 144.76 657.88 148.29 C 679.59 153.19 701.28 158.13 723.02 162.89 C 737.09 165.97 751.06 169.62 765.26 172.11 L 765.99 172.24 L 765.68 172.52 C 753.30 181.81 741.48 191.84 729.27 201.36 C 709.77 217.03 690.00 232.38 670.63 248.22 L 670.39 248.38 C 669.10 245.50 667.65 242.70 666.02 240.00 C 646.94 206.35 628.03 172.61 608.88 139.01 Z" />
</g>
<g id="#4f78c3ff">
<path fill="#4f78c3" opacity="1.00" d=" M 1297.28 158.45 L 1297.74 157.99 L 1298.05 158.85 C 1304.21 175.69 1311.73 192.01 1318.28 208.71 C 1328.16 232.26 1337.87 255.89 1347.66 279.47 L 1347.83 280.28 C 1321.28 277.10 1294.74 273.78 1268.20 270.60 C 1253.32 268.49 1238.30 267.39 1223.51 264.73 C 1228.38 256.09 1234.79 248.47 1240.21 240.18 C 1256.16 217.79 1271.92 195.27 1287.75 172.80 C 1290.74 168.07 1294.72 163.97 1296.92 158.76 L 1297.28 158.45 Z" />
</g>
<g id="#4585c7ff">
<path fill="#4585c7" opacity="1.00" d=" M 1190.90 203.84 C 1226.22 188.76 1261.61 173.86 1296.92 158.76 C 1294.72 163.97 1290.74 168.07 1287.75 172.80 C 1271.92 195.27 1256.16 217.79 1240.21 240.18 C 1234.79 248.47 1228.38 256.09 1223.51 264.73 L 1223.20 265.00 L 1222.79 265.32 C 1211.52 251.60 1199.70 238.34 1188.26 224.76 C 1184.14 220.03 1180.20 215.15 1175.87 210.61 L 1176.15 210.27 C 1176.34 210.05 1176.73 209.60 1176.93 209.37 C 1181.65 207.69 1186.26 205.73 1190.90 203.84 Z" />
</g>
<g id="#556bbdff">
<path fill="#556bbd" opacity="1.00" d=" M 1298.05 158.85 C 1326.69 175.02 1355.13 191.56 1383.57 208.06 L 1384.03 208.53 C 1371.78 232.00 1360.18 255.83 1348.33 279.50 L 1347.66 279.47 C 1337.87 255.89 1328.16 232.26 1318.28 208.71 C 1311.73 192.01 1304.21 175.69 1298.05 158.85 Z" />
</g>
<g id="#17cee5ff">
<path fill="#17cee5" opacity="1.00" d=" M 765.99 172.24 L 766.20 172.26 C 781.09 174.10 796.12 174.43 811.08 175.63 C 819.05 176.02 827.00 177.13 835.00 177.02 L 836.01 177.04 L 835.48 177.85 C 832.86 183.62 831.86 189.94 830.07 195.98 C 822.89 221.77 816.15 247.67 808.90 273.43 C 804.32 264.27 800.75 254.67 796.63 245.31 C 786.31 221.05 775.92 196.82 765.68 172.52 L 765.99 172.24 Z" />
</g>
<g id="#11d3efff">
<path fill="#11d3ef" opacity="1.00" d=" M 729.27 201.36 C 741.48 191.84 753.30 181.81 765.68 172.52 C 775.92 196.82 786.31 221.05 796.63 245.31 C 800.75 254.67 804.32 264.27 808.90 273.43 L 809.07 273.91 L 808.49 273.88 C 763.02 265.23 717.47 256.95 671.97 248.46 C 671.64 248.40 670.96 248.28 670.63 248.22 C 690.00 232.38 709.77 217.03 729.27 201.36 Z" />
</g>
<g id="#1fb7dcff">
<path fill="#1fb7dc" opacity="1.00" d=" M 836.01 177.04 C 849.29 178.59 862.68 177.50 876.00 178.35 C 887.24 179.66 898.59 178.45 909.85 179.39 C 921.07 180.72 932.40 179.37 943.64 180.47 C 954.08 181.52 964.60 180.61 975.06 181.29 C 985.48 182.28 995.96 182.08 1006.41 181.87 C 1006.78 181.94 1007.52 182.07 1007.89 182.14 C 1008.35 190.78 1006.70 199.35 1007.04 207.99 C 1007.43 218.70 1005.59 229.33 1005.96 240.05 C 1006.31 248.39 1004.82 256.65 1004.98 264.99 C 1005.01 270.20 1005.03 275.43 1004.52 280.64 C 1003.55 290.01 1004.41 299.46 1003.64 308.85 C 1003.28 312.96 1002.99 317.08 1002.83 321.21 L 1002.30 321.10 L 1001.65 320.97 C 946.16 273.39 890.93 225.48 835.48 177.85 L 836.01 177.04 Z" />
</g>
<g id="#16d7eeff">
<path fill="#16d7ee" opacity="1.00" d=" M 830.07 195.98 C 831.86 189.94 832.86 183.62 835.48 177.85 C 890.93 225.48 946.16 273.39 1001.65 320.97 L 1000.60 321.43 C 967.05 312.93 933.44 304.67 899.87 296.24 C 869.50 289.22 839.41 281.05 809.07 273.91 L 808.90 273.43 C 816.15 247.67 822.89 221.77 830.07 195.98 Z" />
</g>
<g id="#2aade6ff">
<path fill="#2aade6" opacity="1.00" d=" M 1007.89 182.14 L 1008.28 182.23 C 1036.32 190.30 1064.58 197.58 1092.69 205.43 C 1097.69 207.03 1103.28 207.38 1107.66 210.53 C 1099.71 216.27 1094.40 224.71 1087.22 231.26 C 1083.12 235.16 1079.99 239.94 1075.79 243.74 C 1071.02 248.02 1067.44 253.42 1062.75 257.78 C 1059.98 260.37 1057.43 263.19 1055.03 266.12 C 1051.44 270.49 1046.93 273.98 1043.46 278.45 C 1039.13 284.08 1033.41 288.43 1029.04 294.02 C 1025.72 298.31 1021.39 301.65 1017.98 305.85 C 1013.54 311.43 1008.20 316.17 1003.32 321.34 L 1002.83 321.21 C 1002.99 317.08 1003.28 312.96 1003.64 308.85 C 1004.41 299.46 1003.55 290.01 1004.52 280.64 C 1005.03 275.43 1005.01 270.20 1004.98 264.99 C 1004.82 256.65 1006.31 248.39 1005.96 240.05 C 1005.59 229.33 1007.43 218.70 1007.04 207.99 C 1006.70 199.35 1008.35 190.78 1007.89 182.14 Z" />
</g>
<g id="#2cb9e0ff">
<path fill="#2cb9e0" opacity="1.00" d=" M 350.54 202.05 C 392.10 199.31 433.60 195.68 475.16 192.93 L 474.47 193.82 C 469.45 200.87 463.37 207.08 457.96 213.83 C 439.28 236.11 420.36 258.20 401.78 280.57 L 401.31 281.56 C 401.18 281.23 400.91 280.58 400.78 280.25 C 390.10 264.18 379.85 247.83 369.22 231.73 C 363.12 221.76 356.12 212.34 350.54 202.05 Z" />
</g>
<g id="#625ec0ff">
<path fill="#625ec0" opacity="1.00" d=" M 1385.34 207.54 C 1403.68 203.12 1421.65 197.23 1440.00 192.82 L 1440.00 270.36 C 1434.44 265.43 1430.07 259.40 1424.85 254.15 C 1411.45 238.75 1397.25 224.06 1384.03 208.53 L 1383.57 208.06 C 1383.84 207.50 1384.38 206.38 1384.65 205.82 C 1384.82 206.25 1385.17 207.11 1385.34 207.54 Z" />
</g>
<g id="#21bbeaff">
<path fill="#21bbea" opacity="1.00" d=" M 457.96 213.83 C 463.37 207.08 469.45 200.87 474.47 193.82 C 474.70 193.97 475.14 194.26 475.36 194.41 C 476.15 197.22 476.71 200.08 477.17 202.96 C 484.39 247.31 491.79 291.63 499.13 335.96 C 499.50 338.08 499.99 340.18 500.49 342.27 C 474.83 326.82 449.54 310.72 424.02 295.02 C 416.76 289.95 408.68 286.15 401.78 280.57 C 420.36 258.20 439.28 236.11 457.96 213.83 Z" />
</g>
<g id="#18c9e4ff">
<path fill="#18c9e4" opacity="1.00" d=" M 475.36 194.41 C 479.72 194.24 483.76 195.98 487.88 197.12 C 537.54 211.19 587.26 225.08 636.90 239.21 C 648.12 242.04 659.09 245.87 670.39 248.38 C 669.68 248.86 668.98 249.34 668.28 249.83 C 654.41 256.44 641.34 264.65 627.74 271.79 C 585.35 295.34 542.85 318.67 500.49 342.27 C 499.99 340.18 499.50 338.08 499.13 335.96 C 491.79 291.63 484.39 247.31 477.17 202.96 C 476.71 200.08 476.15 197.22 475.36 194.41 Z" />
</g>
<g id="#31a2daff">
<path fill="#31a2da" opacity="1.00" d=" M 350.35 202.38 L 350.54 202.05 C 356.12 212.34 363.12 221.76 369.22 231.73 C 379.85 247.83 390.10 264.18 400.78 280.25 C 398.86 280.57 396.94 280.90 395.00 280.99 C 368.75 281.07 342.49 280.81 316.24 281.34 C 308.47 281.95 300.68 282.22 292.90 281.75 C 295.39 278.86 297.20 275.49 299.23 272.29 C 306.53 260.87 313.61 249.32 320.85 237.86 C 323.61 233.62 326.44 229.42 328.81 224.94 L 329.12 224.37 C 336.06 216.92 344.05 210.40 350.35 202.38 Z" />
</g>
<g id="#6260c8ff">
<path fill="#6260c8" opacity="1.00" d=" M 0.00 208.92 C 13.95 210.66 28.03 209.21 41.98 210.89 C 50.45 211.31 58.96 210.54 67.41 211.60 C 76.75 212.72 86.28 210.95 95.53 212.96 C 86.81 217.91 77.54 221.82 68.89 226.90 C 57.61 233.05 45.75 238.08 34.66 244.59 C 23.20 250.61 11.46 256.09 0.00 262.13 L 0.00 208.92 Z" />
</g>
<g id="#6164c7ff">
<path fill="#6164c7" opacity="1.00" d=" M 1348.33 279.50 C 1360.18 255.83 1371.78 232.00 1384.03 208.53 C 1397.25 224.06 1411.45 238.75 1424.85 254.15 C 1430.07 259.40 1434.44 265.43 1440.00 270.36 L 1440.00 280.03 C 1411.65 280.03 1383.29 280.02 1354.94 280.05 C 1352.71 279.98 1350.52 279.69 1348.33 279.50 Z" />
</g>
<g id="#339bceff">
<path fill="#339bce" opacity="1.00" d=" M 1107.78 209.78 C 1130.56 210.12 1153.36 209.85 1176.15 210.27 L 1175.87 210.61 C 1147.72 249.18 1119.39 287.62 1091.14 326.12 C 1086.37 331.85 1082.94 338.64 1077.41 343.72 C 1086.15 306.21 1094.33 268.54 1102.78 230.95 C 1104.43 224.15 1105.51 217.20 1107.66 210.53 C 1107.69 210.34 1107.75 209.97 1107.78 209.78 Z" />
</g>
<g id="#2bb8dfff">
<path fill="#2bb8df" opacity="1.00" d=" M 1087.22 231.26 C 1094.40 224.71 1099.71 216.27 1107.66 210.53 C 1105.51 217.20 1104.43 224.15 1102.78 230.95 C 1094.33 268.54 1086.15 306.21 1077.41 343.72 C 1077.28 344.02 1077.03 344.61 1076.90 344.91 C 1057.40 338.75 1037.84 332.69 1018.30 326.59 C 1013.32 324.78 1008.01 323.89 1003.32 321.34 C 1008.20 316.17 1013.54 311.43 1017.98 305.85 C 1021.39 301.65 1025.72 298.31 1029.04 294.02 C 1033.41 288.43 1039.13 284.08 1043.46 278.45 C 1046.93 273.98 1051.44 270.49 1055.03 266.12 C 1057.43 263.19 1059.98 260.37 1062.75 257.78 C 1067.44 253.42 1071.02 248.02 1075.79 243.74 C 1079.99 239.94 1083.12 235.16 1087.22 231.26 Z" />
</g>
<g id="#39a1d7ff">
<path fill="#39a1d7" opacity="1.00" d=" M 1091.14 326.12 C 1119.39 287.62 1147.72 249.18 1175.87 210.61 C 1180.20 215.15 1184.14 220.03 1188.26 224.76 C 1199.70 238.34 1211.52 251.60 1222.79 265.32 C 1222.46 265.59 1221.80 266.11 1221.46 266.37 C 1216.29 267.67 1212.08 271.12 1207.32 273.37 C 1167.07 295.41 1126.90 317.58 1086.66 339.65 C 1083.65 341.16 1080.91 343.58 1077.41 343.72 C 1082.94 338.64 1086.37 331.85 1091.14 326.12 Z" />
</g>
<g id="#5a67c1ff">
<path fill="#5a67c1" opacity="1.00" d=" M 95.53 212.96 C 95.91 213.02 96.67 213.13 97.04 213.19 C 96.81 220.95 96.04 228.89 97.86 236.52 C 98.51 247.62 97.88 258.76 98.54 269.86 C 99.18 276.97 99.24 284.12 98.99 291.25 L 99.20 292.21 L 98.28 292.25 C 94.51 292.15 90.78 291.67 87.04 291.29 C 80.83 290.61 74.55 291.49 68.35 290.53 C 62.32 289.58 56.19 290.36 50.14 289.63 C 41.46 288.42 32.66 289.56 23.99 288.22 C 15.96 288.25 8.00 287.27 0.00 286.86 L 0.00 262.13 C 11.46 256.09 23.20 250.61 34.66 244.59 C 45.75 238.08 57.61 233.05 68.89 226.90 C 77.54 221.82 86.81 217.91 95.53 212.96 Z" />
</g>
<g id="#4e79c2ff">
<path fill="#4e79c2" opacity="1.00" d=" M 98.32 213.04 C 106.83 217.42 115.28 221.92 123.60 226.63 C 123.83 226.88 124.29 227.37 124.52 227.62 C 128.59 232.47 133.44 236.60 137.36 241.60 C 144.88 249.40 151.80 257.76 159.68 265.22 C 157.34 268.40 153.33 269.28 149.92 270.82 C 141.08 274.24 132.45 278.16 123.62 281.58 C 115.46 284.93 107.42 288.63 98.99 291.25 C 99.24 284.12 99.18 276.97 98.54 269.86 C 97.88 258.76 98.51 247.62 97.86 236.52 C 98.82 228.72 98.00 220.87 98.32 213.04 Z" />
</g>
<g id="#4985d6ff">
<path fill="#4985d6" opacity="1.00" d=" M 132.99 226.27 C 159.64 225.76 186.32 226.62 212.94 225.28 C 250.80 225.21 288.66 224.97 326.52 224.94 C 320.27 227.49 313.55 228.41 307.09 230.22 C 269.39 239.45 231.74 248.85 194.02 257.97 C 183.21 260.86 172.22 263.09 161.53 266.40 L 160.84 266.36 C 160.55 266.08 159.97 265.50 159.68 265.22 C 151.80 257.76 144.88 249.40 137.36 241.60 C 133.44 236.60 128.59 232.47 124.52 227.62 C 127.31 226.98 130.12 226.36 132.99 226.27 Z" />
</g>
<g id="#3d96d0ff">
<path fill="#3d96d0" opacity="1.00" d=" M 326.52 224.94 L 327.67 224.89 C 327.96 224.90 328.52 224.93 328.81 224.94 C 326.44 229.42 323.61 233.62 320.85 237.86 C 313.61 249.32 306.53 260.87 299.23 272.29 C 297.20 275.49 295.39 278.86 292.90 281.75 L 292.31 282.32 C 282.42 280.50 272.38 279.71 262.39 278.55 C 240.28 275.82 218.14 273.34 196.01 270.76 C 184.54 269.13 172.96 268.36 161.53 266.40 C 172.22 263.09 183.21 260.86 194.02 257.97 C 231.74 248.85 269.39 239.45 307.09 230.22 C 313.55 228.41 320.27 227.49 326.52 224.94 Z" />
</g>
<g id="#05e6f2ff">
<path fill="#05e6f2" opacity="1.00" d=" M 670.39 248.38 L 670.63 248.22 C 670.96 248.28 671.64 248.40 671.97 248.46 L 671.72 249.61 C 668.27 261.05 671.07 273.14 669.67 284.83 C 668.22 295.64 669.78 306.58 668.47 317.40 C 667.23 327.68 668.73 338.09 667.47 348.37 C 666.25 358.76 667.74 369.26 666.53 379.64 C 665.44 388.03 666.28 396.50 666.01 404.92 C 665.87 411.15 663.93 417.43 665.76 423.59 L 665.25 424.01 L 665.08 424.16 L 664.55 424.59 C 646.96 418.21 629.10 412.63 611.38 406.64 C 581.87 396.75 552.33 386.97 522.83 377.07 L 522.78 376.74 C 565.59 339.60 608.32 302.35 651.09 265.16 C 656.71 259.93 663.01 255.44 668.28 249.83 C 668.98 249.34 669.68 248.86 670.39 248.38 Z" />
</g>
<g id="#09daedff">
<path fill="#09daed" opacity="1.00" d=" M 671.97 248.46 C 717.47 256.95 763.02 265.23 808.49 273.88 C 797.69 287.25 786.45 300.28 775.52 313.55 C 768.40 321.65 761.83 330.22 754.55 338.17 C 751.74 335.38 749.17 332.37 746.59 329.38 C 743.21 325.44 739.19 322.10 735.82 318.15 C 728.90 309.78 720.60 302.69 713.72 294.28 C 707.88 288.74 702.90 282.39 697.21 276.71 C 691.89 271.69 687.45 265.86 682.24 260.73 C 678.67 257.08 674.92 253.59 671.72 249.61 L 671.97 248.46 Z" />
</g>
<g id="#0ed2f5ff">
<path fill="#0ed2f5" opacity="1.00" d=" M 627.74 271.79 C 641.34 264.65 654.41 256.44 668.28 249.83 C 663.01 255.44 656.71 259.93 651.09 265.16 C 608.32 302.35 565.59 339.60 522.78 376.74 L 522.48 375.87 C 513.94 365.54 507.94 353.37 499.83 342.72 L 500.49 342.27 C 542.85 318.67 585.35 295.34 627.74 271.79 Z" />
</g>
<g id="#01ebf7ff">
<path fill="#01ebf7" opacity="1.00" d=" M 669.67 284.83 C 671.07 273.14 668.27 261.05 671.72 249.61 C 674.92 253.59 678.67 257.08 682.24 260.73 C 687.45 265.86 691.89 271.69 697.21 276.71 C 702.90 282.39 707.88 288.74 713.72 294.28 C 720.60 302.69 728.90 309.78 735.82 318.15 C 739.19 322.10 743.21 325.44 746.59 329.38 C 749.17 332.37 751.74 335.38 754.55 338.17 L 754.10 338.69 C 724.72 367.06 695.44 395.54 665.76 423.59 C 663.93 417.43 665.87 411.15 666.01 404.92 C 666.28 396.50 665.44 388.03 666.53 379.64 C 667.74 369.26 666.25 358.76 667.47 348.37 C 668.73 338.09 667.23 327.68 668.47 317.40 C 669.78 306.58 668.22 295.64 669.67 284.83 Z" />
</g>
<g id="#5082caff">
<path fill="#5082ca" opacity="1.00" d=" M 159.68 265.22 C 159.97 265.50 160.55 266.08 160.84 266.36 C 161.11 271.26 160.59 276.14 160.21 281.02 C 159.55 297.34 160.69 313.72 159.11 330.00 C 158.89 342.16 159.19 354.34 158.68 366.50 C 157.26 371.94 158.06 377.55 157.86 383.09 L 157.20 383.55 C 140.73 356.89 123.42 330.75 106.74 304.21 C 104.29 300.17 101.19 296.52 99.20 292.21 L 98.99 291.25 C 107.42 288.63 115.46 284.93 123.62 281.58 C 132.45 278.16 141.08 274.24 149.92 270.82 C 153.33 269.28 157.34 268.40 159.68 265.22 Z" />
</g>
<g id="#3598cdff">
<path fill="#3598cd" opacity="1.00" d=" M 1222.79 265.32 L 1223.20 265.00 L 1223.06 265.68 C 1221.21 274.05 1220.76 282.64 1219.33 291.08 C 1213.00 337.38 1206.62 383.67 1200.26 429.97 C 1199.01 440.83 1196.98 451.58 1195.98 462.46 L 1195.85 463.27 L 1195.33 462.95 C 1186.27 457.78 1177.01 452.95 1167.67 448.29 C 1146.39 436.86 1124.81 426.02 1103.52 414.61 C 1107.95 408.11 1113.13 402.18 1117.98 396.00 C 1142.43 365.44 1166.90 334.89 1191.35 304.32 C 1201.34 291.64 1211.72 279.25 1221.46 266.37 C 1221.80 266.11 1222.46 265.59 1222.79 265.32 Z" />
</g>
<g id="#4b7fd1ff">
<path fill="#4b7fd1" opacity="1.00" d=" M 1223.20 265.00 L 1223.51 264.73 C 1238.30 267.39 1253.32 268.49 1268.20 270.60 C 1294.74 273.78 1321.28 277.10 1347.83 280.28 C 1344.12 298.98 1339.05 317.40 1334.96 336.02 C 1331.95 349.16 1328.26 362.17 1326.02 375.47 L 1325.78 376.64 L 1324.68 375.81 C 1321.24 373.10 1318.88 369.35 1315.79 366.30 C 1313.42 363.96 1311.10 361.57 1309.01 358.98 C 1305.62 354.69 1301.25 351.30 1297.94 346.96 C 1294.50 342.45 1289.99 338.94 1286.46 334.53 C 1283.95 331.39 1281.10 328.56 1278.25 325.75 C 1268.68 314.98 1258.74 304.55 1249.23 293.72 C 1244.32 289.26 1240.53 283.76 1235.72 279.21 C 1231.25 274.93 1227.69 269.81 1223.06 265.68 L 1223.20 265.00 Z" />
</g>
<g id="#418ac9ff">
<path fill="#418ac9" opacity="1.00" d=" M 160.84 266.36 L 161.53 266.40 C 172.96 268.36 184.54 269.13 196.01 270.76 C 218.14 273.34 240.28 275.82 262.39 278.55 C 272.38 279.71 282.42 280.50 292.31 282.32 C 285.59 288.00 278.43 293.11 271.42 298.42 C 246.66 317.37 221.74 336.09 196.88 354.91 C 187.25 362.65 176.99 369.59 167.44 377.43 C 164.80 379.59 161.91 381.42 159.16 383.42 C 159.23 377.77 159.49 372.11 158.68 366.50 C 159.19 354.34 158.89 342.16 159.11 330.00 C 160.69 313.72 159.55 297.34 160.21 281.02 C 160.59 276.14 161.11 271.26 160.84 266.36 Z" />
</g>
<g id="#33a4e0ff">
<path fill="#33a4e0" opacity="1.00" d=" M 1207.32 273.37 C 1212.08 271.12 1216.29 267.67 1221.46 266.37 C 1211.72 279.25 1201.34 291.64 1191.35 304.32 C 1166.90 334.89 1142.43 365.44 1117.98 396.00 C 1113.13 402.18 1107.95 408.11 1103.52 414.61 L 1103.15 415.06 C 1103.02 414.63 1102.74 413.79 1102.61 413.36 C 1093.98 390.70 1085.97 367.80 1077.07 345.25 L 1076.90 344.91 C 1077.03 344.61 1077.28 344.02 1077.41 343.72 C 1080.91 343.58 1083.65 341.16 1086.66 339.65 C 1126.90 317.58 1167.07 295.41 1207.32 273.37 Z" />
</g>
<g id="#4389ceff">
<path fill="#4389ce" opacity="1.00" d=" M 1223.06 265.68 C 1227.69 269.81 1231.25 274.93 1235.72 279.21 C 1240.53 283.76 1244.32 289.26 1249.23 293.72 C 1258.74 304.55 1268.68 314.98 1278.25 325.75 C 1281.10 328.56 1283.95 331.39 1286.46 334.53 C 1289.99 338.94 1294.50 342.45 1297.94 346.96 C 1301.25 351.30 1305.62 354.69 1309.01 358.98 C 1311.10 361.57 1313.42 363.96 1315.79 366.30 C 1318.88 369.35 1321.24 373.10 1324.68 375.81 L 1325.10 376.85 C 1318.66 380.30 1312.91 384.82 1306.76 388.73 C 1272.78 411.41 1238.80 434.09 1204.84 456.81 C 1201.93 458.78 1198.89 460.52 1195.98 462.46 C 1196.98 451.58 1199.01 440.83 1200.26 429.97 C 1206.62 383.67 1213.00 337.38 1219.33 291.08 C 1220.76 282.64 1221.21 274.05 1223.06 265.68 Z" />
</g>
<g id="#06edf3ff">
<path fill="#06edf3" opacity="1.00" d=" M 808.49 273.88 L 809.07 273.91 C 811.91 301.00 815.83 327.98 819.11 355.02 C 819.64 359.67 820.79 364.34 820.14 369.04 C 817.33 369.82 814.61 370.86 811.94 371.98 C 782.54 383.93 753.08 395.75 723.64 407.60 C 722.27 408.08 720.83 408.25 719.41 408.40 C 727.10 393.13 735.08 378.01 742.58 362.65 C 746.40 354.65 751.04 347.02 754.10 338.69 L 754.55 338.17 C 761.83 330.22 768.40 321.65 775.52 313.55 C 786.45 300.28 797.69 287.25 808.49 273.88 Z" />
</g>
<g id="#0fe1e4ff">
<path fill="#0fe1e4" opacity="1.00" d=" M 809.07 273.91 C 839.41 281.05 869.50 289.22 899.87 296.24 C 933.44 304.67 967.05 312.93 1000.60 321.43 C 996.73 323.98 992.02 324.33 987.68 325.57 C 971.23 329.98 954.71 334.11 938.18 338.18 C 919.48 343.32 900.58 347.73 881.85 352.80 C 864.50 356.92 847.38 361.96 829.99 365.92 C 827.11 366.56 824.38 367.66 821.60 368.63 L 820.88 368.81 L 820.14 369.04 C 820.79 364.34 819.64 359.67 819.11 355.02 C 815.83 327.98 811.91 301.00 809.07 273.91 Z" />
</g>
<g id="#5c68c7ff">
<path fill="#5c68c7" opacity="1.00" d=" M 1347.66 279.47 L 1348.33 279.50 C 1350.52 279.69 1352.71 279.98 1354.94 280.05 C 1383.29 280.02 1411.65 280.03 1440.00 280.03 L 1440.00 287.39 C 1410.48 310.05 1381.42 333.28 1351.77 355.76 C 1343.30 362.48 1334.94 369.36 1326.02 375.47 C 1328.26 362.17 1331.95 349.16 1334.96 336.02 C 1339.05 317.40 1344.12 298.98 1347.83 280.28 L 1347.66 279.47 Z" />
</g>
<g id="#2cabdeff">
<path fill="#2cabde" opacity="1.00" d=" M 400.78 280.25 C 400.91 280.58 401.18 281.23 401.31 281.56 C 390.01 321.00 379.31 360.62 368.10 400.09 C 364.89 412.16 361.33 424.15 358.18 436.24 C 358.12 436.55 358.00 437.17 357.94 437.48 C 353.41 440.43 350.79 445.33 346.72 448.78 C 342.09 452.82 338.78 458.08 334.28 462.24 C 331.48 464.83 328.90 467.63 326.51 470.61 C 322.99 475.02 318.46 478.49 315.01 482.98 C 311.17 488.09 305.97 491.94 301.94 496.88 C 297.94 501.89 293.25 506.30 288.69 510.81 L 288.21 510.97 C 282.08 493.55 274.94 476.49 268.13 459.32 L 268.17 458.14 C 289.39 452.97 310.70 448.20 331.85 442.78 C 340.23 440.75 348.70 439.07 356.98 436.63 C 356.44 433.10 354.99 429.83 353.52 426.62 C 337.33 387.80 320.97 349.07 304.77 310.26 C 300.98 301.04 297.17 291.83 293.16 282.70 L 292.90 281.75 C 300.68 282.22 308.47 281.95 316.24 281.34 C 342.49 280.81 368.75 281.07 395.00 280.99 C 396.94 280.90 398.86 280.57 400.78 280.25 Z" />
</g>
<g id="#20c1e6ff">
<path fill="#20c1e6" opacity="1.00" d=" M 401.31 281.56 L 401.78 280.57 C 408.68 286.15 416.76 289.95 424.02 295.02 C 449.54 310.72 474.83 326.82 500.49 342.27 L 499.83 342.72 C 473.97 359.49 448.43 376.77 422.74 393.82 C 406.16 404.48 389.79 415.48 373.38 426.41 C 369.74 428.93 365.50 430.82 362.81 434.50 C 361.25 435.04 359.71 435.63 358.18 436.24 C 361.33 424.15 364.89 412.16 368.10 400.09 C 379.31 360.62 390.01 321.00 401.31 281.56 Z" />
</g>
<g id="#3b93ccff">
<path fill="#3b93cc" opacity="1.00" d=" M 292.31 282.32 L 292.90 281.75 L 293.16 282.70 C 290.17 300.44 288.10 318.30 285.42 336.08 C 279.80 376.79 273.72 417.43 268.17 458.14 L 268.13 459.32 L 267.73 458.71 C 259.75 452.00 250.62 446.88 242.20 440.78 C 223.68 428.73 205.72 415.87 187.21 403.83 C 177.94 397.39 168.63 391.03 159.23 384.80 C 159.21 384.45 159.18 383.77 159.16 383.42 C 161.91 381.42 164.80 379.59 167.44 377.43 C 176.99 369.59 187.25 362.65 196.88 354.91 C 221.74 336.09 246.66 317.37 271.42 298.42 C 278.43 293.11 285.59 288.00 292.31 282.32 Z" />
</g>
<g id="#31a3d8ff">
<path fill="#31a3d8" opacity="1.00" d=" M 293.16 282.70 C 297.17 291.83 300.98 301.04 304.77 310.26 C 320.97 349.07 337.33 387.80 353.52 426.62 C 354.99 429.83 356.44 433.10 356.98 436.63 C 348.70 439.07 340.23 440.75 331.85 442.78 C 310.70 448.20 289.39 452.97 268.17 458.14 C 273.72 417.43 279.80 376.79 285.42 336.08 C 288.10 318.30 290.17 300.44 293.16 282.70 Z" />
</g>
<g id="#5e63c8ff">
<path fill="#5e63c8" opacity="1.00" d=" M 0.00 286.86 C 8.00 287.27 15.96 288.25 23.99 288.22 C 32.66 289.56 41.46 288.42 50.14 289.63 C 56.19 290.36 62.32 289.58 68.35 290.53 C 74.55 291.49 80.83 290.61 87.04 291.29 C 90.78 291.67 94.51 292.15 98.28 292.25 C 70.75 317.12 42.90 341.65 15.21 366.34 C 9.79 359.72 5.16 352.50 0.00 345.68 L 0.00 286.86 Z" />
</g>
<g id="#5b6dc9ff">
<path fill="#5b6dc9" opacity="1.00" d=" M 1351.77 355.76 C 1381.42 333.28 1410.48 310.05 1440.00 287.39 L 1440.00 321.49 C 1429.86 362.72 1421.29 404.34 1411.65 445.70 C 1410.21 451.88 1408.84 458.07 1407.73 464.31 L 1407.15 464.52 C 1401.72 457.43 1394.65 451.83 1389.20 444.75 C 1382.53 438.42 1376.78 431.24 1370.40 424.65 C 1365.83 418.56 1359.67 413.96 1355.01 407.96 C 1351.37 403.29 1346.57 399.69 1342.97 394.99 C 1338.95 389.70 1333.50 385.74 1329.43 380.51 C 1328.31 379.12 1327.19 377.72 1325.78 376.64 L 1326.02 375.47 C 1334.94 369.36 1343.30 362.48 1351.77 355.76 Z" />
</g>
<g id="#5270cfff">
<path fill="#5270cf" opacity="1.00" d=" M 98.28 292.25 L 99.20 292.21 C 101.19 296.52 104.29 300.17 106.74 304.21 C 123.42 330.75 140.73 356.89 157.20 383.55 C 153.13 384.27 149.05 383.25 145.02 382.76 C 108.03 378.13 71.04 373.50 34.05 368.90 C 27.94 368.16 21.86 367.12 15.70 366.86 L 14.42 367.10 L 15.21 366.34 C 42.90 341.65 70.75 317.12 98.28 292.25 Z" />
</g>
<g id="#14dbe6ff">
<path fill="#14dbe6" opacity="1.00" d=" M 1000.60 321.43 L 1001.65 320.97 L 1002.30 321.10 C 1003.88 325.59 1004.50 330.33 1005.12 335.04 C 1008.42 356.85 1012.00 378.62 1015.12 400.46 L 1014.27 400.32 C 1005.95 398.33 997.44 397.37 989.01 396.03 C 950.33 389.75 911.68 383.36 872.99 377.20 C 855.89 374.16 838.66 371.92 821.60 368.63 C 824.38 367.66 827.11 366.56 829.99 365.92 C 847.38 361.96 864.50 356.92 881.85 352.80 C 900.58 347.73 919.48 343.32 938.18 338.18 C 954.71 334.11 971.23 329.98 987.68 325.57 C 992.02 324.33 996.73 323.98 1000.60 321.43 Z" />
</g>
<g id="#22c2e2ff">
<path fill="#22c2e2" opacity="1.00" d=" M 1002.30 321.10 L 1002.83 321.21 L 1003.32 321.34 C 1008.01 323.89 1013.32 324.78 1018.30 326.59 C 1037.84 332.69 1057.40 338.75 1076.90 344.91 L 1077.07 345.25 C 1056.30 363.23 1035.96 381.74 1015.37 399.93 L 1015.12 400.46 C 1012.00 378.62 1008.42 356.85 1005.12 335.04 C 1004.50 330.33 1003.88 325.59 1002.30 321.10 Z" />
</g>
<g id="#635dbaff">
<path fill="#635dba" opacity="1.00" d=" M 1411.65 445.70 C 1421.29 404.34 1429.86 362.72 1440.00 321.49 L 1440.00 452.79 C 1429.18 456.44 1418.68 461.04 1407.73 464.31 C 1408.84 458.07 1410.21 451.88 1411.65 445.70 Z" />
</g>
<g id="#21e2d8ff">
<path fill="#21e2d8" opacity="1.00" d=" M 665.76 423.59 C 695.44 395.54 724.72 367.06 754.10 338.69 C 751.04 347.02 746.40 354.65 742.58 362.65 C 735.08 378.01 727.10 393.13 719.41 408.40 C 719.26 408.70 718.94 409.30 718.79 409.59 C 700.88 414.16 683.22 419.69 665.25 424.01 L 665.76 423.59 Z" />
</g>
<g id="#19d0efff">
<path fill="#19d0ef" opacity="1.00" d=" M 422.74 393.82 C 448.43 376.77 473.97 359.49 499.83 342.72 C 507.94 353.37 513.94 365.54 522.48 375.87 L 522.03 376.85 C 485.37 390.36 448.58 403.52 411.90 416.97 C 395.51 422.74 379.30 429.03 362.81 434.50 C 365.50 430.82 369.74 428.93 373.38 426.41 C 389.79 415.48 406.16 404.48 422.74 393.82 Z" />
</g>
<g id="#635fbaff">
<path fill="#635fba" opacity="1.00" d=" M 0.00 345.68 C 5.16 352.50 9.79 359.72 15.21 366.34 L 14.42 367.10 C 9.63 371.86 4.83 376.62 0.00 381.34 L 0.00 345.68 Z" />
</g>
<g id="#25b8e2ff">
<path fill="#25b8e2" opacity="1.00" d=" M 1015.37 399.93 C 1035.96 381.74 1056.30 363.23 1077.07 345.25 C 1085.97 367.80 1093.98 390.70 1102.61 413.36 C 1099.74 414.09 1096.79 413.87 1093.95 413.25 C 1067.82 408.43 1041.42 405.11 1015.37 399.93 Z" />
</g>
<g id="#6364cbff">
<path fill="#6364cb" opacity="1.00" d=" M 0.00 381.34 C 4.83 376.62 9.63 371.86 14.42 367.10 L 15.70 366.86 C 18.35 373.50 21.66 379.84 24.67 386.31 C 34.82 406.52 44.80 426.82 54.96 447.02 C 69.21 477.36 84.87 507.02 99.36 537.25 L 98.25 537.37 C 65.46 523.70 32.62 510.10 0.00 496.03 L 0.00 381.34 Z" />
</g>
<g id="#4f75c6ff">
<path fill="#4f75c6" opacity="1.00" d=" M 15.70 366.86 C 21.86 367.12 27.94 368.16 34.05 368.90 C 71.04 373.50 108.03 378.13 145.02 382.76 C 149.05 383.25 153.13 384.27 157.20 383.55 L 157.86 383.09 C 157.42 388.62 154.63 393.52 152.77 398.64 C 135.23 444.85 117.32 490.93 100.01 537.22 L 99.73 538.67 L 99.45 537.60 L 99.36 537.25 C 84.87 507.02 69.21 477.36 54.96 447.02 C 44.80 426.82 34.82 406.52 24.67 386.31 C 21.66 379.84 18.35 373.50 15.70 366.86 Z" />
</g>
<g id="#4588c8ff">
<path fill="#4588c8" opacity="1.00" d=" M 157.86 383.09 C 158.06 377.55 157.26 371.94 158.68 366.50 C 159.49 372.11 159.23 377.77 159.16 383.42 C 159.18 383.77 159.21 384.45 159.23 384.80 C 161.66 393.73 167.29 401.44 171.37 409.69 C 177.49 422.66 184.52 435.16 191.00 447.95 C 197.23 461.19 204.73 473.76 210.98 486.98 C 213.42 492.47 217.04 497.36 219.16 503.00 C 213.86 505.08 208.32 506.42 202.83 507.88 C 168.60 517.78 134.30 527.46 100.01 537.22 C 117.32 490.93 135.23 444.85 152.77 398.64 C 154.63 393.52 157.42 388.62 157.86 383.09 Z" />
</g>
<g id="#19e4e5ff">
<path fill="#19e4e5" opacity="1.00" d=" M 811.94 371.98 C 814.61 370.86 817.33 369.82 820.14 369.04 L 820.88 368.81 C 828.56 415.57 836.35 462.31 844.16 509.05 L 843.33 508.92 C 801.96 476.03 760.56 443.18 719.06 410.46 L 718.79 409.59 C 718.94 409.30 719.26 408.70 719.41 408.40 C 720.83 408.25 722.27 408.08 723.64 407.60 C 753.08 395.75 782.54 383.93 811.94 371.98 Z" />
</g>
<g id="#0ae5f4ff">
<path fill="#0ae5f4" opacity="1.00" d=" M 820.88 368.81 L 821.60 368.63 C 838.66 371.92 855.89 374.16 872.99 377.20 C 911.68 383.36 950.33 389.75 989.01 396.03 C 997.44 397.37 1005.95 398.33 1014.27 400.32 C 995.24 413.08 975.64 424.99 956.45 437.51 C 932.12 452.78 907.99 468.35 883.75 483.75 C 870.72 492.07 857.56 500.17 844.68 508.70 L 844.16 509.05 C 836.35 462.31 828.56 415.57 820.88 368.81 Z" />
</g>
<g id="#11ceefff">
<path fill="#11ceef" opacity="1.00" d=" M 522.48 375.87 L 522.78 376.74 L 522.83 377.07 C 532.58 430.94 543.09 484.69 553.11 538.51 L 553.13 538.85 C 512.08 544.43 471.06 550.20 430.02 555.87 C 418.51 557.07 407.17 559.66 395.59 560.17 C 435.67 502.40 475.75 444.63 515.81 386.84 C 518.08 383.64 520.67 380.58 522.03 376.85 L 522.48 375.87 Z" />
</g>
<g id="#5771c4ff">
<path fill="#5771c4" opacity="1.00" d=" M 1324.68 375.81 L 1325.78 376.64 C 1327.19 377.72 1328.31 379.12 1329.43 380.51 C 1333.50 385.74 1338.95 389.70 1342.97 394.99 C 1346.57 399.69 1351.37 403.29 1355.01 407.96 C 1359.67 413.96 1365.83 418.56 1370.40 424.65 C 1376.78 431.24 1382.53 438.42 1389.20 444.75 C 1394.65 451.83 1401.72 457.43 1407.15 464.52 C 1402.80 471.91 1397.44 478.61 1392.69 485.74 C 1377.92 506.23 1363.84 527.23 1348.80 547.53 C 1348.69 547.04 1348.45 546.05 1348.34 545.56 C 1346.59 537.17 1345.84 528.61 1344.61 520.13 C 1339.29 480.46 1333.98 440.78 1328.65 401.11 C 1327.36 393.04 1326.87 384.84 1325.10 376.85 L 1324.68 375.81 Z" />
</g>
<g id="#1dcedaff">
<path fill="#1dceda" opacity="1.00" d=" M 411.90 416.97 C 448.58 403.52 485.37 390.36 522.03 376.85 C 520.67 380.58 518.08 383.64 515.81 386.84 C 475.75 444.63 435.67 502.40 395.59 560.17 L 394.81 560.21 L 394.37 560.06 C 389.15 540.81 383.09 521.79 377.50 502.64 C 370.89 480.95 364.64 459.14 357.94 437.48 C 358.00 437.17 358.12 436.55 358.18 436.24 C 359.71 435.63 361.25 435.04 362.81 434.50 C 379.30 429.03 395.51 422.74 411.90 416.97 Z" />
</g>
<g id="#03f4f1ff">
<path fill="#03f4f1" opacity="1.00" d=" M 522.83 377.07 C 552.33 386.97 581.87 396.75 611.38 406.64 C 629.10 412.63 646.96 418.21 664.55 424.59 C 659.51 430.54 653.40 435.46 648.55 441.58 C 636.50 454.50 623.55 466.58 611.31 479.33 C 604.38 487.70 596.34 495.04 588.73 502.77 C 582.33 509.33 575.70 515.67 569.33 522.28 C 563.91 527.69 559.56 534.20 553.11 538.51 C 543.09 484.69 532.58 430.94 522.83 377.07 Z" />
</g>
<g id="#4781cdff">
<path fill="#4781cd" opacity="1.00" d=" M 1306.76 388.73 C 1312.91 384.82 1318.66 380.30 1325.10 376.85 C 1326.87 384.84 1327.36 393.04 1328.65 401.11 C 1333.98 440.78 1339.29 480.46 1344.61 520.13 C 1345.84 528.61 1346.59 537.17 1348.34 545.56 C 1348.25 546.24 1348.08 547.62 1348.00 548.30 C 1340.86 545.33 1334.54 540.81 1327.68 537.31 C 1294.63 518.65 1261.35 500.41 1228.34 481.67 C 1217.43 475.67 1206.51 469.68 1195.85 463.27 L 1195.98 462.46 C 1198.89 460.52 1201.93 458.78 1204.84 456.81 C 1238.80 434.09 1272.78 411.41 1306.76 388.73 Z" />
</g>
<g id="#418fcdff">
<path fill="#418fcd" opacity="1.00" d=" M 159.23 384.80 C 168.63 391.03 177.94 397.39 187.21 403.83 C 205.72 415.87 223.68 428.73 242.20 440.78 C 250.62 446.88 259.75 452.00 267.73 458.71 C 263.56 462.89 258.83 466.44 254.76 470.72 C 252.29 473.28 249.62 475.66 246.91 477.97 C 242.23 481.92 238.26 486.64 233.54 490.55 C 228.68 494.61 224.30 499.18 219.80 503.62 L 219.26 504.28 L 219.16 503.00 C 217.04 497.36 213.42 492.47 210.98 486.98 C 204.73 473.76 197.23 461.19 191.00 447.95 C 184.52 435.16 177.49 422.66 171.37 409.69 C 167.29 401.44 161.66 393.73 159.23 384.80 Z" />
</g>
<g id="#11dbf1ff">
<path fill="#11dbf1" opacity="1.00" d=" M 1014.27 400.32 L 1015.12 400.46 C 998.98 448.51 982.87 496.57 966.66 544.59 C 964.23 552.13 961.47 559.56 959.25 567.16 C 938.30 556.60 917.24 546.28 896.41 535.49 C 879.45 526.02 861.38 518.62 844.68 508.70 C 857.56 500.17 870.72 492.07 883.75 483.75 C 907.99 468.35 932.12 452.78 956.45 437.51 C 975.64 424.99 995.24 413.08 1014.27 400.32 Z" />
</g>
<g id="#21bce1ff">
<path fill="#21bce1" opacity="1.00" d=" M 1015.12 400.46 L 1015.37 399.93 C 1017.76 403.70 1021.71 405.99 1024.71 409.22 C 1028.60 413.40 1033.42 416.58 1037.29 420.79 C 1040.97 424.74 1045.51 427.77 1049.22 431.70 C 1052.95 435.69 1057.54 438.73 1061.27 442.73 C 1064.84 446.52 1069.15 449.51 1072.75 453.28 C 1076.63 457.39 1081.31 460.63 1085.23 464.72 C 1099.21 477.68 1113.52 490.30 1127.24 503.55 C 1071.34 525.01 1015.18 545.81 959.25 567.16 C 961.47 559.56 964.23 552.13 966.66 544.59 C 982.87 496.57 998.98 448.51 1015.12 400.46 Z" />
</g>
<g id="#27b0e9ff">
<path fill="#27b0e9" opacity="1.00" d=" M 1015.37 399.93 C 1041.42 405.11 1067.82 408.43 1093.95 413.25 C 1096.79 413.87 1099.74 414.09 1102.61 413.36 C 1102.74 413.79 1103.02 414.63 1103.15 415.06 C 1111.60 444.48 1119.47 474.06 1128.10 503.43 L 1127.24 503.55 C 1113.52 490.30 1099.21 477.68 1085.23 464.72 C 1081.31 460.63 1076.63 457.39 1072.75 453.28 C 1069.15 449.51 1064.84 446.52 1061.27 442.73 C 1057.54 438.73 1052.95 435.69 1049.22 431.70 C 1045.51 427.77 1040.97 424.74 1037.29 420.79 C 1033.42 416.58 1028.60 413.40 1024.71 409.22 C 1021.71 405.99 1017.76 403.70 1015.37 399.93 Z" />
</g>
<g id="#4bcac3ff">
<path fill="#4bcac3" opacity="1.00" d=" M 665.25 424.01 C 683.22 419.69 700.88 414.16 718.79 409.59 L 719.06 410.46 C 718.79 421.66 720.35 432.81 720.07 444.02 C 721.13 456.67 720.80 469.38 721.86 482.03 C 721.82 496.87 723.54 511.66 723.05 526.51 C 705.48 496.13 688.24 465.55 670.87 435.05 C 668.68 431.54 666.76 427.87 665.25 424.01 Z" />
</g>
<g id="#3ad2cfff">
<path fill="#3ad2cf" opacity="1.00" d=" M 719.06 410.46 C 760.56 443.18 801.96 476.03 843.33 508.92 C 803.49 515.03 763.57 520.76 723.78 527.13 L 723.18 527.40 L 723.05 526.51 C 723.54 511.66 721.82 496.87 721.86 482.03 C 720.80 469.38 721.13 456.67 720.07 444.02 C 720.35 432.81 718.79 421.66 719.06 410.46 Z" />
</g>
<g id="#33aed9ff">
<path fill="#33aed9" opacity="1.00" d=" M 1103.15 415.06 L 1103.52 414.61 C 1124.81 426.02 1146.39 436.86 1167.67 448.29 C 1177.01 452.95 1186.27 457.78 1195.33 462.95 L 1194.96 463.56 C 1177.31 473.53 1160.18 484.42 1142.61 494.52 C 1137.89 497.34 1133.18 500.16 1128.49 503.03 L 1128.10 503.43 C 1119.47 474.06 1111.60 444.48 1103.15 415.06 Z" />
</g>
<g id="#0aedebff">
<path fill="#0aedeb" opacity="1.00" d=" M 664.55 424.59 L 665.08 424.16 C 663.42 472.63 661.55 521.09 660.03 569.56 L 659.94 570.31 L 659.32 569.99 C 652.54 567.26 645.30 565.99 638.41 563.60 C 610.09 555.49 581.83 547.20 553.49 539.19 L 553.13 538.85 L 553.11 538.51 C 559.56 534.20 563.91 527.69 569.33 522.28 C 575.70 515.67 582.33 509.33 588.73 502.77 C 596.34 495.04 604.38 487.70 611.31 479.33 C 623.55 466.58 636.50 454.50 648.55 441.58 C 653.40 435.46 659.51 430.54 664.55 424.59 Z" />
</g>
<g id="#36d8d8ff">
<path fill="#36d8d8" opacity="1.00" d=" M 665.08 424.16 L 665.25 424.01 C 666.76 427.87 668.68 431.54 670.87 435.05 C 688.24 465.55 705.48 496.13 723.05 526.51 L 723.18 527.40 C 702.15 541.47 681.18 555.66 660.03 569.56 C 661.55 521.09 663.42 472.63 665.08 424.16 Z" />
</g>
<g id="#2aaed5ff">
<path fill="#2aaed5" opacity="1.00" d=" M 346.72 448.78 C 350.79 445.33 353.41 440.43 357.94 437.48 C 364.64 459.14 370.89 480.95 377.50 502.64 C 383.09 521.79 389.15 540.81 394.37 560.06 C 379.88 554.59 366.28 547.05 352.07 540.93 C 331.06 530.66 309.56 521.38 288.69 510.81 C 293.25 506.30 297.94 501.89 301.94 496.88 C 305.97 491.94 311.17 488.09 315.01 482.98 C 318.46 478.49 322.99 475.02 326.51 470.61 C 328.90 467.63 331.48 464.83 334.28 462.24 C 338.78 458.08 342.09 452.82 346.72 448.78 Z" />
</g>
<g id="#5f66c5ff">
<path fill="#5f66c5" opacity="1.00" d=" M 1407.73 464.31 C 1418.68 461.04 1429.18 456.44 1440.00 452.79 L 1440.00 531.70 C 1420.03 534.65 1400.18 538.45 1380.38 542.42 C 1369.90 544.32 1359.39 546.07 1348.94 548.17 L 1348.80 547.53 C 1363.84 527.23 1377.92 506.23 1392.69 485.74 C 1397.44 478.61 1402.80 471.91 1407.15 464.52 L 1407.73 464.31 Z" />
</g>
<g id="#36a3d1ff">
<path fill="#36a3d1" opacity="1.00" d=" M 267.73 458.71 L 268.13 459.32 C 274.94 476.49 282.08 493.55 288.21 510.97 C 265.34 509.31 242.64 505.77 219.80 503.62 C 224.30 499.18 228.68 494.61 233.54 490.55 C 238.26 486.64 242.23 481.92 246.91 477.97 C 249.62 475.66 252.29 473.28 254.76 470.72 C 258.83 466.44 263.56 462.89 267.73 458.71 Z" />
</g>
<g id="#408fcdff">
<path fill="#408fcd" opacity="1.00" d=" M 1195.33 462.95 L 1195.85 463.27 C 1206.51 469.68 1217.43 475.67 1228.34 481.67 C 1261.35 500.41 1294.63 518.65 1327.68 537.31 C 1334.54 540.81 1340.86 545.33 1348.00 548.30 L 1347.82 548.92 C 1307.64 584.98 1267.40 621.00 1227.31 657.18 L 1227.03 657.06 L 1226.32 656.78 C 1210.41 621.16 1193.68 585.89 1177.59 550.34 C 1172.36 539.62 1167.86 528.55 1162.41 517.94 C 1165.62 510.67 1170.57 504.37 1174.41 497.45 C 1181.17 486.10 1188.67 475.18 1194.96 463.56 L 1195.33 462.95 Z" />
</g>
<g id="#33a0daff">
<path fill="#33a0da" opacity="1.00" d=" M 1142.61 494.52 C 1160.18 484.42 1177.31 473.53 1194.96 463.56 C 1188.67 475.18 1181.17 486.10 1174.41 497.45 C 1170.57 504.37 1165.62 510.67 1162.41 517.94 L 1162.06 517.45 C 1157.93 514.58 1152.91 513.57 1148.37 511.57 C 1141.76 508.67 1134.76 506.66 1128.49 503.03 C 1133.18 500.16 1137.89 497.34 1142.61 494.52 Z" />
</g>
<g id="#5f60c4ff">
<path fill="#5f60c4" opacity="1.00" d=" M 0.00 496.03 C 32.62 510.10 65.46 523.70 98.25 537.37 C 65.59 543.16 32.70 547.62 0.00 553.17 L 0.00 496.03 Z" />
</g>
<g id="#4d7ec6ff">
<path fill="#4d7ec6" opacity="1.00" d=" M 202.83 507.88 C 208.32 506.42 213.86 505.08 219.16 503.00 L 219.26 504.28 C 198.60 534.71 178.75 565.68 158.21 596.18 C 146.95 612.92 136.00 629.87 124.76 646.63 C 115.96 610.75 108.36 574.59 99.73 538.67 L 100.01 537.22 C 134.30 527.46 168.60 517.78 202.83 507.88 Z" />
</g>
<g id="#26bce5ff">
<path fill="#26bce5" opacity="1.00" d=" M 1127.24 503.55 L 1128.10 503.43 C 1109.26 548.58 1090.73 593.87 1071.98 639.06 C 1068.43 648.53 1063.78 657.58 1060.78 667.26 C 1060.06 668.47 1059.44 669.73 1058.72 670.93 L 1058.30 671.61 L 1057.40 671.16 C 1050.35 664.00 1044.08 656.13 1036.74 649.26 C 1029.47 642.50 1023.53 634.49 1016.23 627.76 C 1007.82 619.83 1000.73 610.67 992.29 602.77 C 985.72 596.64 980.45 589.28 973.76 583.26 C 968.36 578.49 964.29 572.48 958.95 567.67 L 959.25 567.16 C 1015.18 545.81 1071.34 525.01 1127.24 503.55 Z" />
</g>
<g id="#2eacdeff">
<path fill="#2eacde" opacity="1.00" d=" M 1128.10 503.43 L 1128.49 503.03 C 1134.76 506.66 1141.76 508.67 1148.37 511.57 C 1152.91 513.57 1157.93 514.58 1162.06 517.45 C 1153.18 530.77 1144.22 544.04 1135.43 557.42 C 1113.41 589.22 1092.50 621.80 1070.58 653.66 C 1067.37 658.24 1064.76 663.27 1060.78 667.26 C 1063.78 657.58 1068.43 648.53 1071.98 639.06 C 1090.73 593.87 1109.26 548.58 1128.10 503.43 Z" />
</g>
<g id="#428bd8ff">
<path fill="#428bd8" opacity="1.00" d=" M 219.26 504.28 L 219.80 503.62 C 247.13 553.36 275.08 602.77 302.58 652.41 C 303.89 654.86 305.45 657.17 306.97 659.50 C 307.02 660.01 307.11 661.03 307.16 661.54 C 303.01 681.19 297.57 700.53 293.23 720.14 C 286.50 746.65 280.53 773.35 273.79 799.86 C 272.17 805.52 271.41 811.42 269.34 816.95 C 269.20 817.36 268.93 818.18 268.79 818.58 C 244.98 790.88 221.73 762.68 198.22 734.72 C 173.72 705.78 149.61 676.51 124.98 647.68 L 124.88 647.21 L 124.76 646.63 C 136.00 629.87 146.95 612.92 158.21 596.18 C 178.75 565.68 198.60 534.71 219.26 504.28 Z" />
</g>
<g id="#35a2e0ff">
<path fill="#35a2e0" opacity="1.00" d=" M 219.80 503.62 C 242.64 505.77 265.34 509.31 288.21 510.97 L 288.69 510.81 C 293.50 549.55 298.37 588.30 303.27 627.04 C 304.36 637.87 306.41 648.61 306.97 659.50 C 305.45 657.17 303.89 654.86 302.58 652.41 C 275.08 602.77 247.13 553.36 219.80 503.62 Z" />
</g>
<g id="#0bf0eeff">
<path fill="#0bf0ee" opacity="1.00" d=" M 723.78 527.13 C 763.57 520.76 803.49 515.03 843.33 508.92 L 844.16 509.05 L 843.78 509.49 C 815.51 550.05 787.20 590.60 758.60 630.91 L 757.99 631.24 C 747.59 600.44 737.42 569.56 727.16 538.71 C 725.74 534.94 724.47 531.10 723.78 527.13 Z" />
</g>
<g id="#10e1e7ff">
<path fill="#10e1e7" opacity="1.00" d=" M 844.16 509.05 L 844.68 508.70 C 861.38 518.62 879.45 526.02 896.41 535.49 C 917.24 546.28 938.30 556.60 959.25 567.16 L 958.95 567.67 C 952.50 587.76 946.02 607.85 939.69 627.99 L 939.28 627.98 C 914.61 597.55 890.13 566.95 865.68 536.33 C 858.29 527.46 851.53 518.06 843.78 509.49 L 844.16 509.05 Z" />
</g>
<g id="#09e0f2ff">
<path fill="#09e0f2" opacity="1.00" d=" M 758.60 630.91 C 787.20 590.60 815.51 550.05 843.78 509.49 C 851.53 518.06 858.29 527.46 865.68 536.33 C 890.13 566.95 914.61 597.55 939.28 627.98 C 930.51 627.98 921.75 628.09 912.98 628.08 C 904.96 627.97 896.99 629.19 888.97 628.92 C 875.65 629.17 862.31 628.69 849.03 629.82 C 834.70 630.10 820.36 629.87 806.04 630.28 C 796.37 631.27 786.64 630.82 776.94 630.96 C 770.83 631.02 764.71 631.23 758.60 630.91 Z" />
</g>
<g id="#2da6d9ff">
<path fill="#2da6d9" opacity="1.00" d=" M 288.69 510.81 C 309.56 521.38 331.06 530.66 352.07 540.93 C 366.28 547.05 379.88 554.59 394.37 560.06 L 394.81 560.21 C 394.86 560.52 394.97 561.14 395.03 561.46 C 388.03 568.35 382.06 576.19 375.32 583.32 C 353.27 609.07 330.44 634.14 308.51 659.98 C 308.27 660.25 307.78 660.80 307.54 661.08 L 307.16 661.54 C 307.11 661.03 307.02 660.01 306.97 659.50 C 306.41 648.61 304.36 637.87 303.27 627.04 C 298.37 588.30 293.50 549.55 288.69 510.81 Z" />
</g>
<g id="#35a5e1ff">
<path fill="#35a5e1" opacity="1.00" d=" M 1135.43 557.42 C 1144.22 544.04 1153.18 530.77 1162.06 517.45 L 1162.41 517.94 C 1167.86 528.55 1172.36 539.62 1177.59 550.34 C 1193.68 585.89 1210.41 621.16 1226.32 656.78 C 1211.29 659.07 1196.07 659.63 1180.94 660.98 C 1146.64 664.12 1112.29 666.65 1077.98 669.74 C 1071.55 670.09 1065.17 671.30 1058.72 670.93 C 1059.44 669.73 1060.06 668.47 1060.78 667.26 C 1064.76 663.27 1067.37 658.24 1070.58 653.66 C 1092.50 621.80 1113.41 589.22 1135.43 557.42 Z" />
</g>
<g id="#0aece6ff">
<path fill="#0aece6" opacity="1.00" d=" M 723.18 527.40 L 723.78 527.13 C 724.47 531.10 725.74 534.94 727.16 538.71 C 737.42 569.56 747.59 600.44 757.99 631.24 C 757.07 631.34 756.17 631.37 755.26 631.40 C 751.66 627.24 746.37 625.26 742.03 622.04 C 714.64 604.84 687.32 587.52 659.94 570.31 L 660.03 569.56 C 681.18 555.66 702.15 541.47 723.18 527.40 Z" />
</g>
<g id="#5b65bdff">
<path fill="#5b65bd" opacity="1.00" d=" M 1380.38 542.42 C 1400.18 538.45 1420.03 534.65 1440.00 531.70 L 1440.00 599.51 C 1432.53 619.35 1425.84 639.49 1418.41 659.35 C 1415.36 668.39 1411.75 677.25 1409.04 686.41 C 1408.52 687.28 1408.01 688.15 1407.52 689.04 C 1392.26 653.05 1377.14 616.99 1361.99 580.95 C 1357.78 569.98 1352.09 559.51 1348.94 548.17 C 1359.39 546.07 1369.90 544.32 1380.38 542.42 Z" />
</g>
<g id="#5c66cbff">
<path fill="#5c66cb" opacity="1.00" d=" M 98.25 537.37 L 99.36 537.25 L 99.45 537.60 C 93.59 559.06 86.85 580.28 80.62 601.64 C 76.75 615.05 72.37 628.33 68.97 641.87 C 68.85 642.39 68.60 643.43 68.47 643.95 C 66.90 639.52 62.02 638.06 58.59 635.42 C 44.73 626.67 31.21 617.39 17.36 608.62 C 11.72 604.51 5.53 601.22 0.00 596.97 L 0.00 553.17 C 32.70 547.62 65.59 543.16 98.25 537.37 Z" />
</g>
<g id="#5678d1ff">
<path fill="#5678d1" opacity="1.00" d=" M 99.45 537.60 L 99.73 538.67 C 108.36 574.59 115.96 610.75 124.76 646.63 L 124.88 647.21 C 106.28 645.07 87.62 643.58 68.97 641.87 C 72.37 628.33 76.75 615.05 80.62 601.64 C 86.85 580.28 93.59 559.06 99.45 537.60 Z" />
</g>
<g id="#17cae2ff">
<path fill="#17cae2" opacity="1.00" d=" M 430.02 555.87 C 471.06 550.20 512.08 544.43 553.13 538.85 C 551.40 548.55 548.58 558.01 546.50 567.65 C 537.78 604.84 528.90 642.00 520.10 679.18 L 519.94 679.87 C 488.45 660.40 457.12 640.66 425.66 621.16 L 424.90 620.69 C 414.86 600.98 405.25 581.06 395.03 561.46 C 394.97 561.14 394.86 560.52 394.81 560.21 L 395.59 560.17 C 407.17 559.66 418.51 557.07 430.02 555.87 Z" />
</g>
<g id="#0fd7e9ff">
<path fill="#0fd7e9" opacity="1.00" d=" M 553.13 538.85 L 553.49 539.19 C 555.96 545.61 559.51 551.52 562.18 557.86 C 566.40 567.45 571.62 576.57 575.81 586.18 C 579.85 595.60 585.27 604.38 588.91 613.97 C 582.89 618.91 577.99 625.05 572.07 630.09 C 563.90 636.86 557.03 645.02 549.08 652.03 C 538.85 660.48 530.74 671.21 520.10 679.18 C 528.90 642.00 537.78 604.84 546.50 567.65 C 548.58 558.01 551.40 548.55 553.13 538.85 Z" />
</g>
<g id="#06eaefff">
<path fill="#06eaef" opacity="1.00" d=" M 553.49 539.19 C 581.83 547.20 610.09 555.49 638.41 563.60 C 645.30 565.99 652.54 567.26 659.32 569.99 C 636.14 584.70 612.53 598.71 589.46 613.58 L 588.91 613.97 C 585.27 604.38 579.85 595.60 575.81 586.18 C 571.62 576.57 566.40 567.45 562.18 557.86 C 559.51 551.52 555.96 545.61 553.49 539.19 Z" />
</g>
<g id="#5375c8ff">
<path fill="#5375c8" opacity="1.00" d=" M 1348.34 545.56 C 1348.45 546.05 1348.69 547.04 1348.80 547.53 L 1348.94 548.17 C 1352.09 559.51 1357.78 569.98 1361.99 580.95 C 1377.14 616.99 1392.26 653.05 1407.52 689.04 C 1391.35 688.91 1375.18 689.09 1359.01 689.07 C 1349.01 689.17 1338.98 688.63 1329.03 689.84 C 1313.57 690.04 1298.10 689.88 1282.65 690.01 C 1303.41 646.14 1323.55 601.98 1344.01 557.97 C 1345.57 555.09 1347.01 552.11 1347.82 548.92 L 1348.00 548.30 C 1348.08 547.62 1348.25 546.24 1348.34 545.56 Z" />
</g>
<g id="#4d80c9ff">
<path fill="#4d80c9" opacity="1.00" d=" M 1227.31 657.18 C 1267.40 621.00 1307.64 584.98 1347.82 548.92 C 1347.01 552.11 1345.57 555.09 1344.01 557.97 C 1323.55 601.98 1303.41 646.14 1282.65 690.01 L 1282.25 690.62 C 1273.52 684.09 1263.69 679.22 1254.40 673.57 C 1245.37 668.10 1235.96 663.22 1227.31 657.18 Z" />
</g>
<g id="#27b7ddff">
<path fill="#27b7dd" opacity="1.00" d=" M 375.32 583.32 C 382.06 576.19 388.03 568.35 395.03 561.46 C 405.25 581.06 414.86 600.98 424.90 620.69 C 413.53 624.98 401.84 628.33 390.41 632.44 C 371.16 639.36 351.60 645.36 332.35 652.27 C 324.36 654.73 316.65 658.05 308.51 659.98 C 330.44 634.14 353.27 609.07 375.32 583.32 Z" />
</g>
<g id="#1cc8deff">
<path fill="#1cc8de" opacity="1.00" d=" M 958.95 567.67 C 964.29 572.48 968.36 578.49 973.76 583.26 C 980.45 589.28 985.72 596.64 992.29 602.77 C 1000.73 610.67 1007.82 619.83 1016.23 627.76 C 1023.53 634.49 1029.47 642.50 1036.74 649.26 C 1044.08 656.13 1050.35 664.00 1057.40 671.16 C 1039.01 664.94 1020.98 657.69 1002.65 651.28 C 981.71 643.39 960.58 636.00 939.69 627.99 C 946.02 607.85 952.50 587.76 958.95 567.67 Z" />
</g>
<g id="#03f6f3ff">
<path fill="#03f6f3" opacity="1.00" d=" M 659.32 569.99 L 659.94 570.31 C 687.32 587.52 714.64 604.84 742.03 622.04 C 746.37 625.26 751.66 627.24 755.26 631.40 C 711.59 627.12 667.99 622.01 624.34 617.53 C 612.72 616.17 601.05 615.18 589.46 613.58 C 612.53 598.71 636.14 584.70 659.32 569.99 Z" />
</g>
<g id="#645ebbff">
<path fill="#645ebb" opacity="1.00" d=" M 0.00 596.97 C 5.53 601.22 11.72 604.51 17.36 608.62 C 31.21 617.39 44.73 626.67 58.59 635.42 C 62.02 638.06 66.90 639.52 68.47 643.95 C 65.33 655.05 63.43 666.45 60.59 677.62 C 55.03 702.93 49.50 728.26 43.67 753.51 L 43.22 754.28 C 28.99 746.36 14.39 739.15 0.00 731.52 L 0.00 596.97 Z" />
</g>
<g id="#5f64caff">
<path fill="#5f64ca" opacity="1.00" d=" M 1418.41 659.35 C 1425.84 639.49 1432.53 619.35 1440.00 599.51 L 1440.00 636.60 C 1433.94 645.80 1428.65 655.47 1422.68 664.72 C 1418.05 671.90 1414.24 679.61 1409.04 686.41 C 1411.75 677.25 1415.36 668.39 1418.41 659.35 Z" />
</g>
<g id="#18cae8ff">
<path fill="#18cae8" opacity="1.00" d=" M 572.07 630.09 C 577.99 625.05 582.89 618.91 588.91 613.97 L 589.46 613.58 L 589.49 614.58 C 589.87 630.08 590.99 645.53 591.97 661.00 C 591.80 668.69 593.25 676.30 593.12 684.00 C 594.31 692.61 593.69 701.33 594.85 709.95 C 594.88 715.98 595.36 721.98 595.95 727.98 C 595.68 736.03 597.30 743.97 597.10 752.02 C 598.05 760.98 597.99 770.00 598.93 778.97 C 598.58 787.33 600.26 795.59 600.05 803.96 C 600.69 811.11 601.55 818.26 600.68 825.44 C 573.48 777.23 546.84 728.70 519.82 680.39 L 519.94 679.87 L 520.10 679.18 C 530.74 671.21 538.85 660.48 549.08 652.03 C 557.03 645.02 563.90 636.86 572.07 630.09 Z" />
</g>
<g id="#0ee0f5ff">
<path fill="#0ee0f5" opacity="1.00" d=" M 589.46 613.58 C 601.05 615.18 612.72 616.17 624.34 617.53 C 667.99 622.01 711.59 627.12 755.26 631.40 C 756.17 631.37 757.07 631.34 757.99 631.24 L 758.60 630.91 C 758.52 631.38 758.36 632.32 758.28 632.78 C 753.52 670.84 749.86 709.04 745.36 747.13 C 742.98 770.69 740.01 794.18 737.73 817.75 C 734.83 814.76 732.35 811.43 730.08 807.96 C 683.14 743.56 636.51 678.92 589.49 614.58 L 589.46 613.58 Z" />
</g>
<g id="#19cde1ff">
<path fill="#19cde1" opacity="1.00" d=" M 591.97 661.00 C 590.99 645.53 589.87 630.08 589.49 614.58 C 636.51 678.92 683.14 743.56 730.08 807.96 C 732.35 811.43 734.83 814.76 737.73 817.75 L 737.88 818.13 C 737.49 818.14 736.69 818.15 736.29 818.15 C 727.16 817.83 718.08 819.20 708.97 819.64 C 684.63 820.94 660.34 823.02 636.01 824.33 C 624.64 825.51 613.14 825.34 601.83 826.92 L 601.12 827.06 C 601.01 826.65 600.79 825.84 600.68 825.44 C 601.55 818.26 600.69 811.11 600.05 803.96 C 600.26 795.59 598.58 787.33 598.93 778.97 C 597.99 770.00 598.05 760.98 597.10 752.02 C 597.30 743.97 595.68 736.03 595.95 727.98 C 595.36 721.98 594.88 715.98 594.85 709.95 C 593.69 701.33 594.31 692.61 593.12 684.00 C 593.25 676.30 591.80 668.69 591.97 661.00 Z" />
</g>
<g id="#2ea7e1ff">
<path fill="#2ea7e1" opacity="1.00" d=" M 390.41 632.44 C 401.84 628.33 413.53 624.98 424.90 620.69 C 425.25 627.14 426.20 633.56 426.00 640.04 C 425.65 649.07 427.37 658.01 427.01 667.04 C 426.73 675.04 428.33 682.97 428.00 690.98 C 427.67 699.36 429.22 707.67 428.96 716.05 C 428.67 724.38 430.19 732.65 430.00 740.99 C 429.94 745.70 430.18 750.42 430.63 755.12 C 431.39 762.93 430.52 770.80 431.48 778.60 C 432.47 786.67 431.57 794.81 432.40 802.89 C 433.09 810.07 433.22 817.31 432.82 824.51 C 410.12 795.09 387.65 765.50 364.90 736.11 C 345.92 710.99 326.46 686.24 307.54 661.08 C 307.78 660.80 308.27 660.25 308.51 659.98 C 316.65 658.05 324.36 654.73 332.35 652.27 C 351.60 645.36 371.16 639.36 390.41 632.44 Z" />
</g>
<g id="#2ab8e3ff">
<path fill="#2ab8e3" opacity="1.00" d=" M 424.90 620.69 L 425.66 621.16 C 427.23 628.20 429.86 634.91 432.36 641.66 C 449.70 691.89 467.55 741.94 484.91 792.16 C 485.69 794.23 486.68 796.22 487.52 798.28 L 487.64 798.79 C 478.22 802.07 469.82 807.65 460.64 811.49 C 451.15 815.37 442.46 821.00 432.82 824.51 C 433.22 817.31 433.09 810.07 432.40 802.89 C 431.57 794.81 432.47 786.67 431.48 778.60 C 430.52 770.80 431.39 762.93 430.63 755.12 C 430.18 750.42 429.94 745.70 430.00 740.99 C 430.19 732.65 428.67 724.38 428.96 716.05 C 429.22 707.67 427.67 699.36 428.00 690.98 C 428.33 682.97 426.73 675.04 427.01 667.04 C 427.37 658.01 425.65 649.07 426.00 640.04 C 426.20 633.56 425.25 627.14 424.90 620.69 Z" />
</g>
<g id="#21bddfff">
<path fill="#21bddf" opacity="1.00" d=" M 425.66 621.16 C 457.12 640.66 488.45 660.40 519.94 679.87 L 519.82 680.39 C 508.92 719.65 498.44 759.03 487.52 798.28 C 486.68 796.22 485.69 794.23 484.91 792.16 C 467.55 741.94 449.70 691.89 432.36 641.66 C 429.86 634.91 427.23 628.20 425.66 621.16 Z" />
</g>
<g id="#12d0f4ff">
<path fill="#12d0f4" opacity="1.00" d=" M 888.97 628.92 C 896.99 629.19 904.96 627.97 912.98 628.08 C 921.75 628.09 930.51 627.98 939.28 627.98 C 936.19 636.61 931.46 644.52 927.96 652.97 C 923.72 660.94 920.40 669.33 916.31 677.37 C 912.68 684.20 910.23 691.62 906.20 698.26 C 885.62 689.64 865.47 680.04 845.02 671.10 C 818.22 659.18 791.52 647.07 764.72 635.16 C 762.80 634.37 760.82 633.75 758.88 633.05 L 758.28 632.78 C 758.36 632.32 758.52 631.38 758.60 630.91 C 764.71 631.23 770.83 631.02 776.94 630.96 C 786.64 630.82 796.37 631.27 806.04 630.28 C 820.36 629.87 834.70 630.10 849.03 629.82 C 862.31 628.69 875.65 629.17 888.97 628.92 Z" />
</g>
<g id="#1ec2e5ff">
<path fill="#1ec2e5" opacity="1.00" d=" M 939.28 627.98 L 939.69 627.99 C 947.01 659.69 955.65 691.07 963.43 722.65 C 967.04 736.39 969.98 750.29 974.02 763.92 C 974.49 765.94 975.40 768.16 974.45 770.20 C 968.07 763.97 962.80 756.71 956.20 750.70 C 948.88 744.03 943.08 735.93 935.75 729.26 C 930.32 724.31 926.09 718.25 920.74 713.22 C 915.64 708.48 911.13 703.18 906.09 698.41 L 906.20 698.26 C 910.23 691.62 912.68 684.20 916.31 677.37 C 920.40 669.33 923.72 660.94 927.96 652.97 C 931.46 644.52 936.19 636.61 939.28 627.98 Z" />
</g>
<g id="#25badcff">
<path fill="#25badc" opacity="1.00" d=" M 939.69 627.99 C 960.58 636.00 981.71 643.39 1002.65 651.28 C 1020.98 657.69 1039.01 664.94 1057.40 671.16 L 1058.30 671.61 C 1047.19 685.68 1035.25 699.10 1023.94 713.01 C 1013.22 725.61 1002.69 738.38 992.09 751.08 C 986.52 757.55 980.94 764.02 975.70 770.76 L 975.17 771.04 C 974.59 770.87 973.43 770.54 972.86 770.37 L 974.45 770.20 C 975.40 768.16 974.49 765.94 974.02 763.92 C 969.98 750.29 967.04 736.39 963.43 722.65 C 955.65 691.07 947.01 659.69 939.69 627.99 Z" />
</g>
<g id="#17cfe3ff">
<path fill="#17cfe3" opacity="1.00" d=" M 758.28 632.78 L 758.88 633.05 C 768.86 644.45 778.28 656.34 787.99 667.97 C 809.82 693.99 831.23 720.34 853.18 746.26 C 814.88 770.37 776.18 793.87 737.73 817.75 C 740.01 794.18 742.98 770.69 745.36 747.13 C 749.86 709.04 753.52 670.84 758.28 632.78 Z" />
</g>
<g id="#13d6e9ff">
<path fill="#13d6e9" opacity="1.00" d=" M 758.88 633.05 C 760.82 633.75 762.80 634.37 764.72 635.16 C 791.52 647.07 818.22 659.18 845.02 671.10 C 865.47 680.04 885.62 689.64 906.20 698.26 L 906.09 698.41 C 897.54 706.43 888.66 714.12 880.10 722.14 C 871.12 729.94 862.67 738.36 853.56 746.01 L 853.18 746.26 C 831.23 720.34 809.82 693.99 787.99 667.97 C 778.28 656.34 768.86 644.45 758.88 633.05 Z" />
</g>
<g id="#625ebdff">
<path fill="#625ebd" opacity="1.00" d=" M 1422.68 664.72 C 1428.65 655.47 1433.94 645.80 1440.00 636.60 L 1440.00 709.21 C 1432.61 704.88 1425.26 700.49 1417.97 696.01 C 1414.46 693.71 1410.92 691.44 1407.07 689.76 L 1407.52 689.04 C 1408.01 688.15 1408.52 687.28 1409.04 686.41 C 1414.24 679.61 1418.05 671.90 1422.68 664.72 Z" />
</g>
<g id="#596ec7ff">
<path fill="#596ec7" opacity="1.00" d=" M 68.97 641.87 C 87.62 643.58 106.28 645.07 124.88 647.21 L 124.98 647.68 C 125.03 653.12 124.78 658.57 125.26 664.01 C 126.38 674.99 125.68 686.06 126.83 697.05 C 126.89 706.38 127.31 715.68 127.94 724.99 C 127.57 736.35 129.28 747.64 129.02 758.99 C 129.07 765.33 130.02 771.61 129.99 777.95 C 129.98 783.10 130.05 788.26 130.54 793.39 C 131.32 801.46 130.65 809.60 131.48 817.67 C 131.80 820.78 131.88 823.90 132.00 827.03 L 132.08 827.79 L 131.53 827.33 C 127.07 822.45 121.62 818.68 116.64 814.38 C 92.35 794.05 67.92 773.89 43.67 753.51 C 49.50 728.26 55.03 702.93 60.59 677.62 C 63.43 666.45 65.33 655.05 68.47 643.95 C 68.60 643.43 68.85 642.39 68.97 641.87 Z" />
</g>
<g id="#5080c7ff">
<path fill="#5080c7" opacity="1.00" d=" M 124.98 647.68 C 149.61 676.51 173.72 705.78 198.22 734.72 C 221.73 762.68 244.98 790.88 268.79 818.58 L 268.99 818.96 L 268.26 819.09 C 260.46 818.50 252.74 819.82 244.97 820.08 C 207.31 822.52 169.66 824.57 132.00 827.03 C 131.88 823.90 131.80 820.78 131.48 817.67 C 130.65 809.60 131.32 801.46 130.54 793.39 C 130.05 788.26 129.98 783.10 129.99 777.95 C 130.02 771.61 129.07 765.33 129.02 758.99 C 129.28 747.64 127.57 736.35 127.94 724.99 C 127.31 715.68 126.89 706.38 126.83 697.05 C 125.68 686.06 126.38 674.99 125.26 664.01 C 124.78 658.57 125.03 653.12 124.98 647.68 Z" />
</g>
<g id="#37a3daff">
<path fill="#37a3da" opacity="1.00" d=" M 1180.94 660.98 C 1196.07 659.63 1211.29 659.07 1226.32 656.78 L 1227.03 657.06 L 1226.82 657.77 C 1221.42 663.04 1215.43 667.69 1210.25 673.21 C 1204.78 679.08 1198.36 683.93 1192.79 689.70 C 1185.26 697.55 1176.67 704.28 1169.24 712.23 C 1161.60 718.89 1154.49 726.11 1147.16 733.09 C 1139.86 739.16 1133.65 746.37 1126.42 752.50 C 1120.91 757.28 1116.05 762.73 1110.64 767.62 C 1103.93 773.54 1097.47 779.75 1091.33 786.27 L 1090.83 786.24 C 1081.96 755.04 1073.16 723.83 1064.32 692.62 C 1062.41 685.40 1059.76 678.36 1058.72 670.93 C 1065.17 671.30 1071.55 670.09 1077.98 669.74 C 1112.29 666.65 1146.64 664.12 1180.94 660.98 Z" />
</g>
<g id="#4b89cfff">
<path fill="#4b89cf" opacity="1.00" d=" M 1227.03 657.06 L 1227.31 657.18 C 1235.96 663.22 1245.37 668.10 1254.40 673.57 C 1263.69 679.22 1273.52 684.09 1282.25 690.62 C 1258.11 719.67 1233.69 748.49 1209.44 777.45 C 1204.83 783.20 1199.91 788.69 1195.07 794.25 C 1196.04 786.12 1198.57 778.31 1200.35 770.35 C 1209.05 732.80 1218.13 695.32 1226.82 657.77 L 1227.03 657.06 Z" />
</g>
<g id="#4393c9ff">
<path fill="#4393c9" opacity="1.00" d=" M 1210.25 673.21 C 1215.43 667.69 1221.42 663.04 1226.82 657.77 C 1218.13 695.32 1209.05 732.80 1200.35 770.35 C 1198.57 778.31 1196.04 786.12 1195.07 794.25 L 1194.87 795.08 L 1193.41 795.28 C 1169.57 793.69 1145.81 791.11 1121.99 789.22 C 1111.77 788.18 1101.51 787.62 1091.33 786.27 C 1097.47 779.75 1103.93 773.54 1110.64 767.62 C 1116.05 762.73 1120.91 757.28 1126.42 752.50 C 1133.65 746.37 1139.86 739.16 1147.16 733.09 C 1154.49 726.11 1161.60 718.89 1169.24 712.23 C 1176.67 704.28 1185.26 697.55 1192.79 689.70 C 1198.36 683.93 1204.78 679.08 1210.25 673.21 Z" />
</g>
<g id="#3899ceff">
<path fill="#3899ce" opacity="1.00" d=" M 307.16 661.54 L 307.54 661.08 C 326.46 686.24 345.92 710.99 364.90 736.11 C 387.65 765.50 410.12 795.09 432.82 824.51 L 433.35 824.99 C 423.88 825.45 414.50 823.45 405.03 823.98 C 396.67 824.49 388.40 822.66 380.05 822.97 C 375.15 823.06 370.23 823.09 365.36 822.53 C 356.06 821.39 346.67 822.59 337.37 821.52 C 328.35 820.44 319.24 821.58 310.21 820.65 C 299.53 819.27 288.73 820.72 278.04 819.35 C 275.15 818.73 271.19 819.87 269.34 816.95 C 271.41 811.42 272.17 805.52 273.79 799.86 C 280.53 773.35 286.50 746.65 293.23 720.14 C 297.57 700.53 303.01 681.19 307.16 661.54 Z" />
</g>
<g id="#2daee0ff">
<path fill="#2daee0" opacity="1.00" d=" M 1058.30 671.61 L 1058.72 670.93 C 1059.76 678.36 1062.41 685.40 1064.32 692.62 C 1073.16 723.83 1081.96 755.04 1090.83 786.24 C 1052.43 781.27 1014.09 775.79 975.70 770.76 C 980.94 764.02 986.52 757.55 992.09 751.08 C 1002.69 738.38 1013.22 725.61 1023.94 713.01 C 1035.25 699.10 1047.19 685.68 1058.30 671.61 Z" />
</g>
<g id="#24b5d7ff">
<path fill="#24b5d7" opacity="1.00" d=" M 487.52 798.28 C 498.44 759.03 508.92 719.65 519.82 680.39 C 546.84 728.70 573.48 777.23 600.68 825.44 C 600.79 825.84 601.01 826.65 601.12 827.06 L 600.53 827.17 C 587.20 823.23 573.61 820.28 560.17 816.81 C 536.01 810.71 511.80 804.83 487.64 798.79 L 487.52 798.28 Z" />
</g>
<g id="#5871bfff">
<path fill="#5871bf" opacity="1.00" d=" M 1329.03 689.84 C 1338.98 688.63 1349.01 689.17 1359.01 689.07 C 1375.18 689.09 1391.35 688.91 1407.52 689.04 L 1407.07 689.76 C 1393.32 705.73 1378.57 720.85 1364.87 736.88 L 1364.42 737.41 L 1363.39 736.87 C 1355.28 731.76 1346.68 727.47 1338.45 722.55 C 1321.04 712.60 1303.61 702.67 1286.19 692.76 C 1284.94 691.92 1283.78 690.95 1282.65 690.01 C 1298.10 689.88 1313.57 690.04 1329.03 689.84 Z" />
</g>
<g id="#527dc4ff">
<path fill="#527dc4" opacity="1.00" d=" M 1282.25 690.62 L 1282.65 690.01 C 1283.78 690.95 1284.94 691.92 1286.19 692.76 C 1303.61 702.67 1321.04 712.60 1338.45 722.55 C 1346.68 727.47 1355.28 731.76 1363.39 736.87 C 1353.84 740.82 1343.93 743.78 1334.17 747.15 C 1322.85 751.38 1311.32 754.98 1299.91 758.94 C 1291.35 762.19 1282.61 764.95 1273.93 767.85 C 1247.64 777.11 1221.21 785.98 1194.87 795.08 L 1195.07 794.25 C 1199.91 788.69 1204.83 783.20 1209.44 777.45 C 1233.69 748.49 1258.11 719.67 1282.25 690.62 Z" />
</g>
<g id="#5f5ecbff">
<path fill="#5f5ecb" opacity="1.00" d=" M 1407.07 689.76 C 1410.92 691.44 1414.46 693.71 1417.97 696.01 C 1425.26 700.49 1432.61 704.88 1440.00 709.21 L 1440.00 747.15 C 1415.02 743.22 1389.80 741.01 1364.87 736.88 C 1378.57 720.85 1393.32 705.73 1407.07 689.76 Z" />
</g>
<g id="#21c1dbff">
<path fill="#21c1db" opacity="1.00" d=" M 880.10 722.14 C 888.66 714.12 897.54 706.43 906.09 698.41 C 911.13 703.18 915.64 708.48 920.74 713.22 C 926.09 718.25 930.32 724.31 935.75 729.26 C 943.08 735.93 948.88 744.03 956.20 750.70 C 962.80 756.71 968.07 763.97 974.45 770.20 L 972.86 770.37 C 964.35 768.03 955.56 766.99 946.96 765.04 C 921.96 760.09 896.97 755.15 871.99 750.09 C 866.20 748.88 860.23 748.46 854.67 746.33 C 854.40 746.25 853.84 746.09 853.56 746.01 C 862.67 738.36 871.12 729.94 880.10 722.14 Z" />
</g>
<g id="#5f65c6ff">
<path fill="#5f65c6" opacity="1.00" d=" M 0.00 731.52 C 14.39 739.15 28.99 746.36 43.22 754.28 C 40.16 757.23 37.30 760.37 34.12 763.18 C 22.02 773.06 12.44 785.69 0.00 795.19 L 0.00 731.52 Z" />
</g>
<g id="#576fc7ff">
<path fill="#576fc7" opacity="1.00" d=" M 1334.17 747.15 C 1343.93 743.78 1353.84 740.82 1363.39 736.87 L 1364.42 737.41 C 1336.80 788.07 1309.45 838.90 1281.98 889.63 L 1281.37 890.35 C 1276.52 883.06 1269.43 877.76 1264.09 870.90 C 1260.71 866.66 1256.36 863.34 1252.96 859.14 C 1250.56 856.16 1248.01 853.30 1245.20 850.71 C 1241.23 847.02 1238.24 842.43 1234.25 838.77 C 1231.47 836.20 1228.94 833.38 1226.56 830.45 C 1222.82 825.89 1218.23 822.13 1214.35 817.70 C 1208.55 810.68 1201.94 804.40 1195.67 797.81 C 1195.21 797.09 1194.76 796.38 1194.30 795.69 L 1193.41 795.28 L 1194.87 795.08 C 1221.21 785.98 1247.64 777.11 1273.93 767.85 C 1282.61 764.95 1291.35 762.19 1299.91 758.94 C 1311.32 754.98 1322.85 751.38 1334.17 747.15 Z" />
</g>
<g id="#635ec2ff">
<path fill="#635ec2" opacity="1.00" d=" M 1364.42 737.41 L 1364.87 736.88 C 1389.80 741.01 1415.02 743.22 1440.00 747.15 L 1440.00 772.58 C 1432.78 789.71 1426.50 807.21 1419.45 824.41 C 1410.92 846.23 1402.54 868.11 1393.92 889.90 C 1391.90 896.07 1388.74 901.82 1387.12 908.11 C 1387.09 908.54 1387.01 909.38 1386.97 909.80 C 1383.03 907.64 1378.48 907.47 1374.17 906.72 C 1343.50 900.70 1312.63 895.70 1281.98 889.63 C 1309.45 838.90 1336.80 788.07 1364.42 737.41 Z" />
</g>
<g id="#26b8daff">
<path fill="#26b8da" opacity="1.00" d=" M 853.18 746.26 L 853.56 746.01 C 853.84 746.09 854.40 746.25 854.67 746.33 C 854.32 748.24 854.09 750.23 854.70 752.13 C 867.11 802.86 879.11 853.69 891.48 904.44 C 884.86 901.76 879.00 897.62 872.69 894.33 C 827.80 869.32 783.14 843.87 738.20 818.96 L 737.88 818.13 L 737.73 817.75 C 776.18 793.87 814.88 770.37 853.18 746.26 Z" />
</g>
<g id="#29b2dbff">
<path fill="#29b2db" opacity="1.00" d=" M 854.70 752.13 C 854.09 750.23 854.32 748.24 854.67 746.33 C 860.23 748.46 866.20 748.88 871.99 750.09 C 896.97 755.15 921.96 760.09 946.96 765.04 C 955.56 766.99 964.35 768.03 972.86 770.37 C 973.43 770.54 974.59 770.87 975.17 771.04 L 974.99 771.86 C 947.01 815.96 919.38 860.29 891.48 904.44 C 879.11 853.69 867.11 802.86 854.70 752.13 Z" />
</g>
<g id="#5f5ec8ff">
<path fill="#5f5ec8" opacity="1.00" d=" M 43.22 754.28 L 43.67 753.51 C 46.55 788.09 49.71 822.65 52.61 857.23 C 51.01 857.02 49.43 856.65 47.92 856.08 C 32.00 849.53 15.93 843.33 0.00 836.81 L 0.00 795.19 C 12.44 785.69 22.02 773.06 34.12 763.18 C 37.30 760.37 40.16 757.23 43.22 754.28 Z" />
</g>
<g id="#6565c6ff">
<path fill="#6565c6" opacity="1.00" d=" M 43.67 753.51 C 67.92 773.89 92.35 794.05 116.64 814.38 C 121.62 818.68 127.07 822.45 131.53 827.33 C 105.15 837.08 78.94 847.32 52.61 857.23 C 49.71 822.65 46.55 788.09 43.67 753.51 Z" />
</g>
<g id="#37a4deff">
<path fill="#37a4de" opacity="1.00" d=" M 975.17 771.04 L 975.70 770.76 C 1014.09 775.79 1052.43 781.27 1090.83 786.24 C 1082.32 806.19 1073.52 826.03 1064.91 845.94 C 1057.95 862.35 1050.28 878.47 1043.83 895.09 C 1043.57 895.24 1043.06 895.54 1042.80 895.69 C 1016.88 898.84 990.93 901.82 965.01 905.00 C 955.90 905.85 946.86 907.44 937.73 907.92 C 942.74 888.15 948.60 868.61 953.88 848.92 C 959.75 828.35 965.28 807.69 971.10 787.12 C 972.54 782.07 974.37 777.11 974.99 771.86 L 975.17 771.04 Z" />
</g>
<g id="#30a0e1ff">
<path fill="#30a0e1" opacity="1.00" d=" M 891.48 904.44 C 919.38 860.29 947.01 815.96 974.99 771.86 C 974.37 777.11 972.54 782.07 971.10 787.12 C 965.28 807.69 959.75 828.35 953.88 848.92 C 948.60 868.61 942.74 888.15 937.73 907.92 C 937.48 908.20 936.98 908.76 936.74 909.04 C 930.57 907.67 924.24 907.62 917.99 906.95 C 908.94 906.25 899.93 905.03 890.86 904.73 L 891.48 904.44 Z" />
</g>
<g id="#5d5ec3ff">
<path fill="#5d5ec3" opacity="1.00" d=" M 1419.45 824.41 C 1426.50 807.21 1432.78 789.71 1440.00 772.58 L 1440.00 901.79 C 1422.29 903.14 1404.81 906.60 1387.12 908.11 C 1388.74 901.82 1391.90 896.07 1393.92 889.90 C 1402.54 868.11 1410.92 846.23 1419.45 824.41 Z" />
</g>
<g id="#3f8ddaff">
<path fill="#3f8dda" opacity="1.00" d=" M 1090.83 786.24 L 1091.33 786.27 C 1101.51 787.62 1111.77 788.18 1121.99 789.22 C 1145.81 791.11 1169.57 793.69 1193.41 795.28 L 1194.30 795.69 C 1180.45 804.26 1167.25 813.85 1153.46 822.52 C 1120.78 844.07 1088.23 865.84 1055.65 887.56 C 1051.81 890.23 1047.88 892.76 1043.83 895.09 C 1050.28 878.47 1057.95 862.35 1064.91 845.94 C 1073.52 826.03 1082.32 806.19 1090.83 786.24 Z" />
</g>
<g id="#4d81d6ff">
<path fill="#4d81d6" opacity="1.00" d=" M 1153.46 822.52 C 1167.25 813.85 1180.45 804.26 1194.30 795.69 C 1194.76 796.38 1195.21 797.09 1195.67 797.81 C 1198.34 805.92 1202.54 813.41 1205.64 821.36 C 1220.38 854.64 1235.26 887.86 1249.90 921.18 C 1238.65 920.83 1227.55 918.78 1216.39 917.56 C 1192.41 914.26 1168.35 911.72 1144.36 908.55 C 1119.72 905.87 1095.21 902.10 1070.57 899.46 C 1061.34 898.00 1052.01 897.26 1042.80 895.69 C 1043.06 895.54 1043.57 895.24 1043.83 895.09 C 1047.88 892.76 1051.81 890.23 1055.65 887.56 C 1088.23 865.84 1120.78 844.07 1153.46 822.52 Z" />
</g>
<g id="#5876ceff">
<path fill="#5876ce" opacity="1.00" d=" M 1195.67 797.81 C 1201.94 804.40 1208.55 810.68 1214.35 817.70 C 1218.23 822.13 1222.82 825.89 1226.56 830.45 C 1228.94 833.38 1231.47 836.20 1234.25 838.77 C 1238.24 842.43 1241.23 847.02 1245.20 850.71 C 1248.01 853.30 1250.56 856.16 1252.96 859.14 C 1256.36 863.34 1260.71 866.66 1264.09 870.90 C 1269.43 877.76 1276.52 883.06 1281.37 890.35 C 1270.88 900.72 1260.18 910.93 1250.29 921.89 L 1249.90 921.18 C 1235.26 887.86 1220.38 854.64 1205.64 821.36 C 1202.54 813.41 1198.34 805.92 1195.67 797.81 Z" />
</g>
<g id="#2fa5e2ff">
<path fill="#2fa5e2" opacity="1.00" d=" M 460.64 811.49 C 469.82 807.65 478.22 802.07 487.64 798.79 C 495.93 821.36 505.44 843.47 514.12 865.89 L 512.81 865.86 C 496.28 858.03 480.38 848.99 463.95 840.96 C 453.74 835.65 443.16 831.02 433.35 824.99 L 432.82 824.51 C 442.46 821.00 451.15 815.37 460.64 811.49 Z" />
</g>
<g id="#2eb4d9ff">
<path fill="#2eb4d9" opacity="1.00" d=" M 487.64 798.79 C 511.80 804.83 536.01 810.71 560.17 816.81 C 573.61 820.28 587.20 823.23 600.53 827.17 C 583.56 835.13 566.31 842.48 549.30 850.35 C 538.11 855.64 526.55 860.16 515.57 865.90 C 515.21 865.90 514.48 865.89 514.12 865.89 C 505.44 843.47 495.93 821.36 487.64 798.79 Z" />
</g>
<g id="#3f8fceff">
<path fill="#3f8fce" opacity="1.00" d=" M 268.79 818.58 C 268.93 818.18 269.20 817.36 269.34 816.95 C 271.19 819.87 275.15 818.73 278.04 819.35 C 288.73 820.72 299.53 819.27 310.21 820.65 C 319.24 821.58 328.35 820.44 337.37 821.52 C 346.67 822.59 356.06 821.39 365.36 822.53 C 370.23 823.09 375.15 823.06 380.05 822.97 C 388.40 822.66 396.67 824.49 405.03 823.98 C 414.50 823.45 423.88 825.45 433.35 824.99 C 428.39 863.30 424.03 901.69 419.03 940.00 L 386.21 940.00 C 383.17 936.59 380.56 932.81 377.22 929.68 C 373.54 926.31 370.90 921.94 366.85 918.97 C 360.70 913.51 354.92 907.61 349.69 901.28 C 336.33 887.66 322.61 874.38 309.37 860.65 C 302.30 852.40 294.36 844.99 286.74 837.27 C 281.15 831.76 275.83 825.98 269.97 820.76 C 269.73 820.31 269.24 819.41 268.99 818.96 L 268.79 818.58 Z" />
</g>
<g id="#2cb4e6ff">
<path fill="#2cb4e6" opacity="1.00" d=" M 736.29 818.15 C 736.69 818.15 737.49 818.14 737.88 818.13 L 738.20 818.96 C 736.17 832.23 737.29 845.69 737.03 859.06 C 736.65 872.37 737.71 885.73 736.17 898.98 C 735.81 912.65 736.12 926.33 736.00 940.00 L 727.47 940.00 C 704.08 920.53 680.43 901.36 656.96 881.99 C 651.77 877.97 647.01 873.42 641.52 869.80 L 641.09 869.48 C 650.31 865.57 658.65 859.93 667.69 855.65 C 680.35 848.60 693.16 841.82 705.90 834.90 C 715.97 829.20 726.50 824.31 736.29 818.15 Z" />
</g>
<g id="#5676d0ff">
<path fill="#5676d0" opacity="1.00" d=" M 244.97 820.08 C 252.74 819.82 260.46 818.50 268.26 819.09 C 261.12 824.16 253.41 828.35 245.99 832.98 C 225.69 845.75 205.08 858.03 184.79 870.81 L 184.42 871.37 C 166.88 856.96 149.43 842.43 132.08 827.79 L 132.00 827.03 C 169.66 824.57 207.31 822.52 244.97 820.08 Z" />
</g>
<g id="#5178c4ff">
<path fill="#5178c4" opacity="1.00" d=" M 268.26 819.09 L 268.99 818.96 C 269.24 819.41 269.73 820.31 269.97 820.76 C 275.11 838.08 280.87 855.21 286.62 872.35 C 291.87 887.86 296.52 903.57 301.86 919.05 C 303.15 922.70 304.27 926.42 305.30 930.16 C 300.38 927.40 295.05 925.53 290.01 923.02 C 275.36 915.64 260.67 908.35 246.00 901.02 C 231.81 894.88 218.23 887.46 204.35 880.67 C 197.92 877.20 191.08 874.54 184.79 870.81 C 205.08 858.03 225.69 845.75 245.99 832.98 C 253.41 828.35 261.12 824.16 268.26 819.09 Z" />
</g>
<g id="#30b1e2ff">
<path fill="#30b1e2" opacity="1.00" d=" M 738.20 818.96 C 783.14 843.87 827.80 869.32 872.69 894.33 C 879.00 897.62 884.86 901.76 891.48 904.44 L 890.86 904.73 C 881.15 906.63 871.78 909.86 862.18 912.21 C 837.55 918.90 812.93 925.61 788.32 932.35 C 779.40 934.95 770.27 936.86 761.52 940.00 L 736.00 940.00 C 736.12 926.33 735.81 912.65 736.17 898.98 C 737.71 885.73 736.65 872.37 737.03 859.06 C 737.29 845.69 736.17 832.23 738.20 818.96 Z" />
</g>
<g id="#478ac5ff">
<path fill="#478ac5" opacity="1.00" d=" M 269.97 820.76 C 275.83 825.98 281.15 831.76 286.74 837.27 C 294.36 844.99 302.30 852.40 309.37 860.65 C 322.61 874.38 336.33 887.66 349.69 901.28 C 354.92 907.61 360.70 913.51 366.85 918.97 C 354.77 922.21 342.26 923.50 330.02 926.00 C 321.72 927.05 313.64 929.42 305.30 930.16 C 304.27 926.42 303.15 922.70 301.86 919.05 C 296.52 903.57 291.87 887.86 286.62 872.35 C 280.87 855.21 275.11 838.08 269.97 820.76 Z" />
</g>
<g id="#3ca1d6ff">
<path fill="#3ca1d6" opacity="1.00" d=" M 433.35 824.99 C 443.16 831.02 453.74 835.65 463.95 840.96 C 480.38 848.99 496.28 858.03 512.81 865.86 L 513.73 866.55 C 508.77 871.66 504.29 877.23 499.23 882.25 C 493.84 887.54 489.18 893.54 483.72 898.77 C 478.07 904.10 473.45 910.40 467.77 915.70 C 462.22 920.88 457.82 927.12 452.24 932.28 C 449.70 934.61 447.54 937.31 445.38 940.00 L 419.03 940.00 C 424.03 901.69 428.39 863.30 433.35 824.99 Z" />
</g>
<g id="#2caae5ff">
<path fill="#2caae5" opacity="1.00" d=" M 600.53 827.17 L 601.12 827.06 L 601.83 826.92 C 605.02 831.73 609.19 835.73 613.29 839.75 C 618.41 844.65 622.55 850.47 627.78 855.27 C 632.57 859.67 636.25 865.13 641.09 869.48 L 641.52 869.80 C 633.33 870.61 625.21 868.74 617.03 869.00 C 608.87 868.86 600.69 869.37 592.57 868.46 C 580.03 867.36 567.39 868.76 554.87 867.40 C 541.80 866.15 528.54 868.21 515.57 865.90 C 526.55 860.16 538.11 855.64 549.30 850.35 C 566.31 842.48 583.56 835.13 600.53 827.17 Z" />
</g>
<g id="#5f61baff">
<path fill="#5f61ba" opacity="1.00" d=" M 52.61 857.23 C 78.94 847.32 105.15 837.08 131.53 827.33 L 132.08 827.79 C 127.47 847.41 124.01 867.29 119.88 887.02 C 116.23 904.66 113.00 922.40 109.13 940.00 L 0.00 940.00 L 0.00 836.81 C 15.93 843.33 32.00 849.53 47.92 856.08 C 49.43 856.65 51.01 857.02 52.61 857.23 Z" />
</g>
<g id="#6266c8ff">
<path fill="#6266c8" opacity="1.00" d=" M 132.08 827.79 C 149.43 842.43 166.88 856.96 184.42 871.37 C 184.10 872.38 183.82 873.43 183.53 874.48 C 181.60 874.48 180.45 876.05 179.38 877.42 C 167.63 892.33 156.00 907.33 144.09 922.12 C 139.27 928.03 134.94 934.35 129.81 940.00 L 109.13 940.00 C 113.00 922.40 116.23 904.66 119.88 887.02 C 124.01 867.29 127.47 847.41 132.08 827.79 Z" />
</g>
<g id="#35a4dcff">
<path fill="#35a4dc" opacity="1.00" d=" M 512.81 865.86 L 514.12 865.89 C 514.48 865.89 515.21 865.90 515.57 865.90 C 528.54 868.21 541.80 866.15 554.87 867.40 C 567.39 868.76 580.03 867.36 592.57 868.46 C 600.69 869.37 608.87 868.86 617.03 869.00 C 625.21 868.74 633.33 870.61 641.52 869.80 C 637.30 882.90 631.98 895.61 627.59 908.64 C 623.75 919.10 620.11 929.64 616.01 940.00 L 556.17 940.00 C 549.19 926.79 541.32 914.09 534.07 901.04 C 529.01 891.52 523.17 882.44 518.07 872.96 C 516.92 870.86 515.55 868.90 514.09 867.02 L 513.73 866.55 L 512.81 865.86 Z" />
</g>
<g id="#3e8dc9ff">
<path fill="#3e8dc9" opacity="1.00" d=" M 513.73 866.55 L 514.09 867.02 C 514.54 875.39 512.83 883.65 512.86 892.01 C 511.91 899.96 512.08 907.99 511.16 915.94 C 511.04 923.98 509.57 931.95 510.03 940.00 L 445.38 940.00 C 447.54 937.31 449.70 934.61 452.24 932.28 C 457.82 927.12 462.22 920.88 467.77 915.70 C 473.45 910.40 478.07 904.10 483.72 898.77 C 489.18 893.54 493.84 887.54 499.23 882.25 C 504.29 877.23 508.77 871.66 513.73 866.55 Z" />
</g>
<g id="#3c92d1ff">
<path fill="#3c92d1" opacity="1.00" d=" M 514.09 867.02 C 515.55 868.90 516.92 870.86 518.07 872.96 C 523.17 882.44 529.01 891.52 534.07 901.04 C 541.32 914.09 549.19 926.79 556.17 940.00 L 510.03 940.00 C 509.57 931.95 511.04 923.98 511.16 915.94 C 512.08 907.99 511.91 899.96 512.86 892.01 C 512.83 883.65 514.54 875.39 514.09 867.02 Z" />
</g>
<g id="#359bd5ff">
<path fill="#359bd5" opacity="1.00" d=" M 641.52 869.80 C 647.01 873.42 651.77 877.97 656.96 881.99 C 680.43 901.36 704.08 920.53 727.47 940.00 L 616.01 940.00 C 620.11 929.64 623.75 919.10 627.59 908.64 C 631.98 895.61 637.30 882.90 641.52 869.80 Z" />
</g>
<g id="#5872c6ff">
<path fill="#5872c6" opacity="1.00" d=" M 184.42 871.37 L 184.79 870.81 C 191.08 874.54 197.92 877.20 204.35 880.67 C 218.23 887.46 231.81 894.88 246.00 901.02 C 260.67 908.35 275.36 915.64 290.01 923.02 C 295.05 925.53 300.38 927.40 305.30 930.16 C 305.88 933.44 306.40 936.73 307.12 940.00 L 163.05 940.00 C 170.00 918.20 176.55 896.26 183.53 874.48 C 183.82 873.43 184.10 872.38 184.42 871.37 Z" />
</g>
<g id="#6563bbff">
<path fill="#6563bb" opacity="1.00" d=" M 179.38 877.42 C 180.45 876.05 181.60 874.48 183.53 874.48 C 176.55 896.26 170.00 918.20 163.05 940.00 L 129.81 940.00 C 134.94 934.35 139.27 928.03 144.09 922.12 C 156.00 907.33 167.63 892.33 179.38 877.42 Z" />
</g>
<g id="#5d61c9ff">
<path fill="#5d61c9" opacity="1.00" d=" M 1281.37 890.35 L 1281.98 889.63 C 1312.63 895.70 1343.50 900.70 1374.17 906.72 C 1378.48 907.47 1383.03 907.64 1386.97 909.80 C 1387.15 919.88 1388.17 929.96 1389.18 940.00 L 1248.03 940.00 C 1249.22 934.03 1249.79 927.95 1250.29 921.89 C 1260.18 910.93 1270.88 900.72 1281.37 890.35 Z" />
</g>
<g id="#4591d2ff">
<path fill="#4591d2" opacity="1.00" d=" M 965.01 905.00 C 990.93 901.82 1016.88 898.84 1042.80 895.69 C 1044.12 907.44 1043.72 919.28 1044.92 931.04 C 1045.09 934.02 1045.06 937.01 1045.04 940.00 L 910.72 940.00 C 919.21 929.53 928.17 919.45 936.74 909.04 C 936.98 908.76 937.48 908.20 937.73 907.92 C 946.86 907.44 955.90 905.85 965.01 905.00 Z" />
</g>
<g id="#4a7ed0ff">
<path fill="#4a7ed0" opacity="1.00" d=" M 1042.80 895.69 C 1052.01 897.26 1061.34 898.00 1070.57 899.46 C 1095.21 902.10 1119.72 905.87 1144.36 908.55 C 1168.35 911.72 1192.41 914.26 1216.39 917.56 C 1227.55 918.78 1238.65 920.83 1249.90 921.18 L 1250.29 921.89 C 1242.60 924.48 1235.21 927.84 1227.65 930.73 C 1220.25 933.85 1212.62 936.42 1205.42 940.00 L 1045.04 940.00 C 1045.06 937.01 1045.09 934.02 1044.92 931.04 C 1043.72 919.28 1044.12 907.44 1042.80 895.69 Z" />
</g>
<g id="#5d65bcff">
<path fill="#5d65bc" opacity="1.00" d=" M 1387.12 908.11 C 1404.81 906.60 1422.29 903.14 1440.00 901.79 L 1440.00 940.00 L 1389.18 940.00 C 1388.17 929.96 1387.15 919.88 1386.97 909.80 C 1387.01 909.38 1387.09 908.54 1387.12 908.11 Z" />
</g>
<g id="#379fd2ff">
<path fill="#379fd2" opacity="1.00" d=" M 862.18 912.21 C 871.78 909.86 881.15 906.63 890.86 904.73 C 889.17 911.93 886.00 918.68 883.60 925.67 C 881.75 930.44 880.27 935.37 878.06 940.00 L 761.52 940.00 C 770.27 936.86 779.40 934.95 788.32 932.35 C 812.93 925.61 837.55 918.90 862.18 912.21 Z" />
</g>
<g id="#3994d5ff">
<path fill="#3994d5" opacity="1.00" d=" M 890.86 904.73 C 899.93 905.03 908.94 906.25 917.99 906.95 C 924.24 907.62 930.57 907.67 936.74 909.04 C 928.17 919.45 919.21 929.53 910.72 940.00 L 878.06 940.00 C 880.27 935.37 881.75 930.44 883.60 925.67 C 886.00 918.68 889.17 911.93 890.86 904.73 Z" />
</g>
<g id="#4880cfff">
<path fill="#4880cf" opacity="1.00" d=" M 366.85 918.97 C 370.90 921.94 373.54 926.31 377.22 929.68 C 380.56 932.81 383.17 936.59 386.21 940.00 L 307.12 940.00 C 306.40 936.73 305.88 933.44 305.30 930.16 C 313.64 929.42 321.72 927.05 330.02 926.00 C 342.26 923.50 354.77 922.21 366.85 918.97 Z" />
</g>
<g id="#5770c4ff">
<path fill="#5770c4" opacity="1.00" d=" M 1227.65 930.73 C 1235.21 927.84 1242.60 924.48 1250.29 921.89 C 1249.79 927.95 1249.22 934.03 1248.03 940.00 L 1205.42 940.00 C 1212.62 936.42 1220.25 933.85 1227.65 930.73 Z" />
</g>
</svg>
