<?xml version="1.0" encoding="utf-8"?>
<!-- Generator: Adobe Illustrator 19.0.0, SVG Export Plug-In . SVG Version: 6.00 Build 0)  -->
<svg version="1.1" id="Layer_1" xmlns="http://www.w3.org/2000/svg" xmlns:xlink="http://www.w3.org/1999/xlink" x="0px" y="0px"
	 viewBox="0 0 1024 768" style="enable-background:new 0 0 1024 768;" xml:space="preserve">
<style type="text/css">
	.st0{fill:#8A0707;}
	.st1{enable-background:new    ;}
</style>
<g>
	<g id="XMLID_2_">
		<g id="XMLID_3_">
			<path id="XMLID_4_" class="st0" d="M371.8,95.9c26.7-5.6,54.6-5,81,2c28.4,7.4,54.9,22.2,76.1,42.3c31,29.1,50.6,70.2,53.5,112.8
				c1.8,22.2-1.3,44.6-7.9,65.8c5.2,6.6,10.4,13.3,15.5,19.9c2.3,2.7,2,7.4-1.1,9.6c-29.6,22.6-59.4,45-88.9,67.6
				c-0.2,7.4-3.4,14.9-9,19.8c-10.9,14.1-21.7,28.4-32.7,42.4c-0.4,20.5-0.6,41-1.1,61.5c-12,0-23.9,0-35.9,0c0-9.1,0-18.3,0-27.4
				c-2.8,0-5.6,0-8.4,0c0,9.1,0,18.3,0,27.4c-12,0-23.9-0.1-35.7,0c-0.1-6.3,0-12.7-0.1-18.9c-5.6,2.7-11.7,3.2-17.8,2.6
				c-4.4,2.3-9.4,3-14.1,3.9c-27.4,4.4-54.9,8.9-82.2,13.4c11.7-27.6,23.4-55.1,35.2-82.8c1.2-2.8,3.3-5.1,5.7-7
				c11.3-8.5,22.7-17.2,34-25.7c-43.9-19.4-79.1-57.6-94.6-102.9c-17.2-48.7-10.7-105,17.1-148.4C284.9,134,326.2,105.3,371.8,95.9z
				 M255.9,250.6c-1.8,3.4-2.2,7.4-2.4,11.2c-1.2,36.6,11.1,73.4,34.4,101.7c17.7,21.7,41.6,38.3,67.9,47.7
				c17.3-13,34.6-26.2,51.8-39.4c-9.9-0.4-19.1-4.8-27.4-9.9c-15.2-9.8-28.4-22.4-41-35.5c-17.4-18.4-33.3-38-50.2-56.8
				c-5.9-6.3-11.7-12.7-18.4-17.9c-2.8-2.1-5.9-4.1-9.5-4.5C259.1,247,257,248.6,255.9,250.6z M312,464
				c8.8,11.5,17.7,22.9,26.5,34.4c-0.4-7.4,2.7-15.1,8.3-20.2c10.9-10.1,30.4-8.4,38.9,3.7c1.6,0,3.2,0,4.8,0
				c21-16.2,42.1-32.4,63.2-48.7c-6.1-6.8-8.3-16.9-5.1-25.6c3.5-10.4,13.9-18.3,25-18.2c8.9-0.1,17.3,4.9,22.2,12.2
				c26-19.8,51.9-39.6,77.9-59.5c-12.6-16.7-25.2-33.3-37.7-50C461,349.3,386.5,406.8,312,464z M471.3,404.8c-6.3,1.2-10.4,8-9,14.3
				c0.9,5.6,6.1,10.1,11.8,9.9c6.7,0.4,11.8-6.2,12.4-12.4C486.5,409.1,478.6,402.9,471.3,404.8z M307.1,467
				c-4.9,13.2-10.1,26.3-15,39.5c3.2,4.3,6.1,8.9,9.5,13c14.5-1.1,28.9-2.4,43.4-3.7C332.3,499.7,320.1,483.1,307.1,467z
				 M360.2,486.2c-6.1,1.5-10,8-8.2,14c1.6,7.6,11.2,11.2,17.8,7.4c6-2.8,8.2-11.1,4.6-16.6C371.5,486.5,365.3,484.7,360.2,486.2z"
				/>
		</g>
	</g>
	<g class="st1">
		<path class="st0" d="M0,675.8V553.1h50.5c12.5,0,23.3,4.5,32.2,13.5c8.9,8.9,13.4,19.7,13.4,32.3c0,12.6-4.5,23.4-13.4,32.3
			c-3.1,3.1-6.7,5.8-10.9,8.1l21.3,36.6h-4l-21.3-36.7l-0.9-1.5c5-2.1,9.4-5,13.3-8.9c8.3-8.2,12.4-18.1,12.4-29.8
			c0-11.7-4.1-21.7-12.4-29.8c-8.1-8.2-18-12.3-29.8-12.3h-47v119.2H0z M45.2,564.7c7.7,0.1,14.3,2.3,19.9,6.4
			c5,3.8,8.7,8.9,11.1,15.3c1.8,4.7,2.7,9.7,2.7,14.9c0,5.1-0.9,10.1-2.7,14.8c-4.2,11.4-11.9,18.3-23.2,20.7l22.6,39h-4l-22.3-38.3
			c-0.3,0.1-0.8,0.1-1.5,0.1c-0.7,0.1-1.2,0.1-1.5,0.2H39v-3.5h6.5c6.8-0.2,12.6-2.1,17.5-5.8c4.5-3.3,7.7-7.8,9.9-13.5
			c1.6-4.3,2.4-8.9,2.4-13.6c0-4.7-0.8-9.3-2.4-13.6c-2.1-5.7-5.4-10.3-9.9-13.6c-4.9-3.7-10.8-5.7-17.6-5.8H16v107.6h-3.4V564.7
			H45.2z M47.6,578.4c9.1,0.4,15.3,5,18.6,13.9c1.1,2.8,1.6,5.9,1.6,9.3c0,3.3-0.5,6.4-1.6,9.3c-1.4,4-3.7,7.2-6.7,9.6
			c-3.4,2.6-7.4,4-12,4.1c-0.1,0-1.5,0-4,0.1c-2.6,0-3.9,0-4,0v-3.6h8.1c7.5-0.3,12.7-4.1,15.3-11.4c0.9-2.4,1.4-5.1,1.4-8.1
			c0-2.7-0.5-5.5-1.4-8.1c-2.7-7.4-7.9-11.3-15.5-11.6H28.6v93.9H25v-97.4H47.6z M45.6,592.8c2.3,0,4.4,0.8,6.2,2.5
			c1.7,1.8,2.5,3.8,2.5,6.2c0,2.4-0.8,4.4-2.5,6.1c-1.7,1.8-3.8,2.7-6.2,2.7h-4.5v65.7h-3.5v-83.1H45.6z M57.1,675.8H53l-15.2-26.1
			l3-1.7L57.1,675.8z M41.2,606.7h4.5c1.4,0,2.7-0.5,3.7-1.6c1-1,1.5-2.2,1.5-3.6c0-1.3-0.5-2.5-1.5-3.7c-1.1-1-2.3-1.5-3.7-1.5
			h-4.5V606.7z"/>
		<path class="st0" d="M112.3,675.8h-4.2l68.6-120.7l1.4-2.4l1.3,2.4L248,675.8h-4.2L178.1,560L112.3,675.8z M229.6,675.8h4.1
			L179.4,579l-1.3-2.4l-1.4,2.4l-54.3,96.9h4.1l51.5-91.9L229.6,675.8z M214.9,675.8h4.2l-39.4-70.5l-1.5-2.7l-1.5,2.7l-39.4,70.5h4
			l36.9-65.8L214.9,675.8z M157.5,675.8h-4.1l24.1-42.7l0.6-1.2l0.7,1.2l24,42.7h-4.1l-20.6-36.5L157.5,675.8z"/>
		<path class="st0" d="M318.8,614.5c2.5,2.7,3.8,5.9,3.8,9.4c0,3.6-1.3,6.8-3.8,9.5c-2.5,2.6-5.5,3.9-9.1,3.9l-43.6,0.2v-3.7
			l43.6-0.3c2.5,0,4.7-0.9,6.6-2.8c1.8-1.9,2.7-4.2,2.7-6.9c0-2.7-0.9-4.9-2.7-6.8c-1.8-1.9-3.9-2.8-6.3-2.8
			c-13.7,0-25.5-5.1-35.3-15.4c-9.8-10.2-14.7-22.5-14.7-36.9c0-3,0.3-6.1,0.8-9.3h3.7c-0.6,3-0.9,6.1-0.9,9.3
			c0,13.3,4.6,24.7,13.7,34.2c9,9.4,19.8,14.2,32.4,14.3C313.2,610.6,316.3,611.9,318.8,614.5z M306.2,570.9
			c-2.5-2.6-3.8-5.8-3.8-9.4c0-3.4,1.1-6.3,3.2-8.7h5.7c-0.9,0.4-1.7,1-2.6,1.9c-1.8,1.9-2.7,4.2-2.7,6.9c0,2.7,0.9,4.9,2.7,6.8
			c1.7,1.9,3.9,2.8,6.5,2.8c13.7,0.1,25.3,5.3,35.1,15.4c9.8,10.2,14.7,22.5,14.7,36.9c0,14.3-4.9,26.6-14.7,36.9
			c-9.8,10.3-21.5,15.4-35.2,15.4l-48.9,0.2v-3.7l48.9-0.3c12.7,0,23.7-4.8,32.8-14.3c9.1-9.5,13.6-20.9,13.6-34.2
			c0-13.3-4.5-24.7-13.6-34.3c-9.1-9.5-20-14.2-32.8-14.2C311.6,574.8,308.7,573.5,306.2,570.9z M338.4,592.7
			c7.5,7.8,11.2,17.2,11.2,28v3.9c0,10.2-3.4,19.1-10.2,26.9c-6.6,7.7-14.3,11.7-23.3,11.9l-50,0.9v-3.6l50-1
			c7.9-0.2,14.8-3.8,20.7-10.6c6.2-7.1,9.3-15.2,9.3-24.4v-3.9c0-9.9-3.4-18.3-10.2-25.4c-6.7-7.1-14.9-10.7-24.4-10.7
			c-7.1,0-13.1-2.6-18.2-7.9c-5-5.4-7.5-11.7-7.5-19.1c0-1.9,0.1-3.5,0.4-4.9h3.6c-0.3,1.7-0.5,3.3-0.5,4.9c0,6.4,2.2,11.9,6.6,16.5
			c4.4,4.5,9.7,6.8,15.8,6.8C322.2,581,331,585,338.4,592.7z M328.1,604.5c5,5.4,7.5,11.7,7.5,19.1c0,7.4-2.5,13.8-7.5,19.2
			c-5,5.3-11.1,7.9-18.3,7.9l-43.6,0.3v-3.7l43.6-0.3c6.1,0,11.4-2.3,15.8-6.8c4.4-4.6,6.6-10.1,6.6-16.5c0-6.4-2.2-11.9-6.6-16.5
			c-4.4-4.5-9.7-6.8-15.8-6.8c-10.1-0.5-18.6-4.4-25.6-11.7c-7.5-7.7-11.2-17.1-11.2-28.1v-3.9c0-0.9,0.1-2.2,0.2-3.9h3.7
			c-0.2,1.4-0.3,2.7-0.3,3.9v3.9c0,9.9,3.4,18.4,10.2,25.5c6.7,7.1,14.8,10.6,24.4,10.6C317.7,597,323.4,599.6,328.1,604.5z"/>
		<path class="st0" d="M482,570.6l-2.4,2.4c-11.4-11.4-25.1-17.1-41.2-17.1c-16,0-29.7,5.7-41.2,17.1c-11.4,11.3-17.1,25-17.1,41.2
			s5.7,29.8,17.1,41.2c11.4,11.4,25.1,17.1,41.2,17.1c16.1,0,29.8-5.7,41.2-17.1c0.7-0.7,1.2-1.2,1.5-1.6l2.5,2.3
			c-0.2,0.2-0.5,0.5-0.9,0.9c-0.3,0.4-0.6,0.7-0.8,0.9c-12.2,12.1-26.7,18.1-43.6,18.1c-17,0-31.5-6-43.5-18.1
			c-12.1-12.1-18.1-26.6-18.1-43.6c0-17,6-31.5,18.1-43.6c11.9-12.1,26.4-18.1,43.5-18.1C455.5,552.5,470,558.6,482,570.6z
			 M473,579.6l-2.4,2.3c-9-8.9-19.7-13.3-32.2-13.3c-12.5,0-23.3,4.4-32.2,13.3c-8.9,9-13.3,19.8-13.3,32.2
			c0,12.5,4.4,23.3,13.3,32.2c9,8.9,19.7,13.3,32.2,13.3c12.5,0,23.2-4.4,32.2-13.3c0.1-0.2,0.3-0.4,0.6-0.7
			c0.3-0.3,0.5-0.5,0.6-0.7l2.5,2.3c-0.2,0.2-0.4,0.4-0.7,0.7c-0.3,0.3-0.5,0.6-0.6,0.8c-9.5,9.5-21.1,14.2-34.6,14.2
			c-13.6,0-25.1-4.7-34.5-14.2c-9.5-9.6-14.3-21.1-14.3-34.6c0-13.5,4.8-25,14.3-34.6c9.4-9.5,20.9-14.3,34.5-14.3
			C452,565.3,463.5,570.1,473,579.6z M463.9,588.6l-2.3,2.4c-6.4-6.4-14.1-9.6-23.1-9.6c-9,0-16.7,3.2-23.1,9.6
			c-6.4,6.4-9.6,14.1-9.6,23.1c0,9,3.2,16.7,9.6,23.1c6.4,6.5,14.1,9.7,23.1,9.7c9,0,16.7-3.2,23.1-9.7c0.6-0.6,0.9-0.9,0.9-0.9
			l2.4,2.3c-0.2,0.2-0.6,0.6-1,1c-7,7-15.5,10.5-25.5,10.5c-10,0-18.5-3.5-25.6-10.5c-7-7.1-10.5-15.7-10.5-25.6
			c0-9.9,3.5-18.4,10.5-25.6c7-7,15.5-10.5,25.6-10.5C448.4,578.1,456.9,581.6,463.9,588.6z M454.9,597.7l-2.3,2.3
			c-3.9-3.9-8.6-5.9-14.1-5.9c-5.5,0-10.3,1.9-14.1,5.8v0.1c-3.9,3.9-5.9,8.7-5.9,14.1s2,10.2,5.9,14.1c3.9,3.9,8.7,5.9,14.1,5.9
			c5.4,0,10.1-2,14.1-5.9c0.1-0.1,0.1-0.1,0.3-0.3c0.1-0.2,0.2-0.3,0.3-0.3l2.5,2.3c-0.2,0.3-0.4,0.5-0.7,0.7
			c-4.5,4.6-9.9,6.9-16.5,6.9c-6.6,0-12.1-2.3-16.5-6.9c-4.5-4.5-6.8-10-6.8-16.5c0-6.5,2.3-12,6.8-16.5c4.5-4.6,10-6.9,16.5-6.9
			C445,590.9,450.5,593.2,454.9,597.7z M446,606.7l-2.4,2.4c-1.4-1.4-3.1-2.1-5.1-2.1c-2.1,0-3.8,0.7-5.1,2.1h-0.1
			c-1.4,1.5-2.1,3.2-2.1,5.1c0,2,0.7,3.7,2.1,5.2c1.4,1.4,3.1,2.1,5.1,2.1c1.9,0,3.7-0.7,5.1-2.1l0.2-0.3l2.5,2.3
			c-0.1,0.1-0.2,0.2-0.3,0.3c-2.1,2.1-4.6,3.1-7.5,3.1c-3,0-5.5-1.1-7.5-3.2v0.1c-2.1-2.1-3.2-4.6-3.2-7.5c0-2.9,1.1-5.4,3.2-7.5
			c2-2.1,4.5-3.1,7.5-3.1C441.4,603.6,444,604.6,446,606.7z"/>
		<path class="st0" d="M495.7,675.7V553.2h3.2v122.4H495.7z M508.2,675.7V553.2h3.2v122.4H508.2z M522.8,553.2h3.1v52.5h34.7v-52.5
			h3.2v55.6h-41V553.2z M522.8,675.8h3.1v-56.6h34.7v56.1h3.2v-59.2h-41V675.8z M535.2,553.2h3.1v39.3h9.8v-39.3h3.2v42.4h-16V553.2
			z M535.2,675.1h3.1v-42.8h9.8v43h3.2v-46h-16V675.1z M570.8,675.7V553.2h3.3v122.4H570.8z M583.3,675.7V553.2h3.3v122.4H583.3z"/>
		<path class="st0" d="M598.6,675.8V553.3h3.3v122.5H598.6z M673,553.3v3.3h-58.6v115.8H673v3.3h-62V553.3H673z M673,566.4v3.3
			h-45.6v36.3H673v3.3h-48.9v-43H673z M673,618.4v3.3h-45.6V658H673v3.4h-48.9v-43H673z M673,579.5v3.3h-31.8v10.1H673v3.3h-35.2
			v-16.8H673z M673,631.5v3.3h-31.8V645H673v3.3h-35.2v-16.8H673z"/>
		<path class="st0" d="M685,552.7h96.4v3.6H685V552.7z M685,566.5h96.4v3.5H685V566.5z M685,579.5h45v96.4h-3.6V583H685V579.5z
			 M685,591.4h33.1v84.5h-3.6v-80.9H685V591.4z M781.4,583h-37.6v92.9h-3.6v-96.4h41.2V583z M781.4,594.9h-25.7v80.9h-3.5v-84.5
			h29.2V594.9z"/>
		<path class="st0" d="M793.4,552.7h96.4v3.6h-96.4V552.7z M793.4,566.5h96.4v3.5h-96.4V566.5z M793.4,579.5h45v96.4h-3.6V583h-41.4
			V579.5z M793.4,591.4h33.1v84.5h-3.6v-80.9h-29.5V591.4z M889.7,583h-37.6v92.9h-3.6v-96.4h41.2V583z M889.7,594.9H864v80.9h-3.5
			v-84.5h29.2V594.9z"/>
		<path class="st0" d="M957.5,553.7l0.7-0.1h0.8l0.8-0.1h2.4l0.9-0.1l0.7,0.1h2.4l0.8,0.1h0.9l0.7,0.1c14.6,1.3,27.2,7.2,37.8,17.7
			c11.9,11.9,17.8,26.4,17.8,43.3c0,16.1-5.4,29.9-16.2,41.6c-0.8,0.9-1.3,1.5-1.6,1.8c-10.6,10.5-23.2,16.3-37.8,17.7l-0.7,0.1
			h-0.9l-0.8,0.1h-6.3l-0.8-0.1h-0.8l-0.7-0.1c-14.7-1.3-27.4-7.2-37.8-17.7c-0.7-0.8-1.3-1.4-1.7-1.8
			c-10.8-11.7-16.2-25.5-16.2-41.6c0-16.9,6-31.3,17.9-43.3C930.1,560.9,942.7,555,957.5,553.7z M967.3,557l-0.8-0.2h-0.7l-0.8-0.1
			h-4.5l-0.8,0.1h-0.8l-0.6,0.2h-0.8c-14,1.2-25.9,6.8-35.7,16.7c-11.3,11.3-16.9,24.9-16.9,40.9c0,16.1,5.6,29.7,16.9,41
			c9.8,9.9,21.7,15.5,35.7,16.7h0.8l0.6,0.1h0.8l0.8,0.1h4.5l0.8-0.1h0.7l0.8-0.1h0.7c13.9-1.2,25.9-6.8,35.8-16.7
			c11.3-11.4,16.9-25,16.9-41c0-15.9-5.6-29.5-16.9-40.9c-9.9-9.9-21.8-15.5-35.8-16.7H967.3z M959.1,566.3l0.7-0.1h1.8l0.7-0.2h1.2
			l0.7,0.2h1.9l0.5,0.1h0.7c11.6,1,21.6,5.7,29.9,14.1c9.4,9.4,14.1,20.9,14.1,34.3c0,12.7-4.3,23.7-12.8,32.9v0.1l-1.4,1.4
			c-8.3,8.3-18.3,13-29.9,14.1h-0.7l-0.5,0.1h-1.9l-0.7,0.1h-1.2l-0.7-0.1h-1.8l-0.7-0.1h-0.5c-11.7-1-21.7-5.7-30-14.1
			c-0.4-0.5-0.9-1-1.4-1.4v-0.1c-8.5-9.3-12.8-20.2-12.8-32.9c0-13.3,4.7-24.7,14.1-34.3c8.3-8.3,18.3-13,30-14.1H959.1z
			 M966.9,569.6l-0.5-0.1h-0.6l-0.6-0.1h-4.6l-0.6,0.1h-0.5l-0.6,0.1c-10.7,1-20.1,5.3-28,13.1c-8.8,8.8-13.2,19.4-13.2,31.9
			c0,12.5,4.4,23.2,13.2,32c7.9,7.8,17.2,12.1,28,13l0.6,0.2h0.5l0.6,0.1h4.6l0.6-0.1h0.6l0.5-0.2c10.9-0.9,20.2-5.3,28-13
			c8.8-8.8,13.2-19.5,13.2-32c0-12.5-4.4-23.1-13.2-31.9C987.1,575,977.8,570.6,966.9,569.6z M959.7,578.9l0.3-0.1h1.5l0.5-0.1h1.9
			l0.3,0.1h1.4l0.5,0.1c8.6,0.8,16,4.3,22.1,10.4v0.1c7,6.9,10.5,15.3,10.5,25.3c0,9.4-3.1,17.5-9.4,24.4c-0.1,0.1-0.3,0.3-0.5,0.4
			c-0.2,0.2-0.4,0.4-0.5,0.5c-6.1,6.2-13.4,9.6-22.1,10.4l-0.5,0.1h-1.4l-0.3,0.2H962l-0.5-0.2H960l-0.3-0.1
			c-8.7-0.7-16.1-4.2-22.2-10.4c-0.2-0.2-0.5-0.5-0.9-0.9c-6.3-6.9-9.5-15-9.5-24.4c0-9.9,3.5-18.3,10.5-25.3v-0.1
			C943.6,583.1,951,579.7,959.7,578.9z M965.4,582.2l-0.3-0.1h-4.3l-0.3,0.1H960c-7.7,0.7-14.4,3.8-20.1,9.3
			c-6.3,6.5-9.5,14.1-9.5,23.1c0,8.9,3.2,16.6,9.5,23.1c5.7,5.5,12.3,8.7,20.1,9.3h0.4l0.3,0.1h4.3l0.3-0.1h0.4
			c7.8-0.7,14.5-3.8,20.1-9.3c6.3-6.5,9.5-14.2,9.5-23.1c0-8.9-3.2-16.6-9.5-23.1c-5.5-5.5-12.2-8.7-20.1-9.3H965.4z M961.4,591.5
			l0.3-0.1h2.4l0.3,0.1h0.3c5.7,0.4,10.6,2.6,14.7,6.7h-0.1c4.5,4.6,6.8,10.1,6.8,16.5c0,6.2-2,11.5-6.1,15.9
			c-0.3,0.2-0.5,0.4-0.6,0.6c-4.1,4-9,6.3-14.7,6.8h-0.6l-0.3,0.1H962l-0.3-0.1h-0.5c-5.8-0.5-10.7-2.8-14.7-6.8l-0.7-0.6
			c-4.1-4.5-6.1-9.8-6.1-15.9c0-6.4,2.3-11.9,6.8-16.5c4.1-4.1,9-6.3,14.7-6.7H961.4z M963.4,594.8l-0.3-0.1h-0.5l-0.3,0.1h-1.2
			c-0.2,0-0.4,0-0.7,0.1c-0.2,0-0.4,0-0.6,0.1c-0.1,0-0.2,0-0.4,0.1c-0.2,0-0.3,0-0.3,0l-0.3,0.1c-0.1,0-0.2,0-0.3,0.1
			c-0.1,0-0.2,0-0.3,0l-0.3,0.1c-0.2,0.1-0.5,0.1-0.9,0.3c-0.3,0.1-0.6,0.2-0.8,0.3l-0.3,0.1l-0.2,0.1c-2.7,1.1-5,2.6-7,4.5
			c-3.9,3.9-5.8,8.6-5.8,14.1c0,5.5,1.9,10.2,5.8,14.1c2,1.9,4.3,3.5,7,4.5l0.2,0.1l0.3,0.1c0.2,0.1,0.4,0.1,0.8,0.3
			c0.4,0.1,0.7,0.1,0.9,0.2h0.3c0.3,0.2,0.5,0.3,0.7,0.3l0.3,0.1c0.1,0,0.2,0,0.3,0c0.2,0.1,0.4,0.1,0.4,0.1c0.2,0,0.4,0,0.6,0.1
			c0.3,0.1,0.5,0.1,0.7,0.1h3.4c0.2-0.1,0.4-0.1,0.7-0.1c0.3-0.1,0.5-0.1,0.7-0.1c0.1,0,0.2,0,0.3-0.1c0.1,0,0.2,0,0.3,0h0.2
			l0.2-0.1c0.1,0,0.4-0.1,0.8-0.3h0.2c0.2-0.1,0.5-0.1,0.9-0.2c0.3-0.1,0.6-0.2,0.9-0.3l0.2-0.1l0.2-0.1c2.8-1.1,5.1-2.6,7-4.5
			c3.9-3.8,5.8-8.5,5.8-14.1c0-5.5-1.9-10.2-5.7-14.1h-0.1c-1.8-1.9-4.2-3.4-7-4.5l-0.2-0.1l-0.2-0.1c-0.2-0.1-0.5-0.1-0.9-0.3
			c-0.4-0.1-0.7-0.2-0.9-0.3l-0.2-0.1c-0.1,0-0.3,0-0.4,0c-0.2-0.1-0.3-0.1-0.3-0.1l-0.2-0.1h-0.2c-0.1,0-0.1,0-0.3,0
			c-0.2-0.1-0.3-0.1-0.3-0.1c-0.2-0.1-0.4-0.1-0.7-0.1c-0.3-0.1-0.5-0.1-0.7-0.1H963.4z M962.2,604.1c-2.7,0.2-5,1.2-6.9,3.1h0.2
			c-2.1,2-3.2,4.5-3.2,7.5c0,2.8,0.9,5.2,2.7,7.2c0.1,0.1,0.2,0.2,0.3,0.3c1.9,1.8,4.1,2.8,6.8,3.1h1.5c2.6-0.3,4.8-1.3,6.8-3.1
			c0-0.1,0-0.1,0.1-0.2c0.1-0.1,0.1-0.1,0.2-0.2c1.9-2.1,2.8-4.5,2.8-7.2c0-2.9-1-5.3-3.1-7.5c-1.9-1.9-4.2-2.9-6.9-3.1H962.2z
			 M966.5,608.3c0.6,0.4,1.1,0.8,1.5,1.3c1.4,1.4,2.1,3.1,2.1,5.1c0,2.1-0.7,3.8-2.1,5.1c-0.5,0.5-1,0.9-1.5,1.1l-0.1,0.1l-0.2,0.1
			c-0.1,0.1-0.1,0.1-0.3,0.2c-0.1,0.1-0.1,0.1-0.2,0.2h-0.2c-0.1,0-0.1,0-0.3,0.1c-0.1,0-0.2,0-0.3,0.1H965c-0.1,0-0.2,0-0.3,0.1
			c-0.1,0.1-0.2,0.1-0.3,0.1h-0.3l-0.1,0.1h-0.8l-0.1,0.1h-0.6l-0.1-0.1h-0.9l-0.1-0.1h-0.3c-0.1,0-0.2,0-0.3-0.1
			c-0.1-0.1-0.2-0.1-0.3-0.1c-0.6-0.2-0.8-0.2-0.7-0.2c0-0.1-0.1-0.1-0.3-0.2c-0.1-0.1-0.2-0.1-0.3-0.2l-0.2-0.1v-0.1
			c-0.7-0.3-1.2-0.7-1.5-1.1c-1.4-1.4-2.1-3.1-2.1-5.1c0-1.9,0.7-3.6,2.1-5.1h0.1c0.2-0.3,0.7-0.8,1.5-1.3l0.2-0.1
			c0.1,0,0.1,0,0.3-0.1c0.1-0.1,0.2-0.1,0.3-0.2c-0.1,0.1,0.1,0,0.7-0.2c0.1-0.1,0.1-0.1,0.3-0.1c0.2-0.1,0.3-0.1,0.3-0.1h0.3
			l0.1-0.1h0.8v-0.2h0.9v0.2h0.7l0.1,0.1h0.3c0.1,0,0.1,0,0.3,0.1c0.2,0,0.3,0,0.3,0.1h0.1c0.1,0,0.1,0,0.3,0.1
			c0.1,0.1,0.2,0.1,0.3,0.1h0.2c0.1,0.1,0.1,0.1,0.2,0.2c0.1,0.1,0.2,0.1,0.3,0.1L966.5,608.3L966.5,608.3z"/>
	</g>
</g>
</svg>
