<?xml version="1.0" encoding="utf-8"?>
<!-- Generator: Adobe Illustrator 19.0.0, SVG Export Plug-In . SVG Version: 6.00 Build 0)  -->
<svg version="1.1" id="Layer_1" xmlns="http://www.w3.org/2000/svg" xmlns:xlink="http://www.w3.org/1999/xlink" x="0px" y="0px"
	 viewBox="227 15 1065 620" style="enable-background:new 227 15 1065 620;" xml:space="preserve">
<style type="text/css">
	.st0{fill:#E0E0E0;}
	.st1{fill:#E0E0E0;stroke:#E0E0E0;stroke-width:4;stroke-miterlimit:10;}
	.st2{enable-background:new    ;}
</style>
<g>
	<g id="XMLID_2_">
		<g id="XMLID_3_">
			<path id="XMLID_4_" class="st0" d="M574.2,27.9c12.7-2.7,25.9-2.4,38.5,1c13.5,3.5,26.1,10.5,36.2,20.1
				c14.7,13.8,24,33.4,25.4,53.6c0.9,10.5-0.6,21.2-3.8,31.3c2.5,3.1,4.9,6.3,7.4,9.5c1.1,1.3,1,3.5-0.5,4.6
				c-14.1,10.7-28.2,21.4-42.2,32.1c-0.1,3.5-1.6,7.1-4.3,9.4c-5.2,6.7-10.3,13.5-15.5,20.1c-0.2,9.7-0.3,19.5-0.5,29.2
				c-5.7,0-11.4,0-17.1,0c0-4.3,0-8.7,0-13c-1.3,0-2.7,0-4,0c0,4.3,0,8.7,0,13c-5.7,0-11.4,0-17,0c0-3,0-6,0-9
				c-2.7,1.3-5.6,1.5-8.5,1.2c-2.1,1.1-4.5,1.4-6.7,1.9c-13,2.1-26.1,4.2-39.1,6.4c5.6-13.1,11.1-26.2,16.7-39.3
				c0.6-1.3,1.6-2.4,2.7-3.3c5.4-4,10.8-8.2,16.2-12.2c-20.9-9.2-37.6-27.4-44.9-48.9c-8.2-23.1-5.1-49.9,8.1-70.5
				C532.9,46,552.6,32.3,574.2,27.9z M519.2,101.4c-0.9,1.6-1,3.5-1.1,5.3c-0.6,17.4,5.3,34.9,16.3,48.3
				c8.4,10.3,19.8,18.2,32.3,22.7c8.2-6.2,16.4-12.4,24.6-18.7c-4.7-0.2-9.1-2.3-13-4.7c-7.2-4.7-13.5-10.6-19.5-16.9
				c-8.3-8.7-15.8-18.1-23.9-27c-2.8-3-5.6-6-8.7-8.5c-1.3-1-2.8-1.9-4.5-2.1C520.7,99.7,519.7,100.4,519.2,101.4z M545.8,202.8
				c4.2,5.5,8.4,10.9,12.6,16.3c-0.2-3.5,1.3-7.2,3.9-9.6c5.2-4.8,14.4-4,18.5,1.8c0.8,0,1.5,0,2.3,0c10-7.7,20-15.4,30-23.1
				c-2.9-3.2-3.9-8-2.4-12.2c1.7-4.9,6.6-8.7,11.9-8.6c4.2,0,8.2,2.3,10.5,5.8c12.4-9.4,24.7-18.8,37-28.3c-6-7.9-12-15.8-17.9-23.8
				C616.6,148.3,581.2,175.6,545.8,202.8z M621.5,174.6c-3,0.6-4.9,3.8-4.3,6.8c0.4,2.7,2.9,4.8,5.6,4.7c3.2,0.2,5.6-2.9,5.9-5.9
				C628.7,176.7,625,173.7,621.5,174.6z M543.5,204.2c-2.3,6.3-4.8,12.5-7.1,18.8c1.5,2,2.9,4.2,4.5,6.2c6.9-0.5,13.7-1.1,20.6-1.8
				C555.5,219.7,549.7,211.8,543.5,204.2z M568.7,213.3c-2.9,0.7-4.8,3.8-3.9,6.7c0.8,3.6,5.3,5.3,8.5,3.5c2.9-1.3,3.9-5.3,2.2-7.9
				C574.1,213.4,571.1,212.6,568.7,213.3z"/>
		</g>
	</g>
	<path class="st1" d="M238.9,304.2V181.5h50.5c12.5,0,23.3,4.5,32.2,13.5c8.9,8.9,13.4,19.7,13.4,32.3s-4.5,23.4-13.4,32.3
		c-3.1,3.1-6.7,5.8-10.9,8.1l21.3,36.6h-4l-21.3-36.7l-0.9-1.5c5-2.1,9.4-5,13.3-8.9c8.3-8.2,12.4-18.1,12.4-29.8
		c0-11.7-4.1-21.7-12.4-29.8c-8.1-8.2-18-12.3-29.8-12.3h-47v119.2h-3.4L238.9,304.2L238.9,304.2z M284.1,193.1
		c7.7,0.1,14.3,2.3,19.9,6.4c5,3.8,8.7,8.9,11.1,15.3c1.8,4.7,2.7,9.7,2.7,14.9c0,5.1-0.9,10.1-2.7,14.8
		c-4.2,11.4-11.9,18.3-23.2,20.7l22.6,39h-4l-22.3-38.3c-0.3,0.1-0.8,0.1-1.5,0.1c-0.7,0.1-1.2,0.1-1.5,0.2h-7.3v-3.5h6.5
		c6.8-0.2,12.6-2.1,17.5-5.8c4.5-3.3,7.7-7.8,9.9-13.5c1.6-4.3,2.4-8.9,2.4-13.6s-0.8-9.3-2.4-13.6c-2.1-5.7-5.4-10.3-9.9-13.6
		c-4.9-3.7-10.8-5.7-17.6-5.8h-29.4v107.6h-3.4V193.1H284.1z M286.5,206.8c9.1,0.4,15.3,5,18.6,13.9c1.1,2.8,1.6,5.9,1.6,9.3
		c0,3.3-0.5,6.4-1.6,9.3c-1.4,4-3.7,7.2-6.7,9.6c-3.4,2.6-7.4,4-12,4.1c-0.1,0-1.5,0-4,0.1c-2.6,0-3.9,0-4,0v-3.6h8.1
		c7.5-0.3,12.7-4.1,15.3-11.4c0.9-2.4,1.4-5.1,1.4-8.1c0-2.7-0.5-5.5-1.4-8.1c-2.7-7.4-7.9-11.3-15.5-11.6h-18.8v93.9h-3.6v-97.4
		H286.5L286.5,206.8z M284.5,221.2c2.3,0,4.4,0.8,6.2,2.5c1.7,1.8,2.5,3.8,2.5,6.2s-0.8,4.4-2.5,6.1c-1.7,1.8-3.8,2.7-6.2,2.7H280
		v65.7h-3.5v-83.1h8V221.2L284.5,221.2z M296,304.2h-4.1L276.7,278l3-1.7L296,304.2z M280.1,235.1h4.5c1.4,0,2.7-0.5,3.7-1.6
		c1-1,1.5-2.2,1.5-3.6c0-1.3-0.5-2.5-1.5-3.7c-1.1-1-2.3-1.5-3.7-1.5h-4.5V235.1z"/>
	<path class="st1" d="M351.2,304.2H347l68.6-120.7l1.4-2.4l1.3,2.4l68.6,120.7h-4.2L417,188.4L351.2,304.2z M468.5,304.2h4.1
		l-54.3-96.8L417,205l-1.4,2.4l-54.3,96.9h4.1l51.5-91.9L468.5,304.2z M453.8,304.2h4.2l-39.4-70.5l-1.5-2.7l-1.5,2.7l-39.4,70.5h4
		l36.9-65.8L453.8,304.2z M396.4,304.2h-4.1l24.1-42.7l0.6-1.2l0.7,1.2l24,42.7h-4.1L417,267.7L396.4,304.2z"/>
	<path class="st1" d="M562.5,268.8c2.1,1.3,3.3,2.9,3.4,4.7c0.1,1.9-1,3.6-3.1,5c-2.2,1.4-4.8,2.1-8,2.1l-38.6,0.1l0.4-2l38.2-0.2
		c2.2,0,4.1-0.5,5.7-1.5c1.5-1,2.3-2.2,2.2-3.6c0-1.4-0.8-2.5-2.4-3.4c-1.5-0.9-3.3-1.4-5.2-1.4c-11.3,0-20.8-2.4-27.9-7.2
		c-6.8-4.4-9.3-9.5-7.9-15c0.3-1.1,0.8-2.2,1.4-3.4h2.6c-0.7,1.1-1.1,2.2-1.4,3.4c-1.2,5.1,1.3,9.7,7.6,13.8
		c6.6,4.2,15.1,6.5,25.4,6.5C557.9,266.9,560.4,267.5,562.5,268.8z M552.6,249.9c-1.8-1-2.7-2.2-2.6-3.5c0.1-1.2,0.9-2.3,2.4-3.1h4
		c-0.6,0.1-1.2,0.4-1.9,0.7c-1.3,0.7-2,1.5-2,2.5s0.6,1.8,1.9,2.6c1.2,0.7,2.9,1.1,4.8,1.1c10.1,0,19,2.1,27.1,6.2
		c8.5,4.4,13.8,10,15.6,17.1c1.9,7.6-0.8,14.7-8.7,21.1c-8.4,6.8-19.6,10.3-33.3,10.3L511,305l0.6-2.6l48.3-0.2
		c12.5,0,23-3.3,30.8-9.4c7.3-5.8,9.9-12.3,8.3-19.4c-1.5-6.5-6.3-11.8-14.2-16c-7.5-3.9-15.9-5.8-25.5-5.8
		C556.6,251.4,554.5,250.9,552.6,249.9z M577.5,258.8c6.4,3.4,10.1,7.8,11.1,13l0.3,2c1,5.4-1.2,10.4-6.8,15
		c-5.6,4.8-12.8,7.3-21.4,7.5l-48.1,0.6l0.5-2.3l47.5-0.6c7.5-0.1,13.8-2.4,18.9-6.5c5.1-4.1,7.1-8.6,6.4-13.5l-0.3-2
		c-0.8-4.8-4.1-8.8-9.9-11.9c-5.5-3.1-11.9-4.6-19.2-4.6c-5.4,0-10-1.1-13.6-3.2c-3.5-2.1-5-4.5-4.7-7.2c0.1-0.7,0.2-1.3,0.5-1.8
		h2.5c-0.3,0.6-0.5,1.2-0.5,1.8c-0.3,2.4,1.1,4.4,4.2,6.2c3.2,1.8,7.1,2.7,11.8,2.7C564.6,253.9,571.4,255.6,577.5,258.8z
		 M569.9,264.1c4.3,2.5,6.7,5.6,7.1,9.3c0.4,3.9-1.4,7.3-5.6,10.4c-4.3,3.1-9.9,4.6-16.5,4.6l-40.3,0.1l0.5-2.2l39.8-0.2
		c5.6,0,10.3-1.3,14.2-3.9c3.7-2.6,5.4-5.5,5.1-8.9c-0.3-3.2-2.4-5.9-6.1-8.1c-3.7-2.1-7.9-3.1-12.8-3.1c-8-0.2-14.6-2-19.7-5.1
		c-5.3-3.2-7.4-6.9-6.6-11.1l0.3-1.4c0.1-0.3,0.2-0.8,0.4-1.4h2.6c-0.2,0.5-0.4,1-0.4,1.4l-0.2,1.4c-0.6,3.7,1.4,7.1,6.1,10
		c4.9,3,11.1,4.5,18.7,4.5C561.4,260.7,566,261.8,569.9,264.1z"/>
	<path class="st1" d="M739.9,201l-2.4,2.4c-11.4-11.4-25.1-17.1-41.2-17.1c-16,0-29.7,5.7-41.2,17.1c-11.4,11.3-17.1,25-17.1,41.2
		s5.7,29.8,17.1,41.2c11.4,11.4,25.1,17.1,41.2,17.1c16.1,0,29.8-5.7,41.2-17.1c0.7-0.7,1.2-1.2,1.5-1.6l2.5,2.3
		c-0.2,0.2-0.5,0.5-0.9,0.9c-0.3,0.4-0.6,0.7-0.8,0.9c-12.2,12.1-26.7,18.1-43.6,18.1c-17,0-31.5-6-43.5-18.1
		c-12.1-12.1-18.1-26.6-18.1-43.6s6-31.5,18.1-43.6c11.9-12.1,26.4-18.1,43.5-18.1C713.4,182.9,727.9,189,739.9,201z M730.9,210
		l-2.4,2.3c-9-8.9-19.7-13.3-32.2-13.3s-23.3,4.4-32.2,13.3c-8.9,9-13.3,19.8-13.3,32.2c0,12.5,4.4,23.3,13.3,32.2
		c9,8.9,19.7,13.3,32.2,13.3s23.2-4.4,32.2-13.3c0.1-0.2,0.3-0.4,0.6-0.7c0.3-0.3,0.5-0.5,0.6-0.7l2.5,2.3c-0.2,0.2-0.4,0.4-0.7,0.7
		c-0.3,0.3-0.5,0.6-0.6,0.8c-9.5,9.5-21.1,14.2-34.6,14.2c-13.6,0-25.1-4.7-34.5-14.2c-9.5-9.6-14.3-21.1-14.3-34.6
		c0-13.5,4.8-25,14.3-34.6c9.4-9.5,20.9-14.3,34.5-14.3C709.9,195.7,721.4,200.5,730.9,210z M721.8,219l-2.3,2.4
		c-6.4-6.4-14.1-9.6-23.1-9.6s-16.7,3.2-23.1,9.6c-6.4,6.4-9.6,14.1-9.6,23.1s3.2,16.7,9.6,23.1c6.4,6.5,14.1,9.7,23.1,9.7
		s16.7-3.2,23.1-9.7c0.6-0.6,0.9-0.9,0.9-0.9l2.4,2.3c-0.2,0.2-0.6,0.6-1,1c-7,7-15.5,10.5-25.5,10.5s-18.5-3.5-25.6-10.5
		c-7-7.1-10.5-15.7-10.5-25.6s3.5-18.4,10.5-25.6c7-7,15.5-10.5,25.6-10.5C706.3,208.5,714.8,212,721.8,219z M712.8,228.1l-2.3,2.3
		c-3.9-3.9-8.6-5.9-14.1-5.9s-10.3,1.9-14.1,5.8v0.1c-3.9,3.9-5.9,8.7-5.9,14.1s2,10.2,5.9,14.1c3.9,3.9,8.7,5.9,14.1,5.9
		s10.1-2,14.1-5.9c0.1-0.1,0.1-0.1,0.3-0.3c0.1-0.2,0.2-0.3,0.3-0.3l2.5,2.3c-0.2,0.3-0.4,0.5-0.7,0.7c-4.5,4.6-9.9,6.9-16.5,6.9
		s-12.1-2.3-16.5-6.9c-4.5-4.5-6.8-10-6.8-16.5s2.3-12,6.8-16.5c4.5-4.6,10-6.9,16.5-6.9C702.9,221.3,708.4,223.6,712.8,228.1z
		 M703.9,237.1l-2.4,2.4c-1.4-1.4-3.1-2.1-5.1-2.1c-2.1,0-3.8,0.7-5.1,2.1h-0.1c-1.4,1.5-2.1,3.2-2.1,5.1c0,2,0.7,3.7,2.1,5.2
		c1.4,1.4,3.1,2.1,5.1,2.1c1.9,0,3.7-0.7,5.1-2.1l0.2-0.3l2.5,2.3c-0.1,0.1-0.2,0.2-0.3,0.3c-2.1,2.1-4.6,3.1-7.5,3.1
		c-3,0-5.5-1.1-7.5-3.2v0.1c-2.1-2.1-3.2-4.6-3.2-7.5s1.1-5.4,3.2-7.5c2-2.1,4.5-3.1,7.5-3.1S701.9,235,703.9,237.1z"/>
	<path class="st1" d="M753.6,306.1V183.6h3.2V306L753.6,306.1L753.6,306.1z M766.1,306.1V183.6h3.2V306L766.1,306.1L766.1,306.1z
		 M780.7,183.6h3.1v52.5h34.7v-52.5h3.2v55.6h-41V183.6z M780.7,306.2h3.1v-56.6h34.7v56.1h3.2v-59.2h-41V306.2z M793.1,183.6h3.1
		v39.3h9.8v-39.3h3.2V226h-16L793.1,183.6L793.1,183.6z M793.1,305.5h3.1v-42.8h9.8v43h3.2v-46h-16L793.1,305.5L793.1,305.5z
		 M828.7,306.1V183.6h3.3V306L828.7,306.1L828.7,306.1z M841.2,306.1V183.6h3.3V306L841.2,306.1L841.2,306.1z"/>
	<path class="st1" d="M856.5,306.2V183.7h3.3v122.5H856.5z M930.9,183.7v3.3h-58.6v115.8h58.6v3.3h-62V183.7H930.9z M930.9,196.8
		v3.3h-45.6v36.3h45.6v3.3H882v-43h48.9V196.8z M930.9,248.8v3.3h-45.6v36.3h45.6v3.4H882v-43H930.9L930.9,248.8z M930.9,209.9v3.3
		h-31.8v10.1h31.8v3.3h-35.2v-16.8L930.9,209.9L930.9,209.9z M930.9,261.9v3.3h-31.8v10.2h31.8v3.3h-35.2v-16.8H930.9z"/>
	<path class="st1" d="M942.9,183.1h96.4v3.6h-96.4V183.1L942.9,183.1z M942.9,196.9h96.4v3.5h-96.4V196.9L942.9,196.9z M942.9,209.9
		h45v96.4h-3.6v-92.9h-41.4V209.9z M942.9,221.8H976v84.5h-3.6v-80.9h-29.5V221.8z M1039.3,213.4h-37.6v92.9h-3.6v-96.4h41.2V213.4
		L1039.3,213.4z M1039.3,225.3h-25.7v80.9h-3.5v-84.5h29.2V225.3z"/>
	<path class="st1" d="M1051.3,183.1h96.4v3.6h-96.4V183.1z M1051.3,196.9h96.4v3.5h-96.4V196.9z M1051.3,209.9h45v96.4h-3.6v-92.9
		h-41.4V209.9z M1051.3,221.8h33.1v84.5h-3.6v-80.9h-29.5V221.8z M1147.6,213.4H1110v92.9h-3.6v-96.4h41.2V213.4L1147.6,213.4z
		 M1147.6,225.3h-25.7v80.9h-3.5v-84.5h29.2V225.3z"/>
	<path class="st1" d="M1215.4,184.1l0.7-0.1h0.8l0.8-0.1h2.4l0.9-0.1l0.7,0.1h2.4l0.8,0.1h0.9l0.7,0.1c14.6,1.3,27.2,7.2,37.8,17.7
		c11.9,11.9,17.8,26.4,17.8,43.3c0,16.1-5.4,29.9-16.2,41.6c-0.8,0.9-1.3,1.5-1.6,1.8c-10.6,10.5-23.2,16.3-37.8,17.7l-0.7,0.1h-0.9
		l-0.8,0.1h-6.3l-0.8-0.1h-0.8l-0.7-0.1c-14.7-1.3-27.4-7.2-37.8-17.7c-0.7-0.8-1.3-1.4-1.7-1.8c-10.8-11.7-16.2-25.5-16.2-41.6
		c0-16.9,6-31.3,17.9-43.3C1188,191.3,1200.6,185.4,1215.4,184.1z M1225.2,187.4l-0.8-0.2h-0.7l-0.8-0.1h-4.5l-0.8,0.1h-0.8
		l-0.6,0.2h-0.8c-14,1.2-25.9,6.8-35.7,16.7c-11.3,11.3-16.9,24.9-16.9,40.9c0,16.1,5.6,29.7,16.9,41c9.8,9.9,21.7,15.5,35.7,16.7
		h0.8l0.6,0.1h0.8l0.8,0.1h4.5l0.8-0.1h0.7l0.8-0.1h0.7c13.9-1.2,25.9-6.8,35.8-16.7c11.3-11.4,16.9-25,16.9-41
		c0-15.9-5.6-29.5-16.9-40.9c-9.9-9.9-21.8-15.5-35.8-16.7L1225.2,187.4L1225.2,187.4z M1217,196.7l0.7-0.1h1.8l0.7-0.2h1.2l0.7,0.2
		h1.9l0.5,0.1h0.7c11.6,1,21.6,5.7,29.9,14.1c9.4,9.4,14.1,20.9,14.1,34.3c0,12.7-4.3,23.7-12.8,32.9v0.1l-1.4,1.4
		c-8.3,8.3-18.3,13-29.9,14.1h-0.7l-0.5,0.1h-1.9l-0.7,0.1h-1.2l-0.7-0.1h-1.8l-0.7-0.1h-0.5c-11.7-1-21.7-5.7-30-14.1
		c-0.4-0.5-0.9-1-1.4-1.4V278c-8.5-9.3-12.8-20.2-12.8-32.9c0-13.3,4.7-24.7,14.1-34.3c8.3-8.3,18.3-13,30-14.1H1217L1217,196.7z
		 M1224.8,200l-0.5-0.1h-0.6l-0.6-0.1h-4.6l-0.6,0.1h-0.5l-0.6,0.1c-10.7,1-20.1,5.3-28,13.1c-8.8,8.8-13.2,19.4-13.2,31.9
		c0,12.5,4.4,23.2,13.2,32c7.9,7.8,17.2,12.1,28,13l0.6,0.2h0.5l0.6,0.1h4.6l0.6-0.1h0.6l0.5-0.2c10.9-0.9,20.2-5.3,28-13
		c8.8-8.8,13.2-19.5,13.2-32c0-12.5-4.4-23.1-13.2-31.9C1245,205.4,1235.7,201,1224.8,200z M1217.6,209.3l0.3-0.1h1.5l0.5-0.1h1.9
		l0.3,0.1h1.4l0.5,0.1c8.6,0.8,16,4.3,22.1,10.4v0.1c7,6.9,10.5,15.3,10.5,25.3c0,9.4-3.1,17.5-9.4,24.4c-0.1,0.1-0.3,0.3-0.5,0.4
		c-0.2,0.2-0.4,0.4-0.5,0.5c-6.1,6.2-13.4,9.6-22.1,10.4l-0.5,0.1h-1.4l-0.3,0.2h-2l-0.5-0.2h-1.5l-0.3-0.1
		c-8.7-0.7-16.1-4.2-22.2-10.4c-0.2-0.2-0.5-0.5-0.9-0.9c-6.3-6.9-9.5-15-9.5-24.4c0-9.9,3.5-18.3,10.5-25.3v-0.1
		C1201.5,213.5,1208.9,210.1,1217.6,209.3z M1223.3,212.6l-0.3-0.1h-4.3l-0.3,0.1h-0.5c-7.7,0.7-14.4,3.8-20.1,9.3
		c-6.3,6.5-9.5,14.1-9.5,23.1c0,8.9,3.2,16.6,9.5,23.1c5.7,5.5,12.3,8.7,20.1,9.3h0.4l0.3,0.1h4.3l0.3-0.1h0.4
		c7.8-0.7,14.5-3.8,20.1-9.3c6.3-6.5,9.5-14.2,9.5-23.1s-3.2-16.6-9.5-23.1c-5.5-5.5-12.2-8.7-20.1-9.3H1223.3L1223.3,212.6z
		 M1219.3,221.9l0.3-0.1h2.4l0.3,0.1h0.3c5.7,0.4,10.6,2.6,14.7,6.7h-0.1c4.5,4.6,6.8,10.1,6.8,16.5c0,6.2-2,11.5-6.1,15.9
		c-0.3,0.2-0.5,0.4-0.6,0.6c-4.1,4-9,6.3-14.7,6.8h-0.6l-0.3,0.1h-1.8l-0.3-0.1h-0.5c-5.8-0.5-10.7-2.8-14.7-6.8l-0.7-0.6
		c-4.1-4.5-6.1-9.8-6.1-15.9c0-6.4,2.3-11.9,6.8-16.5c4.1-4.1,9-6.3,14.7-6.7H1219.3z M1221.3,225.2l-0.3-0.1h-0.5l-0.3,0.1h-1.2
		c-0.2,0-0.4,0-0.7,0.1c-0.2,0-0.4,0-0.6,0.1c-0.1,0-0.2,0-0.4,0.1c-0.2,0-0.3,0-0.3,0l-0.3,0.1c-0.1,0-0.2,0-0.3,0.1
		c-0.1,0-0.2,0-0.3,0l-0.3,0.1c-0.2,0.1-0.5,0.1-0.9,0.3c-0.3,0.1-0.6,0.2-0.8,0.3l-0.3,0.1l-0.2,0.1c-2.7,1.1-5,2.6-7,4.5
		c-3.9,3.9-5.8,8.6-5.8,14.1s1.9,10.2,5.8,14.1c2,1.9,4.3,3.5,7,4.5l0.2,0.1l0.3,0.1c0.2,0.1,0.4,0.1,0.8,0.3
		c0.4,0.1,0.7,0.1,0.9,0.2h0.3c0.3,0.2,0.5,0.3,0.7,0.3l0.3,0.1c0.1,0,0.2,0,0.3,0c0.2,0.1,0.4,0.1,0.4,0.1c0.2,0,0.4,0,0.6,0.1
		c0.3,0.1,0.5,0.1,0.7,0.1h3.4c0.2-0.1,0.4-0.1,0.7-0.1c0.3-0.1,0.5-0.1,0.7-0.1c0.1,0,0.2,0,0.3-0.1c0.1,0,0.2,0,0.3,0h0.2l0.2-0.1
		c0.1,0,0.4-0.1,0.8-0.3h0.2c0.2-0.1,0.5-0.1,0.9-0.2c0.3-0.1,0.6-0.2,0.9-0.3l0.2-0.1l0.2-0.1c2.8-1.1,5.1-2.6,7-4.5
		c3.9-3.8,5.8-8.5,5.8-14.1c0-5.5-1.9-10.2-5.7-14.1h-0.1c-1.8-1.9-4.2-3.4-7-4.5l-0.2-0.1l-0.2-0.1c-0.2-0.1-0.5-0.1-0.9-0.3
		c-0.4-0.1-0.7-0.2-0.9-0.3l-0.2-0.1c-0.1,0-0.3,0-0.4,0c-0.2-0.1-0.3-0.1-0.3-0.1l-0.2-0.1h-0.2c-0.1,0-0.1,0-0.3,0
		c-0.2-0.1-0.3-0.1-0.3-0.1c-0.2-0.1-0.4-0.1-0.7-0.1c-0.3-0.1-0.5-0.1-0.7-0.1H1221.3z M1220.1,234.5c-2.7,0.2-5,1.2-6.9,3.1h0.2
		c-2.1,2-3.2,4.5-3.2,7.5c0,2.8,0.9,5.2,2.7,7.2c0.1,0.1,0.2,0.2,0.3,0.3c1.9,1.8,4.1,2.8,6.8,3.1h1.5c2.6-0.3,4.8-1.3,6.8-3.1
		c0-0.1,0-0.1,0.1-0.2c0.1-0.1,0.1-0.1,0.2-0.2c1.9-2.1,2.8-4.5,2.8-7.2c0-2.9-1-5.3-3.1-7.5c-1.9-1.9-4.2-2.9-6.9-3.1h-1.3V234.5z
		 M1224.4,238.7c0.6,0.4,1.1,0.8,1.5,1.3c1.4,1.4,2.1,3.1,2.1,5.1c0,2.1-0.7,3.8-2.1,5.1c-0.5,0.5-1,0.9-1.5,1.1l-0.1,0.1l-0.2,0.1
		c-0.1,0.1-0.1,0.1-0.3,0.2c-0.1,0.1-0.1,0.1-0.2,0.2h-0.2c-0.1,0-0.1,0-0.3,0.1c-0.1,0-0.2,0-0.3,0.1h0.1c-0.1,0-0.2,0-0.3,0.1
		c-0.1,0.1-0.2,0.1-0.3,0.1h-0.3l-0.1,0.1h-0.8l-0.1,0.1h-0.6l-0.1-0.1h-0.9l-0.1-0.1h-0.3c-0.1,0-0.2,0-0.3-0.1
		c-0.1-0.1-0.2-0.1-0.3-0.1c-0.6-0.2-0.8-0.2-0.7-0.2c0-0.1-0.1-0.1-0.3-0.2c-0.1-0.1-0.2-0.1-0.3-0.2l-0.2-0.1v-0.1
		c-0.7-0.3-1.2-0.7-1.5-1.1c-1.4-1.4-2.1-3.1-2.1-5.1c0-1.9,0.7-3.6,2.1-5.1h0.1c0.2-0.3,0.7-0.8,1.5-1.3l0.2-0.1
		c0.1,0,0.1,0,0.3-0.1c0.1-0.1,0.2-0.1,0.3-0.2c-0.1,0.1,0.1,0,0.7-0.2c0.1-0.1,0.1-0.1,0.3-0.1c0.2-0.1,0.3-0.1,0.3-0.1h0.3
		l0.1-0.1h0.8v-0.2h0.9v0.2h0.7l0.1,0.1h0.3c0.1,0,0.1,0,0.3,0.1c0.2,0,0.3,0,0.3,0.1h0.1c0.1,0,0.1,0,0.3,0.1
		c0.1,0.1,0.2,0.1,0.3,0.1h0.2c0.1,0.1,0.1,0.1,0.2,0.2C1224.1,238.6,1224.2,238.6,1224.4,238.7L1224.4,238.7L1224.4,238.7z"/>
</g>
<g class="st2">
	<path class="st1" d="M238.9,616V491h51.4c12.7,0,23.7,4.6,32.8,13.8c9.1,9.1,13.6,20.1,13.6,32.9s-4.6,23.8-13.6,32.9
		c-3.2,3.2-6.8,5.9-11.1,8.3l21.7,37.3h-4.1l-21.7-37.4l-0.9-1.5c5.1-2.1,9.6-5.1,13.5-9.1c8.5-8.4,12.6-18.4,12.6-30.4
		s-4.2-22.1-12.6-30.4c-8.3-8.4-18.3-12.5-30.4-12.5h-47.9v121.4h-3.5L238.9,616L238.9,616z M284.9,502.8c7.8,0.1,14.6,2.3,20.3,6.5
		c5.1,3.9,8.9,9.1,11.3,15.6c1.8,4.8,2.8,9.9,2.8,15.2c0,5.2-0.9,10.3-2.8,15.1c-4.3,11.6-12.1,18.6-23.6,21.1l23,39.7h-4.1
		l-22.7-39c-0.3,0.1-0.8,0.1-1.5,0.1c-0.7,0.1-1.2,0.1-1.5,0.2h-7.4v-3.6h6.6c6.9-0.2,12.8-2.1,17.8-5.9c4.6-3.4,7.8-7.9,10.1-13.8
		c1.6-4.4,2.4-9.1,2.4-13.9c0-4.8-0.8-9.5-2.4-13.9c-2.1-5.8-5.5-10.5-10.1-13.9c-5-3.8-11-5.8-17.9-5.9h-29.9v109.6h-3.5V502.8
		H284.9z M287.3,516.8c9.3,0.4,15.6,5.1,18.9,14.2c1.1,2.9,1.6,6,1.6,9.5c0,3.4-0.5,6.5-1.6,9.5c-1.4,4.1-3.8,7.3-6.8,9.8
		c-3.5,2.6-7.5,4.1-12.2,4.2c-0.1,0-1.5,0-4.1,0.1c-2.6,0-4,0-4.1,0v-3.7h8.3c7.6-0.3,12.9-4.2,15.6-11.6c0.9-2.4,1.4-5.2,1.4-8.3
		c0-2.8-0.5-5.6-1.4-8.3c-2.8-7.5-8-11.5-15.8-11.8H268V616h-3.7v-99.2C264.3,516.8,287.3,516.8,287.3,516.8z M285.3,531.4
		c2.3,0,4.5,0.8,6.3,2.5c1.7,1.8,2.5,3.9,2.5,6.3s-0.8,4.5-2.5,6.2c-1.7,1.8-3.9,2.8-6.3,2.8h-4.6v66.9h-3.6v-84.6L285.3,531.4
		L285.3,531.4L285.3,531.4z M297,616h-4.2l-15.4-26.6l3.1-1.7L297,616z M280.8,545.6h4.6c1.4,0,2.8-0.5,3.8-1.6c1-1,1.5-2.2,1.5-3.7
		c0-1.3-0.5-2.5-1.5-3.8c-1.1-1-2.3-1.5-3.8-1.5h-4.6V545.6z"/>
	<path class="st1" d="M353.2,616h-4.3L418.8,493l1.4-2.4l1.3,2.4l70,122.9h-4.3L420.3,498L353.2,616z M472.7,616h4.2l-55.3-98.6
		l-1.3-2.4l-1.4,2.4l-55.4,98.7h4.2l52.5-93.6L472.7,616z M457.7,616h4.3l-40.1-71.8l-1.5-2.8l-1.5,2.8L378.8,616h4.1l37.6-67
		L457.7,616z M399.3,616h-4.2l24.5-43.5l0.6-1.2l0.7,1.2l24.4,43.5h-4.2l-21-37.2L399.3,616z"/>
	<path class="st1" d="M563.6,553.5c2.5,2.8,3.9,6,3.9,9.6c0,3.7-1.3,6.9-3.9,9.7c-2.5,2.6-5.6,4-9.3,4l-44.4,0.2v-3.8l44.4-0.3
		c2.5,0,4.8-0.9,6.7-2.9c1.8-1.9,2.8-4.3,2.8-7c0-2.8-0.9-5-2.8-6.9s-4-2.9-6.4-2.9c-14,0-26-5.2-36-15.7c-10-10.4-15-22.9-15-37.6
		c0-3.1,0.3-6.2,0.8-9.5h3.8c-0.6,3.1-0.9,6.2-0.9,9.5c0,13.5,4.7,25.2,14,34.8c9.2,9.6,20.2,14.5,33,14.6
		C557.9,549.6,561,550.9,563.6,553.5z M550.7,509.1c-2.5-2.6-3.9-5.9-3.9-9.6c0-3.5,1.1-6.4,3.3-8.9h5.8c-0.9,0.4-1.7,1-2.6,1.9
		c-1.8,1.9-2.8,4.3-2.8,7c0,2.8,0.9,5,2.8,6.9c1.7,1.9,4,2.9,6.6,2.9c14,0.1,25.8,5.4,35.8,15.7c10,10.4,15,22.9,15,37.6
		c0,14.6-5,27.1-15,37.6s-21.9,15.7-35.9,15.7l-49.8,0.2v-3.7l49.8-0.3c12.9,0,24.1-4.9,33.4-14.6c9.3-9.7,13.9-21.3,13.9-34.8
		s-4.6-25.2-13.9-34.9c-9.3-9.7-20.4-14.5-33.4-14.5C556.2,513.1,553.3,511.8,550.7,509.1z M583.5,531.3
		c7.6,7.9,11.4,17.5,11.4,28.5v4c0,10.4-3.5,19.5-10.4,27.4c-6.7,7.8-14.6,11.9-23.7,12.1l-50.9,0.9v-3.7l50.9-1
		c8-0.2,15.1-3.9,21.1-10.8c6.3-7.2,9.5-15.5,9.5-24.9v-4c0-10.1-3.5-18.6-10.4-25.9c-6.8-7.2-15.2-10.9-24.9-10.9
		c-7.2,0-13.3-2.6-18.5-8c-5.1-5.5-7.6-11.9-7.6-19.5c0-1.9,0.1-3.6,0.4-5h3.7c-0.3,1.7-0.5,3.4-0.5,5c0,6.5,2.2,12.1,6.7,16.8
		c4.5,4.6,9.9,6.9,16.1,6.9C567,519.4,576,523.5,583.5,531.3z M573,543.4c5.1,5.5,7.6,11.9,7.6,19.5c0,7.5-2.5,14.1-7.6,19.6
		c-5.1,5.4-11.3,8-18.6,8l-44.4,0.3V587l44.4-0.3c6.2,0,11.6-2.3,16.1-6.9c4.5-4.7,6.7-10.3,6.7-16.8s-2.2-12.1-6.7-16.8
		c-4.5-4.6-9.9-6.9-16.1-6.9c-10.3-0.5-18.9-4.5-26.1-11.9c-7.6-7.8-11.4-17.4-11.4-28.6v-4c0-0.9,0.1-2.2,0.2-4h3.8
		c-0.2,1.4-0.3,2.8-0.3,4v4c0,10.1,3.5,18.7,10.4,26c6.8,7.2,15.1,10.8,24.9,10.8C562.4,535.7,568.3,538.4,573,543.4z"/>
	<path class="st1" d="M729.8,508.8l-2.4,2.4c-11.6-11.6-25.6-17.4-42-17.4c-16.3,0-30.3,5.8-42,17.4c-11.6,11.5-17.4,25.5-17.4,42
		s5.8,30.4,17.4,42c11.6,11.6,25.6,17.4,42,17.4s30.4-5.8,42-17.4c0.7-0.7,1.2-1.2,1.5-1.6l2.5,2.3c-0.2,0.2-0.5,0.5-0.9,0.9
		c-0.3,0.4-0.6,0.7-0.8,0.9c-12.4,12.3-27.2,18.4-44.4,18.4c-17.3,0-32.1-6.1-44.3-18.4c-12.3-12.3-18.5-27-18.5-44.4
		s6.1-32.1,18.4-44.4c12.1-12.3,26.9-18.4,44.3-18.4C702.8,490.4,717.6,496.6,729.8,508.8z M720.6,518l-2.4,2.3
		c-9.2-9.1-20.1-13.5-32.8-13.5s-23.7,4.5-32.8,13.5c-9.1,9.2-13.5,20.2-13.5,32.8c0,12.7,4.5,23.7,13.5,32.8
		c9.2,9.1,20.1,13.5,32.8,13.5s23.6-4.5,32.8-13.5c0.1-0.2,0.3-0.4,0.6-0.7s0.5-0.5,0.6-0.7l2.5,2.3c-0.2,0.2-0.4,0.4-0.7,0.7
		s-0.5,0.6-0.6,0.8c-9.7,9.7-21.5,14.5-35.2,14.5c-13.9,0-25.6-4.8-35.1-14.5c-9.7-9.8-14.6-21.5-14.6-35.2s4.9-25.5,14.6-35.2
		c9.6-9.7,21.3-14.6,35.1-14.6C699.2,503.4,711,508.3,720.6,518z M711.4,527.2l-2.3,2.4c-6.5-6.5-14.4-9.8-23.5-9.8
		c-9.2,0-17,3.3-23.5,9.8s-9.8,14.4-9.8,23.5s3.3,17,9.8,23.5c6.5,6.6,14.4,9.9,23.5,9.9c9.2,0,17-3.3,23.5-9.9
		c0.6-0.6,0.9-0.9,0.9-0.9l2.4,2.3c-0.2,0.2-0.6,0.6-1,1c-7.1,7.1-15.8,10.7-26,10.7s-18.8-3.6-26.1-10.7
		c-7.1-7.2-10.7-16-10.7-26.1s3.6-18.7,10.7-26.1c7.1-7.1,15.8-10.7,26.1-10.7C695.6,516.5,704.2,520,711.4,527.2z M702.2,536.4
		l-2.3,2.3c-4-4-8.8-6-14.4-6c-5.6,0-10.5,1.9-14.4,5.9v0.1c-4,4-6,8.9-6,14.4s2,10.4,6,14.4s8.9,6,14.4,6s10.3-2,14.4-6
		c0.1-0.1,0.1-0.1,0.3-0.3c0.1-0.2,0.2-0.3,0.3-0.3l2.5,2.3c-0.2,0.3-0.4,0.5-0.7,0.7c-4.6,4.7-10.1,7-16.8,7s-12.3-2.3-16.8-7
		c-4.6-4.6-6.9-10.2-6.9-16.8s2.3-12.2,6.9-16.8c4.6-4.7,10.2-7,16.8-7C692.1,529.5,697.7,531.9,702.2,536.4z M693.1,545.6l-2.4,2.4
		c-1.4-1.4-3.2-2.1-5.2-2.1c-2.1,0-3.9,0.7-5.2,2.1h-0.1c-1.4,1.5-2.1,3.3-2.1,5.2c0,2,0.7,3.8,2.1,5.3c1.4,1.4,3.2,2.1,5.2,2.1
		c1.9,0,3.8-0.7,5.2-2.1l0.2-0.3l2.5,2.3c-0.1,0.1-0.2,0.2-0.3,0.3c-2.1,2.1-4.7,3.2-7.6,3.2c-3.1,0-5.6-1.1-7.6-3.3v0.1
		c-2.1-2.1-3.3-4.7-3.3-7.6s1.1-5.5,3.3-7.6c2-2.1,4.6-3.2,7.6-3.2S691.1,543.5,693.1,545.6z"/>
	<path class="st1" d="M743.7,615.9V491.1h3.3v124.7L743.7,615.9L743.7,615.9z M756.5,615.9V491.1h3.3v124.7L756.5,615.9L756.5,615.9
		z M771.4,491.1h3.2v53.5h35.3v-53.5h3.3v56.6h-41.8V491.1z M771.4,616h3.2v-57.7h35.3v57.1h3.3V555h-41.8V616z M784,491.1h3.2v40
		h10v-40h3.3v43.2h-16.3L784,491.1L784,491.1z M784,615.3h3.2v-43.6h10v43.8h3.3v-46.9h-16.3L784,615.3L784,615.3z M820.2,615.9
		V491.1h3.4v124.7L820.2,615.9L820.2,615.9z M833,615.9V491.1h3.4v124.7L833,615.9L833,615.9z"/>
	<path class="st1" d="M848.6,616V491.2h3.4V616H848.6z M924.3,491.2v3.4h-59.7v117.9h59.7v3.4h-63.2V491.2H924.3z M924.3,504.6v3.4
		h-46.4v37h46.4v3.4h-49.8v-43.8L924.3,504.6L924.3,504.6z M924.3,557.5v3.4h-46.4v37h46.4v3.5h-49.8v-43.8h49.8V557.5z
		 M924.3,517.9v3.4h-32.4v10.3h32.4v3.4h-35.8v-17.1L924.3,517.9L924.3,517.9z M924.3,570.9v3.4h-32.4v10.4h32.4v3.4h-35.8V571h35.8
		V570.9z"/>
	<path class="st1" d="M936.6,490.6h98.2v3.7h-98.2L936.6,490.6L936.6,490.6z M936.6,504.7h98.2v3.6h-98.2L936.6,504.7L936.6,504.7z
		 M936.6,517.9h45.8v98.2h-3.7v-94.6h-42.2L936.6,517.9L936.6,517.9z M936.6,530h33.7V616h-3.7v-82.4h-30L936.6,530L936.6,530z
		 M1034.7,521.5h-38.2V616h-3.7v-98.2h42v3.6H1034.7z M1034.7,533.6h-26.2V616h-3.6v-86.1h29.7v3.7H1034.7z"/>
	<path class="st1" d="M1047,490.6h98.2v3.7H1047V490.6z M1047,504.7h98.2v3.6H1047V504.7z M1047,517.9h45.8v98.2h-3.7v-94.6h-42.2
		L1047,517.9L1047,517.9z M1047,530h33.7V616h-3.7v-82.4h-30V530z M1145.1,521.5h-38.3V616h-3.7v-98.2h42V521.5L1145.1,521.5z
		 M1145.1,533.6h-26.2V616h-3.6v-86.1h29.7L1145.1,533.6L1145.1,533.6z"/>
	<path class="st1" d="M1214.1,491.6l0.7-0.1h0.8l0.8-0.1h2.4l0.9-0.1l0.7,0.1h2.4l0.8,0.1h0.9l0.7,0.1c14.9,1.3,27.7,7.3,38.5,18
		c12.1,12.1,18.1,26.9,18.1,44.1c0,16.4-5.5,30.5-16.5,42.4c-0.8,0.9-1.3,1.5-1.6,1.8c-10.8,10.7-23.6,16.6-38.5,18l-0.7,0.1h-0.9
		l-0.8,0.1h-6.4l-0.8-0.1h-0.8l-0.7-0.1c-15-1.3-27.9-7.3-38.5-18c-0.7-0.8-1.3-1.4-1.7-1.8c-11-11.9-16.5-26-16.5-42.4
		c0-17.2,6.1-31.9,18.2-44.1C1186.2,499,1199,492.9,1214.1,491.6z M1224.1,495l-0.8-0.2h-0.7l-0.8-0.1h-4.6l-0.8,0.1h-0.8l-0.6,0.2
		h-0.8c-14.3,1.2-26.4,6.9-36.4,17c-11.5,11.5-17.2,25.4-17.2,41.7c0,16.4,5.7,30.3,17.2,41.8c10,10.1,22.1,15.8,36.4,17h0.8
		l0.6,0.1h0.8l0.8,0.1h4.6l0.8-0.1h0.7l0.8-0.1h0.7c14.2-1.2,26.4-6.9,36.5-17c11.5-11.6,17.2-25.5,17.2-41.8
		c0-16.2-5.7-30-17.2-41.7c-10.1-10.1-22.2-15.8-36.5-17C1224.8,495,1224.1,495,1224.1,495z M1215.7,504.5l0.7-0.1h1.8l0.7-0.2h1.2
		l0.7,0.2h1.9l0.5,0.1h0.7c11.8,1,22,5.8,30.5,14.4c9.6,9.6,14.4,21.3,14.4,34.9c0,12.9-4.4,24.1-13,33.5v0.1l-1.4,1.4
		c-8.5,8.5-18.6,13.2-30.5,14.4h-0.7l-0.5,0.1h-1.9l-0.7,0.1h-1.2l-0.7-0.1h-1.8l-0.7-0.1h-0.5c-11.9-1-22.1-5.8-30.6-14.4
		c-0.4-0.5-0.9-1-1.4-1.4v-0.1c-8.7-9.5-13-20.6-13-33.5c0-13.5,4.8-25.2,14.4-34.9c8.5-8.5,18.6-13.2,30.6-14.4H1215.7
		L1215.7,504.5z M1223.7,507.8l-0.5-0.1h-0.6l-0.6-0.1h-4.7l-0.6,0.1h-0.5l-0.6,0.1c-10.9,1-20.5,5.4-28.5,13.3
		c-9,9-13.4,19.8-13.4,32.5s4.5,23.6,13.4,32.6c8,7.9,17.5,12.3,28.5,13.2l0.6,0.2h0.5l0.6,0.1h4.7l0.6-0.1h0.6l0.5-0.2
		c11.1-0.9,20.6-5.4,28.5-13.2c9-9,13.4-19.9,13.4-32.6c0-12.7-4.5-23.5-13.4-32.5C1244.3,513.3,1234.8,508.8,1223.7,507.8z
		 M1216.4,517.3l0.3-0.1h1.5l0.5-0.1h1.9l0.3,0.1h1.4l0.5,0.1c8.8,0.8,16.3,4.4,22.5,10.6v0.1c7.1,7,10.7,15.6,10.7,25.8
		c0,9.6-3.2,17.8-9.6,24.9c-0.1,0.1-0.3,0.3-0.5,0.4c-0.2,0.2-0.4,0.4-0.5,0.5c-6.2,6.3-13.6,9.8-22.5,10.6l-0.5,0.1h-1.4l-0.3,0.2
		h-2l-0.5-0.2h-1.5l-0.3-0.1c-8.9-0.7-16.4-4.3-22.6-10.6c-0.2-0.2-0.5-0.5-0.9-0.9c-6.4-7-9.7-15.3-9.7-24.9
		c0-10.1,3.6-18.6,10.7-25.8v-0.1C1200,521.6,1207.5,518.1,1216.4,517.3z M1222.2,520.6l-0.3-0.1h-4.4l-0.3,0.1h-0.5
		c-7.8,0.7-14.7,3.9-20.5,9.5c-6.4,6.6-9.7,14.4-9.7,23.5s3.3,16.9,9.7,23.5c5.8,5.6,12.5,8.9,20.5,9.5h0.4l0.3,0.1h4.4l0.3-0.1h0.4
		c7.9-0.7,14.8-3.9,20.5-9.5c6.4-6.6,9.7-14.5,9.7-23.5s-3.3-16.9-9.7-23.5c-5.6-5.6-12.4-8.9-20.5-9.5H1222.2z M1218.1,530.1
		l0.3-0.1h2.4l0.3,0.1h0.3c5.8,0.4,10.8,2.6,15,6.8h-0.1c4.6,4.7,6.9,10.3,6.9,16.8c0,6.3-2,11.7-6.2,16.2c-0.3,0.2-0.5,0.4-0.6,0.6
		c-4.2,4.1-9.2,6.4-15,6.9h-0.6l-0.3,0.1h-1.8l-0.3-0.1h-0.5c-5.9-0.5-10.9-2.9-15-6.9l-0.7-0.6c-4.2-4.6-6.2-10-6.2-16.2
		c0-6.5,2.3-12.1,6.9-16.8c4.2-4.2,9.2-6.4,15-6.8H1218.1z M1220.1,533.5l-0.3-0.1h-0.5l-0.3,0.1h-1.2c-0.2,0-0.4,0-0.7,0.1
		c-0.2,0-0.4,0-0.6,0.1c-0.1,0-0.2,0-0.4,0.1c-0.2,0-0.3,0-0.3,0l-0.3,0.1c-0.1,0-0.2,0-0.3,0.1c-0.1,0-0.2,0-0.3,0l-0.3,0.1
		c-0.2,0.1-0.5,0.1-0.9,0.3c-0.3,0.1-0.6,0.2-0.8,0.3l-0.3,0.1l-0.2,0.1c-2.8,1.1-5.1,2.6-7.1,4.6c-4,4-5.9,8.8-5.9,14.4
		c0,5.6,1.9,10.4,5.9,14.4c2,1.9,4.4,3.6,7.1,4.6l0.2,0.1l0.3,0.1c0.2,0.1,0.4,0.1,0.8,0.3c0.4,0.1,0.7,0.1,0.9,0.2h0.3
		c0.3,0.2,0.5,0.3,0.7,0.3l0.3,0.1c0.1,0,0.2,0,0.3,0c0.2,0.1,0.4,0.1,0.4,0.1c0.2,0,0.4,0,0.6,0.1c0.3,0.1,0.5,0.1,0.7,0.1h3.5
		c0.2-0.1,0.4-0.1,0.7-0.1c0.3-0.1,0.5-0.1,0.7-0.1c0.1,0,0.2,0,0.3-0.1c0.1,0,0.2,0,0.3,0h0.2l0.2-0.1c0.1,0,0.4-0.1,0.8-0.3h0.2
		c0.2-0.1,0.5-0.1,0.9-0.2c0.3-0.1,0.6-0.2,0.9-0.3l0.2-0.1l0.2-0.1c2.9-1.1,5.2-2.6,7.1-4.6c4-3.9,5.9-8.7,5.9-14.4
		c0-5.6-1.9-10.4-5.8-14.4h-0.1c-1.8-1.9-4.3-3.5-7.1-4.6l-0.2-0.1l-0.2-0.1c-0.2-0.1-0.5-0.1-0.9-0.3c-0.4-0.1-0.7-0.2-0.9-0.3
		l-0.2-0.1c-0.1,0-0.3,0-0.4,0c-0.2-0.1-0.3-0.1-0.3-0.1l-0.2-0.1h-0.2c-0.1,0-0.1,0-0.3,0c-0.2-0.1-0.3-0.1-0.3-0.1
		c-0.2-0.1-0.4-0.1-0.7-0.1c-0.3-0.1-0.5-0.1-0.7-0.1H1220.1z M1218.9,543c-2.8,0.2-5.1,1.2-7,3.2h0.2c-2.1,2-3.3,4.6-3.3,7.6
		c0,2.9,0.9,5.3,2.8,7.3c0.1,0.1,0.2,0.2,0.3,0.3c1.9,1.8,4.2,2.9,6.9,3.2h1.5c2.6-0.3,4.9-1.3,6.9-3.2c0-0.1,0-0.1,0.1-0.2
		c0.1-0.1,0.1-0.1,0.2-0.2c1.9-2.1,2.9-4.6,2.9-7.3c0-3-1-5.4-3.2-7.6c-1.9-1.9-4.3-3-7-3.2L1218.9,543L1218.9,543z M1223.3,547.2
		c0.6,0.4,1.1,0.8,1.5,1.3c1.4,1.4,2.1,3.2,2.1,5.2c0,2.1-0.7,3.9-2.1,5.2c-0.5,0.5-1,0.9-1.5,1.1l-0.1,0.1l-0.2,0.1
		c-0.1,0.1-0.1,0.1-0.3,0.2c-0.1,0.1-0.1,0.1-0.2,0.2h-0.2c-0.1,0-0.1,0-0.3,0.1c-0.1,0-0.2,0-0.3,0.1h0.1c-0.1,0-0.2,0-0.3,0.1
		s-0.2,0.1-0.3,0.1h-0.3l-0.1,0.1h-0.8l-0.1,0.1h-0.6l-0.1-0.1h-0.9l-0.1-0.1h-0.3c-0.1,0-0.2,0-0.3-0.1s-0.2-0.1-0.3-0.1
		c-0.6-0.2-0.8-0.2-0.7-0.2c0-0.1-0.1-0.1-0.3-0.2c-0.1-0.1-0.2-0.1-0.3-0.2l-0.2-0.1v-0.1c-0.7-0.3-1.2-0.7-1.5-1.1
		c-1.4-1.4-2.1-3.2-2.1-5.2c0-1.9,0.7-3.7,2.1-5.2h0.1c0.2-0.3,0.7-0.8,1.5-1.3l0.2-0.1c0.1,0,0.1,0,0.3-0.1
		c0.1-0.1,0.2-0.1,0.3-0.2c-0.1,0.1,0.1,0,0.7-0.2c0.1-0.1,0.1-0.1,0.3-0.1c0.2-0.1,0.3-0.1,0.3-0.1h0.3l0.1-0.1h0.8v-0.2h0.9v0.2
		h0.7l0.1,0.1h0.3c0.1,0,0.1,0,0.3,0.1c0.2,0,0.3,0,0.3,0.1h0.1c0.1,0,0.1,0,0.3,0.1c0.1,0.1,0.2,0.1,0.3,0.1h0.2
		c0.1,0.1,0.1,0.1,0.2,0.2c0.1,0.1,0.2,0.1,0.3,0.1L1223.3,547.2L1223.3,547.2z"/>
</g>
</svg>
