<?xml version="1.0" encoding="utf-8"?>
<!-- Generator: Adobe Illustrator 19.0.0, SVG Export Plug-In . SVG Version: 6.00 Build 0)  -->
<svg version="1.1" id="Layer_1" xmlns="http://www.w3.org/2000/svg" xmlns:xlink="http://www.w3.org/1999/xlink" x="0px" y="0px"
	 viewBox="240 308 1136.1 177" style="enable-background:new 240 308 1136.1 177;" xml:space="preserve">
<style type="text/css">
	.st0{fill:#E0E0E0;stroke:#E0E0E0;stroke-width:4;stroke-miterlimit:10;}
</style>
<path class="st0" d="M277,465V342.3h50.5c12.5,0,23.3,4.5,32.2,13.5c8.9,8.9,13.4,19.7,13.4,32.3c0,12.6-4.5,23.4-13.4,32.3
	c-3.1,3.1-6.7,5.8-10.9,8.1l21.3,36.6h-4l-21.3-36.7l-0.9-1.5c5-2.1,9.4-5,13.3-8.9c8.3-8.2,12.4-18.1,12.4-29.8
	c0-11.7-4.1-21.7-12.4-29.8c-8.1-8.2-18-12.3-29.8-12.3h-47v119.2H277L277,465L277,465z M322.2,353.9c7.7,0.1,14.3,2.3,19.9,6.4
	c5,3.8,8.7,8.9,11.1,15.3c1.8,4.7,2.7,9.7,2.7,14.9c0,5.1-0.9,10.1-2.7,14.8c-4.2,11.4-11.9,18.3-23.2,20.7l22.6,39h-4l-22.3-38.3
	c-0.3,0.1-0.8,0.1-1.5,0.1c-0.7,0.1-1.2,0.1-1.5,0.2H316v-3.5h6.5c6.8-0.2,12.6-2.1,17.5-5.8c4.5-3.3,7.7-7.8,9.9-13.5
	c1.6-4.3,2.4-8.9,2.4-13.6c0-4.7-0.8-9.3-2.4-13.6c-2.1-5.7-5.4-10.3-9.9-13.6c-4.9-3.7-10.8-5.7-17.6-5.8H293v107.6h-3.4V353.9
	H322.2z M324.6,367.6c9.1,0.4,15.3,5,18.6,13.9c1.1,2.8,1.6,5.9,1.6,9.3c0,3.3-0.5,6.4-1.6,9.3c-1.4,4-3.7,7.2-6.7,9.6
	c-3.4,2.6-7.4,4-12,4.1c-0.1,0-1.5,0-4,0.1c-2.6,0-3.9,0-4,0v-3.6h8.1c7.5-0.3,12.7-4.1,15.3-11.4c0.9-2.4,1.4-5.1,1.4-8.1
	c0-2.7-0.5-5.5-1.4-8.1c-2.7-7.4-7.9-11.3-15.5-11.6h-18.8V465H302v-97.4H324.6z M322.6,382c2.3,0,4.4,0.8,6.2,2.5
	c1.7,1.8,2.5,3.8,2.5,6.2s-0.8,4.4-2.5,6.1c-1.7,1.8-3.8,2.7-6.2,2.7h-4.5v65.7h-3.5v-83.1h8V382L322.6,382z M334.1,465H330
	l-15.2-26.1l3-1.7L334.1,465z M318.2,395.9h4.5c1.4,0,2.7-0.5,3.7-1.6c1-1,1.5-2.2,1.5-3.6c0-1.3-0.5-2.5-1.5-3.7
	c-1.1-1-2.3-1.5-3.7-1.5h-4.5V395.9z"/>
<path class="st0" d="M389.3,465h-4.2l68.6-120.7l1.4-2.4l1.3,2.4L525,465h-4.2l-65.7-115.8L389.3,465z M506.6,465h4.1l-54.3-96.8
	l-1.3-2.4l-1.4,2.4l-54.3,96.9h4.1l51.5-91.9L506.6,465z M491.9,465h4.2l-39.4-70.5l-1.5-2.7l-1.5,2.7L414.3,465h4l36.9-65.8
	L491.9,465z M434.5,465h-4.1l24.1-42.7l0.6-1.2l0.7,1.2l24,42.7h-4.1l-20.6-36.5L434.5,465z"/>
<path class="st0" d="M595.8,403.7c2.5,2.7,3.8,5.9,3.8,9.4c0,3.6-1.3,6.8-3.8,9.5c-2.5,2.6-5.5,3.9-9.1,3.9l-43.6,0.2V423l43.6-0.3
	c2.5,0,4.7-0.9,6.6-2.8c1.8-1.9,2.7-4.2,2.7-6.9s-0.9-4.9-2.7-6.8c-1.8-1.9-3.9-2.8-6.3-2.8c-13.7,0-25.5-5.1-35.3-15.4
	c-9.8-10.2-14.7-22.5-14.7-36.9c0-3,0.3-6.1,0.8-9.3h3.7c-0.6,3-0.9,6.1-0.9,9.3c0,13.3,4.6,24.7,13.7,34.2
	c9,9.4,19.8,14.2,32.4,14.3C590.2,399.8,593.3,401.1,595.8,403.7z M583.2,360.1c-2.5-2.6-3.8-5.8-3.8-9.4c0-3.4,1.1-6.3,3.2-8.7h5.7
	c-0.9,0.4-1.7,1-2.6,1.9c-1.8,1.9-2.7,4.2-2.7,6.9c0,2.7,0.9,4.9,2.7,6.8c1.7,1.9,3.9,2.8,6.5,2.8c13.7,0.1,25.3,5.3,35.1,15.4
	c9.8,10.2,14.7,22.5,14.7,36.9c0,14.3-4.9,26.6-14.7,36.9c-9.8,10.3-21.5,15.4-35.2,15.4l-48.9,0.2v-3.7l48.9-0.3
	c12.7,0,23.7-4.8,32.8-14.3s13.6-20.9,13.6-34.2c0-13.3-4.5-24.7-13.6-34.3c-9.1-9.5-20-14.2-32.8-14.2
	C588.6,364,585.7,362.7,583.2,360.1z M615.4,381.9c7.5,7.8,11.2,17.2,11.2,28v3.9c0,10.2-3.4,19.1-10.2,26.9
	c-6.6,7.7-14.3,11.7-23.3,11.9l-50,0.9v-3.6l50-1c7.9-0.2,14.8-3.8,20.7-10.6c6.2-7.1,9.3-15.2,9.3-24.4V410
	c0-9.9-3.4-18.3-10.2-25.4c-6.7-7.1-14.9-10.7-24.4-10.7c-7.1,0-13.1-2.6-18.2-7.9c-5-5.4-7.5-11.7-7.5-19.1c0-1.9,0.1-3.5,0.4-4.9
	h3.6c-0.3,1.7-0.5,3.3-0.5,4.9c0,6.4,2.2,11.9,6.6,16.5c4.4,4.5,9.7,6.8,15.8,6.8C599.2,370.2,608,374.2,615.4,381.9z M605.1,393.7
	c5,5.4,7.5,11.7,7.5,19.1c0,7.4-2.5,13.8-7.5,19.2c-5,5.3-11.1,7.9-18.3,7.9l-43.6,0.3v-3.7l43.6-0.3c6.1,0,11.4-2.3,15.8-6.8
	c4.4-4.6,6.6-10.1,6.6-16.5c0-6.4-2.2-11.9-6.6-16.5c-4.4-4.5-9.7-6.8-15.8-6.8c-10.1-0.5-18.6-4.4-25.6-11.7
	c-7.5-7.7-11.2-17.1-11.2-28.1v-3.9c0-0.9,0.1-2.2,0.2-3.9h3.7c-0.2,1.4-0.3,2.7-0.3,3.9v3.9c0,9.9,3.4,18.4,10.2,25.5
	c6.7,7.1,14.8,10.6,24.4,10.6C594.7,386.2,600.4,388.8,605.1,393.7z"/>
<path class="st0" d="M759,359.8l-2.4,2.4c-11.4-11.4-25.1-17.1-41.2-17.1c-16,0-29.7,5.7-41.2,17.1c-11.4,11.3-17.1,25-17.1,41.2
	c0,16.2,5.7,29.8,17.1,41.2c11.4,11.4,25.1,17.1,41.2,17.1c16.1,0,29.8-5.7,41.2-17.1c0.7-0.7,1.2-1.2,1.5-1.6l2.5,2.3
	c-0.2,0.2-0.5,0.5-0.9,0.9c-0.3,0.4-0.6,0.7-0.8,0.9c-12.2,12.1-26.7,18.1-43.6,18.1c-17,0-31.5-6-43.5-18.1
	c-12.1-12.1-18.1-26.6-18.1-43.6s6-31.5,18.1-43.6c11.9-12.1,26.4-18.1,43.5-18.1C732.5,341.7,747,347.8,759,359.8z M750,368.8
	l-2.4,2.3c-9-8.9-19.7-13.3-32.2-13.3s-23.3,4.4-32.2,13.3c-8.9,9-13.3,19.8-13.3,32.2c0,12.5,4.4,23.3,13.3,32.2
	c9,8.9,19.7,13.3,32.2,13.3s23.2-4.4,32.2-13.3c0.1-0.2,0.3-0.4,0.6-0.7c0.3-0.3,0.5-0.5,0.6-0.7l2.5,2.3c-0.2,0.2-0.4,0.4-0.7,0.7
	c-0.3,0.3-0.5,0.6-0.6,0.8c-9.5,9.5-21.1,14.2-34.6,14.2c-13.6,0-25.1-4.7-34.5-14.2c-9.5-9.6-14.3-21.1-14.3-34.6s4.8-25,14.3-34.6
	c9.4-9.5,20.9-14.3,34.5-14.3C729,354.5,740.5,359.3,750,368.8z M740.9,377.8l-2.3,2.4c-6.4-6.4-14.1-9.6-23.1-9.6
	s-16.7,3.2-23.1,9.6c-6.4,6.4-9.6,14.1-9.6,23.1s3.2,16.7,9.6,23.1c6.4,6.5,14.1,9.7,23.1,9.7s16.7-3.2,23.1-9.7
	c0.6-0.6,0.9-0.9,0.9-0.9l2.4,2.3c-0.2,0.2-0.6,0.6-1,1c-7,7-15.5,10.5-25.5,10.5s-18.5-3.5-25.6-10.5c-7-7.1-10.5-15.7-10.5-25.6
	s3.5-18.4,10.5-25.6c7-7,15.5-10.5,25.6-10.5C725.4,367.3,733.9,370.8,740.9,377.8z M731.9,386.9l-2.3,2.3
	c-3.9-3.9-8.6-5.9-14.1-5.9s-10.3,1.9-14.1,5.8v0.1c-3.9,3.9-5.9,8.7-5.9,14.1c0,5.4,2,10.2,5.9,14.1c3.9,3.9,8.7,5.9,14.1,5.9
	s10.1-2,14.1-5.9c0.1-0.1,0.1-0.1,0.3-0.3c0.1-0.2,0.2-0.3,0.3-0.3l2.5,2.3c-0.2,0.3-0.4,0.5-0.7,0.7c-4.5,4.6-9.9,6.9-16.5,6.9
	s-12.1-2.3-16.5-6.9c-4.5-4.5-6.8-10-6.8-16.5s2.3-12,6.8-16.5c4.5-4.6,10-6.9,16.5-6.9C722,380.1,727.5,382.4,731.9,386.9z
	 M723,395.9l-2.4,2.4c-1.4-1.4-3.1-2.1-5.1-2.1c-2.1,0-3.8,0.7-5.1,2.1h-0.1c-1.4,1.5-2.1,3.2-2.1,5.1c0,2,0.7,3.7,2.1,5.2
	c1.4,1.4,3.1,2.1,5.1,2.1c1.9,0,3.7-0.7,5.1-2.1l0.2-0.3l2.5,2.3c-0.1,0.1-0.2,0.2-0.3,0.3c-2.1,2.1-4.6,3.1-7.5,3.1
	c-3,0-5.5-1.1-7.5-3.2v0.1c-2.1-2.1-3.2-4.6-3.2-7.5c0-2.9,1.1-5.4,3.2-7.5c2-2.1,4.5-3.1,7.5-3.1S721,393.8,723,395.9z"/>
<path class="st0" d="M772.7,464.9V342.4h3.2v122.4L772.7,464.9L772.7,464.9z M785.2,464.9V342.4h3.2v122.4L785.2,464.9L785.2,464.9z
	 M799.8,342.4h3.1v52.5h34.7v-52.5h3.2V398h-41V342.4z M799.8,465h3.1v-56.6h34.7v56.1h3.2v-59.2h-41V465z M812.2,342.4h3.1v39.3
	h9.8v-39.3h3.2v42.4h-16L812.2,342.4L812.2,342.4z M812.2,464.3h3.1v-42.8h9.8v43h3.2v-46h-16L812.2,464.3L812.2,464.3z
	 M847.8,464.9V342.4h3.3v122.4L847.8,464.9L847.8,464.9z M860.3,464.9V342.4h3.3v122.4L860.3,464.9L860.3,464.9z"/>
<path class="st0" d="M924.6,465V342.5h3.3V465H924.6z M999,342.5v3.3h-58.6v115.8H999v3.3h-62V342.5H999z M999,355.6v3.3h-45.6v36.3
	H999v3.3h-48.9v-43H999V355.6z M999,407.6v3.3h-45.6v36.3H999v3.4h-48.9v-43H999z M999,368.7v3.3h-31.8v10.1H999v3.3h-35.2v-16.8
	H999V368.7z M999,420.7v3.3h-31.8v10.2H999v3.3h-35.2v-16.8H999z"/>
<path class="st0" d="M1011,341.9h96.4v3.6H1011V341.9z M1011,355.7h96.4v3.5H1011V355.7z M1011,368.7h45v96.4h-3.6v-92.9H1011V368.7
	z M1011,380.6h33.1v84.5h-3.6v-80.9H1011V380.6z M1107.4,372.2h-37.6v92.9h-3.6v-96.4h41.2V372.2L1107.4,372.2z M1107.4,384.1h-25.7
	V465h-3.5v-84.5h29.2V384.1z"/>
<path class="st0" d="M1119.4,341.9h96.4v3.6h-96.4V341.9z M1119.4,355.7h96.4v3.5h-96.4V355.7z M1119.4,368.7h45v96.4h-3.6v-92.9
	h-41.4V368.7z M1119.4,380.6h33.1v84.5h-3.6v-80.9h-29.5V380.6z M1215.7,372.2h-37.6v92.9h-3.6v-96.4h41.2V372.2L1215.7,372.2z
	 M1215.7,384.1H1190V465h-3.5v-84.5h29.2V384.1z"/>
<path class="st0" d="M1283.5,342.9l0.7-0.1h0.8l0.8-0.1h2.4l0.9-0.1l0.7,0.1h2.4l0.8,0.1h0.9l0.7,0.1c14.6,1.3,27.2,7.2,37.8,17.7
	c11.9,11.9,17.8,26.4,17.8,43.3c0,16.1-5.4,29.9-16.2,41.6c-0.8,0.9-1.3,1.5-1.6,1.8c-10.6,10.5-23.2,16.3-37.8,17.7l-0.7,0.1h-0.9
	l-0.8,0.1h-6.3l-0.8-0.1h-0.8l-0.7-0.1c-14.7-1.3-27.4-7.2-37.8-17.7c-0.7-0.8-1.3-1.4-1.7-1.8c-10.8-11.7-16.2-25.5-16.2-41.6
	c0-16.9,6-31.3,17.9-43.3C1256.1,350.1,1268.7,344.2,1283.5,342.9z M1293.3,346.2l-0.8-0.2h-0.7l-0.8-0.1h-4.5l-0.8,0.1h-0.8
	l-0.6,0.2h-0.8c-14,1.2-25.9,6.8-35.7,16.7c-11.3,11.3-16.9,24.9-16.9,40.9c0,16.1,5.6,29.7,16.9,41c9.8,9.9,21.7,15.5,35.7,16.7
	h0.8l0.6,0.1h0.8l0.8,0.1h4.5l0.8-0.1h0.7l0.8-0.1h0.7c13.9-1.2,25.9-6.8,35.8-16.7c11.3-11.4,16.9-25,16.9-41
	c0-15.9-5.6-29.5-16.9-40.9c-9.9-9.9-21.8-15.5-35.8-16.7H1293.3z M1285.1,355.5l0.7-0.1h1.8l0.7-0.2h1.2l0.7,0.2h1.9l0.5,0.1h0.7
	c11.6,1,21.6,5.7,29.9,14.1c9.4,9.4,14.1,20.9,14.1,34.3c0,12.7-4.3,23.7-12.8,32.9v0.1l-1.4,1.4c-8.3,8.3-18.3,13-29.9,14.1h-0.7
	l-0.5,0.1h-1.9l-0.7,0.1h-1.2l-0.7-0.1h-1.8l-0.7-0.1h-0.5c-11.7-1-21.7-5.7-30-14.1c-0.4-0.5-0.9-1-1.4-1.4v-0.1
	c-8.5-9.3-12.8-20.2-12.8-32.9c0-13.3,4.7-24.7,14.1-34.3c8.3-8.3,18.3-13,30-14.1L1285.1,355.5L1285.1,355.5z M1292.9,358.8
	l-0.5-0.1h-0.6l-0.6-0.1h-4.6l-0.6,0.1h-0.5l-0.6,0.1c-10.7,1-20.1,5.3-28,13.1c-8.8,8.8-13.2,19.4-13.2,31.9s4.4,23.2,13.2,32
	c7.9,7.8,17.2,12.1,28,13l0.6,0.2h0.5l0.6,0.1h4.6l0.6-0.1h0.6l0.5-0.2c10.9-0.9,20.2-5.3,28-13c8.8-8.8,13.2-19.5,13.2-32
	s-4.4-23.1-13.2-31.9C1313.1,364.2,1303.8,359.8,1292.9,358.8z M1285.7,368.1l0.3-0.1h1.5l0.5-0.1h1.9l0.3,0.1h1.4l0.5,0.1
	c8.6,0.8,16,4.3,22.1,10.4v0.1c7,6.9,10.5,15.3,10.5,25.3c0,9.4-3.1,17.5-9.4,24.4c-0.1,0.1-0.3,0.3-0.5,0.4
	c-0.2,0.2-0.4,0.4-0.5,0.5c-6.1,6.2-13.4,9.6-22.1,10.4l-0.5,0.1h-1.4l-0.3,0.2h-2l-0.5-0.2h-1.5l-0.3-0.1
	c-8.7-0.7-16.1-4.2-22.2-10.4c-0.2-0.2-0.5-0.5-0.9-0.9c-6.3-6.9-9.5-15-9.5-24.4c0-9.9,3.5-18.3,10.5-25.3v-0.1
	C1269.6,372.3,1277,368.9,1285.7,368.1z M1291.4,371.4l-0.3-0.1h-4.3l-0.3,0.1h-0.5c-7.7,0.7-14.4,3.8-20.1,9.3
	c-6.3,6.5-9.5,14.1-9.5,23.1c0,8.9,3.2,16.6,9.5,23.1c5.7,5.5,12.3,8.7,20.1,9.3h0.4l0.3,0.1h4.3l0.3-0.1h0.4
	c7.8-0.7,14.5-3.8,20.1-9.3c6.3-6.5,9.5-14.2,9.5-23.1c0-8.9-3.2-16.6-9.5-23.1c-5.5-5.5-12.2-8.7-20.1-9.3H1291.4z M1287.4,380.7
	l0.3-0.1h2.4l0.3,0.1h0.3c5.7,0.4,10.6,2.6,14.7,6.7h-0.1c4.5,4.6,6.8,10.1,6.8,16.5c0,6.2-2,11.5-6.1,15.9
	c-0.3,0.2-0.5,0.4-0.6,0.6c-4.1,4-9,6.3-14.7,6.8h-0.6l-0.3,0.1h-1.8l-0.3-0.1h-0.5c-5.8-0.5-10.7-2.8-14.7-6.8l-0.7-0.6
	c-4.1-4.5-6.1-9.8-6.1-15.9c0-6.4,2.3-11.9,6.8-16.5c4.1-4.1,9-6.3,14.7-6.7H1287.4z M1289.4,384l-0.3-0.1h-0.5l-0.3,0.1h-1.2
	c-0.2,0-0.4,0-0.7,0.1c-0.2,0-0.4,0-0.6,0.1c-0.1,0-0.2,0-0.4,0.1c-0.2,0-0.3,0-0.3,0l-0.3,0.1c-0.1,0-0.2,0-0.3,0.1
	c-0.1,0-0.2,0-0.3,0l-0.3,0.1c-0.2,0.1-0.5,0.1-0.9,0.3c-0.3,0.1-0.6,0.2-0.8,0.3l-0.3,0.1l-0.2,0.1c-2.7,1.1-5,2.6-7,4.5
	c-3.9,3.9-5.8,8.6-5.8,14.1s1.9,10.2,5.8,14.1c2,1.9,4.3,3.5,7,4.5l0.2,0.1l0.3,0.1c0.2,0.1,0.4,0.1,0.8,0.3
	c0.4,0.1,0.7,0.1,0.9,0.2h0.3c0.3,0.2,0.5,0.3,0.7,0.3l0.3,0.1c0.1,0,0.2,0,0.3,0c0.2,0.1,0.4,0.1,0.4,0.1c0.2,0,0.4,0,0.6,0.1
	c0.3,0.1,0.5,0.1,0.7,0.1h3.4c0.2-0.1,0.4-0.1,0.7-0.1c0.3-0.1,0.5-0.1,0.7-0.1c0.1,0,0.2,0,0.3-0.1c0.1,0,0.2,0,0.3,0h0.2l0.2-0.1
	c0.1,0,0.4-0.1,0.8-0.3h0.2c0.2-0.1,0.5-0.1,0.9-0.2c0.3-0.1,0.6-0.2,0.9-0.3l0.2-0.1l0.2-0.1c2.8-1.1,5.1-2.6,7-4.5
	c3.9-3.8,5.8-8.5,5.8-14.1c0-5.5-1.9-10.2-5.7-14.1h-0.1c-1.8-1.9-4.2-3.4-7-4.5l-0.2-0.1l-0.2-0.1c-0.2-0.1-0.5-0.1-0.9-0.3
	c-0.4-0.1-0.7-0.2-0.9-0.3l-0.2-0.1c-0.1,0-0.3,0-0.4,0c-0.2-0.1-0.3-0.1-0.3-0.1l-0.2-0.1h-0.2c-0.1,0-0.1,0-0.3,0
	c-0.2-0.1-0.3-0.1-0.3-0.1c-0.2-0.1-0.4-0.1-0.7-0.1c-0.3-0.1-0.5-0.1-0.7-0.1H1289.4z M1288.2,393.3c-2.7,0.2-5,1.2-6.9,3.1h0.2
	c-2.1,2-3.2,4.5-3.2,7.5c0,2.8,0.9,5.2,2.7,7.2c0.1,0.1,0.2,0.2,0.3,0.3c1.9,1.8,4.1,2.8,6.8,3.1h1.5c2.6-0.3,4.8-1.3,6.8-3.1
	c0-0.1,0-0.1,0.1-0.2s0.1-0.1,0.2-0.2c1.9-2.1,2.8-4.5,2.8-7.2c0-2.9-1-5.3-3.1-7.5c-1.9-1.9-4.2-2.9-6.9-3.1h-1.3V393.3z
	 M1292.5,397.5c0.6,0.4,1.1,0.8,1.5,1.3c1.4,1.4,2.1,3.1,2.1,5.1c0,2.1-0.7,3.8-2.1,5.1c-0.5,0.5-1,0.9-1.5,1.1l-0.1,0.1l-0.2,0.1
	c-0.1,0.1-0.1,0.1-0.3,0.2c-0.1,0.1-0.1,0.1-0.2,0.2h-0.2c-0.1,0-0.1,0-0.3,0.1c-0.1,0-0.2,0-0.3,0.1h0.1c-0.1,0-0.2,0-0.3,0.1
	c-0.1,0.1-0.2,0.1-0.3,0.1h-0.3l-0.1,0.1h-0.8l-0.1,0.1h-0.6l-0.1-0.1h-0.9l-0.1-0.1h-0.3c-0.1,0-0.2,0-0.3-0.1s-0.2-0.1-0.3-0.1
	c-0.6-0.2-0.8-0.2-0.7-0.2c0-0.1-0.1-0.1-0.3-0.2c-0.1-0.1-0.2-0.1-0.3-0.2l-0.2-0.1v-0.1c-0.7-0.3-1.2-0.7-1.5-1.1
	c-1.4-1.4-2.1-3.1-2.1-5.1c0-1.9,0.7-3.6,2.1-5.1h0.1c0.2-0.3,0.7-0.8,1.5-1.3l0.2-0.1c0.1,0,0.1,0,0.3-0.1c0.1-0.1,0.2-0.1,0.3-0.2
	c-0.1,0.1,0.1,0,0.7-0.2c0.1-0.1,0.1-0.1,0.3-0.1c0.2-0.1,0.3-0.1,0.3-0.1h0.3l0.1-0.1h0.8v-0.2h0.9v0.2h0.7l0.1,0.1h0.3
	c0.1,0,0.1,0,0.3,0.1c0.2,0,0.3,0,0.3,0.1h0.1c0.1,0,0.1,0,0.3,0.1c0.1,0.1,0.2,0.1,0.3,0.1h0.2c0.1,0.1,0.1,0.1,0.2,0.2
	S1292.3,397.4,1292.5,397.5L1292.5,397.5L1292.5,397.5z"/>
<rect x="878.8" y="344" class="st0" width="3.3" height="122.5"/>
<rect x="892.3" y="325.6" class="st0" width="3.3" height="140.9"/>
<rect x="905.1" y="344" class="st0" width="3.3" height="122.5"/>
</svg>
