<svg width="400px" height="149px" viewBox="0 0 409 112" version="1.1" xmlns="http://www.w3.org/2000/svg">
<g id="#2d234fff">
<path fill="#2d234f" opacity="1.00" d=" M 0.00 0.00 L 151.23 0.00 C 151.25 6.67 151.28 13.33 151.20 20.00 C 129.13 20.00 107.07 20.00 85.00 20.00 C 85.00 32.24 85.00 44.48 85.00 56.72 C 78.51 52.72 71.68 49.28 65.37 44.99 C 65.34 39.71 63.40 34.24 59.03 31.01 C 53.52 26.40 45.30 26.40 39.31 30.12 C 32.51 26.06 25.73 21.94 18.71 18.26 C 18.46 18.12 17.96 17.85 17.71 17.72 C 11.71 14.35 6.02 10.47 0.00 7.14 L 0.00 0.00 Z" />
<path fill="#2d234f" opacity="1.00" d=" M 242.55 0.00 L 409.00 0.00 L 409.00 52.96 C 405.11 55.24 401.08 57.25 397.25 59.61 C 390.81 63.18 384.61 67.17 378.03 70.45 C 370.79 66.84 364.14 62.17 356.99 58.41 C 356.49 58.15 355.50 57.63 355.01 57.37 C 354.56 44.92 354.87 32.46 355.01 20.00 C 335.99 19.81 316.97 20.58 297.96 20.00 C 283.63 19.61 269.31 20.62 254.98 20.03 C 250.84 19.95 246.71 20.02 242.57 20.00 C 242.54 13.33 242.56 6.67 242.55 0.00 Z" />
<path fill="#2d234f" opacity="1.00" d=" M 43.83 33.26 C 47.42 32.84 51.51 31.98 54.70 34.23 C 57.57 35.91 59.10 39.07 59.94 42.16 C 54.38 39.55 49.21 36.22 43.83 33.26 Z" />
<path fill="#2d234f" opacity="1.00" d=" M 17.76 71.23 C 23.59 74.55 29.28 78.11 35.10 81.45 C 43.83 86.50 52.42 91.79 61.19 96.76 C 61.41 96.89 61.84 97.14 62.06 97.26 C 64.16 98.47 66.23 99.72 68.28 101.00 C 51.49 101.01 34.70 100.99 17.91 101.00 C 17.64 91.08 17.37 81.15 17.76 71.23 Z" />
<path fill="#2d234f" opacity="1.00" d=" M 125.20 80.11 C 154.50 79.51 183.80 79.92 213.11 80.05 C 215.55 81.77 218.09 83.35 220.70 84.81 C 226.91 88.43 233.24 91.83 239.26 95.76 C 239.84 96.14 240.42 96.52 241.01 96.91 C 241.02 98.26 241.04 99.61 241.06 100.96 C 226.22 101.05 211.38 100.98 196.54 101.00 C 196.56 94.15 196.60 87.30 196.51 80.44 C 173.00 79.92 149.48 80.29 125.97 80.26 C 125.78 80.22 125.39 80.14 125.20 80.11 Z" />
</g>
<g id="#6a57b3ff">
<path fill="#6a57b3" opacity="1.00" d=" M 151.23 0.00 L 167.30 0.00 C 170.60 1.87 173.76 3.98 177.15 5.70 C 179.28 9.66 181.41 13.62 183.14 17.78 C 182.42 18.53 181.71 19.27 181.00 20.02 C 171.07 20.58 161.14 19.90 151.20 20.00 C 151.28 13.33 151.25 6.67 151.23 0.00 Z" />
<path fill="#6a57b3" opacity="1.00" d=" M 0.00 10.40 C 3.14 14.41 5.54 18.89 7.91 23.38 C 5.26 24.86 2.63 26.39 0.00 27.90 L 0.00 10.40 Z" />
<path fill="#6a57b3" opacity="1.00" d=" M 90.74 80.01 C 102.23 80.00 113.72 79.40 125.20 80.11 C 125.39 80.14 125.78 80.22 125.97 80.26 C 128.89 83.57 132.93 85.47 136.74 87.54 C 138.42 92.11 141.64 96.04 142.36 100.96 C 121.01 101.06 99.66 100.97 78.30 101.00 C 76.77 97.45 75.12 93.96 73.39 90.51 C 76.68 88.56 79.90 86.49 83.31 84.75 C 85.98 83.48 88.50 81.93 90.74 80.01 Z" />
<path fill="#6a57b3" opacity="1.00" d=" M 265.79 83.37 C 266.71 82.82 267.64 82.26 268.54 81.66 C 273.64 82.16 278.76 82.07 283.86 81.85 L 283.90 81.85 L 284.09 82.58 C 284.57 84.58 285.04 86.59 285.47 88.60 C 285.09 92.72 284.97 96.86 285.09 101.00 C 274.22 100.99 263.34 101.02 252.47 100.99 C 251.23 98.33 249.87 95.73 248.43 93.17 C 254.27 90.01 259.95 86.55 265.79 83.37 Z" />
</g>
<g id="#e65152ff">
<path fill="#e65152" opacity="1.00" d=" M 167.30 0.00 L 185.79 0.00 C 188.65 5.32 192.88 9.82 195.24 15.39 C 188.95 12.65 183.31 8.68 177.15 5.70 C 173.76 3.98 170.60 1.87 167.30 0.00 Z" />
</g>
<g id="#db495bff">
<path fill="#db495b" opacity="1.00" d=" M 185.79 0.00 L 205.84 0.00 C 210.44 5.11 212.66 11.74 215.78 17.75 C 214.82 18.53 213.86 19.30 212.89 20.07 C 206.22 20.33 199.54 19.84 192.86 19.99 C 193.89 19.19 194.91 18.38 195.94 17.58 C 195.72 16.84 195.49 16.11 195.24 15.39 C 192.88 9.82 188.65 5.32 185.79 0.00 Z" />
</g>
<g id="#ca4165ff">
<path fill="#ca4165" opacity="1.00" d=" M 205.84 0.00 L 227.61 0.00 C 231.14 5.77 233.90 11.96 237.22 17.85 C 236.47 18.57 235.73 19.30 234.99 20.02 C 227.63 20.52 220.26 19.87 212.89 20.07 C 213.86 19.30 214.82 18.53 215.78 17.75 C 212.66 11.74 210.44 5.11 205.84 0.00 Z" />
</g>
<g id="#bd396dff">
<path fill="#bd396d" opacity="1.00" d=" M 227.61 0.00 L 242.55 0.00 C 242.56 6.67 242.54 13.33 242.57 20.00 C 240.04 19.99 237.52 19.98 234.99 20.02 C 235.73 19.30 236.47 18.57 237.22 17.85 C 233.90 11.96 231.14 5.77 227.61 0.00 Z" />
</g>
<g id="#604ea3ff">
<path fill="#604ea3" opacity="1.00" d=" M 177.15 5.70 C 183.31 8.68 188.95 12.65 195.24 15.39 C 195.49 16.11 195.72 16.84 195.94 17.58 C 194.91 18.38 193.89 19.19 192.86 19.99 C 188.91 20.01 184.95 19.97 181.00 20.02 C 181.71 19.27 182.42 18.53 183.14 17.78 C 181.41 13.62 179.28 9.66 177.15 5.70 Z" />
<path fill="#604ea3" opacity="1.00" d=" M 0.00 7.14 C 6.02 10.47 11.71 14.35 17.71 17.72 C 14.48 19.67 11.21 21.55 7.91 23.38 C 5.54 18.89 3.14 14.41 0.00 10.40 L 0.00 7.14 Z" />
<path fill="#604ea3" opacity="1.00" d=" M 136.74 87.54 C 141.80 89.84 146.39 92.99 151.22 95.71 C 148.34 97.48 145.51 99.33 142.55 100.95 L 142.36 100.96 C 141.64 96.04 138.42 92.11 136.74 87.54 Z" />
<path fill="#604ea3" opacity="1.00" d=" M 62.06 97.26 C 65.82 94.98 69.60 92.74 73.39 90.51 C 75.12 93.96 76.77 97.45 78.30 101.00 C 74.96 101.00 71.62 101.00 68.28 101.00 C 66.23 99.72 64.16 98.47 62.06 97.26 Z" />
<path fill="#604ea3" opacity="1.00" d=" M 331.27 97.24 C 333.84 95.76 336.32 94.15 338.87 92.65 C 340.61 95.29 342.10 98.09 343.35 100.99 C 341.31 100.99 339.28 101.00 337.24 101.00 C 335.28 99.70 333.32 98.40 331.27 97.24 Z" />
</g>
<g id="#fa8037ff">
<path fill="#fa8037" opacity="1.00" d=" M 7.91 23.38 C 11.21 21.55 14.48 19.67 17.71 17.72 C 17.96 17.85 18.46 18.12 18.71 18.26 C 17.60 23.52 17.89 28.91 18.12 34.24 C 18.30 42.73 16.47 51.12 16.86 59.61 C 12.90 56.28 11.97 50.95 9.16 46.82 C 5.75 41.84 4.29 35.70 0.00 31.31 L 0.00 27.90 C 2.63 26.39 5.26 24.86 7.91 23.38 Z" />
<path fill="#fa8037" opacity="1.00" d=" M 37.71 44.01 C 37.42 39.55 40.43 35.77 43.83 33.26 C 49.21 36.22 54.38 39.55 59.94 42.16 C 59.73 44.08 59.57 45.99 59.28 47.90 C 59.15 47.49 58.91 46.69 58.78 46.29 C 54.30 48.75 49.76 51.22 45.97 54.71 C 41.31 53.31 37.54 49.03 37.71 44.01 Z" />
<path fill="#fa8037" opacity="1.00" d=" M 63.54 62.52 C 66.57 65.49 69.50 68.55 72.77 71.27 C 75.88 76.07 78.68 81.18 83.31 84.75 C 79.90 86.49 76.68 88.56 73.39 90.51 C 69.60 92.74 65.82 94.98 62.06 97.26 C 61.84 97.14 61.41 96.89 61.19 96.76 C 63.34 85.46 60.67 73.77 63.54 62.52 Z" />
</g>
<g id="#fb8b35ff">
<path fill="#fb8b35" opacity="1.00" d=" M 18.12 34.24 C 17.89 28.91 17.60 23.52 18.71 18.26 C 25.73 21.94 32.51 26.06 39.31 30.12 C 33.60 34.27 30.73 42.17 33.08 48.92 C 35.09 55.23 41.35 59.83 47.96 59.95 C 51.96 60.26 55.75 58.70 59.20 56.85 C 60.33 58.96 61.77 60.90 63.54 62.52 C 60.67 73.77 63.34 85.46 61.19 96.76 C 52.42 91.79 43.83 86.50 35.10 81.45 C 34.24 75.13 29.97 70.14 27.07 64.67 C 29.71 63.09 32.49 61.69 34.79 59.62 C 35.17 57.82 34.15 56.13 33.36 54.60 C 30.93 50.46 27.80 46.74 25.70 42.40 C 23.80 38.51 22.05 34.53 19.59 30.95 C 19.08 32.04 18.59 33.13 18.12 34.24 Z" />
<path fill="#fb8b35" opacity="1.00" d=" M 221.06 82.12 C 228.05 81.87 235.05 82.18 242.04 81.93 C 241.74 86.57 243.38 92.37 239.26 95.76 C 233.24 91.83 226.91 88.43 220.70 84.81 C 220.79 84.14 220.97 82.79 221.06 82.12 Z" />
</g>
<g id="#ffffffff">
<path fill="#ffffff" opacity="1.00" d=" M 85.00 20.00 C 107.07 20.00 129.13 20.00 151.20 20.00 C 161.14 19.90 171.07 20.58 181.00 20.02 C 184.95 19.97 188.91 20.01 192.86 19.99 C 199.54 19.84 206.22 20.33 212.89 20.07 C 220.26 19.87 227.63 20.52 234.99 20.02 C 237.52 19.98 240.04 19.99 242.57 20.00 C 246.71 20.02 250.84 19.95 254.98 20.03 C 269.31 20.62 283.63 19.61 297.96 20.00 C 316.97 20.58 335.99 19.81 355.01 20.00 C 354.87 32.46 354.56 44.92 355.01 57.37 C 354.99 64.84 355.01 72.31 354.98 79.78 C 347.33 79.77 339.67 79.76 332.01 79.77 C 332.18 85.39 331.70 91.03 330.16 96.45 C 331.48 89.06 332.33 81.44 331.22 73.98 C 330.60 70.42 326.28 69.15 323.56 71.31 C 322.73 69.31 322.53 66.17 319.93 65.70 C 317.57 64.88 315.42 66.15 313.52 67.41 C 312.81 65.32 312.43 62.57 310.00 61.77 C 307.00 60.93 304.19 62.55 302.01 64.44 L 302.09 60.74 C 302.77 60.74 304.13 60.74 304.82 60.73 C 308.96 58.03 313.00 54.66 314.65 49.82 C 318.37 40.99 313.96 29.82 305.28 25.83 C 296.90 21.64 285.63 24.77 281.01 33.04 C 276.71 40.03 277.56 49.79 283.16 55.83 C 285.84 58.94 289.71 60.50 293.29 62.30 C 293.13 67.61 293.74 72.91 293.54 78.22 C 288.34 74.15 289.95 66.77 286.20 61.86 C 284.18 62.81 281.12 63.30 280.77 65.99 C 280.71 71.41 282.61 76.64 283.90 81.85 L 283.86 81.85 C 283.52 81.39 282.85 80.47 282.51 80.01 C 278.62 79.36 274.65 80.03 270.74 80.03 C 251.53 79.69 232.31 79.68 213.11 80.05 C 183.80 79.92 154.50 79.51 125.20 80.11 C 113.72 79.40 102.23 80.00 90.74 80.01 C 88.83 80.01 86.91 80.00 85.00 79.99 C 84.99 72.24 85.00 64.48 85.00 56.72 C 85.00 44.48 85.00 32.24 85.00 20.00 M 112.25 41.36 C 104.06 43.20 103.26 57.34 111.67 59.49 C 114.98 60.44 120.36 59.98 121.26 55.92 C 117.68 56.28 113.39 58.41 110.24 55.78 C 107.97 52.50 108.05 47.07 111.37 44.47 C 114.55 43.07 118.03 44.58 121.30 44.90 C 120.24 41.05 115.57 40.38 112.25 41.36 M 124.07 57.89 C 126.44 61.04 131.22 60.29 133.84 57.89 C 133.13 55.26 129.79 57.33 127.95 57.02 C 125.61 57.54 125.37 54.92 125.02 53.32 C 128.09 53.14 131.16 52.99 134.24 52.86 C 133.74 50.05 132.56 46.11 129.07 46.06 C 122.91 45.01 120.05 54.01 124.07 57.89 M 135.53 46.52 C 135.12 50.89 135.14 55.28 135.30 59.67 C 135.95 59.73 137.25 59.85 137.90 59.92 C 138.01 56.80 137.76 53.62 138.55 50.58 C 140.15 49.17 142.31 48.63 144.19 47.69 C 141.92 45.29 138.41 46.48 135.53 46.52 M 148.25 46.36 C 142.43 47.99 142.49 57.99 148.23 59.70 C 150.15 60.40 152.09 59.41 153.94 58.96 C 154.00 58.30 154.10 56.98 154.15 56.32 C 152.45 56.65 150.75 57.04 149.02 57.10 C 146.25 56.14 146.69 52.47 147.27 50.22 C 148.73 47.98 152.06 49.49 154.31 49.03 C 153.78 46.31 150.57 45.45 148.25 46.36 M 155.78 49.55 C 158.11 49.39 160.44 49.19 162.78 49.03 C 162.76 49.65 162.72 50.89 162.70 51.51 C 159.90 52.30 155.81 52.55 155.12 56.07 C 155.46 60.55 160.96 60.25 164.14 59.24 C 166.36 58.58 165.68 55.75 165.83 54.02 C 165.63 51.32 165.62 47.68 162.77 46.33 C 160.00 45.23 156.87 46.89 155.78 49.55 Z" />
<path fill="#ffffff" opacity="1.00" d=" M 297.05 25.12 C 304.78 24.89 312.02 30.54 314.18 37.87 C 315.68 43.15 314.76 49.14 311.41 53.54 C 309.57 56.10 306.88 57.83 304.32 59.58 C 302.16 58.62 301.60 56.56 302.24 54.34 C 304.06 52.12 306.63 50.34 307.45 47.45 C 308.08 44.06 308.06 40.17 305.77 37.36 C 302.13 32.08 293.55 31.45 289.30 36.31 C 284.56 40.89 285.42 49.88 291.30 53.11 C 289.49 50.33 286.86 47.65 287.21 44.04 C 286.87 36.94 295.59 31.69 301.73 35.35 C 308.50 38.57 308.81 49.62 301.69 52.66 C 301.62 49.39 302.19 45.98 301.23 42.80 C 299.78 38.79 292.47 39.48 292.24 43.89 C 292.06 48.89 292.54 53.89 292.80 58.89 C 292.16 59.39 291.53 59.89 290.91 60.40 C 287.92 57.95 284.16 56.26 282.22 52.72 C 278.49 47.25 278.32 39.61 281.76 33.96 C 284.77 28.56 290.84 24.96 297.05 25.12 Z" />
<path fill="#ffffff" opacity="1.00" d=" M 39.31 30.12 C 45.30 26.40 53.52 26.40 59.03 31.01 C 63.40 34.24 65.34 39.71 65.37 44.99 C 64.71 48.31 63.27 51.40 61.69 54.37 C 67.60 57.36 71.40 63.02 76.26 67.33 C 75.09 68.64 73.93 69.95 72.77 71.27 C 69.50 68.55 66.57 65.49 63.54 62.52 C 61.77 60.90 60.33 58.96 59.20 56.85 C 55.75 58.70 51.96 60.26 47.96 59.95 C 41.35 59.83 35.09 55.23 33.08 48.92 C 30.73 42.17 33.60 34.27 39.31 30.12 M 43.83 33.26 C 40.43 35.77 37.42 39.55 37.71 44.01 C 37.54 49.03 41.31 53.31 45.97 54.71 L 45.54 55.07 C 51.10 56.01 57.00 53.12 59.28 47.90 C 59.57 45.99 59.73 44.08 59.94 42.16 C 59.10 39.07 57.57 35.91 54.70 34.23 C 51.51 31.98 47.42 32.84 43.83 33.26 Z" />
</g>
<g id="#366070ff">
<path fill="#366070" opacity="1.00" d=" M 281.01 33.04 C 285.63 24.77 296.90 21.64 305.28 25.83 C 313.96 29.82 318.37 40.99 314.65 49.82 C 313.00 54.66 308.96 58.03 304.82 60.73 C 304.13 60.74 302.77 60.74 302.09 60.74 L 302.01 64.44 C 304.19 62.55 307.00 60.93 310.00 61.77 C 312.43 62.57 312.81 65.32 313.52 67.41 C 315.42 66.15 317.57 64.88 319.93 65.70 C 322.53 66.17 322.73 69.31 323.56 71.31 C 326.28 69.15 330.60 70.42 331.22 73.98 C 332.33 81.44 331.48 89.06 330.16 96.45 L 330.11 96.69 C 329.49 101.03 328.18 105.58 324.51 108.33 C 320.39 112.32 314.30 111.92 309.02 111.70 C 305.42 111.73 302.74 109.03 299.95 107.14 C 291.64 101.47 286.58 92.13 284.09 82.58 L 283.90 81.85 C 282.61 76.64 280.71 71.41 280.77 65.99 C 281.12 63.30 284.18 62.81 286.20 61.86 C 289.95 66.77 288.34 74.15 293.54 78.22 C 293.74 72.91 293.13 67.61 293.29 62.30 C 289.71 60.50 285.84 58.94 283.16 55.83 C 277.56 49.79 276.71 40.03 281.01 33.04 M 297.05 25.12 C 290.84 24.96 284.77 28.56 281.76 33.96 C 278.32 39.61 278.49 47.25 282.22 52.72 C 284.16 56.26 287.92 57.95 290.91 60.40 C 291.53 59.89 292.16 59.39 292.80 58.89 C 292.54 53.89 292.06 48.89 292.24 43.89 C 292.47 39.48 299.78 38.79 301.23 42.80 C 302.19 45.98 301.62 49.39 301.69 52.66 C 308.81 49.62 308.50 38.57 301.73 35.35 C 295.59 31.69 286.87 36.94 287.21 44.04 C 286.86 47.65 289.49 50.33 291.30 53.11 C 285.42 49.88 284.56 40.89 289.30 36.31 C 293.55 31.45 302.13 32.08 305.77 37.36 C 308.06 40.17 308.08 44.06 307.45 47.45 C 306.63 50.34 304.06 52.12 302.24 54.34 C 301.60 56.56 302.16 58.62 304.32 59.58 C 306.88 57.83 309.57 56.10 311.41 53.54 C 314.76 49.14 315.68 43.15 314.18 37.87 C 312.02 30.54 304.78 24.89 297.05 25.12 Z" />
</g>
<g id="#fc9833ff">
<path fill="#fc9833" opacity="1.00" d=" M 19.59 30.95 C 22.05 34.53 23.80 38.51 25.70 42.40 C 27.80 46.74 30.93 50.46 33.36 54.60 C 34.15 56.13 35.17 57.82 34.79 59.62 C 32.49 61.69 29.71 63.09 27.07 64.67 C 24.00 66.44 20.99 68.31 17.97 70.18 C 17.65 70.03 17.00 69.71 16.68 69.56 C 16.92 66.25 16.99 62.93 16.86 59.61 C 16.47 51.12 18.30 42.73 18.12 34.24 C 18.59 33.13 19.08 32.04 19.59 30.95 Z" />
</g>
<g id="#fb8d36ff">
<path fill="#fb8d36" opacity="1.00" d=" M 0.00 31.31 C 4.29 35.70 5.75 41.84 9.16 46.82 C 11.97 50.95 12.90 56.28 16.86 59.61 C 16.99 62.93 16.92 66.25 16.68 69.56 C 10.95 66.48 5.48 62.96 0.00 59.48 L 0.00 31.31 Z" />
</g>
<g id="#e6e6e6ff">
<path fill="#e6e6e6" opacity="1.00" d=" M 112.25 41.36 C 115.57 40.38 120.24 41.05 121.30 44.90 C 118.03 44.58 114.55 43.07 111.37 44.47 C 108.05 47.07 107.97 52.50 110.24 55.78 C 113.39 58.41 117.68 56.28 121.26 55.92 C 120.36 59.98 114.98 60.44 111.67 59.49 C 103.26 57.34 104.06 43.20 112.25 41.36 Z" />
<path fill="#e6e6e6" opacity="1.00" d=" M 124.07 57.89 C 120.05 54.01 122.91 45.01 129.07 46.06 C 132.56 46.11 133.74 50.05 134.24 52.86 C 131.16 52.99 128.09 53.14 125.02 53.32 C 125.37 54.92 125.61 57.54 127.95 57.02 C 129.79 57.33 133.13 55.26 133.84 57.89 C 131.22 60.29 126.44 61.04 124.07 57.89 M 124.89 50.76 C 127.02 50.92 129.16 50.97 131.30 50.92 C 130.02 47.99 126.56 48.51 124.89 50.76 Z" />
<path fill="#e6e6e6" opacity="1.00" d=" M 135.53 46.52 C 138.41 46.48 141.92 45.29 144.19 47.69 C 142.31 48.63 140.15 49.17 138.55 50.58 C 137.76 53.62 138.01 56.80 137.90 59.92 C 137.25 59.85 135.95 59.73 135.30 59.67 C 135.14 55.28 135.12 50.89 135.53 46.52 Z" />
<path fill="#e6e6e6" opacity="1.00" d=" M 148.25 46.36 C 150.57 45.45 153.78 46.31 154.31 49.03 C 152.06 49.49 148.73 47.98 147.27 50.22 C 146.69 52.47 146.25 56.14 149.02 57.10 C 150.75 57.04 152.45 56.65 154.15 56.32 C 154.10 56.98 154.00 58.30 153.94 58.96 C 152.09 59.41 150.15 60.40 148.23 59.70 C 142.49 57.99 142.43 47.99 148.25 46.36 Z" />
<path fill="#e6e6e6" opacity="1.00" d=" M 155.78 49.55 C 156.87 46.89 160.00 45.23 162.77 46.33 C 165.62 47.68 165.63 51.32 165.83 54.02 C 165.68 55.75 166.36 58.58 164.14 59.24 C 160.96 60.25 155.46 60.55 155.12 56.07 C 155.81 52.55 159.90 52.30 162.70 51.51 C 162.72 50.89 162.76 49.65 162.78 49.03 C 160.44 49.19 158.11 49.39 155.78 49.55 M 157.57 55.83 C 157.98 56.36 158.80 57.41 159.21 57.93 C 161.12 57.18 162.98 56.12 163.31 53.88 C 161.23 53.99 159.29 54.69 157.57 55.83 Z" />
</g>
<g id="#fb8f35ff">
<path fill="#fb8f35" opacity="1.00" d=" M 65.37 44.99 C 71.68 49.28 78.51 52.72 85.00 56.72 C 85.00 64.48 84.99 72.24 85.00 79.99 C 86.91 80.00 88.83 80.01 90.74 80.01 C 88.50 81.93 85.98 83.48 83.31 84.75 C 78.68 81.18 75.88 76.07 72.77 71.27 C 73.93 69.95 75.09 68.64 76.26 67.33 C 71.40 63.02 67.60 57.36 61.69 54.37 C 63.27 51.40 64.71 48.31 65.37 44.99 Z" />
</g>
<g id="#fc9a34ff">
<path fill="#fc9a34" opacity="1.00" d=" M 45.97 54.71 C 49.76 51.22 54.30 48.75 58.78 46.29 C 58.91 46.69 59.15 47.49 59.28 47.90 C 57.00 53.12 51.10 56.01 45.54 55.07 L 45.97 54.71 Z" />
<path fill="#fc9a34" opacity="1.00" d=" M 356.99 58.41 C 364.14 62.17 370.79 66.84 378.03 70.45 C 377.06 70.85 376.08 71.22 375.12 71.62 C 369.14 74.52 363.54 78.14 357.87 81.60 C 356.68 80.78 356.27 79.47 356.35 78.08 C 356.26 71.52 355.50 64.87 356.99 58.41 Z" />
</g>
<g id="#fdfdfdff">
<path fill="#fdfdfd" opacity="1.00" d=" M 124.89 50.76 C 126.56 48.51 130.02 47.99 131.30 50.92 C 129.16 50.97 127.02 50.92 124.89 50.76 Z" />
</g>
<g id="#dd4b59ff">
<path fill="#dd4b59" opacity="1.00" d=" M 397.25 59.61 C 401.08 57.25 405.11 55.24 409.00 52.96 L 409.00 80.48 C 404.34 73.94 402.40 65.88 397.25 59.61 Z" />
</g>
<g id="#fcfcfcff">
<path fill="#fcfcfc" opacity="1.00" d=" M 157.57 55.83 C 159.29 54.69 161.23 53.99 163.31 53.88 C 162.98 56.12 161.12 57.18 159.21 57.93 C 158.80 57.41 157.98 56.36 157.57 55.83 Z" />
</g>
<g id="#fa7c37ff">
<path fill="#fa7c37" opacity="1.00" d=" M 355.01 57.37 C 355.50 57.63 356.49 58.15 356.99 58.41 C 355.50 64.87 356.26 71.52 356.35 78.08 C 356.27 79.47 356.68 80.78 357.87 81.60 C 351.70 85.57 345.16 88.89 338.87 92.65 C 336.32 94.15 333.84 95.76 331.27 97.24 C 330.98 97.10 330.40 96.83 330.11 96.69 L 330.16 96.45 C 331.70 91.03 332.18 85.39 332.01 79.77 C 339.67 79.76 347.33 79.77 354.98 79.78 C 355.01 72.31 354.99 64.84 355.01 57.37 Z" />
<path fill="#fa7c37" opacity="1.00" d=" M 17.97 70.18 C 20.99 68.31 24.00 66.44 27.07 64.67 C 29.97 70.14 34.24 75.13 35.10 81.45 C 29.28 78.11 23.59 74.55 17.76 71.23 C 17.82 70.97 17.92 70.44 17.97 70.18 Z" />
<path fill="#fa7c37" opacity="1.00" d=" M 242.04 81.93 C 248.36 81.80 254.68 81.51 261.00 81.67 C 262.78 81.58 264.28 82.58 265.79 83.37 C 259.95 86.55 254.27 90.01 248.43 93.17 C 245.94 94.40 243.46 95.62 241.01 96.91 C 240.42 96.52 239.84 96.14 239.26 95.76 C 243.38 92.37 241.74 86.57 242.04 81.93 Z" />
</g>
<g id="#00a69fff">
<path fill="#00a69f" opacity="1.00" d=" M 0.00 59.48 C 5.48 62.96 10.95 66.48 16.68 69.56 C 17.00 69.71 17.65 70.03 17.97 70.18 C 17.92 70.44 17.82 70.97 17.76 71.23 C 17.37 81.15 17.64 91.08 17.91 101.00 C 11.94 101.01 5.97 100.98 0.00 100.96 L 0.00 59.48 Z" />
<path fill="#00a69f" opacity="1.00" d=" M 285.47 88.60 C 287.31 93.04 289.77 97.20 292.66 101.03 C 290.14 101.01 287.61 101.00 285.09 101.00 C 284.97 96.86 285.09 92.72 285.47 88.60 Z" />
</g>
<g id="#ea5250ff">
<path fill="#ea5250" opacity="1.00" d=" M 378.03 70.45 C 384.61 67.17 390.81 63.18 397.25 59.61 C 402.40 65.88 404.34 73.94 409.00 80.48 L 409.00 89.37 C 401.04 84.89 393.18 80.25 385.33 75.59 C 382.13 73.85 379.12 70.24 375.12 71.62 C 376.08 71.22 377.06 70.85 378.03 70.45 Z" />
</g>
<g id="#6a58b3ff">
<path fill="#6a58b3" opacity="1.00" d=" M 357.87 81.60 C 363.54 78.14 369.14 74.52 375.12 71.62 C 379.12 70.24 382.13 73.85 385.33 75.59 C 393.18 80.25 401.04 84.89 409.00 89.37 L 409.00 101.00 C 387.12 101.00 365.24 101.01 343.35 100.99 C 342.10 98.09 340.61 95.29 338.87 92.65 C 345.16 88.89 351.70 85.57 357.87 81.60 Z" />
</g>
<g id="#d47235ff">
<path fill="#d47235" opacity="1.00" d=" M 213.11 80.05 C 232.31 79.68 251.53 79.69 270.74 80.03 C 270.19 80.44 269.09 81.26 268.54 81.66 C 267.64 82.26 266.71 82.82 265.79 83.37 C 264.28 82.58 262.78 81.58 261.00 81.67 C 254.68 81.51 248.36 81.80 242.04 81.93 C 235.05 82.18 228.05 81.87 221.06 82.12 C 220.97 82.79 220.79 84.14 220.70 84.81 C 218.09 83.35 215.55 81.77 213.11 80.05 Z" />
</g>
<g id="#5e4c9bff">
<path fill="#5e4c9b" opacity="1.00" d=" M 270.74 80.03 C 274.65 80.03 278.62 79.36 282.51 80.01 C 282.85 80.47 283.52 81.39 283.86 81.85 C 278.76 82.07 273.64 82.16 268.54 81.66 C 269.09 81.26 270.19 80.44 270.74 80.03 Z" />
</g>
<g id="#00afa9ff">
<path fill="#00afa9" opacity="1.00" d=" M 125.97 80.26 C 149.48 80.29 173.00 79.92 196.51 80.44 C 196.60 87.30 196.56 94.15 196.54 101.00 C 184.52 101.00 172.52 101.01 160.51 100.99 C 157.47 99.13 154.35 97.41 151.22 95.71 C 146.39 92.99 141.80 89.84 136.74 87.54 C 132.93 85.47 128.89 83.57 125.97 80.26 Z" />
</g>
<g id="#5b4b9aff">
<path fill="#5b4b9a" opacity="1.00" d=" M 241.01 96.91 C 243.46 95.62 245.94 94.40 248.43 93.17 C 249.87 95.73 251.23 98.33 252.47 100.99 C 248.66 100.96 244.86 100.89 241.06 100.96 C 241.04 99.61 241.02 98.26 241.01 96.91 Z" />
</g>
<g id="#fb8b37ff">
<path fill="#fb8b37" opacity="1.00" d=" M 142.55 100.95 C 145.51 99.33 148.34 97.48 151.22 95.71 C 154.35 97.41 157.47 99.13 160.51 100.99 C 154.52 101.01 148.53 101.02 142.55 100.95 Z" />
</g>
<g id="#08a9a7ff">
<path fill="#08a9a7" opacity="1.00" d=" M 330.11 96.69 C 330.40 96.83 330.98 97.10 331.27 97.24 C 333.32 98.40 335.28 99.70 337.24 101.00 C 334.67 101.00 332.10 101.00 329.54 101.02 C 329.73 99.58 329.92 98.13 330.11 96.69 Z" />
</g>
</svg>
